<svg xmlns="http://www.w3.org/2000/svg" width="84.999" height="80.685" viewBox="0 0 84.999 80.685">
  <g id="Grupo_874492" data-name="Grupo 874492" transform="translate(-1020 -2321.705)">
    <g id="Grupo_874261" data-name="Grupo 874261" transform="translate(2.206 6.067)">
      <path id="Trazado_594300" data-name="Trazado 594300" d="M119.42,117.937S118.032,80.212,117.68,70.2a11.283,11.283,0,0,0-2.883-7.607,12.94,12.94,0,0,1,.971,4.657c.351,10.012,1.739,47.738,1.739,47.738s2.051,14.35-14.1,12.61S49,120.052,49,120.052l-6.283-.934a12.033,12.033,0,0,1-5.556-3.2c2.02,4.978,7.469,6.152,7.469,6.152l6.283.934s38.248,5.805,54.4,7.545,14.1-12.61,14.1-12.61" transform="translate(983.289 2265.628)" fill="#ffeeb0"/>
      <path id="serpentina-profesional-joven-bella-mujer-transmision-vivo-corriente_236999-23" d="M37.2,29.342,42.17,14.36A10.355,10.355,0,0,1,53.365,8.583l44.2,6.129A10.908,10.908,0,0,1,107,25.693c.351,10.012,1.739,47.738,1.739,47.738s2.051,14.35-14.1,12.61-54.4-7.545-54.4-7.545l-6.283-.934S22.993,75.2,26.394,62.985,37.2,29.342,37.2,29.342" transform="translate(992.055 2307.184)" fill="#ea3584"/>
    </g>
    <path id="Trazado_594509" data-name="Trazado 594509" d="M-2.109-13.228q0,6.636-2.747,10.151T-12.9.439q-5.229,0-8-3.45T-23.73-12.9v-5.889q0-6.7,2.78-10.173t8.009-3.472q5.229,0,8,3.439t2.834,9.877ZM-8.459-19.7q0-3.981-1.088-5.8a3.676,3.676,0,0,0-3.395-1.814,3.61,3.61,0,0,0-3.307,1.727,10.964,10.964,0,0,0-1.132,5.4V-12.4a12.3,12.3,0,0,0,1.066,5.817A3.627,3.627,0,0,0-12.9-4.68,3.566,3.566,0,0,0-9.536-6.506a12,12,0,0,0,1.077-5.587Zm17.095.893h3.384A4.768,4.768,0,0,0,15.6-20.017a4.428,4.428,0,0,0,1.165-3.208,3.916,3.916,0,0,0-1.154-3.01,4.471,4.471,0,0,0-3.175-1.077,4.686,4.686,0,0,0-3.054,1,3.2,3.2,0,0,0-1.23,2.6H1.8A7.809,7.809,0,0,1,3.153-28.2a9,9,0,0,1,3.779-3.109,12.613,12.613,0,0,1,5.35-1.121q5.076,0,7.954,2.428a8.284,8.284,0,0,1,2.878,6.691,6.732,6.732,0,0,1-1.34,4.043,8.708,8.708,0,0,1-3.516,2.834,7.949,7.949,0,0,1,4.032,2.9,7.868,7.868,0,0,1,1.329,4.57,8.421,8.421,0,0,1-3.109,6.833A12.5,12.5,0,0,1,12.283.439,11.853,11.853,0,0,1,4.449-2.087a8.252,8.252,0,0,1-3.043-6.68h6.35A3.679,3.679,0,0,0,9.108-5.823,4.98,4.98,0,0,0,12.437-4.68a5,5,0,0,0,3.549-1.2,4.134,4.134,0,0,0,1.285-3.175q0-4.79-5.273-4.79H8.635Z" transform="translate(1066 2377)" fill="#fff"/>
  </g>
</svg>
