<svg xmlns="http://www.w3.org/2000/svg" width="1240" height="384" viewBox="0 0 1240 384">
  <g id="Grupo_874490" data-name="Grupo 874490" transform="translate(-180 -3044)">
    <g id="Rectángulo_33758" data-name="Rectángulo 33758" transform="translate(180 3044)" fill="#ffeeb0" stroke="#707070" stroke-width="1" opacity="0.15">
      <rect width="1240" height="384" rx="15" stroke="none"/>
      <rect x="0.5" y="0.5" width="1239" height="383" rx="14.5" fill="none"/>
    </g>
    <path id="Trazado_594488" data-name="Trazado 594488" d="M354.747,507.538a151.193,151.193,0,0,1-9.369,24.7H0V238.956a49.817,49.817,0,0,1,24.756-.3c19.948,5.02,35.713,20.658,46.392,38.192s17.183,37.214,25.39,56.025,18.626,37.422,34.954,49.9c29.942,22.884,71.447,20.022,109.142,18.587s80.956,2.253,103.771,32.211C360.05,454.118,361.619,482.668,354.747,507.538Z" transform="translate(712.239 3044.434) rotate(90)" fill="#ffeeb0"/>
    <path id="Trazado_594489" data-name="Trazado 594489" d="M836.211,0V142.07c-14.783,5.685-31.433,5.833-45.223-1.845C759.182,122.5,753.2,73.738,719.37,60.238c-22.048-8.8-46.547,1.31-68.933,9.222s-50.248,12.606-67.43-3.742C571.954,55.2,568.91,38.907,567.945,23.7c-.5-7.854-.629-15.864-1.5-23.7Z" transform="translate(1420.001 2591.789) rotate(90)" fill="#ffeeb0"/>
  </g>
</svg>
