<svg xmlns="http://www.w3.org/2000/svg" width="505" height="337.737" viewBox="0 0 505 337.737">
  <g id="Grupo_874484" data-name="Grupo 874484" transform="translate(-810 -3067.13)">
    <g id="Grupo_874480" data-name="Grupo 874480" transform="translate(861.49 2967.158)">
      <g id="Background_Complete" data-name="Background Complete" transform="translate(-4.288 99.972)">
        <g id="Grupo_70455" data-name="Grupo 70455" transform="translate(2.746)">
          <rect id="Rectángulo_7913" data-name="Rectángulo 7913" width="455.052" height="0.239" transform="translate(0 284.415)" fill="#ebebeb"/>
          <rect id="Rectángulo_7914" data-name="Rectángulo 7914" width="31.685" height="0.239" transform="translate(375.442 299.813)" fill="#ebebeb"/>
          <rect id="Rectángulo_7915" data-name="Rectángulo 7915" width="8.316" height="0.239" transform="translate(293.268 302.408)" fill="#ebebeb"/>
          <rect id="Rectángulo_7916" data-name="Rectángulo 7916" width="18.36" height="0.239" transform="translate(360.198 290.929)" fill="#ebebeb"/>
          <rect id="Rectángulo_7917" data-name="Rectángulo 7917" width="41.319" height="0.239" transform="translate(50.183 292.537)" fill="#ebebeb"/>
          <rect id="Rectángulo_7918" data-name="Rectángulo 7918" width="6.058" height="0.239" transform="translate(95.094 292.537)" fill="#ebebeb"/>
          <rect id="Rectángulo_7919" data-name="Rectángulo 7919" width="89.612" height="0.239" transform="translate(118.243 296.576)" fill="#ebebeb"/>
          <path id="Trazado_129494" data-name="Trazado 129494" d="M228.389,325.529H43.667a5.467,5.467,0,0,1-5.46-5.46V60.412a5.466,5.466,0,0,1,5.46-5.459H228.389a5.466,5.466,0,0,1,5.459,5.459V320.068A5.467,5.467,0,0,1,228.389,325.529ZM43.667,55.192a5.226,5.226,0,0,0-5.221,5.22V320.068a5.227,5.227,0,0,0,5.221,5.221H228.389a5.226,5.226,0,0,0,5.22-5.221V60.412a5.226,5.226,0,0,0-5.22-5.22Z" transform="translate(-1.658 -54.953)" fill="#ebebeb"/>
          <path id="Trazado_129495" data-name="Trazado 129495" d="M444.685,325.529H259.964a5.466,5.466,0,0,1-5.459-5.46V60.412a5.465,5.465,0,0,1,5.459-5.459h184.72a5.466,5.466,0,0,1,5.461,5.459V320.068A5.467,5.467,0,0,1,444.685,325.529ZM259.964,55.192a5.226,5.226,0,0,0-5.22,5.22V320.068a5.226,5.226,0,0,0,5.22,5.221h184.72a5.227,5.227,0,0,0,5.222-5.221V60.412a5.227,5.227,0,0,0-5.222-5.22Z" transform="translate(-34.297 -54.953)" fill="#ebebeb"/>
        </g>
        <g id="Grupo_70460" data-name="Grupo 70460" transform="translate(0 75.443)">
          <circle id="Elipse_5272" data-name="Elipse 5272" cx="19.428" cy="19.428" r="19.428" transform="translate(107.573)" fill="#fafafa"/>
          <path id="Trazado_129497" data-name="Trazado 129497" d="M140.813,115.226a8.429,8.429,0,0,0-10.856-8.078,18.055,18.055,0,0,0,.189-2.59,17.85,17.85,0,0,0-21.152-17.553A15.61,15.61,0,0,0,80.048,94.9c-.087,0-.172-.012-.259-.012a14.388,14.388,0,1,0,0,28.776h52.839l-.011-.012A8.428,8.428,0,0,0,140.813,115.226Z" transform="translate(-65.4 -66.845)" fill="#fff"/>
          <path id="Trazado_129498" data-name="Trazado 129498" d="M436.435,101.2a5.383,5.383,0,0,0-6.932-5.157,11.4,11.4,0,0,0-13.383-12.861,9.967,9.967,0,0,0-18.483,5.038c-.055,0-.11-.008-.165-.008a9.186,9.186,0,1,0,0,18.373h33.736l-.007-.008A5.382,5.382,0,0,0,436.435,101.2Z" transform="translate(-37.356 -66.796)" fill="#fff"/>
          <path id="Trazado_129499" data-name="Trazado 129499" d="M272.781,157.78a3.3,3.3,0,0,0-4.246-3.159,6.981,6.981,0,0,0-6.912-8,7.041,7.041,0,0,0-1.287.121,6.105,6.105,0,0,0-11.322,3.087c-.034,0-.068-.006-.1-.006a5.628,5.628,0,0,0,0,11.256h20.667l0,0A3.3,3.3,0,0,0,272.781,157.78Z" transform="translate(-21.749 -69.634)" fill="#f0f0f0"/>
          <path id="Trazado_129500" data-name="Trazado 129500" d="M142.836,81.922a3.3,3.3,0,0,1,4.246-3.16,6.981,6.981,0,0,1,8.2-7.878A6.1,6.1,0,0,1,166.6,73.971c.034,0,.068,0,.1,0a5.627,5.627,0,0,1,0,11.255H146.038l0,0A3.3,3.3,0,0,1,142.836,81.922Z" transform="translate(-11.703 -66.343)" fill="#f0f0f0"/>
        </g>
      </g>
      <g id="Shadow" transform="translate(-51.49 405.926)">
        <ellipse id="_Path_" data-name="&lt;Path&gt;" cx="237.29" cy="10.832" rx="237.29" ry="10.832" fill="#d8d9bc"/>
      </g>
      <g id="Character_2" data-name="Character 2" transform="translate(245.825 106.661)">
        <g id="_Group_" data-name="&lt;Group&gt;">
          <g id="Grupo_70470" data-name="Grupo 70470" transform="translate(13.281 35.673)">
            <path id="Trazado_129522" data-name="Trazado 129522" d="M297.109,132.634a.932.932,0,0,0-.821-.8l-22.495-2.466c-.282-.031-1.371.664-1.323,1.048l2.615,21.211a.933.933,0,0,0,.853.815l22.775,1.776c.275.021,1.357-.681,1.3-1.061Z" transform="translate(-272.469 -129.368)" fill="#263238"/>
            <path id="Trazado_129523" data-name="Trazado 129523" d="M273.824,129.372l22.495,2.466a.933.933,0,0,1,.821.8l2.908,20.528a.6.6,0,0,1-.641.682l-22.775-1.775a.931.931,0,0,1-.852-.815l-2.616-21.211A.6.6,0,0,1,273.824,129.372Z" transform="translate(-272.499 -129.368)" fill="#fff" opacity="0.2" style="isolation: isolate"/>
            <path id="Trazado_129524" data-name="Trazado 129524" d="M276.752,151.16l-2.539-20.745,22.048,2.42,2.824,20.066Z" transform="translate(-272.545 -129.414)" fill="#407bff"/>
            <path id="Trazado_129525" data-name="Trazado 129525" d="M276.752,151.16l-2.539-20.745,22.048,2.42,2.824,20.066Z" transform="translate(-272.545 -129.414)" fill="#fff" opacity="0.6" style="isolation: isolate"/>
            <path id="Trazado_129526" data-name="Trazado 129526" d="M280.6,134.435a2.177,2.177,0,1,1-2.594-2.175A2.421,2.421,0,0,1,280.6,134.435Z" transform="translate(-272.638 -129.492)" opacity="0.2" style="isolation: isolate"/>
            <g id="Grupo_70468" data-name="Grupo 70468" transform="translate(4.597 9.214)">
              <path id="Trazado_129527" data-name="Trazado 129527" d="M284.956,145.536l6.018.595-.679-5.757-6.094-.643Z" transform="translate(-277.575 -139.032)" opacity="0.2" style="isolation: isolate"/>
              <path id="Trazado_129528" data-name="Trazado 129528" d="M291.113,147.277l-6.01-.614.605,4.654,5.937.467Z" transform="translate(-277.614 -139.332)" opacity="0.2" style="isolation: isolate"/>
              <path id="Trazado_129529" data-name="Trazado 129529" d="M292.18,147.386l.584,4.493,5.687.447-.678-4.368Z" transform="translate(-277.921 -139.364)" opacity="0.2" style="isolation: isolate"/>
              <path id="Trazado_129530" data-name="Trazado 129530" d="M292.031,146.238l5.569.551-.89-5.737-5.428-.573Z" transform="translate(-277.882 -139.064)" opacity="0.2" style="isolation: isolate"/>
              <path id="Trazado_129531" data-name="Trazado 129531" d="M284.037,146.553l-5.987-.612.536,4.808,6,.472Z" transform="translate(-277.308 -139.301)" opacity="0.2" style="isolation: isolate"/>
              <path id="Trazado_129532" data-name="Trazado 129532" d="M283.906,145.43l-.685-5.8L277.275,139l.652,5.839Z" transform="translate(-277.275 -139)" opacity="0.2" style="isolation: isolate"/>
            </g>
            <g id="Grupo_70469" data-name="Grupo 70469" transform="translate(9.769 5.051)">
              <path id="Trazado_129533" data-name="Trazado 129533" d="M292.222,137.173l3.084.394-.334-1.435-3.031-.366Z" transform="translate(-283.083 -134.697)" opacity="0.2" style="isolation: isolate"/>
              <path id="Trazado_129534" data-name="Trazado 129534" d="M286.106,135.062l-3.425-.413.189,1.333,3.441.439Z" transform="translate(-282.681 -134.648)" opacity="0.2" style="isolation: isolate"/>
              <path id="Trazado_129535" data-name="Trazado 129535" d="M287.5,136.571l3.351.428L290.6,135.6l-3.261-.394Z" transform="translate(-282.884 -134.673)" opacity="0.2" style="isolation: isolate"/>
            </g>
          </g>
          <path id="Trazado_129536" data-name="Trazado 129536" d="M309.049,145.735s-7.973-4.482-9.161-5.376-11.781-1.025-11.591,0,4.162,7.409,5.108,8,7.3,0,7.3,0l7.265,2.92Z" transform="translate(-259.875 -94.14)" fill="#eec1bb"/>
          <g id="Grupo_70471" data-name="Grupo 70471" transform="translate(45.016 50.573)">
            <path id="Trazado_129537" data-name="Trazado 129537" d="M350.171,145.218c6.786,3.256,3.214,31.138-12.681,37.514s-31.846-18.757-31.846-18.757l4.976-12.967s14.57,12.033,20.247,9.267S345.064,142.768,350.171,145.218Z" transform="translate(-305.644 -144.944)" fill="#263238"/>
            <path id="Trazado_129538" data-name="Trazado 129538" d="M350.171,145.218c6.786,3.256,3.214,31.138-12.681,37.514s-31.846-18.757-31.846-18.757l4.976-12.967s14.57,12.033,20.247,9.267S345.064,142.768,350.171,145.218Z" transform="translate(-305.644 -144.944)" fill="#fff" opacity="0.1" style="isolation: isolate"/>
          </g>
          <path id="Trazado_129539" data-name="Trazado 129539" d="M307.11,401.784l-8.713.913-.441-5.05-1.192-13.742,8.713-.924,1.321,15.182Z" transform="translate(-260.242 -104.698)" fill="#eec1bb"/>
          <path id="Trazado_129540" data-name="Trazado 129540" d="M352.629,400.6h-8.445l-.075-1.912-.011-.236-.43-12.248-.011-.247-.172-4.7h8.456Z" transform="translate(-262.269 -104.623)" fill="#eec1bb"/>
          <path id="Trazado_129541" data-name="Trazado 129541" d="M305.477,382.982l1.321,15.182-8.842-.516-1.192-13.742Z" transform="translate(-260.242 -104.698)" opacity="0.2" style="isolation: isolate"/>
          <path id="Trazado_129542" data-name="Trazado 129542" d="M352.584,399.772h-.011l-8.455-1.074h-.011l-.441-11.819h.011l8.466.677.43,11.846Z" transform="translate(-262.277 -104.867)" opacity="0.2" style="isolation: isolate"/>
          <path id="Trazado_129543" data-name="Trazado 129543" d="M342.281,400.949h10.261a.742.742,0,0,1,.72.58l1.665,7.521a1.246,1.246,0,0,1-.96,1.477,1.265,1.265,0,0,1-.275.028c-3.32-.054-5.738-.258-9.906-.258-2.568,0-10.315.269-13.86.269s-4.007-3.5-2.557-3.825c6.511-1.419,11.411-3.385,13.5-5.255A2.041,2.041,0,0,1,342.281,400.949Z" transform="translate(-261.537 -105.477)" fill="#407bff"/>
          <path id="Trazado_129544" data-name="Trazado 129544" d="M296.794,400.668h10.261a.741.741,0,0,1,.719.58l1.665,7.522a1.247,1.247,0,0,1-.961,1.477,1.27,1.27,0,0,1-.275.027c-3.319-.054-5.737-.258-9.906-.258-2.568,0-10.314.269-13.86.269s-4.007-3.5-2.557-3.825c6.512-1.419,11.41-3.384,13.495-5.254A2.041,2.041,0,0,1,296.794,400.668Z" transform="translate(-259.563 -105.465)" fill="#407bff"/>
          <path id="Trazado_129545" data-name="Trazado 129545" d="M295.754,389.211h12.387s-1.009-92.238,12.388-128.252c.946,11.905,2.01,24.258,3.052,34.551.655,6.371,1.3,8.829,1.912,13,3.9,26.861,13.742,81.778,13.742,81.778h12.238s-1.45-52.147-2.9-78.546c-1.6-28.654-2.288-88.628-2.352-94H301.394C297.129,240.3,286.192,316.151,295.754,389.211Z" transform="translate(-260.033 -97.529)" fill="#263238"/>
          <g id="Grupo_70472" data-name="Grupo 70472" transform="translate(56.893)">
            <path id="Trazado_129546" data-name="Trazado 129546" d="M318.8,120.815a11.961,11.961,0,0,0,.364,1.195,11.894,11.894,0,0,0,5.708,6.514,10.585,10.585,0,0,0,12.644-2.012c4.232-4.275,4.119-9.208,4.6-17.562A11.455,11.455,0,0,0,326.31,97.524C318.116,100.866,316.993,113.295,318.8,120.815Z" transform="translate(-318.059 -92.275)" fill="#eec1bb"/>
            <path id="Trazado_129547" data-name="Trazado 129547" d="M323.588,128.907a11.765,11.765,0,0,0,1.529.946,10.649,10.649,0,0,0,9.151.4,12.475,12.475,0,0,0-1.493-2.835A16.492,16.492,0,0,0,323.588,128.907Z" transform="translate(-318.299 -93.605)" opacity="0.2" style="isolation: isolate"/>
            <path id="Trazado_129548" data-name="Trazado 129548" d="M340.283,139.322c-4.114,3.738-14.2,2.356-14.2,2.356s-6.293-1.722-4.971-3.689c3.707-.612,5.5-2.342,6.243-4.555a10.79,10.79,0,0,0,.376-4.233,22.242,22.242,0,0,0-.312-2.364l12.464-9.229C338.253,123.7,336.254,134.906,340.283,139.322Z" transform="translate(-318.184 -93.185)" fill="#eec1bb"/>
            <path id="Trazado_129549" data-name="Trazado 129549" d="M323.387,113.011l-1.8.682.9-3.684s-2.641-3.967,0-7.509c0,0-6.684-2.98-1.638-10.422,0,0,1.9,4.369,6.918,2.179,2.724-1.188,11.246-1.281,11.671,2.19,0,0,6.139-.038,6.8,10.446a20.916,20.916,0,0,1-6.5,16.521s-7.412,1.755-11.011-1.22S323.387,113.011,323.387,113.011Z" transform="translate(-318.099 -92.077)" fill="#263238"/>
            <path id="Trazado_129550" data-name="Trazado 129550" d="M328.306,114.337a5.416,5.416,0,0,1-2.78,3.712c-1.7.721-2.818-1.675-2.573-4.187.233-2.225,1.386-5.359,3.207-4.946S328.9,112.091,328.306,114.337Z" transform="translate(-318.27 -92.806)" fill="#eec1bb"/>
          </g>
          <path id="Trazado_129551" data-name="Trazado 129551" d="M321.826,261.87c.946,11.9,2.01,24.282,3.052,34.575,1.526-14.86,3.4-25.454,3.4-25.454s1.751-1.44,6.565-9.121,0-22.026,0-22.026C334.988,253.167,321.826,261.87,321.826,261.87Z" transform="translate(-261.33 -98.488)" opacity="0.2" style="isolation: isolate"/>
          <path id="Trazado_129552" data-name="Trazado 129552" d="M294.475,393.337l.6,3.492h14.639v-3.223Z" transform="translate(-260.143 -105.147)" fill="#407bff"/>
          <path id="Trazado_129553" data-name="Trazado 129553" d="M339.912,394.741l1.4,3.223h12.275l.806-3.223Z" transform="translate(-262.114 -105.208)" fill="#407bff"/>
          <g id="Grupo_70473" data-name="Grupo 70473" transform="translate(35.743 44.234)">
            <path id="Trazado_129554" data-name="Trazado 129554" d="M309.381,139.644a63.893,63.893,0,0,1,23.358-.454c12.215,2.2,17.009,5.745,17.009,5.745l6.307,95.957s-32.658,7.922-60.1,0C295.952,240.892,298.557,151.962,309.381,139.644Z" transform="translate(-295.95 -138.317)" fill="#263238"/>
            <path id="Trazado_129555" data-name="Trazado 129555" d="M356.054,240.888s-32.659,7.921-60.1,0c0,0,.029-1.062.105-2.965.258-7.146,1.062-26.154,2.784-45.688l.23-2.554c2.038-22.155,5.3-44.33,10.312-50.04a63.948,63.948,0,0,1,23.361-.45c12.216,2.2,17.009,5.74,17.009,5.74l2.9,44.148.22,3.367,2.966,45.1Z" transform="translate(-295.95 -138.317)" fill="#fff" opacity="0.2" style="isolation: isolate"/>
            <path id="Trazado_129556" data-name="Trazado 129556" d="M353,194.649c-6-1.722-21.39-4.3-54.03-.21l.23-2.554c7.7-1.272,34.888-5.194,53.58-.6Z" transform="translate(-296.081 -140.521)" opacity="0.2" style="isolation: isolate"/>
            <path id="Trazado_129557" data-name="Trazado 129557" d="M356.054,245.389s-32.659,7.921-60.1,0c0,0,.029-1.062.105-2.966,13.708,2.066,40.474,3.683,59.779-.373Z" transform="translate(-295.95 -142.817)" opacity="0.2" style="isolation: isolate"/>
          </g>
          <path id="Trazado_129558" data-name="Trazado 129558" d="M318.019,138.011s4.9-6.7,18.793-6.736,13.8,10.719,9.429,17.958S318.019,138.011,318.019,138.011Z" transform="translate(-261.165 -93.778)" fill="#a2a7c5"/>
          <g id="Grupo_70474" data-name="Grupo 70474" transform="translate(6.472 42.058)">
            <path id="Trazado_129559" data-name="Trazado 129559" d="M275.238,159.888l-1.363-7.709s3.232-4.936,2.5-6.018-3.507-10.118-3.507-10.118-6.837,6.916-6.4,8.794a27.867,27.867,0,0,0,2.334,5.2l.189,15.552Z" transform="translate(-265.399 -136.042)" fill="#eec1bb"/>
            <path id="Trazado_129560" data-name="Trazado 129560" d="M276.327,160.708l-1.514-5.752-9.461,8.113,3.6,8.113Z" transform="translate(-265.352 -136.863)" fill="#a2a7c5"/>
            <path id="Trazado_129561" data-name="Trazado 129561" d="M308.1,139.7c-3.281.991-20.357,31.894-24.126,31.894-2.946,0-8.457-15.913-8.457-15.913l-9.048,10.664s1.2,26.62,16.052,27.347,28.8-24.49,28.8-24.49,2.328-7.317.917-18.115C311.121,142.523,308.1,139.7,308.1,139.7Z" transform="translate(-265.4 -136.201)" fill="#263238"/>
            <path id="Trazado_129562" data-name="Trazado 129562" d="M308.1,139.7c-3.281.991-20.357,31.894-24.126,31.894-2.946,0-8.457-15.913-8.457-15.913l-9.048,10.664s1.2,26.62,16.052,27.347,28.8-24.49,28.8-24.49,2.328-7.317.917-18.115C311.121,142.523,308.1,139.7,308.1,139.7Z" transform="translate(-265.4 -136.201)" fill="#fff" opacity="0.1" style="isolation: isolate"/>
          </g>
          <g id="Grupo_70475" data-name="Grupo 70475" transform="translate(16.461 9.381)">
            <path id="Trazado_129563" data-name="Trazado 129563" d="M289.91,101.883H278.822a3.028,3.028,0,0,0-3.028,3.028v8.661a3.028,3.028,0,0,0,3.028,3.028H282.9l1.468,3.567,1.468-3.567h4.076a3.028,3.028,0,0,0,3.028-3.028v-8.661A3.028,3.028,0,0,0,289.91,101.883Z" transform="translate(-275.794 -101.883)" fill="#ea3584"/>
            <path id="Trazado_129564" data-name="Trazado 129564" d="M280.361,106.4c1.1-1.736,3.15-1.039,4.2.334,1.081-1.347,3.148-1.994,4.2-.231,1.781,2.973-2,5.661-3.779,6.71-.2.121-.369.219-.508.3-.138-.081-.3-.185-.5-.31C282.219,112.1,278.508,109.324,280.361,106.4Z" transform="translate(-275.97 -102.034)" fill="#fff" opacity="0.6" style="isolation: isolate"/>
          </g>
          <g id="Grupo_70476" data-name="Grupo 70476" transform="translate(0 29.119)">
            <path id="Trazado_129565" data-name="Trazado 129565" d="M265.644,122.517H260.1a1.515,1.515,0,0,0-1.514,1.514v4.331a1.514,1.514,0,0,0,1.514,1.513h2.038l.735,1.784.734-1.784h2.038a1.514,1.514,0,0,0,1.514-1.513v-4.331A1.515,1.515,0,0,0,265.644,122.517Z" transform="translate(-258.586 -122.517)" fill="#529ad9"/>
            <path id="Trazado_129566" data-name="Trazado 129566" d="M260.871,124.774c.549-.869,1.575-.519,2.1.166.54-.673,1.574-1,2.1-.115.89,1.487-1,2.831-1.89,3.355-.1.06-.184.11-.253.148-.069-.04-.151-.092-.251-.155C261.8,127.628,259.944,126.238,260.871,124.774Z" transform="translate(-258.674 -122.593)" fill="#fff" opacity="0.6" style="isolation: isolate"/>
          </g>
          <path id="Trazado_129567" data-name="Trazado 129567" d="M342.281,400.949h10.261a.742.742,0,0,1,.72.58l1.665,7.521a1.246,1.246,0,0,1-.96,1.477,1.265,1.265,0,0,1-.275.028c-3.32-.054-5.738-.258-9.906-.258-2.568,0-10.315.269-13.86.269s-4.007-3.5-2.557-3.825c6.511-1.419,11.411-3.385,13.5-5.255A2.041,2.041,0,0,1,342.281,400.949Z" transform="translate(-261.537 -105.477)" fill="#529ad9" style="isolation: isolate"/>
          <path id="Trazado_129568" data-name="Trazado 129568" d="M296.794,400.668h10.261a.741.741,0,0,1,.719.58l1.665,7.522a1.247,1.247,0,0,1-.961,1.477,1.27,1.27,0,0,1-.275.027c-3.319-.054-5.737-.258-9.906-.258-2.568,0-10.314.269-13.86.269s-4.007-3.5-2.557-3.825c6.512-1.419,11.41-3.384,13.495-5.254A2.041,2.041,0,0,1,296.794,400.668Z" transform="translate(-259.563 -105.465)" fill="#fff" opacity="0.3" style="isolation: isolate"/>
        </g>
      </g>
      <g id="Character_3" data-name="Character 3" transform="translate(345.943 145.053)">
        <g id="Grupo_70491" data-name="Grupo 70491">
          <path id="Trazado_129569" data-name="Trazado 129569" d="M428.546,322.518c-4.678,11.565-17.181,28.67-28.746,43.22q-1.507,1.894-2.975,3.721c-3.319,4.123-6.486,7.959-9.413,11.317-1.464,1.684-2.87,3.253-4.209,4.668v.01a88.4,88.4,0,0,0-7.022,8.323l-4.62-2.717s4.429-6.916,10.36-16.454c1.253-2.009,2.573-4.133,3.932-6.333,3.482-5.6,7.242-11.69,10.858-17.621.689-1.129,1.378-2.258,2.057-3.377,6.735-11.106,12.666-21.16,14.808-25.6.163-.335.306-.651.421-.918,1.186-2.726-2.018-13.2-5.568-23.074-.268-.746-.536-1.492-.8-2.219-3.367-9.184-6.763-17.277-6.763-17.277L410.3,262.2l3.463-5.874s1.865,5.156,4.353,12.58c1.693,5.032,3.683,11.106,5.567,17.324.191.631.383,1.272.584,1.9,2.822,9.442,5.233,18.979,6.122,25.446C430.708,315.87,430,318.921,428.546,322.518Z" transform="translate(-363.606 -137.595)" fill="#b97964"/>
          <path id="Trazado_129570" data-name="Trazado 129570" d="M400.537,369.862c-6.1,7.672-11.968,14.636-16.329,19.706-.623-3.119-1.254-6.811-1.752-10.838,5.041-8.093,11.211-18.08,16.818-27.331A105.646,105.646,0,0,0,400.537,369.862Z" transform="translate(-364.079 -141.72)" opacity="0.2" style="isolation: isolate"/>
          <path id="Trazado_129571" data-name="Trazado 129571" d="M397.2,405.281l-5.5.718s-2.114-10.4-4.123-24.882c-.545-3.912-1.071-8.122-1.559-12.5a295.1,295.1,0,0,1-1.971-33.52s-.6-2.085-1.492-5.615c-1.483-5.883-3.759-15.755-5.357-26.651-.01-.067-.019-.124-.029-.191-1.913-13.077-2.851-27.6-.3-38.456L396,272.789l.316,23.093.077,5.606.268,19.458.057,4.458.153,25.589.115,18.807Z" transform="translate(-363.768 -137.936)" fill="#b97964"/>
          <path id="Trazado_129572" data-name="Trazado 129572" d="M396,272.789l.316,23.093c-5.835,3.922-13.88,5.855-19.151,6.754-1.913-13.077-2.851-27.6-.3-38.456Z" transform="translate(-363.768 -137.936)" opacity="0.2" style="isolation: isolate"/>
          <path id="Trazado_129573" data-name="Trazado 129573" d="M425.6,288.4c-4.927,5.481-13.01,6.945-16.645,7.328-3.367-9.183-6.763-17.276-6.763-17.276l9.442-15.985c2.583,2.028,5.319,4.314,7.816,6.706,1.693,5.032,3.683,11.106,5.567,17.324C425.206,287.132,425.4,287.773,425.6,288.4Z" transform="translate(-364.935 -137.862)" opacity="0.2" style="isolation: isolate"/>
          <g id="Grupo_70477" data-name="Grupo 70477" transform="translate(45.728 47.549)">
            <path id="Trazado_129574" data-name="Trazado 129574" d="M411.049,181.916c3.626.165,18.829,20.58,18.829,20.58l5.645-7.339s8.7,16.91,4.4,24.959-27-13.953-27-13.953Z" transform="translate(-411.047 -181.916)" fill="#ea3584"/>
            <path id="Trazado_129575" data-name="Trazado 129575" d="M411.047,181.919l1.5,16.282.383,7.959s3.731,3.616,8.447,7.376c6.926,5.529,15.985,11.365,18.549,6.582,4.3-8.045-4.4-24.958-4.4-24.958l-5.644,7.337-.038-.057C428.979,201.2,414.558,182.072,411.047,181.919Z" transform="translate(-411.047 -181.916)" fill="#ea3584" style="isolation: isolate"/>
          </g>
          <path id="Trazado_129576" data-name="Trazado 129576" d="M412.612,198.57l.383,7.959s3.731,3.616,8.447,7.376c.45-9.557-8.447-23.475-8.447-23.475Z" transform="translate(-365.387 -134.736)" opacity="0.2" style="isolation: isolate"/>
          <path id="Trazado_129577" data-name="Trazado 129577" d="M430.632,203.384l-.812,1.555,2.367,9.207s-6.526-5.939-2.367-11.759Z" transform="translate(-366.073 -135.255)" opacity="0.2" style="isolation: isolate"/>
          <g id="Grupo_70478" data-name="Grupo 70478" transform="translate(6.181 46.918)">
            <path id="Trazado_129578" data-name="Trazado 129578" d="M409.909,232.93,379.3,235.3s-.416-18.288-2.856-27.806c-.794-3.08-1.789-6.543-3.052-10.561-.536-1.7-1.119-3.5-1.76-5.424-.583-1.789-1.224-3.693-1.923-5.692a91.732,91.732,0,0,1,12.8-3.09,98.863,98.863,0,0,1,13.852-1.464c6-.048,12.9.631,12.9.631s.975.239,1.6,6.591C411.414,194.46,411.152,211.207,409.909,232.93Z" transform="translate(-369.706 -181.256)" fill="#ea3584"/>
            <path id="Trazado_129579" data-name="Trazado 129579" d="M409.907,232.927,379.3,235.289s-.01-.373-.029-1.052c-.134-4.008-.737-18.6-2.822-26.747-.564-2.2-1.234-4.6-2.038-7.251-.316-1.062-.65-2.162-1.014-3.31-.536-1.7-1.119-3.5-1.76-5.424-.584-1.789-1.224-3.693-1.923-5.692,1.665-.536,3.348-1.014,5.041-1.454,2.554-.65,5.147-1.2,7.758-1.636a98.87,98.87,0,0,1,13.852-1.464c3.865-.029,8.1.239,10.628.44,1.4.105,2.267.191,2.267.191s.976.239,1.6,6.591C411.418,194.461,411.151,211.2,409.907,232.927Z" transform="translate(-369.706 -181.257)" fill="#ea3584" style="isolation: isolate"/>
          </g>
          <path id="Trazado_129580" data-name="Trazado 129580" d="M371.625,394.014c.564-.41,5.327,6.726,5.327,6.726s-1.061,7.439,1.089,12.235-2.027,4.389-5.5-.156l-8.587-11.243C361.489,398.348,365.782,398.264,371.625,394.014Z" transform="translate(-363.245 -143.568)" fill="#263238"/>
          <g id="Grupo_70479" data-name="Grupo 70479" transform="translate(13.403 258.027)">
            <path id="Trazado_129581" data-name="Trazado 129581" d="M379.175,406.47c-1.082-.254-1.784-3.338-1.914-3.954a.216.216,0,0,1,0-.089h0a.194.194,0,0,1,.025-.068h0a.232.232,0,0,1,.047-.058h0a.214.214,0,0,1,.078-.043c.1-.032,2.112-.668,3.2-.038a1.309,1.309,0,0,1,.649.9c.09.423.013.72-.231.885-.374.252-1.1.041-1.819-.286a3.5,3.5,0,0,1,1,1.653.913.913,0,0,1-.183.715.893.893,0,0,1-.7.408A.631.631,0,0,1,379.175,406.47Zm.1-.438c.045.01.179.042.394-.232a.473.473,0,0,0,.089-.376c-.093-.705-1.158-1.739-1.91-2.371C378.193,404.378,378.769,405.912,379.277,406.031Zm-1.244-3.474c1.152.716,2.423,1.286,2.744,1.068.1-.067.068-.29.041-.415a.866.866,0,0,0-.432-.6,2.1,2.1,0,0,0-1.032-.218A6.149,6.149,0,0,0,378.034,402.557Z" transform="translate(-377.256 -401.94)" fill="#407bff"/>
          </g>
          <path id="Trazado_129582" data-name="Trazado 129582" d="M390.364,408.743c.016-.7,8.578-.151,8.578-.151s5.268,5.358,10.385,6.562,2.258,4.274-3.462,4.274H391.719C387.655,419.428,390.2,415.966,390.364,408.743Z" transform="translate(-364.381 -144.192)" fill="#263238"/>
          <g id="Grupo_70480" data-name="Grupo 70480" transform="translate(35.39 262.553)">
            <path id="Trazado_129583" data-name="Trazado 129583" d="M400.368,409.624a.221.221,0,0,1-.072-.054h0a.223.223,0,0,1-.039-.062h0a.249.249,0,0,1-.016-.071h0a.242.242,0,0,1,.012-.091c.037-.1.756-2.085,1.911-2.566a1.318,1.318,0,0,1,1.107.031c.39.185.58.427.563.719-.026.451-.636.9-1.332,1.273a3.529,3.529,0,0,1,1.92.21.92.92,0,0,1,.457.58.823.823,0,0,1-.208.913,1.187,1.187,0,0,1-.755.2A10.749,10.749,0,0,1,400.368,409.624Zm.783-.144c1.262.535,2.83,1.006,3.233.674.035-.029.143-.117.057-.453a.477.477,0,0,0-.246-.3,2.129,2.129,0,0,0-1.009-.188A10.149,10.149,0,0,0,401.152,409.481Zm1.185-2.285a3.727,3.727,0,0,0-1.467,1.84c1.267-.481,2.492-1.147,2.514-1.532.007-.12-.189-.231-.306-.286a.865.865,0,0,0-.74-.022Z" transform="translate(-400.24 -406.671)" fill="#407bff"/>
          </g>
          <path id="Trazado_129584" data-name="Trazado 129584" d="M394.457,187.633c-7.605-.976-9.891-4.228-9.891-4.228,3.109-2.927,2.545-7.251,1.751-9.949a15.456,15.456,0,0,0-.937-2.487l9.155,1.712a26.358,26.358,0,0,0-.354,3.855,11.544,11.544,0,0,0,.258,2.832c.623,2.736,2.181,2.774,2.181,2.774C398.226,185.146,394.457,187.633,394.457,187.633Z" transform="translate(-364.17 -133.892)" fill="#b97964"/>
          <path id="Trazado_129585" data-name="Trazado 129585" d="M394.217,176.536a11.543,11.543,0,0,0,.258,2.832c-3.635-.478-6.39-3.386-8.122-5.912a15.465,15.465,0,0,0-.937-2.487l9.155,1.712A26.353,26.353,0,0,0,394.217,176.536Z" transform="translate(-364.207 -133.892)" opacity="0.2" style="isolation: isolate"/>
          <g id="Grupo_70483" data-name="Grupo 70483" transform="translate(8.084)">
            <path id="Trazado_129586" data-name="Trazado 129586" d="M404.807,153.67s3.815-1.057,2.964-3.706-2.176-2.744-2.176-2.744a7.558,7.558,0,0,0,.757-6.812c-1.513-3.595-5.677-2.554-5.677-2.554s.339-3.879-3.331-4.92a4.961,4.961,0,0,0-5.558,2.3s-2.244-3.531-6.044-2.963-5.03,5.677-5.03,5.677a4.168,4.168,0,0,0-5.392,2.019,6.379,6.379,0,0,0,0,6.607s-2.271-1.337-3.407,2.4,2.554,7.477,2.554,7.477-2.175.067-1.324,2.988,4.352,3.3,4.352,3.3-1.419.567.946,3.122,10.957,0,10.957,0Z" transform="translate(-371.696 -132.21)" fill="#263238"/>
            <path id="Trazado_129587" data-name="Trazado 129587" d="M395.732,147.33c7.884,1.139,9.813,5.727,9.217,13.935-.745,10.259-4.038,17.147-13.584,13.555C378.4,169.941,382.638,145.439,395.732,147.33Z" transform="translate(-372.209 -132.862)" fill="#b97964"/>
            <path id="Trazado_129588" data-name="Trazado 129588" d="M400.642,160.672a16.825,16.825,0,0,0,1.822,3.6,2.188,2.188,0,0,1-2.207.591Z" transform="translate(-372.935 -133.445)" fill="#a24e3f"/>
            <g id="Grupo_70481" data-name="Grupo 70481" transform="translate(21.392 24.239)">
              <path id="Trazado_129589" data-name="Trazado 129589" d="M395.64,159.212c-.078.65-.493,1.134-.926,1.082s-.721-.622-.643-1.271.493-1.135.926-1.083S395.719,158.562,395.64,159.212Z" transform="translate(-394.059 -157.566)" fill="#263238"/>
              <path id="Trazado_129590" data-name="Trazado 129590" d="M394.847,157.934l1.481-.385S395.48,158.654,394.847,157.934Z" transform="translate(-394.093 -157.549)" fill="#263238"/>
            </g>
            <g id="Grupo_70482" data-name="Grupo 70482" transform="translate(29.487 25.079)">
              <path id="Trazado_129591" data-name="Trazado 129591" d="M404.1,160.089c-.078.65-.493,1.135-.926,1.082s-.721-.622-.643-1.271.494-1.135.927-1.082S404.181,159.44,404.1,160.089Z" transform="translate(-402.521 -158.444)" fill="#263238"/>
              <path id="Trazado_129592" data-name="Trazado 129592" d="M403.31,158.811l1.48-.384S403.942,159.531,403.31,158.811Z" transform="translate(-402.555 -158.427)" fill="#263238"/>
            </g>
            <path id="Trazado_129593" data-name="Trazado 129593" d="M392.57,154.356a.227.227,0,0,1-.154-.393,4.329,4.329,0,0,1,3.806-.75.227.227,0,0,1-.122.437h0a3.943,3.943,0,0,0-3.377.647A.226.226,0,0,1,392.57,154.356Z" transform="translate(-372.48 -133.001)" fill="#263238"/>
            <path id="Trazado_129594" data-name="Trazado 129594" d="M405.414,155.282a.226.226,0,0,1-.151-.058,3.48,3.48,0,0,0-2.85-1.049.227.227,0,0,1-.094-.443,3.915,3.915,0,0,1,3.247,1.155.227.227,0,0,1-.151.4Z" transform="translate(-372.905 -133.03)" fill="#263238"/>
            <path id="Trazado_129595" data-name="Trazado 129595" d="M385.118,159.223s4.622-5.946,4.786-11.028c0,0,16.547-4.126,15.027,11.844,0,0,3.561-13.861-9.949-16.132-13.486-2.268-16.314,17.565-10.168,24.485C384.815,168.391,382.252,162.944,385.118,159.223Z" transform="translate(-372.131 -132.71)" fill="#263238"/>
            <path id="Trazado_129596" data-name="Trazado 129596" d="M386.111,161.692a3.5,3.5,0,0,0-3.267-3.7c-2.482-.086-4.371,4.761,1.532,6.845C385.223,165.138,385.838,164.356,386.111,161.692Z" transform="translate(-372.077 -133.329)" fill="#b97964"/>
            <path id="Trazado_129597" data-name="Trazado 129597" d="M397.968,169.338a5.458,5.458,0,0,1-1.683-.273A4.036,4.036,0,0,1,393.6,166.3a.227.227,0,0,1,.434-.131,3.549,3.549,0,0,0,2.376,2.461,4.919,4.919,0,0,0,1.749.249.227.227,0,0,1,.036.452C398.189,169.331,398.106,169.338,397.968,169.338Z" transform="translate(-372.534 -133.565)" fill="#263238"/>
            <path id="Trazado_129598" data-name="Trazado 129598" d="M382.487,156.019c2.784-9.665,18.084-16.581,22.5-4.65a14.856,14.856,0,0,0-4.416-7.683s-14.379-5.563-18.5,11.009Z" transform="translate(-372.146 -132.669)" fill="#529ad9"/>
          </g>
          <g id="Grupo_70484" data-name="Grupo 70484" transform="translate(51.26 42.779)">
            <path id="Trazado_129599" data-name="Trazado 129599" d="M416.836,195.182a.774.774,0,0,0,.79.879h8.743a1.016,1.016,0,0,0,.989-.879l1.952-17.255a.876.876,0,0,0-.789-1h-8.743a1.133,1.133,0,0,0-.99,1Z" transform="translate(-416.83 -176.929)" fill="#263238"/>
            <path id="Trazado_129600" data-name="Trazado 129600" d="M419.8,177.814l-1.978,17.422a.663.663,0,0,0,.688.826h7.414c.5,0,1.409-.275,1.464-.765l1.978-17.482c.055-.492-.793-.885-1.29-.885h-7.414A.9.9,0,0,0,419.8,177.814Z" transform="translate(-416.873 -176.929)" fill="#fff" opacity="0.5"/>
          </g>
          <path id="Trazado_129601" data-name="Trazado 129601" d="M399.107,239.3a1.549,1.549,0,1,0,1.549-1.55A1.549,1.549,0,0,0,399.107,239.3Z" transform="translate(-364.801 -136.789)" fill="#fff" opacity="0.6" style="isolation: isolate"/>
          <path id="Trazado_129602" data-name="Trazado 129602" d="M435.459,196.805l-4.557-7.732s.013-4.066-.386-5.022-4.862-3.116-5.74-2.793-1.2,8.3-.4,9.372,3.587,2.27,3.587,2.27l-.191,1.514,2.662,8.052Z" transform="translate(-365.877 -134.337)" fill="#b97964"/>
          <path id="Trazado_129603" data-name="Trazado 129603" d="M437.5,196.527l-1.515-1.515-7.175,8.052,1.022,3.189Z" transform="translate(-366.09 -134.935)" fill="#ea3584"/>
          <path id="Trazado_129604" data-name="Trazado 129604" d="M398.8,209.474s-8.437,19.218-19.324,25.446c-.134-4.008-.737-18.6-2.822-26.747-.564-2.2-1.234-4.6-2.038-7.251l3.319-3.989s2.3,7.117,1.282,13.3l12.694-7.777Z" transform="translate(-363.739 -135.018)" opacity="0.2" style="isolation: isolate"/>
          <path id="Trazado_129605" data-name="Trazado 129605" d="M391.363,204.634l10.359-8.127a36.237,36.237,0,0,1,2.2-5.118c.63-.758,9.714-4.11,10.47-4.2s.046,7.442-1.135,8.722-8.452,3.805-8.452,3.805l-10.847,10.215Z" transform="translate(-364.465 -134.595)" fill="#b97964"/>
          <g id="Grupo_70485" data-name="Grupo 70485" transform="translate(0.821 51.474)">
            <path id="Trazado_129606" data-name="Trazado 129606" d="M369.463,186.019c-6.082,3.048-8.788,37.406,1.775,43.338s26.35-20.875,26.35-20.875l-6.132-6.507s-12.861,10.767-14.413,9.778.213-11.511.213-11.511,1.808-3.184-2-8.189S369.463,186.019,369.463,186.019Z" transform="translate(-364.104 -186.019)" fill="#ea3584"/>
            <path id="Trazado_129607" data-name="Trazado 129607" d="M369.463,186.019c-6.082,3.048-8.788,37.406,1.775,43.338s26.35-20.875,26.35-20.875l-6.132-6.507s-12.861,10.767-14.413,9.778.213-11.511.213-11.511,1.808-3.184-2-8.189S369.463,186.019,369.463,186.019Z" transform="translate(-364.104 -186.019)" fill="#ea3584" style="isolation: isolate"/>
          </g>
          <path id="Trazado_129608" data-name="Trazado 129608" d="M398.888,211.487l1.836-1.1-6.889-10.1-2.529,1.41Z" transform="translate(-364.462 -135.164)" fill="#ea3584"/>
          <g id="Grupo_70486" data-name="Grupo 70486" transform="translate(7.652 98.591)">
            <path id="Trazado_129609" data-name="Trazado 129609" d="M426.055,283.033c.015.051.031.1.045.153-1.658.268-3.067,3.292-4.643,4.339a16.159,16.159,0,0,1-6.476,2.351c-4.316.657-8.753.18-13.051.94-5.335.943-10.145,3.73-15.293,5.415-3.654,1.2-9.66,2.459-13.138.059-2.509-1.73-2.111-4.8-2.182-7.528a155,155,0,0,1,1.265-25.835,101.389,101.389,0,0,1,6.046-23.533c.239-.593.488-1.177.737-1.76l30.612-2.363.258,1.473,1.923,10.992,3.654,9.241,9.021,22.815C425.253,280.863,425.73,281.946,426.055,283.033Z" transform="translate(-371.244 -235.273)" fill="#407bff"/>
            <path id="Trazado_129610" data-name="Trazado 129610" d="M426.055,283.033c.015.051.031.1.045.153-1.658.268-3.067,3.292-4.643,4.339a16.159,16.159,0,0,1-6.476,2.351c-4.316.657-8.753.18-13.051.94-5.335.943-10.145,3.73-15.293,5.415-3.654,1.2-9.66,2.459-13.138.059-2.509-1.73-2.111-4.8-2.182-7.528a155,155,0,0,1,1.265-25.835,101.389,101.389,0,0,1,6.046-23.533c.239-.593.488-1.177.737-1.76l30.612-2.363.258,1.473,1.923,10.992,3.654,9.241,9.021,22.815C425.253,280.863,425.73,281.946,426.055,283.033Z" transform="translate(-371.244 -235.273)" fill="#fff" opacity="0.6" style="isolation: isolate"/>
          </g>
          <path id="Trazado_129611" data-name="Trazado 129611" d="M379.673,237.639l-1.29,3.185,32.587-1.636-.685-3.914Z" transform="translate(-363.902 -136.682)" style="isolation: isolate"/>
          <g id="Grupo_70487" data-name="Grupo 70487" transform="translate(23.42 100.203)">
            <path id="Trazado_129612" data-name="Trazado 129612" d="M389.288,236.958l-.378,4.21h-1.183l.189-4.21Z" transform="translate(-387.727 -236.958)" fill="#407bff"/>
            <path id="Trazado_129613" data-name="Trazado 129613" d="M389.288,236.958l-.378,4.21h-1.183l.189-4.21Z" transform="translate(-387.727 -236.958)" fill="#fff" opacity="0.6" style="isolation: isolate"/>
          </g>
          <g id="Grupo_70488" data-name="Grupo 70488" transform="translate(42.152 98.737)">
            <path id="Trazado_129614" data-name="Trazado 129614" d="M407.309,235.608l.474,4.406h1.088l-.378-4.589Z" transform="translate(-407.309 -235.425)" fill="#407bff"/>
            <path id="Trazado_129615" data-name="Trazado 129615" d="M407.309,235.608l.474,4.406h1.088l-.378-4.589Z" transform="translate(-407.309 -235.425)" fill="#fff" opacity="0.6" style="isolation: isolate"/>
          </g>
          <path id="Trazado_129616" data-name="Trazado 129616" d="M397.715,236.457l.381,3.578a.73.73,0,0,0,.783.65l4.771-.38a.728.728,0,0,0,.667-.795l-.336-3.527a.728.728,0,0,0-.774-.657l-4.816.328A.729.729,0,0,0,397.715,236.457Z" transform="translate(-364.74 -136.684)" fill="#b2b555"/>
          <path id="Trazado_129617" data-name="Trazado 129617" d="M407.218,181.7a5.717,5.717,0,0,1-1.263,3.425,8.249,8.249,0,0,1-2.038,1.837c-1.961,1.3-5.041,2.439-9.8,3.071a29.766,29.766,0,0,1-7.863.067,21.522,21.522,0,0,1-3.377-.737,16.7,16.7,0,0,1-7.9-5q2.526-.646,5.1-1.138.66-.144,1.32-.258c.44-.086.89-.163,1.339-.239a98.869,98.869,0,0,1,13.852-1.464c1.674-.01,3.406.029,5.051.1.717.038,1.425.067,2.1.115C405.065,181.537,406.261,181.623,407.218,181.7Z" transform="translate(-363.754 -134.338)" fill="#b97964"/>
          <path id="Trazado_129618" data-name="Trazado 129618" d="M386.49,190.176a21.529,21.529,0,0,1-3.377-.737,11.207,11.207,0,0,0-2.8-6.141q.66-.143,1.32-.258C384.251,184.886,385.791,188.254,386.49,190.176Z" transform="translate(-363.985 -134.416)" fill="#263238"/>
          <path id="Trazado_129619" data-name="Trazado 129619" d="M407.164,185.129a8.249,8.249,0,0,1-2.038,1.837,8.718,8.718,0,0,0-2.277-5.606c.717.038,1.425.067,2.095.115A11.6,11.6,0,0,1,407.164,185.129Z" transform="translate(-364.963 -134.343)" fill="#263238"/>
          <g id="Grupo_70489" data-name="Grupo 70489" transform="translate(65.1 11.985)">
            <path id="Trazado_129620" data-name="Trazado 129620" d="M445.413,144.739H434.325a3.027,3.027,0,0,0-3.028,3.028v8.661a3.027,3.027,0,0,0,3.028,3.028H438.4l1.468,3.567,1.468-3.567h4.076a3.028,3.028,0,0,0,3.028-3.028v-8.661A3.028,3.028,0,0,0,445.413,144.739Z" transform="translate(-431.297 -144.739)" fill="#407bff"/>
            <path id="Trazado_129621" data-name="Trazado 129621" d="M435.864,149.251c1.1-1.736,3.15-1.039,4.2.334,1.081-1.347,3.148-1.994,4.2-.231,1.781,2.973-2,5.661-3.779,6.71-.2.121-.369.22-.508.3-.138-.081-.3-.185-.5-.31C437.722,154.959,434.011,152.18,435.864,149.251Z" transform="translate(-431.473 -144.89)" fill="#fff" opacity="0.6" style="isolation: isolate"/>
          </g>
          <g id="Grupo_70490" data-name="Grupo 70490" transform="translate(46.975 28.641)">
            <path id="Trazado_129622" data-name="Trazado 129622" d="M419.408,162.15h-5.544a1.515,1.515,0,0,0-1.514,1.514v4.331a1.515,1.515,0,0,0,1.514,1.514H415.9l.735,1.783.734-1.783h2.038a1.515,1.515,0,0,0,1.514-1.514v-4.331A1.515,1.515,0,0,0,419.408,162.15Z" transform="translate(-412.35 -162.15)" fill="#407bff"/>
            <path id="Trazado_129623" data-name="Trazado 129623" d="M414.633,164.407c.55-.869,1.576-.519,2.1.167.54-.673,1.574-1,2.1-.116.891,1.487-1,2.831-1.889,3.355-.1.06-.185.11-.254.148-.069-.04-.151-.092-.251-.155C415.563,167.261,413.707,165.871,414.633,164.407Z" transform="translate(-412.438 -162.226)" fill="#fff" opacity="0.6" style="isolation: isolate"/>
          </g>
        </g>
      </g>
      <g id="Character_1" data-name="Character 1" transform="translate(191.328 253.9)">
        <g id="_Group_2" data-name="&lt;Group&gt;" transform="translate(0 0)">
          <g id="Grupo_70492" data-name="Grupo 70492" transform="translate(56.442 44.89)">
            <path id="Trazado_129624" data-name="Trazado 129624" d="M285.348,345.763C279,359.4,270.626,360.849,270.626,360.849L260.62,349.131s7.175-4.324,8.849-9.585-1.435-39.46,7.481-46.625c0,0,1.024,2.717,2.411,6.964v.01c2.717,8.3,6.83,22.442,7.481,33.654C287.137,338.407,286.764,342.721,285.348,345.763Z" transform="translate(-260.62 -292.92)" fill="#6826cc"/>
            <path id="Trazado_129625" data-name="Trazado 129625" d="M287.645,333.864c-8.743-15.593-9.652-26.862-7.481-33.654C282.882,308.513,287,322.652,287.645,333.864Z" transform="translate(-261.425 -293.236)" opacity="0.1" style="isolation: isolate"/>
          </g>
          <g id="Grupo_70493" data-name="Grupo 70493" transform="translate(9.371 113.242)">
            <path id="Trazado_129626" data-name="Trazado 129626" d="M284.282,371.111s-64.064-17.879-72.112,4.605,50.116,40.408,82.307,41.506,45.324-21.475,35.831-42.928Z" transform="translate(-211.414 -364.372)" fill="#263238"/>
            <path id="Trazado_129627" data-name="Trazado 129627" d="M284.282,371.111s-64.064-17.879-72.112,4.605,50.116,40.408,82.307,41.506,45.324-21.475,35.831-42.928Z" transform="translate(-211.414 -364.372)" opacity="0.2" style="isolation: isolate"/>
          </g>
          <g id="Grupo_70494" data-name="Grupo 70494" transform="translate(72.772 38.822)">
            <path id="Trazado_129628" data-name="Trazado 129628" d="M339.181,383.9l-59.54-10.188c10.427-20.089,7.117-50.643-1.952-81.064,6.3-5.271,31.5-8.83,50.739-3.243,0,0,1.138,4.228,2.678,11.508,1.846,8.705,4.266,21.773,5.988,37.193A328.336,328.336,0,0,1,339.181,383.9Z" transform="translate(-277.69 -286.577)" fill="#6826cc"/>
            <path id="Trazado_129629" data-name="Trazado 129629" d="M339.27,384.3l-59.54-10.188c8.849-17.047,7.806-41.622,1.741-67.26,5.041-9.662,11.527-10.9,11.527-10.9,6.553,9.212,20.051,0,20.051,0,12.541,7.576,20,23.351,22.394,29.11A344.408,344.408,0,0,1,339.27,384.3Z" transform="translate(-277.778 -286.984)" fill="#fff" opacity="0.91" style="isolation: isolate"/>
            <path id="Trazado_129630" data-name="Trazado 129630" d="M339.241,338.753a31.689,31.689,0,0,1-10.513-14.837c-4.841-15.354,2.7-21.2,4.525-22.356C335.1,310.265,337.519,323.333,339.241,338.753Z" transform="translate(-279.835 -287.227)" opacity="0.1"/>
          </g>
          <path id="Trazado_129631" data-name="Trazado 129631" d="M219.84,407.967a2.865,2.865,0,0,1-1.008-1.454,1.1,1.1,0,0,1,.382-1.039.672.672,0,0,1,.643-.187c1.078.324,2.145,3.42,2.249,3.778a.164.164,0,0,1-.055.2.21.21,0,0,1-.236.012A11.822,11.822,0,0,1,219.84,407.967Zm.177-2.133a.739.739,0,0,0-.249-.145.231.231,0,0,0-.253.074.7.7,0,0,0-.273.709,4.609,4.609,0,0,0,2.293,2.211A8.966,8.966,0,0,0,220.018,405.833Z" transform="translate(-202.364 -252.905)" fill="#407bff"/>
          <path id="Trazado_129632" data-name="Trazado 129632" d="M221.888,409.268l-.028-.095c-.381-.952-.475-3.462.3-4.01a.693.693,0,0,1,.859.08,1.2,1.2,0,0,1,.513.776c.245,1.266-1.242,3.142-1.342,3.229a.176.176,0,0,1-.2.059A.2.2,0,0,1,221.888,409.268Zm.948-3.639-.075-.058c-.23-.162-.323-.088-.373-.062-.455.317-.535,2.078-.29,3.149a4.344,4.344,0,0,0,.995-2.578.792.792,0,0,0-.257-.451Z" transform="translate(-202.484 -252.895)" fill="#407bff"/>
          <path id="Trazado_129633" data-name="Trazado 129633" d="M290.587,423.673a2.867,2.867,0,0,1-.333,1.738,1.1,1.1,0,0,1-1.009.453.67.67,0,0,1-.584-.327c-.522-1,.943-3.925,1.126-4.251a.165.165,0,0,1,.182-.1.21.21,0,0,1,.174.161A11.731,11.731,0,0,1,290.587,423.673Zm-1.647,1.367a.727.727,0,0,0,.071.278.229.229,0,0,0,.23.128.7.7,0,0,0,.7-.3,4.612,4.612,0,0,0-.026-3.185A8.96,8.96,0,0,0,288.94,425.04Z" transform="translate(-205.389 -253.595)" fill="#407bff"/>
          <path id="Trazado_129634" data-name="Trazado 129634" d="M273.727,398.732l11.337,8.313,5.445,3.991-3.557,6.2-5.525-3.022-13.5-7.381Z" transform="translate(-204.495 -252.621)" fill="#e4897b"/>
          <path id="Trazado_129635" data-name="Trazado 129635" d="M285.976,417.523l3.421-7.549a.819.819,0,0,1,1.107-.4l3.688,1.806s5.134,2.076,5.779,3.744c1.885,4.875-5.254,21.766-7.481,21.769-.816,0-1.3-1.262-1.413-2.067-.361-2.558-.423-8.989-.75-11.12-.383-2.49-2.9-4.406-4.062-5.17A.812.812,0,0,1,285.976,417.523Z" transform="translate(-205.274 -253.088)" fill="#263238"/>
          <path id="Trazado_129636" data-name="Trazado 129636" d="M290.082,421.379l-.048.086c-.413.938-2.141,2.763-3.076,2.59a.692.692,0,0,1-.543-.67,1.2,1.2,0,0,1,.2-.91c.733-1.061,3.113-1.312,3.245-1.3a.176.176,0,0,1,.183.1A.2.2,0,0,1,290.082,421.379Zm-3.263,1.869.011.094c.046.277.163.293.216.31.545.1,1.859-1.071,2.454-2a4.349,4.349,0,0,0-2.539,1.093.792.792,0,0,0-.142.5Z" transform="translate(-205.296 -253.595)" fill="#407bff"/>
          <path id="Trazado_129637" data-name="Trazado 129637" d="M273.727,398.732l11.337,8.313-3.637,7.172-13.5-7.381Z" transform="translate(-204.495 -252.621)" opacity="0.2" style="isolation: isolate"/>
          <g id="Grupo_70495" data-name="Grupo 70495" transform="translate(70.614 149.41)">
            <path id="Trazado_129638" data-name="Trazado 129638" d="M279.163,414.834l-3.729-.828,6.2-11.825,3.456,3.528Z" transform="translate(-275.435 -402.181)" fill="#407bff"/>
            <path id="Trazado_129639" data-name="Trazado 129639" d="M279.163,414.834l-3.729-.828,6.2-11.825,3.456,3.528Z" transform="translate(-275.435 -402.181)" fill="#fff" opacity="0.6" style="isolation: isolate"/>
          </g>
          <path id="Trazado_129640" data-name="Trazado 129640" d="M248.446,413.251l-13.871,2.283-6.661,1.1-1.942-6.881L232,407.918l14.716-4.477Z" transform="translate(-202.674 -252.825)" fill="#e4897b"/>
          <path id="Trazado_129641" data-name="Trazado 129641" d="M226.547,408.444l3,7.725a.819.819,0,0,1-.491,1.069l-3.87,1.371s-5.076,2.216-6.719,1.51c-4.8-2.065-11.874-18.983-10.318-20.577.57-.584,1.811-.045,2.466.437,2.08,1.533,6.717,5.988,8.468,7.244,2.047,1.469,5.178,1.012,6.536.715A.812.812,0,0,1,226.547,408.444Z" transform="translate(-201.892 -252.645)" fill="#263238"/>
          <path id="Trazado_129642" data-name="Trazado 129642" d="M248.719,413.251l-13.871,2.283-2.579-7.616,14.716-4.477Z" transform="translate(-202.948 -252.825)" opacity="0.2" style="isolation: isolate"/>
          <path id="Trazado_129643" data-name="Trazado 129643" d="M234.766,405.116s57.664-34.012,77.179-33.107,21.221,20.328,13.169,31.1-22.919,13.391-22.919,13.391,10.123-14.305,8.659-18.33-7.042,9.512-7.042,9.512-35.729,4.679-66.852,7.316Z" transform="translate(-203.056 -251.461)" fill="#263238"/>
          <g id="Grupo_70496" data-name="Grupo 70496" transform="translate(30.798 150.63)">
            <path id="Trazado_129644" data-name="Trazado 129644" d="M233.813,405.607l3.2-2.151,4.113,12.634h-4.938Z" transform="translate(-233.813 -403.455)" fill="#407bff"/>
            <path id="Trazado_129645" data-name="Trazado 129645" d="M233.813,405.607l3.2-2.151,4.113,12.634h-4.938Z" transform="translate(-233.813 -403.455)" fill="#fff" opacity="0.6" style="isolation: isolate"/>
          </g>
          <path id="Trazado_129646" data-name="Trazado 129646" d="M302.547,296.981c8.39,0,13.853-8.8,13.853-8.8-11-3.855-11.04-15.468-11.04-15.468l-4.237,4.142-6.037,5.912c5.022,3.559,2.651,6.639,1.053,8.007a7.382,7.382,0,0,1-1.053.784S294.159,296.981,302.547,296.981Z" transform="translate(-205.672 -247.154)" fill="#e4897b"/>
          <path id="Trazado_129647" data-name="Trazado 129647" d="M296.14,290.945c10.293,1.158,9.595-14.254,9.595-14.254a26.208,26.208,0,0,0-4.611.335l-6.037,5.912C300.109,286.5,297.738,289.578,296.14,290.945Z" transform="translate(-205.673 -247.326)" opacity="0.2" style="isolation: isolate"/>
          <g id="Grupo_70499" data-name="Grupo 70499" transform="translate(73.437)">
            <g id="Grupo_70497" data-name="Grupo 70497" transform="translate(16.632 12.639)">
              <path id="Trazado_129648" data-name="Trazado 129648" d="M317.495,268.627c1.242,1.207-3.9,4.53-12.108,1.708s-9.616-11.127-9.616-11.127S309.342,260.7,317.495,268.627Z" transform="translate(-295.771 -259.207)" fill="#407bff"/>
              <path id="Trazado_129649" data-name="Trazado 129649" d="M317.495,268.627c1.242,1.207-3.9,4.53-12.108,1.708s-9.616-11.127-9.616-11.127S309.342,260.7,317.495,268.627Z" transform="translate(-295.771 -259.207)" opacity="0.4" style="isolation: isolate"/>
            </g>
            <path id="Trazado_129650" data-name="Trazado 129650" d="M287.412,260.557c3.9,1.615,3.154,5.87-3.315,13.622-3.981-3.429-6.138-11.235-4.05-13.74S284.015,259.164,287.412,260.557Z" transform="translate(-278.422 -246.559)" fill="#263238"/>
            <path id="Trazado_129651" data-name="Trazado 129651" d="M281.692,277.58a.074.074,0,0,0,.01.029,27.371,27.371,0,0,0,1.244,3.042c3.846,7.835,14.9,9.356,19.8,1.607.019-.029.039-.048.057-.077,3.234-5.214,2.019-10.083.67-18.52a11.667,11.667,0,0,0-18.214-7.825C278.841,260.294,279.225,270.377,281.692,277.58Z" transform="translate(-278.457 -246.33)" fill="#e4897b"/>
            <path id="Trazado_129652" data-name="Trazado 129652" d="M292.006,269.365c.151.677-.087,1.308-.529,1.4s-.917-.365-1.069-1.043.078-1.3.517-1.409S291.81,268.709,292.006,269.365Z" transform="translate(-278.905 -246.962)" fill="#263238"/>
            <path id="Trazado_129653" data-name="Trazado 129653" d="M283.961,271.181c.151.677-.087,1.308-.53,1.4s-.925-.362-1.081-1.047.087-1.308.53-1.4S283.81,270.5,283.961,271.181Z" transform="translate(-278.555 -247.041)" fill="#263238"/>
            <path id="Trazado_129654" data-name="Trazado 129654" d="M286.648,270.974a24.8,24.8,0,0,1-1.938,6.518,4.006,4.006,0,0,0,3.375-.124Z" transform="translate(-278.659 -247.078)" fill="#de5753"/>
            <path id="Trazado_129655" data-name="Trazado 129655" d="M293.542,266.3a.4.4,0,0,0,.241-.111.413.413,0,0,0-.04-.577,4.029,4.029,0,0,0-3.608-.916.393.393,0,0,0-.282.479l.008.027a.422.422,0,0,0,.506.275h0a3.213,3.213,0,0,1,2.84.753A.42.42,0,0,0,293.542,266.3Z" transform="translate(-278.882 -246.801)" fill="#263238"/>
            <path id="Trazado_129656" data-name="Trazado 129656" d="M279.741,269.184a.425.425,0,0,0,.313-.308,3.242,3.242,0,0,1,1.835-2.3.41.41,0,0,0-.272-.773,4.067,4.067,0,0,0-2.353,2.889.4.4,0,0,0,.3.487h.006A.5.5,0,0,0,279.741,269.184Z" transform="translate(-278.423 -246.853)" fill="#263238"/>
            <path id="Trazado_129657" data-name="Trazado 129657" d="M299.256,257.078c-3.591,2.206-2.173,6.293,5.442,12.909,3.39-4.019,4.279-12.076,1.81-14.2S302.394,255.157,299.256,257.078Z" transform="translate(-279.209 -246.374)" fill="#263238"/>
            <path id="Trazado_129658" data-name="Trazado 129658" d="M309.891,269.957a8.126,8.126,0,0,1-2.706,5.587c-2.144,1.871-4.435.247-4.865-2.413-.386-2.4.269-6.265,2.91-7.11S310.034,267.323,309.891,269.957Z" transform="translate(-279.419 -246.855)" fill="#e4897b"/>
            <path id="Trazado_129659" data-name="Trazado 129659" d="M289.809,281.576a.178.178,0,0,1-.03-.354,6.573,6.573,0,0,0,3.9-2.077,4.661,4.661,0,0,0,.915-1.541.178.178,0,0,1,.343.1,4.96,4.96,0,0,1-.987,1.675,6.79,6.79,0,0,1-4.111,2.2Z" transform="translate(-278.785 -247.272)" fill="#263238"/>
            <path id="Trazado_129660" data-name="Trazado 129660" d="M295.248,258.754a7.873,7.873,0,0,0-3.354,2.339,2.01,2.01,0,0,1,0-1.7,12.1,12.1,0,0,0-3.59,2.922,6.018,6.018,0,0,1-.585-2.732,16.093,16.093,0,0,0-1.589,3.5s-2.87-1.04-3.139-3.311a11.406,11.406,0,0,0,0,2.933,3.544,3.544,0,0,1-2.318-2.554,9.643,9.643,0,0,0-.505,3.566,3.364,3.364,0,0,1-1.514-3.945c.62-2.933,8.916-7.47,13.73-6.052S295.248,258.754,295.248,258.754Z" transform="translate(-278.392 -246.318)" fill="#263238"/>
            <path id="Trazado_129661" data-name="Trazado 129661" d="M278.385,260.646s.1-8.5,3.534-11.684,15.737-4.211,21.821-1.044,3.886,14.65,3.886,14.65S295.154,256.222,278.385,260.646Z" transform="translate(-278.385 -245.995)" fill="#529ad9"/>
            <path id="Trazado_129662" data-name="Trazado 129662" d="M282.851,258.249a19.323,19.323,0,0,1,7.677-.634s2.153-3.785-3.217-4.006C283.407,253.448,282.626,255.515,282.851,258.249Z" transform="translate(-278.577 -246.324)" fill="#263238"/>
            <g id="Grupo_70498" data-name="Grupo 70498" transform="translate(22.736 14.355)">
              <path id="Trazado_129663" data-name="Trazado 129663" d="M302.152,261l6.783.05a33.739,33.739,0,0,1,8.836,7.654S312.552,264.158,302.152,261Z" transform="translate(-302.152 -261.001)" fill="#407bff"/>
              <path id="Trazado_129664" data-name="Trazado 129664" d="M302.152,261l6.783.05a33.739,33.739,0,0,1,8.836,7.654S312.552,264.158,302.152,261Z" transform="translate(-302.152 -261.001)" opacity="0.2" style="isolation: isolate"/>
            </g>
          </g>
          <path id="Trazado_129665" data-name="Trazado 129665" d="M322.208,359.162l-19.836,22s-21.933-.489-48.563,12.528c0,0-28.576-11.8-31.2-21.61s59.987-2.87,59.987-2.87Z" transform="translate(-202.525 -250.904)" opacity="0.2" style="isolation: isolate"/>
          <path id="Trazado_129666" data-name="Trazado 129666" d="M318.511,352.412l-31.808,10.4s-11.36-2.511-13.393-2.511-9.881,6.383-5.44,8.61,16.561,2.511,17.876,1.794,36.591-8.972,36.591-8.972Z" transform="translate(-204.434 -250.611)" fill="#e4897b"/>
          <g id="Grupo_70500" data-name="Grupo 70500" transform="translate(110.728 41.618)">
            <path id="Trazado_129667" data-name="Trazado 129667" d="M330.147,289.533c-7.2-1.4,5.289,42.453,2.234,48.91s-15.013,10.54-15.013,10.54l5.5,12.141s16.262-3.071,25.111-14.311S341.893,291.81,330.147,289.533Z" transform="translate(-317.368 -289.5)" fill="#6826cc"/>
          </g>
          <g id="Grupo_70501" data-name="Grupo 70501" transform="translate(106.423 100.127)">
            <path id="Trazado_129668" data-name="Trazado 129668" d="M317.172,350.662l6.7,13.115-5.74,1.235-5.261-12.077Z" transform="translate(-312.867 -350.662)" fill="#407bff"/>
            <path id="Trazado_129669" data-name="Trazado 129669" d="M317.172,350.662l6.7,13.115-5.74,1.235-5.261-12.077Z" transform="translate(-312.867 -350.662)" fill="#fff" opacity="0.2" style="isolation: isolate"/>
          </g>
          <g id="Grupo_70504" data-name="Grupo 70504" transform="translate(0 79.081)">
            <g id="Grupo_70502" data-name="Grupo 70502" transform="translate(15.306 39.221)">
              <path id="Trazado_129670" data-name="Trazado 129670" d="M299.887,369.662v2.085a2.708,2.708,0,0,1-2.587,2.7H220.4a2.881,2.881,0,0,1-2.78-2.7v-2.085Z" transform="translate(-217.618 -369.662)" fill="#263238"/>
              <path id="Trazado_129671" data-name="Trazado 129671" d="M299.887,369.662v2.085a2.708,2.708,0,0,1-2.587,2.7H220.4a2.881,2.881,0,0,1-2.78-2.7v-2.085Z" transform="translate(-217.618 -369.662)" fill="#fff" opacity="0.2" style="isolation: isolate"/>
              <path id="Trazado_129672" data-name="Trazado 129672" d="M271.188,369.662v2.085a2.723,2.723,0,0,1-2.6,2.7H220.4a2.881,2.881,0,0,1-2.78-2.7v-2.085Z" transform="translate(-217.618 -369.662)" fill="#fff" opacity="0.2" style="isolation: isolate"/>
            </g>
            <g id="Grupo_70503" data-name="Grupo 70503">
              <path id="Trazado_129673" data-name="Trazado 129673" d="M267.9,370.753H217.092a4.142,4.142,0,0,1-3.693-2.726l-11.651-36.548a2.021,2.021,0,0,1,1.951-2.817h50.807a4.234,4.234,0,0,1,3.692,2.817l11.652,36.5A1.987,1.987,0,0,1,267.9,370.753Z" transform="translate(-201.618 -328.662)" fill="#263238"/>
              <path id="Trazado_129674" data-name="Trazado 129674" d="M267.9,370.753H217.092a4.142,4.142,0,0,1-3.693-2.726l-11.651-36.548a2.021,2.021,0,0,1,1.951-2.817h50.807a4.234,4.234,0,0,1,3.692,2.817l11.652,36.5A1.987,1.987,0,0,1,267.9,370.753Z" transform="translate(-201.618 -328.662)" fill="#fff" opacity="0.2" style="isolation: isolate"/>
              <path id="Trazado_129675" data-name="Trazado 129675" d="M265.986,370.753H217.092a4.142,4.142,0,0,1-3.693-2.726l-11.651-36.548a2.021,2.021,0,0,1,1.951-2.817h48.894a4.234,4.234,0,0,1,3.692,2.817l11.652,36.5A1.987,1.987,0,0,1,265.986,370.753Z" transform="translate(-201.618 -328.662)" fill="#fff" opacity="0.2" style="isolation: isolate"/>
            </g>
            <path id="Trazado_129676" data-name="Trazado 129676" d="M237.472,352.212c.628,2.436-.585,4.409-2.706,4.409s-4.349-1.973-4.976-4.409.585-4.408,2.706-4.408S236.845,349.778,237.472,352.212Z" transform="translate(-202.833 -329.492)" fill="#fff" opacity="0.2" style="isolation: isolate"/>
          </g>
          <g id="Grupo_70505" data-name="Grupo 70505" transform="translate(16.082 57.539)">
            <path id="Trazado_129677" data-name="Trazado 129677" d="M232.545,306.143H221.456a3.027,3.027,0,0,0-3.027,3.028v8.661a3.027,3.027,0,0,0,3.027,3.028h4.076L227,324.427l1.468-3.567h4.076a3.028,3.028,0,0,0,3.028-3.028v-8.661A3.028,3.028,0,0,0,232.545,306.143Z" transform="translate(-218.429 -306.143)" fill="#529ad9"/>
            <path id="Trazado_129678" data-name="Trazado 129678" d="M223,310.655c1.1-1.736,3.15-1.039,4.2.334,1.081-1.347,3.148-1.994,4.2-.231,1.781,2.973-2,5.66-3.779,6.71-.2.121-.369.219-.508.3-.138-.081-.3-.185-.5-.31C224.854,316.363,221.143,313.583,223,310.655Z" transform="translate(-218.605 -306.294)" fill="#fff" opacity="0.6" style="isolation: isolate"/>
          </g>
          <g id="Grupo_70506" data-name="Grupo 70506" transform="translate(52.154 65.576)">
            <path id="Trazado_129679" data-name="Trazado 129679" d="M263.195,314.545h-5.543a1.514,1.514,0,0,0-1.514,1.513v4.331a1.515,1.515,0,0,0,1.514,1.514h2.037l.735,1.783.734-1.783h2.038a1.515,1.515,0,0,0,1.514-1.514v-4.331A1.514,1.514,0,0,0,263.195,314.545Z" transform="translate(-256.137 -314.545)" fill="#529ad9"/>
            <path id="Trazado_129680" data-name="Trazado 129680" d="M258.421,316.8c.55-.869,1.576-.519,2.1.166.541-.673,1.574-1,2.1-.115.891,1.487-1,2.831-1.889,3.355-.1.06-.185.11-.253.148-.069-.04-.151-.092-.251-.155C259.35,319.655,257.495,318.265,258.421,316.8Z" transform="translate(-256.225 -314.621)" fill="#fff" opacity="0.6" style="isolation: isolate"/>
          </g>
          <g id="Grupo_70507" data-name="Grupo 70507" transform="translate(36.338 37.637)">
            <path id="Trazado_129681" data-name="Trazado 129681" d="M249.077,285.338h-7.441a2.033,2.033,0,0,0-2.032,2.033v5.813a2.032,2.032,0,0,0,2.032,2.032h2.735l.986,2.393.985-2.393h2.735a2.032,2.032,0,0,0,2.032-2.032v-5.813A2.033,2.033,0,0,0,249.077,285.338Z" transform="translate(-239.604 -285.338)" fill="#529ad9"/>
            <path id="Trazado_129682" data-name="Trazado 129682" d="M242.669,288.367c.738-1.165,2.114-.7,2.817.224.725-.9,2.112-1.337,2.821-.154,1.2,2-1.34,3.8-2.536,4.5-.135.081-.248.147-.341.2-.092-.054-.2-.124-.336-.209C243.916,292.2,241.425,290.332,242.669,288.367Z" transform="translate(-239.722 -285.439)" fill="#fff" opacity="0.6" style="isolation: isolate"/>
          </g>
          <path id="Trazado_129683" data-name="Trazado 129683" d="M285.976,417.523l3.421-7.549a.819.819,0,0,1,1.107-.4l3.688,1.806s5.134,2.076,5.779,3.744c1.885,4.875-5.254,21.766-7.481,21.769-.816,0-1.3-1.262-1.413-2.067-.361-2.558-.423-8.989-.75-11.12-.383-2.49-2.9-4.406-4.062-5.17A.812.812,0,0,1,285.976,417.523Z" transform="translate(-205.274 -253.088)" fill="#fff" opacity="0.2" style="isolation: isolate"/>
          <path id="Trazado_129684" data-name="Trazado 129684" d="M226.547,408.444l3,7.725a.819.819,0,0,1-.491,1.069l-3.87,1.371s-5.076,2.216-6.719,1.51c-4.8-2.065-11.874-18.983-10.318-20.577.57-.584,1.811-.045,2.466.437,2.08,1.533,6.717,5.988,8.468,7.244,2.047,1.469,5.178,1.012,6.536.715A.812.812,0,0,1,226.547,408.444Z" transform="translate(-201.892 -252.645)" fill="#fff" opacity="0.2" style="isolation: isolate"/>
        </g>
      </g>
    </g>
    <g id="Grupo_874481" data-name="Grupo 874481" transform="translate(786 3132.376)">
      <g id="Background_Complete-2" data-name="Background Complete" transform="translate(48 23.886)">
        <g id="Grupo_70511" data-name="Grupo 70511" transform="translate(27.761 17.447)">
          <path id="Trazado_129685" data-name="Trazado 129685" d="M119.644,93.047h0a17.6,17.6,0,0,1-17.6-17.6h0a17.6,17.6,0,0,1,17.6-17.6h0a17.6,17.6,0,0,1,17.6,17.6h0A17.6,17.6,0,0,1,119.644,93.047Z" transform="translate(-102.047 -57.853)" fill="#a2a7c5"/>
          <g id="Grupo_70510" data-name="Grupo 70510" transform="translate(9.268 7.792)">
            <g id="Grupo_70509" data-name="Grupo 70509">
              <rect id="Rectángulo_7920" data-name="Rectángulo 7920" width="3.642" height="11.766" transform="translate(0.35 5.883)" fill="#fff"/>
              <path id="Trazado_129686" data-name="Trazado 129686" d="M122.244,77.364a2.171,2.171,0,1,0-2.154-2.172A2.163,2.163,0,0,0,122.244,77.364Z" transform="translate(-120.09 -73.022)" fill="#fff"/>
            </g>
            <path id="Trazado_129687" data-name="Trazado 129687" d="M135.888,89.725c0-1.654.761-2.64,2.219-2.64,1.339,0,1.983.946,1.983,2.64V95.9h3.625V88.451c0-3.152-1.786-4.675-4.281-4.675a4.1,4.1,0,0,0-3.546,1.944V84.135H132.4V95.9h3.493Z" transform="translate(-126.075 -78.252)" fill="#fff"/>
          </g>
        </g>
        <path id="Trazado_129688" data-name="Trazado 129688" d="M175.767,23.886l2.41,4.406,4.406,2.41-4.406,2.41-2.41,4.406-2.41-4.406-4.406-2.41,4.406-2.41Z" transform="translate(-106.825 -23.886)" fill="#f5f5f5"/>
        <path id="Trazado_129689" data-name="Trazado 129689" d="M373.03,256.273l1.807,3.3,3.3,1.807-3.3,1.807-1.807,3.3-1.807-3.3-3.3-1.807,3.3-1.807Z" transform="translate(-203.592 -136.907)" fill="#ebebeb"/>
        <path id="Trazado_129690" data-name="Trazado 129690" d="M385.638,224.508l.815,1.491,1.491.815-1.491.815-.815,1.491-.815-1.491-1.491-.815,1.491-.815Z" transform="translate(-211.089 -121.459)" fill="#e0e0e0"/>
        <path id="Trazado_129691" data-name="Trazado 129691" d="M146.53,27.112l.815,1.491,1.491.815-1.491.815-.815,1.491-.815-1.491-1.491-.815,1.491-.815Z" transform="translate(-94.798 -25.455)" fill="#e0e0e0"/>
        <g id="Grupo_70513" data-name="Grupo 70513" transform="translate(0 129.905)">
          <g id="Grupo_70512" data-name="Grupo 70512">
            <path id="Trazado_129692" data-name="Trazado 129692" d="M58.855,287.047a5.327,5.327,0,0,0,3.111-4.969,5.007,5.007,0,1,0-9.992.083,5.318,5.318,0,0,0,3.248,4.933c-7.673,1.258-7.216,9.609-7.216,9.609l18.181-.152S66.491,288.1,58.855,287.047Z" transform="translate(-48 -276.792)" fill="#a2a7c5"/>
          </g>
        </g>
        <g id="Grupo_70514" data-name="Grupo 70514" transform="translate(174.028 192.929)">
          <path id="Trazado_129693" data-name="Trazado 129693" d="M398.019,401.775a2.83,2.83,0,0,0-5.581.166,2.83,2.83,0,0,0-5.582-.117,3.82,3.82,0,0,0,.686,2.756,11.371,11.371,0,0,0,2,2.109c1.016.9,1.955,1.754,2.971,2.658,1.008-.913,1.865-1.771,2.873-2.684a11.317,11.317,0,0,0,1.977-2.127A3.819,3.819,0,0,0,398.019,401.775Z" transform="translate(-386.806 -399.49)" fill="#ea3584"/>
        </g>
      </g>
      <g id="Icons" transform="translate(48.135 66.05)">
        <g id="Grupo_70518" data-name="Grupo 70518" transform="translate(147.294)">
          <path id="Trazado_129696" data-name="Trazado 129696" d="M365.025,145.615h0a20.87,20.87,0,0,1-27.9-9.64h0a20.87,20.87,0,0,1,9.64-27.9h0a20.87,20.87,0,0,1,27.9,9.64h0A20.87,20.87,0,0,1,365.025,145.615Z" transform="translate(-335.022 -105.973)" fill="#529ad9"/>
          <path id="Trazado_129697" data-name="Trazado 129697" d="M360.133,139.5a.49.49,0,0,0,.485-.632c-.051-.253-.186-.888-.239-1.155-.07-.364-.158-.459-.531-.624a4.111,4.111,0,0,1-2.066-2.1,6.743,6.743,0,0,1,3.321-9.2c3.438-1.672,6.349-.49,7.714,2.317,1.8,3.691,1.677,7.6-.748,8.781a2.2,2.2,0,0,1-3.221-1.482c-.4-1.81-.51-3.923-1.079-5.094a1.906,1.906,0,0,0-2.662-1.082c-1.369.666-1.78,2.618-.858,4.515a5.48,5.48,0,0,0,1.395,1.827s1.487,6.619,1.746,7.778a15.949,15.949,0,0,0,2.328,4.884.189.189,0,0,0,.34-.074,15.181,15.181,0,0,0,.273-5.314c-.119-.646-.81-3.957-.81-3.957a4.082,4.082,0,0,0,3.9.074c4.116-2,5.084-7.112,2.641-12.134-1.847-3.8-6.783-5.77-11.673-3.393-6.083,2.959-7.029,8.812-5.26,12.449C356.2,138.091,357.99,139.645,360.133,139.5Z" transform="translate(-344.416 -113.965)" fill="#fff"/>
        </g>
        <g id="Grupo_70520" data-name="Grupo 70520" transform="translate(188.88 70.665)">
          <path id="Trazado_129698" data-name="Trazado 129698" d="M425.245,271.391h0a14.394,14.394,0,0,1-8.308-18.583h0A14.394,14.394,0,0,1,435.52,244.5h0a14.394,14.394,0,0,1,8.308,18.583h0A14.394,14.394,0,0,1,425.245,271.391Z" transform="translate(-415.985 -243.548)" fill="#6826cc"/>
          <g id="Grupo_70519" data-name="Grupo 70519" transform="translate(4.204 6.556)">
            <path id="Trazado_129699" data-name="Trazado 129699" d="M441.877,266.6a7.754,7.754,0,0,0-14.422-5.662c-.043.1-.087.208-.127.313a7.637,7.637,0,0,0-.381,4.108l-2.778,3.356,4.5.258a7.762,7.762,0,0,0,13.144-2.188C441.833,266.721,441.857,266.66,441.877,266.6Zm-9.616,3.458a6.492,6.492,0,0,1-2.967-2.28l-2.624-.148,1.616-1.954a6.4,6.4,0,0,1,.195-3.985,6.006,6.006,0,0,1,.254-.575,6.52,6.52,0,0,1,12.082,4.749c-.046.161-.1.319-.16.479A6.5,6.5,0,0,1,432.261,270.056Z" transform="translate(-424.169 -256.312)" fill="#fff" fill-rule="evenodd"/>
            <path id="Trazado_129700" data-name="Trazado 129700" d="M444.271,270c-.146-.157-.854-.917-.995-1.037s-.248-.2-.434-.065-.68.4-.826.473-.257.053-.4-.1a5.153,5.153,0,0,1-1.093-1.42,5.642,5.642,0,0,1-.521-1.594c-.034-.215.094-.275.215-.329s.255-.139.386-.206l.1-.061a2.073,2.073,0,0,0,.193-.167.34.34,0,0,0,.1-.313c-.01-.105-.035-1.109-.049-1.518s-.183-.4-.289-.445-.214-.1-.332-.146a.7.7,0,0,0-.559.039,2.112,2.112,0,0,0-1.182,1.234,2.4,2.4,0,0,0-.138.635,4.274,4.274,0,0,0,.168,1.462,7.8,7.8,0,0,0,2.013,3.819c1.539,1.392,1.628,1.158,1.965,1.252a1.9,1.9,0,0,0,1.517-.38,1.555,1.555,0,0,0,.425-.8C444.516,270.245,444.414,270.156,444.271,270Z" transform="translate(-431.107 -259.578)" fill="#fff" fill-rule="evenodd"/>
          </g>
        </g>
        <g id="Grupo_70521" data-name="Grupo 70521" transform="translate(0 10.032)">
          <path id="Trazado_129701" data-name="Trazado 129701" d="M59.239,147.456h0A10.976,10.976,0,0,1,48.263,136.48h0A10.976,10.976,0,0,1,59.239,125.5h0A10.976,10.976,0,0,1,70.215,136.48h0A10.976,10.976,0,0,1,59.239,147.456Z" transform="translate(-48.263 -125.504)" fill="#54e1f7"/>
          <path id="Trazado_129702" data-name="Trazado 129702" d="M58.246,146.047a6.824,6.824,0,0,0,10.5-6.06,4.864,4.864,0,0,0,1.2-1.242,4.792,4.792,0,0,1-1.378.378,2.4,2.4,0,0,0,1.055-1.327,4.82,4.82,0,0,1-1.523.582,2.4,2.4,0,0,0-4.089,2.189,6.81,6.81,0,0,1-4.945-2.508,2.4,2.4,0,0,0,.742,3.2,2.386,2.386,0,0,1-1.087-.3,2.4,2.4,0,0,0,1.925,2.383,2.4,2.4,0,0,1-1.083.041,2.4,2.4,0,0,0,2.241,1.666A4.821,4.821,0,0,1,58.246,146.047Z" transform="translate(-53.118 -131.397)" fill="#fff"/>
        </g>
        <g id="Grupo_70523" data-name="Grupo 70523" transform="translate(7.411 117.64)">
          <path id="Trazado_129703" data-name="Trazado 129703" d="M85.98,372.3h0a18.9,18.9,0,0,1-22.77-14.008h0a18.9,18.9,0,0,1,14.009-22.771h0a18.9,18.9,0,0,1,22.771,14.009h0A18.9,18.9,0,0,1,85.98,372.3Z" transform="translate(-62.691 -335)" fill="#ea3584"/>
          <g id="Grupo_70522" data-name="Grupo 70522" transform="translate(7.721 7.721)">
            <path id="Trazado_129704" data-name="Trazado 129704" d="M86.94,352.952c2.693-.641,3.014-.707,4.088-.912a5.745,5.745,0,0,1,1.955-.1,3.433,3.433,0,0,1,2.369,1.458,5.755,5.755,0,0,1,.793,1.79c.3,1.052.388,1.368,1.029,4.06s.707,3.014.912,4.089a5.747,5.747,0,0,1,.1,1.955,3.431,3.431,0,0,1-1.458,2.369,5.732,5.732,0,0,1-1.79.794c-1.052.3-1.368.388-4.06,1.029s-3.014.707-4.089.912a5.724,5.724,0,0,1-1.955.1,3.431,3.431,0,0,1-2.369-1.457,5.743,5.743,0,0,1-.793-1.79c-.3-1.052-.388-1.368-1.029-4.06s-.707-3.014-.912-4.089a5.742,5.742,0,0,1-.1-1.955,3.434,3.434,0,0,1,1.458-2.369,5.743,5.743,0,0,1,1.79-.793c1.051-.3,1.368-.388,4.06-1.03m-.432-1.816c-2.739.652-3.079.746-4.143,1.051a7.6,7.6,0,0,0-2.336,1.052,5.3,5.3,0,0,0-2.246,3.652,7.6,7.6,0,0,0,.114,2.559c.207,1.087.277,1.433.93,4.171s.746,3.079,1.051,4.143A7.6,7.6,0,0,0,80.93,370.1a5.3,5.3,0,0,0,3.651,2.247,7.627,7.627,0,0,0,2.56-.115c1.087-.207,1.433-.277,4.171-.93s3.079-.746,4.143-1.051A7.6,7.6,0,0,0,97.79,369.2a5.3,5.3,0,0,0,2.247-3.652,7.624,7.624,0,0,0-.115-2.559c-.207-1.087-.277-1.433-.93-4.171s-.746-3.079-1.051-4.143a7.6,7.6,0,0,0-1.052-2.336,5.3,5.3,0,0,0-3.652-2.247,7.625,7.625,0,0,0-2.559.115c-1.087.207-1.433.277-4.171.93" transform="translate(-77.722 -350.031)" fill="#fff"/>
            <path id="Trazado_129705" data-name="Trazado 129705" d="M93.229,361.594a5.322,5.322,0,1,0,6.411,3.944,5.322,5.322,0,0,0-6.411-3.944m2.034,8.538a3.455,3.455,0,1,1,2.56-4.162,3.455,3.455,0,0,1-2.56,4.162" transform="translate(-83.274 -355.583)" fill="#fff"/>
            <path id="Trazado_129706" data-name="Trazado 129706" d="M107.517,357.371a1.244,1.244,0,1,1-1.5-.922,1.244,1.244,0,0,1,1.5.922" transform="translate(-91.019 -353.136)" fill="#fff"/>
          </g>
        </g>
        <g id="Grupo_70524" data-name="Grupo 70524" transform="translate(165.077 120.668)">
          <path id="Trazado_129707" data-name="Trazado 129707" d="M378.46,358.527h0a8.816,8.816,0,0,1-8.816-8.816h0a8.816,8.816,0,0,1,8.816-8.816h0a8.816,8.816,0,0,1,8.816,8.816h0A8.816,8.816,0,0,1,378.46,358.527Z" transform="translate(-369.644 -340.895)" fill="#529ad9"/>
          <path id="Trazado_129708" data-name="Trazado 129708" d="M383.134,358.342h2.146v-5.374h1.5l.16-1.8H385.28v-1.025c0-.424.085-.592.5-.592h1.161v-1.868h-1.486c-1.6,0-2.317.7-2.317,2.049v1.435h-1.116v1.822h1.116Z" transform="translate(-375.662 -344.197)" fill="#fff"/>
        </g>
      </g>
      <g id="Device" transform="translate(105.716 44.597)">
        <g id="Grupo_70590" data-name="Grupo 70590">
          <g id="Grupo_70589" data-name="Grupo 70589">
            <g id="Grupo_70584" data-name="Grupo 70584">
              <g id="Grupo_70532" data-name="Grupo 70532">
                <g id="Grupo_70531" data-name="Grupo 70531">
                  <g id="Grupo_70527" data-name="Grupo 70527">
                    <g id="Grupo_70526" data-name="Grupo 70526">
                      <g id="Grupo_70525" data-name="Grupo 70525">
                        <path id="Trazado_129709" data-name="Trazado 129709" d="M246.609,272.666l-70.826-.042a15.428,15.428,0,0,1-15.419-15.431L160.4,79.632a15.428,15.428,0,0,1,15.437-15.425l70.826.042A15.428,15.428,0,0,1,262.081,79.68l-.035,177.561A15.427,15.427,0,0,1,246.609,272.666Z" transform="translate(-160.365 -64.207)" fill="#263238"/>
                      </g>
                    </g>
                  </g>
                  <g id="Grupo_70530" data-name="Grupo 70530" transform="translate(4.693 6.281)">
                    <g id="Grupo_70529" data-name="Grupo 70529">
                      <g id="Grupo_70528" data-name="Grupo 70528">
                        <path id="Trazado_129710" data-name="Trazado 129710" d="M251.031,76.476,237.3,76.468a3.411,3.411,0,0,0-3.335,3.484v2.491a3.411,3.411,0,0,1-3.335,3.484l-26.767-.016a3.414,3.414,0,0,1-3.334-3.488V79.932a3.414,3.414,0,0,0-3.334-3.488l-4.829,0-12.018-.007a10.8,10.8,0,0,0-10.811,10.8L169.5,260.55a10.805,10.805,0,0,0,10.8,10.808l70.684.041A10.8,10.8,0,0,0,261.8,260.6l.034-173.313A10.8,10.8,0,0,0,251.031,76.476Z" transform="translate(-169.502 -76.435)" fill="#fff"/>
                      </g>
                    </g>
                  </g>
                </g>
              </g>
              <g id="Grupo_70542" data-name="Grupo 70542" transform="translate(79.279 20.345)">
                <g id="Grupo_70535" data-name="Grupo 70535">
                  <g id="Grupo_70534" data-name="Grupo 70534">
                    <g id="Grupo_70533" data-name="Grupo 70533">
                      <path id="Trazado_129711" data-name="Trazado 129711" d="M322.687,103.873c0,.046-1.785.1-3.988.117s-3.989,0-3.99-.051,1.785-.1,3.988-.117S322.687,103.826,322.687,103.873Z" transform="translate(-314.709 -103.815)" fill="#263238"/>
                    </g>
                  </g>
                </g>
                <g id="Grupo_70538" data-name="Grupo 70538" transform="translate(0.017 2.041)">
                  <g id="Grupo_70537" data-name="Grupo 70537">
                    <g id="Grupo_70536" data-name="Grupo 70536">
                      <path id="Trazado_129712" data-name="Trazado 129712" d="M322.72,107.847c0,.046-1.785.1-3.988.117s-3.989-.005-3.99-.051,1.785-.1,3.988-.117S322.719,107.8,322.72,107.847Z" transform="translate(-314.742 -107.789)" fill="#263238"/>
                    </g>
                  </g>
                </g>
                <g id="Grupo_70541" data-name="Grupo 70541" transform="translate(0.034 4.082)">
                  <g id="Grupo_70540" data-name="Grupo 70540">
                    <g id="Grupo_70539" data-name="Grupo 70539">
                      <path id="Trazado_129713" data-name="Trazado 129713" d="M322.752,111.82c0,.047-1.785.1-3.988.117s-3.99,0-3.99-.051,1.785-.1,3.988-.117S322.752,111.774,322.752,111.82Z" transform="translate(-314.775 -111.763)" fill="#263238"/>
                    </g>
                  </g>
                </g>
              </g>
              <g id="Grupo_70545" data-name="Grupo 70545" transform="translate(12.043 18.06)">
                <g id="Grupo_70544" data-name="Grupo 70544">
                  <g id="Grupo_70543" data-name="Grupo 70543">
                    <path id="Trazado_129714" data-name="Trazado 129714" d="M183.918,107.782a1.639,1.639,0,0,1,.209-.014l.581-.019,2.147-.051-.06.061q-.012-.714-.025-1.557c0-.289-.025-.562,0-.9a.826.826,0,0,1,.721-.662c.346-.007.65-.023,1.025-.005a.834.834,0,0,1,.7.829c.008.726.017,1.484.026,2.27l-.1-.1,2.708-.028-.1.1c-.01-1.09-.02-2.218-.03-3.374q0-.432-.007-.859a.875.875,0,0,0-.381-.64l-1.184-1.167-1.142-1.127-.554-.547c-.19-.183-.339-.373-.56-.418a.729.729,0,0,0-.622.119c-.164.139-.339.335-.5.5l-.972.98c-.611.635-1.248,1.215-1.71,1.763a1.915,1.915,0,0,0-.136,1.01q0,.5,0,.954-.005.878-.01,1.537c0,.392-.008.717-.011.983a3.483,3.483,0,0,1-.013.354,2.583,2.583,0,0,1-.018-.326c-.007-.261-.016-.581-.027-.968q-.015-.664-.035-1.549-.009-.46-.018-.973,0-.26-.008-.532a1.127,1.127,0,0,1,.149-.567c.5-.614,1.1-1.157,1.715-1.811l.964-.988c.174-.171.316-.34.523-.518a.92.92,0,0,1,.785-.155,1.462,1.462,0,0,1,.65.465l.556.544,1.146,1.123,1.186,1.164a2.259,2.259,0,0,1,.3.328.887.887,0,0,1,.142.457q0,.429.008.863c.009,1.156.017,2.284.026,3.375v.1h-.1l-2.708.017h-.1v-.1c0-.786-.008-1.545-.012-2.27a.653.653,0,0,0-.547-.657c-.312-.016-.679-.006-.982,0a.665.665,0,0,0-.584.526c-.026.272-.006.59-.012.865q0,.841,0,1.557v.061h-.06l-2.182-.015-.568-.01A1.065,1.065,0,0,1,183.918,107.782Z" transform="translate(-183.811 -99.366)" fill="#263238"/>
                  </g>
                </g>
              </g>
              <g id="Grupo_70564" data-name="Grupo 70564" transform="translate(10.329 155.611)">
                <g id="Grupo_70550" data-name="Grupo 70550" transform="translate(29.656 6.158)">
                  <g id="Grupo_70549" data-name="Grupo 70549">
                    <g id="Grupo_70546" data-name="Grupo 70546">
                      <path id="Trazado_129715" data-name="Trazado 129715" d="M257.1,379.28a3.936,3.936,0,0,1-.742.052l-2.024.043c-1.709.024-4.07.039-6.677.039s-4.969-.015-6.677-.039l-2.024-.043a3.936,3.936,0,0,1-.742-.052,3.964,3.964,0,0,1,.742-.052l2.024-.043c1.708-.024,4.07-.039,6.677-.039s4.968.015,6.677.039l2.024.043A3.964,3.964,0,0,1,257.1,379.28Z" transform="translate(-238.211 -379.146)" fill="#455a64"/>
                    </g>
                    <g id="Grupo_70547" data-name="Grupo 70547" transform="translate(0 4.646)">
                      <path id="Trazado_129716" data-name="Trazado 129716" d="M286.782,388.326c0,.074-10.874.134-24.284.134s-24.286-.06-24.286-.134,10.871-.134,24.286-.134S286.782,388.252,286.782,388.326Z" transform="translate(-238.211 -388.192)" fill="#455a64"/>
                    </g>
                    <g id="Grupo_70548" data-name="Grupo 70548" transform="translate(0 9.017)">
                      <path id="Trazado_129717" data-name="Trazado 129717" d="M271.6,396.835c0,.074-7.476.134-16.7.134s-16.7-.06-16.7-.134,7.474-.134,16.7-.134S271.6,396.761,271.6,396.835Z" transform="translate(-238.211 -396.701)" fill="#455a64"/>
                    </g>
                  </g>
                </g>
                <g id="Grupo_70551" data-name="Grupo 70551" transform="translate(76.241 19.404)">
                  <path id="Trazado_129718" data-name="Trazado 129718" d="M331.851,409.347l-1.509-1.514-1.437,1.433.007-4.333,2.946,0Zm-1.509-1.7.047.047,1.328,1.333.006-3.954-2.679,0-.006,3.878Z" transform="translate(-328.905 -404.934)" fill="#263238"/>
                </g>
                <g id="Grupo_70552" data-name="Grupo 70552" transform="translate(36.29 20.268)">
                  <path id="Trazado_129719" data-name="Trazado 129719" d="M253.839,409.6l-.532-.237a1.459,1.459,0,1,1,.778-1.282,1.475,1.475,0,0,1-.368.986Zm-1.245-2.885a1.378,1.378,0,0,0,.022,2.756,1.421,1.421,0,0,0,.663-.209l.022-.013.393.176-.089-.386.018-.02a1.376,1.376,0,0,0-1.029-2.3Z" transform="translate(-251.126 -406.616)" fill="#263238"/>
                </g>
                <g id="Grupo_70553" data-name="Grupo 70553" transform="translate(40.672 20.47)">
                  <path id="Trazado_129720" data-name="Trazado 129720" d="M261.412,409.565l-.611-1.49-1.144-1.043,2.776-.022Zm-1.5-2.433.975.895.52,1.269.872-2.183Z" transform="translate(-259.657 -407.01)" fill="#263238"/>
                </g>
                <g id="Grupo_70554" data-name="Grupo 70554" transform="translate(41.879 20.47)">
                  <rect id="Rectángulo_7921" data-name="Rectángulo 7921" width="1.806" height="0.101" transform="translate(0 0.985) rotate(-33.054)" fill="#263238"/>
                </g>
                <g id="Grupo_70555" data-name="Grupo 70555" transform="translate(31.233 20.113)">
                  <path id="Trazado_129721" data-name="Trazado 129721" d="M244.683,407.006a1.9,1.9,0,0,1-2.523-.676.887.887,0,0,0-.865.7,1.159,1.159,0,0,0,.211.836,3.446,3.446,0,0,0,.608.637c.309.273.6.53.9.8.3-.278.564-.539.869-.818a3.416,3.416,0,0,0,.6-.647A1.162,1.162,0,0,0,244.683,407.006Z" transform="translate(-241.281 -406.316)" fill="#e8505b"/>
                </g>
                <g id="Grupo_70556" data-name="Grupo 70556">
                  <path id="Trazado_129722" data-name="Trazado 129722" d="M262.755,394.808s-.006-.166-.009-.483-.005-.79-.009-1.405c-.005-1.239-.012-3.062-.022-5.423-.011-4.721-.028-11.589-.048-20.2l.088.088-82.141.046h-.005l.134-.134c0,9.563,0,18.839,0,27.516l-.129-.129,58.779.06,17.158.036,4.6.017,1.193.008c.269,0,.411.008.411.008s-.13.005-.394.008l-1.178.008-4.577.016-17.129.036-58.868.06h-.129v-.129c0-8.678,0-17.954,0-27.516v-.134h.139l82.141.046h.088v.088c-.021,8.638-.037,15.524-.048,20.257-.009,2.353-.016,4.168-.022,5.4q-.006.912-.009,1.39C262.761,394.653,262.755,394.808,262.755,394.808Z" transform="translate(-180.475 -367.158)" fill="#263238"/>
                </g>
                <g id="Grupo_70563" data-name="Grupo 70563" transform="translate(3.31 4.611)">
                  <g id="Grupo_70560" data-name="Grupo 70560">
                    <g id="Grupo_70559" data-name="Grupo 70559">
                      <g id="Grupo_70558" data-name="Grupo 70558">
                        <rect id="Rectángulo_7922" data-name="Rectángulo 7922" width="18.192" height="22.755" transform="matrix(0.006, -1, 1, 0.006, 0.136, 18.312)" fill="#ebebeb"/>
                        <g id="Grupo_70557" data-name="Grupo 70557">
                          <path id="Trazado_129723" data-name="Trazado 129723" d="M209.913,376.384a.9.9,0,0,1-.114.006l-.323.005-1.242.007-4.665.005-16.411-.033.12-.119c-.027,5.416-.057,11.622-.089,18.19.028.032-.249-.253-.129-.133h.388l.394,0,.784,0,1.557.009,3.066.018,5.9.038,10.657.077-.112.11c.055-5.462.1-9.994.133-13.176.022-1.582.038-2.828.05-3.693q.012-.627.018-.979c.006-.222.014-.343.014-.343s.008.1.01.319,0,.549.007.957c0,.859,0,2.1.008,3.669,0,3.2-.011,7.755-.018,13.247v.111h-.112l-10.656-.044-5.9-.029-3.066-.016-1.557-.009-.784,0-.394,0-.2,0h-.192c.117.12-.167-.163-.137-.136.043-6.568.083-12.773.118-18.189v-.12h.12l16.488.154,4.638.058,1.218.021.309.009A.442.442,0,0,1,209.913,376.384Z" transform="translate(-186.92 -376.134)" fill="#263238"/>
                        </g>
                      </g>
                    </g>
                  </g>
                  <rect id="Rectángulo_7923" data-name="Rectángulo 7923" width="15.901" height="21.156" transform="matrix(0.006, -1, 1, 0.006, 0.927, 17.171)" fill="#e0e0e0"/>
                  <path id="Trazado_129724" data-name="Trazado 129724" d="M188.725,400.245l7.445-9.842,4.542,6.21,3.123-3.288,6.045,7.04Z" transform="translate(-187.798 -383.074)" fill="#f5f5f5"/>
                  <g id="Grupo_70562" data-name="Grupo 70562" transform="translate(11.568 4.481)">
                    <g id="Grupo_70561" data-name="Grupo 70561">
                      <path id="Trazado_129725" data-name="Trazado 129725" d="M212.773,386.532a1.666,1.666,0,1,1-1.657-1.675A1.667,1.667,0,0,1,212.773,386.532Z" transform="translate(-209.441 -384.857)" fill="#f5f5f5"/>
                    </g>
                  </g>
                </g>
              </g>
              <g id="Grupo_70579" data-name="Grupo 70579" transform="translate(13.629 38.754)">
                <g id="Grupo_70574" data-name="Grupo 70574">
                  <g id="Grupo_70567" data-name="Grupo 70567" transform="translate(14.705 3.573)">
                    <g id="Grupo_70566" data-name="Grupo 70566">
                      <g id="Grupo_70565" data-name="Grupo 70565">
                        <path id="Trazado_129726" data-name="Trazado 129726" d="M239.443,146.746a.841.841,0,0,1-.243.027l-.7.025-2.563.042c-2.164.025-5.153.04-8.455.04s-6.292-.015-8.456-.04l-2.562-.042-.7-.025a.841.841,0,0,1-.243-.027.854.854,0,0,1,.243-.027l.7-.025,2.562-.043c2.164-.024,5.154-.039,8.456-.039s6.291.015,8.455.039l2.563.043.7.025A.854.854,0,0,1,239.443,146.746Z" transform="translate(-215.527 -146.612)" fill="#263238"/>
                      </g>
                    </g>
                  </g>
                  <g id="Grupo_70573" data-name="Grupo 70573" transform="translate(0 97.411)">
                    <g id="Grupo_70568" data-name="Grupo 70568" transform="translate(67.859 0.3)">
                      <path id="Trazado_129727" data-name="Trazado 129727" d="M323.387,336.443l-2.242-2.249-2.136,2.13.01-6.439,4.378.007Zm-2.242-2.529.07.069,1.974,1.981.009-5.875-3.982-.006-.009,5.763Z" transform="translate(-319.009 -329.885)" fill="#263238"/>
                    </g>
                    <g id="Grupo_70569" data-name="Grupo 70569" transform="translate(9.954 0.304)">
                      <path id="Trazado_129728" data-name="Trazado 129728" d="M211.617,335.769l-1.048-.467a2.871,2.871,0,1,1,1.531-2.522,2.9,2.9,0,0,1-.725,1.942Zm-2.451-5.678a2.712,2.712,0,1,0,.044,5.424,2.8,2.8,0,0,0,1.306-.412l.043-.024.773.345-.175-.759.035-.039a2.709,2.709,0,0,0-2.026-4.535Z" transform="translate(-206.277 -329.892)" fill="#263238"/>
                    </g>
                    <g id="Grupo_70570" data-name="Grupo 70570" transform="translate(18.579 0.702)">
                      <path id="Trazado_129729" data-name="Trazado 129729" d="M226.523,335.7l-1.2-2.932-2.253-2.053,5.464-.044Zm-2.944-4.79,1.919,1.761,1.023,2.5,1.717-4.3Z" transform="translate(-223.069 -330.668)" fill="#263238"/>
                    </g>
                    <g id="Grupo_70571" data-name="Grupo 70571" transform="translate(20.955 0.702)">
                      <rect id="Rectángulo_7924" data-name="Rectángulo 7924" width="3.555" height="0.2" transform="matrix(0.838, -0.545, 0.545, 0.838, 0, 1.938)" fill="#263238"/>
                    </g>
                    <g id="Grupo_70572" data-name="Grupo 70572">
                      <path id="Trazado_129730" data-name="Trazado 129730" d="M193.593,330.659a1.69,1.69,0,0,0-3.333.111,1.69,1.69,0,0,0-3.334-.058,2.28,2.28,0,0,0,.416,1.644,6.749,6.749,0,0,0,1.2,1.255c.609.538,1.171,1.044,1.78,1.582.6-.548,1.111-1.062,1.71-1.609a6.776,6.776,0,0,0,1.176-1.274A2.281,2.281,0,0,0,193.593,330.659Z" transform="translate(-186.898 -329.301)" fill="#e8505b"/>
                    </g>
                  </g>
                  <circle id="Elipse_5275" data-name="Elipse 5275" cx="3.707" cy="3.707" r="3.707" transform="translate(2.491)" fill="#ebebeb"/>
                </g>
                <g id="Grupo_70578" data-name="Grupo 70578" transform="translate(1.41 77.09)">
                  <g id="Grupo_70575" data-name="Grupo 70575" transform="translate(0 5.781)">
                    <path id="Trazado_129731" data-name="Trazado 129731" d="M259.07,301.128c0,.074-15.543.134-34.712.134s-34.715-.06-34.715-.134,15.539-.134,34.715-.134S259.07,301.054,259.07,301.128Z" transform="translate(-189.643 -300.994)" fill="#455a64"/>
                  </g>
                  <g id="Grupo_70576" data-name="Grupo 70576">
                    <path id="Trazado_129732" data-name="Trazado 129732" d="M259.07,289.873c0,.074-15.543.134-34.712.134s-34.715-.06-34.715-.134,15.539-.134,34.715-.134S259.07,289.8,259.07,289.873Z" transform="translate(-189.643 -289.739)" fill="#455a64"/>
                  </g>
                  <g id="Grupo_70577" data-name="Grupo 70577" transform="translate(0 11.64)">
                    <path id="Trazado_129733" data-name="Trazado 129733" d="M227.433,312.534c0,.074-8.46.134-18.894.134s-18.9-.06-18.9-.134,8.458-.134,18.9-.134S227.433,312.46,227.433,312.534Z" transform="translate(-189.643 -312.4)" fill="#455a64"/>
                  </g>
                </g>
              </g>
              <g id="Grupo_70583" data-name="Grupo 70583" transform="translate(45.215 189.103)">
                <g id="Grupo_70580" data-name="Grupo 70580">
                  <path id="Trazado_129734" data-name="Trazado 129734" d="M251.342,433.866a1.475,1.475,0,1,1-1.468-1.5A1.485,1.485,0,0,1,251.342,433.866Z" transform="translate(-248.392 -432.363)" fill="#263238"/>
                </g>
                <g id="Grupo_70581" data-name="Grupo 70581" transform="translate(4.57 0.021)">
                  <path id="Trazado_129735" data-name="Trazado 129735" d="M260.24,433.907a1.475,1.475,0,1,1-1.469-1.5A1.485,1.485,0,0,1,260.24,433.907Z" transform="translate(-257.29 -432.404)" fill="#263238"/>
                </g>
                <g id="Grupo_70582" data-name="Grupo 70582" transform="translate(9.141 0.042)">
                  <path id="Trazado_129736" data-name="Trazado 129736" d="M269.138,433.948a1.475,1.475,0,1,1-1.469-1.5A1.484,1.484,0,0,1,269.138,433.948Z" transform="translate(-266.188 -432.445)" fill="#263238"/>
                </g>
              </g>
            </g>
            <g id="Grupo_70587" data-name="Grupo 70587" transform="translate(10.955 49.797)">
              <rect id="Rectángulo_7925" data-name="Rectángulo 7925" width="82.146" height="50.237" transform="translate(0 0)" fill="#e0e0e0"/>
              <path id="Trazado_129737" data-name="Trazado 129737" d="M196.457,229.144,220,197.637l14.593,19.7L244.48,206.8l19.4,22.322Z" transform="translate(-188.874 -178.898)" fill="#f5f5f5"/>
              <g id="Grupo_70586" data-name="Grupo 70586" transform="translate(41.284 9.568)">
                <g id="Grupo_70585" data-name="Grupo 70585">
                  <path id="Trazado_129738" data-name="Trazado 129738" d="M272.685,185.088a5.309,5.309,0,1,1-5.311-5.307A5.309,5.309,0,0,1,272.685,185.088Z" transform="translate(-262.067 -179.781)" fill="#f5f5f5"/>
                </g>
              </g>
            </g>
            <g id="Grupo_70588" data-name="Grupo 70588" transform="translate(10.601 32.949)">
              <path id="Trazado_129739" data-name="Trazado 129739" d="M263.283,242.126c0-1.075-.05-46.457-.121-113.64l.121.122-82.137.012h-.009l.134-.134c-.009,42.5-.018,81.83-.025,113.64l-.108-.109,82.146.109-82.146.109h-.109v-.109c-.007-31.81-.016-71.141-.025-113.64v-.134h.143l82.137.012h.121v.121c-.025,33.625-.045,62.047-.06,82.067-.014,10-.025,17.893-.032,23.3-.006,2.694-.011,4.765-.014,6.165q0,1.043-.007,1.582C263.288,241.95,263.283,242.126,263.283,242.126Z" transform="translate(-181.003 -128.353)" fill="#263238"/>
            </g>
          </g>
        </g>
      </g>
      <g id="Megaphone" transform="translate(72.145 74.825)">
        <g id="Grupo_70617" data-name="Grupo 70617" transform="translate(0)">
          <g id="Grupo_70611" data-name="Grupo 70611">
            <g id="Grupo_70609" data-name="Grupo 70609">
              <g id="Grupo_70591" data-name="Grupo 70591" transform="translate(54.573 102.705)">
                <path id="Trazado_129740" data-name="Trazado 129740" d="M234.532,350.894l1.817-6.106c.317-1.324.738-2.886,1.3-4.669a12.6,12.6,0,0,1,3.008-4.5c1.855-1.887,2.737-1.9,3.984-2.9.114-.073.24-.177.347-.235a1.967,1.967,0,0,0,.606-.524c1.075-1.162.043-2.961-2.139-2.79-1.643.129-4.322.6-8.679,5.093-.054.068-.111.125-.165.2-2.287,2.972-4.434-5.512-4.821-8.67a3.31,3.31,0,0,0-4.473-2.567l-10.613,4.964a4.953,4.953,0,0,0-3.1.1,3.154,3.154,0,0,0-2.022,3.744l4.3,17.182-12.642,42.064H228.5Z" transform="translate(-201.252 -323.009)" fill="#ffbe9d"/>
              </g>
              <g id="Grupo_70607" data-name="Grupo 70607">
                <g id="Grupo_70599" data-name="Grupo 70599">
                  <g id="Grupo_70593" data-name="Grupo 70593" transform="translate(60.964 86.019)">
                    <g id="Grupo_70592" data-name="Grupo 70592">
                      <path id="Trazado_129741" data-name="Trazado 129741" d="M261.516,296.461l-8.423,16.505-4.211-1.17-21.17,17.221a4.288,4.288,0,0,1-5.957-.53l-8.06-9.366s16.252-7,19.258-12.8-.467-7.11-.467-7.11l7.649-8.692Z" transform="translate(-213.694 -290.522)" fill="#ea3584"/>
                    </g>
                  </g>
                  <g id="Grupo_70594" data-name="Grupo 70594">
                    <path id="Trazado_129742" data-name="Trazado 129742" d="M192.867,181.3s-12.33-2.727-29.68-19.412-25.5-38.841-27.627-38.733-11.4-4.2-29.034,34.168-10.69,47.274-7.18,47.2,27.34-6.713,42.225-5.021,34.016,9.45,34.016,9.45Z" transform="translate(-95.007 -123.056)" fill="#ea3584"/>
                  </g>
                  <g id="Grupo_70595" data-name="Grupo 70595" transform="translate(77.93 51.011)">
                    <path id="Trazado_129743" data-name="Trazado 129743" d="M292.848,250.509l-4.206,8-1.885,3.582a10.438,10.438,0,0,1-13.606,4.622L246.725,257.5l15.39-35.136,26.4,14.07A10.439,10.439,0,0,1,292.848,250.509Z" transform="translate(-246.725 -222.368)" fill="#e8505b"/>
                  </g>
                  <g id="Grupo_70596" data-name="Grupo 70596" transform="translate(77.93 51.011)">
                    <path id="Trazado_129744" data-name="Trazado 129744" d="M292.848,250.509l-4.206,8-1.885,3.582a10.438,10.438,0,0,1-13.606,4.622L246.725,257.5l15.39-35.136,26.4,14.07A10.439,10.439,0,0,1,292.848,250.509Z" transform="translate(-246.725 -222.368)" fill="#dee0eb"/>
                  </g>
                  <g id="Grupo_70597" data-name="Grupo 70597" transform="translate(2.309 0.88)">
                    <path id="Trazado_129745" data-name="Trazado 129745" d="M110.139,158.852c-9.386,20.782-13.293,39.3-8.727,41.365s15.877-13.114,25.264-33.9,13.293-39.3,8.727-41.364S119.526,138.069,110.139,158.852Z" transform="translate(-99.503 -124.769)" fill="#e8505b"/>
                  </g>
                  <g id="Grupo_70598" data-name="Grupo 70598" transform="translate(2.309 0.88)">
                    <path id="Trazado_129746" data-name="Trazado 129746" d="M110.139,158.852c-9.386,20.782-13.293,39.3-8.727,41.365s15.877-13.114,25.264-33.9,13.293-39.3,8.727-41.364S119.526,138.069,110.139,158.852Z" transform="translate(-99.503 -124.769)" fill="#f7f5ed"/>
                  </g>
                </g>
                <g id="Grupo_70600" data-name="Grupo 70600" transform="translate(119.158 80.031)">
                  <path id="Trazado_129747" data-name="Trazado 129747" d="M334.153,289.542l-7.163-2.25,4.432-8.428L336.8,282.2Z" transform="translate(-326.991 -278.865)" fill="#ea3584"/>
                </g>
                <g id="Grupo_70601" data-name="Grupo 70601" transform="translate(119.158 80.031)" opacity="0.6">
                  <path id="Trazado_129748" data-name="Trazado 129748" d="M331.423,278.865l-4.432,8.428,1.472.463,3.6-8.491Z" transform="translate(-326.991 -278.865)"/>
                </g>
                <g id="Grupo_70602" data-name="Grupo 70602" transform="translate(103.064 74.904)">
                  <path id="Trazado_129749" data-name="Trazado 129749" d="M311.249,275.955c-.105.232-3.68-1.158-7.984-3.1s-7.711-3.711-7.606-3.942,3.678,1.158,7.984,3.1S311.352,275.724,311.249,275.955Z" transform="translate(-295.656 -268.884)" fill="#a0a603"/>
                </g>
                <g id="Grupo_70603" data-name="Grupo 70603" transform="translate(106.811 70.014)">
                  <path id="Trazado_129750" data-name="Trazado 129750" d="M317,266.305c-.113.229-3.347-1.135-7.225-3.045s-6.932-3.643-6.819-3.872,3.345,1.136,7.225,3.046S317.111,266.077,317,266.305Z" transform="translate(-302.952 -259.364)" fill="#a0a603"/>
                </g>
                <g id="Grupo_70604" data-name="Grupo 70604" transform="translate(101.663 80.896)">
                  <path id="Trazado_129751" data-name="Trazado 129751" d="M307.143,286.893c-.038.122-.889-.074-2.246-.494-.678-.21-1.481-.475-2.37-.782s-1.8-.784-2.782-1.229c-3.919-1.819-6.911-3.6-6.813-3.811.116-.249,3.314,1.174,7.2,2.975.974.441,1.877.927,2.729,1.283s1.622.668,2.262.952C306.4,286.357,307.18,286.771,307.143,286.893Z" transform="translate(-292.929 -280.549)" fill="#a0a603"/>
                </g>
                <g id="Grupo_70605" data-name="Grupo 70605" transform="translate(13.812 28.819)">
                  <path id="Trazado_129752" data-name="Trazado 129752" d="M140.167,180.685s-10.716-6.645-16.58,7.833S129,205.377,129,205.377A96.464,96.464,0,0,0,140.167,180.685Z" transform="translate(-121.897 -179.163)" fill="#363636"/>
                </g>
                <g id="Grupo_70606" data-name="Grupo 70606" transform="translate(12.775 13.086)" opacity="0.5">
                  <path id="Trazado_129753" data-name="Trazado 129753" d="M150.581,148.533a16.139,16.139,0,0,1-.42,2.766c-.339,1.77-.818,4.338-1.506,7.491-.453,1.553-.948,3.249-1.479,5.067l-.833,2.822-.437,1.475c-.16.495-.369.98-.555,1.48l-2.421,6.246q-.316.813-.638,1.639c-.209.553-.5,1.074-.754,1.618l-1.592,3.284-1.6,3.283c-.273.534-.5,1.087-.806,1.594l-.894,1.515-3.415,5.766c-.278.456-.53.919-.82,1.351l-.891,1.258-1.706,2.4-3.072,4.3c-2.049,2.483-3.768,4.442-4.948,5.8a16.274,16.274,0,0,1-1.916,2.042,16.336,16.336,0,0,1,1.64-2.27l4.721-5.986,2.957-4.333,1.653-2.407.866-1.257c.282-.432.528-.9.8-1.352l3.346-5.754.88-1.508c.3-.5.525-1.054.8-1.585l1.582-3.262,1.586-3.259c.25-.54.545-1.057.754-1.6l.641-1.624,2.454-6.185c.191-.495.4-.974.569-1.463s.3-.98.454-1.46q.448-1.438.871-2.791c.567-1.8,1.095-3.473,1.579-5.008l1.783-7.4A16.547,16.547,0,0,1,150.581,148.533Z" transform="translate(-119.877 -148.533)"/>
                </g>
              </g>
              <g id="Grupo_70608" data-name="Grupo 70608" transform="translate(63.531 98.789)" opacity="0.4">
                <path id="Trazado_129754" data-name="Trazado 129754" d="M218.693,330.062a20.867,20.867,0,0,0,3.422,5,7.046,7.046,0,0,0,5.449,2.22,4.312,4.312,0,0,0,3.947-3.9,2.524,2.524,0,0,0,3.252-.574,5.69,5.69,0,0,0,1.158-3.373,3.181,3.181,0,0,0,4.018-1.088,5.2,5.2,0,0,0,.506-4.4,15.39,15.39,0,0,0-2.11-4.04,5.587,5.587,0,0,0,2.988-.307,1.925,1.925,0,0,0,.988-2.523,2.514,2.514,0,0,0-1.473-.939,9.511,9.511,0,0,0-4.349-.7c-.384,0,.661,4.354-9.7,10.3A87.046,87.046,0,0,1,218.693,330.062Z" transform="translate(-218.693 -315.383)"/>
              </g>
            </g>
            <g id="Grupo_70610" data-name="Grupo 70610" transform="translate(76.337 119.507)">
              <path id="Trazado_129755" data-name="Trazado 129755" d="M254.148,355.965c-.007.048-.7-.085-1.814-.054a10.256,10.256,0,0,0-7.614,3.651c-.723.853-1.052,1.473-1.094,1.448a1.586,1.586,0,0,1,.2-.449,8.2,8.2,0,0,1,.744-1.119,9.7,9.7,0,0,1,7.759-3.72,8.274,8.274,0,0,1,1.339.12A1.579,1.579,0,0,1,254.148,355.965Z" transform="translate(-243.624 -355.72)" fill="#eb996e"/>
            </g>
            <path id="Trazado_129756" data-name="Trazado 129756" d="M220.008,329.956c1.669,1.6,2.81,3.373,4.561,4.988.8.733,2.031,2.123,3.1,2.308s1.749.043,2.171-.953c.342-.807-.272-1.91-.7-2.575-1.115-1.749-2.181-3.117-3.017-4.477-.391-.637.115-.768.3-.474.8.833,2,1.554,2.721,2.461.985,1.241,1.164,2.885,3.742,2.365a2.323,2.323,0,0,0,.957-.4,2.578,2.578,0,0,0,.6-3.069,8.4,8.4,0,0,0-1.435-2.171c1.1,1.239,2.3,2.544,4.04,2.684a2.4,2.4,0,0,0,2.443-1.322c.516-1.172-.224-2.305-.967-3.222a33.554,33.554,0,0,0-4.381-4.475,3.333,3.333,0,0,0-2.13-.789,3.1,3.1,0,0,0-2.589.949,3.5,3.5,0,0,0-.7,2.685s-2.263-1.147-4.081.052a5.767,5.767,0,0,0-2.268,3.263Z" transform="translate(-155.801 -219.247)" fill="#ffbe9d"/>
            <path id="Trazado_129757" data-name="Trazado 129757" d="M242.843,315.239a2.711,2.711,0,0,1-.32-3.061c.385-.754.871-1.487,1.363-1.654,2.153-.726,11.558.9,11.472,2.989-.088,2.143-.773,3.087-5.877,2.349-.9-.129-2.307-.307-2.307-.307l-1.232,1.849Z" transform="translate(-166.594 -214.146)" fill="#ffbe9d"/>
          </g>
          <g id="Grupo_70612" data-name="Grupo 70612" transform="translate(72.75 105.13)">
            <path id="Trazado_129758" data-name="Trazado 129758" d="M241.824,332.433a12.347,12.347,0,0,0-5.183-4.7,3.006,3.006,0,0,1,1,.351,8.933,8.933,0,0,1,3.741,3.391A3.005,3.005,0,0,1,241.824,332.433Z" transform="translate(-236.641 -327.729)" fill="#eb996e"/>
          </g>
          <g id="Grupo_70613" data-name="Grupo 70613" transform="translate(76.415 101.584)">
            <path id="Trazado_129759" data-name="Trazado 129759" d="M246.877,322.661c-.047.044-.668-.463-1.515-.981a10.652,10.652,0,0,0-1.1-.609c-.291-.137-.483-.174-.483-.214s.221-.062.548.037a5.057,5.057,0,0,1,1.179.558A3.64,3.64,0,0,1,246.877,322.661Z" transform="translate(-243.776 -320.826)" fill="#eb996e"/>
          </g>
          <g id="Grupo_70614" data-name="Grupo 70614" transform="translate(77.781 100.24)">
            <path id="Trazado_129760" data-name="Trazado 129760" d="M249.749,319.447a4.064,4.064,0,0,1-1.812-.2,3.31,3.31,0,0,1-1.159-.608c-.258-.22-.366-.4-.341-.425a7.584,7.584,0,0,0,1.579.777A13.508,13.508,0,0,1,249.749,319.447Z" transform="translate(-246.434 -318.208)" fill="#eb996e"/>
          </g>
          <g id="Grupo_70615" data-name="Grupo 70615" transform="translate(64.481 107.733)">
            <path id="Trazado_129761" data-name="Trazado 129761" d="M228.015,337.482a6.551,6.551,0,0,1-.857-1.115,10.115,10.115,0,0,0-2.2-2.5,4.426,4.426,0,0,0-3.11-.824,5.655,5.655,0,0,0-1.31.417c-.009-.012.089-.107.3-.237a2.928,2.928,0,0,1,.98-.366,4.37,4.37,0,0,1,3.3.793,8.936,8.936,0,0,1,2.2,2.608A8.353,8.353,0,0,1,228.015,337.482Z" transform="translate(-220.542 -332.796)" fill="#eb996e"/>
          </g>
          <g id="Grupo_70616" data-name="Grupo 70616" transform="translate(71.432 133.2)">
            <path id="Trazado_129762" data-name="Trazado 129762" d="M241.792,382.4a56.363,56.363,0,0,1-7.718.839,56.389,56.389,0,0,1,7.718-.839Z" transform="translate(-234.074 -382.378)" fill="#eb996e"/>
          </g>
        </g>
      </g>
      <g id="Stars" transform="translate(48.365 37.219)">
        <g id="Grupo_70618" data-name="Grupo 70618">
          <path id="Trazado_129763" data-name="Trazado 129763" d="M405.079,49.844l.58,1.06,1.06.58-1.06.58-.58,1.06-.58-1.06-1.06-.58,1.06-.58Z" transform="translate(-221.233 -49.844)" fill="#e8505b"/>
          <path id="Trazado_129764" data-name="Trazado 129764" d="M428.684,101.014l.58,1.06,1.06.58-1.06.58-.58,1.06-.58-1.06-1.06-.58,1.06-.58Z" transform="translate(-232.713 -74.73)" fill="#e8505b"/>
          <path id="Trazado_129765" data-name="Trazado 129765" d="M50.351,237.533l.58,1.06,1.06.58-1.06.58-.58,1.06-.58-1.06-1.06-.58,1.06-.58Z" transform="translate(-48.711 -141.127)" fill="#e8505b"/>
          <path id="Trazado_129766" data-name="Trazado 129766" d="M372.076,62.562l1.339,2.448,2.448,1.339-2.448,1.339-1.339,2.448-1.339-2.448-2.448-1.339,2.448-1.339Z" transform="translate(-204.138 -56.029)" fill="#e8505b"/>
          <path id="Trazado_129767" data-name="Trazado 129767" d="M69.483,205.1l1.336,2.443,2.443,1.336-2.443,1.336-1.336,2.443-1.336-2.443L65.7,208.876l2.443-1.336Z" transform="translate(-56.975 -125.351)" fill="#e8505b"/>
          <path id="Trazado_129768" data-name="Trazado 129768" d="M433.08,318.565l1.336,2.443,2.443,1.336-2.443,1.336-1.336,2.443-1.336-2.443-2.443-1.336,2.443-1.336Z" transform="translate(-233.811 -180.537)" fill="#e8505b"/>
        </g>
      </g>
    </g>
  </g>
</svg>
