<svg xmlns="http://www.w3.org/2000/svg" xmlns:xlink="http://www.w3.org/1999/xlink" width="295" height="210" viewBox="0 0 295 210">
  <defs>
    <linearGradient id="linear-gradient" x1="0.819" y1="0.136" x2="0.142" y2="0.804" gradientUnits="objectBoundingBox">
      <stop offset="0" stop-color="#ffedaf"/>
      <stop offset="0.271" stop-color="#fe7e81"/>
      <stop offset="0.864" stop-color="#ff1787"/>
      <stop offset="1" stop-color="#c13099"/>
    </linearGradient>
    <clipPath id="clip-path">
      <rect id="Rectángulo_42643" data-name="Rectángulo 42643" width="117.439" height="117.439" fill="url(#linear-gradient)"/>
    </clipPath>
    <radialGradient id="radial-gradient" cx="0.747" cy="0.171" r="0.876" gradientTransform="matrix(-0.433, 0.902, -0.902, -0.433, 1.225, -0.428)" gradientUnits="objectBoundingBox">
      <stop offset="0" stop-color="#fff"/>
      <stop offset="1" stop-color="#d2d5e1"/>
    </radialGradient>
  </defs>
  <g id="Grupo_874488" data-name="Grupo 874488" transform="translate(-810 -598)">
    <path id="Trazado_594494" data-name="Trazado 594494" d="M14,0H281a14,14,0,0,1,14,14V196a14,14,0,0,1-14,14H14A14,14,0,0,1,0,196V14A14,14,0,0,1,14,0Z" transform="translate(810 598)" fill="#ebe3f9"/>
    <path id="Trazado_594495" data-name="Trazado 594495" d="M76.358,14.491V19H73.722V6.2h4.992a5.776,5.776,0,0,1,2.536.527,3.886,3.886,0,0,1,1.683,1.5,4.178,4.178,0,0,1,.589,2.21,3.674,3.674,0,0,1-1.288,2.966,5.363,5.363,0,0,1-3.564,1.085Zm0-2.136h2.355a2.316,2.316,0,0,0,1.6-.492,1.79,1.79,0,0,0,.549-1.406A2.111,2.111,0,0,0,80.3,8.937a2.068,2.068,0,0,0-1.529-.6H76.358ZM87.846,19H85.3V5.5h2.549Zm7.6,0a2.821,2.821,0,0,1-.255-.853,3.073,3.073,0,0,1-2.4,1.028,3.376,3.376,0,0,1-2.316-.809,2.6,2.6,0,0,1-.918-2.039,2.687,2.687,0,0,1,1.121-2.32,5.529,5.529,0,0,1,3.239-.817h1.169v-.545a1.567,1.567,0,0,0-.338-1.055,1.331,1.331,0,0,0-1.068-.4,1.513,1.513,0,0,0-1.006.308,1.045,1.045,0,0,0-.365.844h-2.54a2.551,2.551,0,0,1,.51-1.529,3.37,3.37,0,0,1,1.441-1.1,5.253,5.253,0,0,1,2.092-.4A4.15,4.15,0,0,1,96.6,10.2a3.09,3.09,0,0,1,1.033,2.483V16.8a4.546,4.546,0,0,0,.378,2.048V19Zm-2.1-1.767a2.188,2.188,0,0,0,1.037-.25,1.645,1.645,0,0,0,.7-.672V14.676h-.949q-1.907,0-2.03,1.318l-.009.149a1.017,1.017,0,0,0,.334.782A1.3,1.3,0,0,0,93.348,17.233Zm9.158-.281h4.649V19H99.263V17.453l4.474-5.915H99.395V9.49h7.62v1.5ZM114.257,19a2.821,2.821,0,0,1-.255-.853,3.073,3.073,0,0,1-2.4,1.028,3.376,3.376,0,0,1-2.316-.809,2.6,2.6,0,0,1-.918-2.039,2.687,2.687,0,0,1,1.121-2.32,5.529,5.529,0,0,1,3.239-.817H113.9v-.545a1.567,1.567,0,0,0-.338-1.055,1.331,1.331,0,0,0-1.068-.4,1.513,1.513,0,0,0-1.006.308,1.045,1.045,0,0,0-.365.844h-2.54a2.551,2.551,0,0,1,.51-1.529,3.37,3.37,0,0,1,1.441-1.1,5.253,5.253,0,0,1,2.092-.4,4.15,4.15,0,0,1,2.791.883,3.09,3.09,0,0,1,1.033,2.483V16.8a4.546,4.546,0,0,0,.378,2.048V19Zm-2.1-1.767a2.188,2.188,0,0,0,1.037-.25,1.645,1.645,0,0,0,.7-.672V14.676h-.949q-1.907,0-2.03,1.318l-.009.149a1.017,1.017,0,0,0,.334.782A1.3,1.3,0,0,0,112.156,17.233Z" transform="translate(863 749)" fill="#12263f"/>
    <path id="Trazado_593274" data-name="Trazado 593274" d="M-21088-7107.893l10.506,10.5-10.506,10.5" transform="translate(8054.393 -20298.791) rotate(-90)" fill="none" stroke="#6826cc" stroke-linecap="round" stroke-linejoin="round" stroke-width="2"/>
    <g id="Grupo_873977" data-name="Grupo 873977">
      <g id="Grupo_873667" data-name="Grupo 873667" transform="translate(626.439 -15.73)">
        <g id="Grupo_873664" data-name="Grupo 873664" transform="translate(272.561 630.422)">
          <ellipse id="Elipse_4731" data-name="Elipse 4731" cx="46.5" cy="3.5" rx="46.5" ry="3.5" transform="translate(0.439 111.948)" fill="#636363" opacity="0.2"/>
          <g id="Grupo_151722" data-name="Grupo 151722">
            <g id="Grupo_151721" data-name="Grupo 151721">
              <g id="Grupo_151720" data-name="Grupo 151720" clip-path="url(#clip-path)">
                <path id="Trazado_212311" data-name="Trazado 212311" d="M729.763,119.869a58.72,58.72,0,1,0,58.988-58.45,58.72,58.72,0,0,0-58.988,58.45" transform="translate(-729.762 -61.418)" fill="url(#linear-gradient)"/>
              </g>
            </g>
          </g>
          <path id="Trazado_212338" data-name="Trazado 212338" d="M100.331,172.187a45.8,45.8,0,1,1,46.012-45.593,45.855,45.855,0,0,1-46.012,45.593" transform="translate(-41.772 -68.208)" fill="url(#radial-gradient)"/>
        </g>
      </g>
      <g id="Page-1" transform="translate(930 645.779)">
        <g id="_051---Tablet-GPS" data-name="051---Tablet-GPS" transform="translate(0 0.52)">
          <path id="Shape" d="M52.47,13.15H47.907a8.845,8.845,0,0,0,.815-3.261,9.37,9.37,0,0,0-18.739,0A8.845,8.845,0,0,0,30.8,13.15h-8.77a7.233,7.233,0,0,0,.459-2.324,9.37,9.37,0,1,0-18.739,0,7.233,7.233,0,0,0,.459,2.324H3.748A3.748,3.748,0,0,0,0,16.9V52.5a3.748,3.748,0,0,0,3.748,3.748H52.47A3.748,3.748,0,0,0,56.218,52.5V16.9A3.748,3.748,0,0,0,52.47,13.15Zm-7.5,5.622V50.629H7.5v-31.4c1.518,2.211,3.158,4.216,4.2,5.444a1.874,1.874,0,0,0,2.811,0,68.5,68.5,0,0,0,4.544-5.9H34.04c1.424,2.024,2.9,3.832,3.86,4.966a1.874,1.874,0,0,0,2.811,0c.937-1.134,2.436-2.942,3.86-4.966ZM39.353,2.394a7.5,7.5,0,0,1,7.5,7.5c0,2.811-3.87,8.377-7.5,12.63-3.626-4.254-7.5-9.81-7.5-12.63A7.5,7.5,0,0,1,39.353,2.394Zm-7.646,12.63c.337.628.712,1.256,1.106,1.874H20.229c.375-.628.712-1.256,1.021-1.874ZM13.118,3.331a7.5,7.5,0,0,1,7.5,7.5c0,2.811-3.87,8.377-7.5,12.63-3.626-4.254-7.5-9.81-7.5-12.63A7.5,7.5,0,0,1,13.118,3.331ZM54.344,52.5a1.874,1.874,0,0,1-1.874,1.874H3.748A1.874,1.874,0,0,1,1.874,52.5V16.9a1.874,1.874,0,0,1,1.874-1.874H4.985c.384.768.815,1.555,1.293,2.333a1.874,1.874,0,0,0-.656,1.415V50.629A1.874,1.874,0,0,0,7.5,52.5H44.975a1.874,1.874,0,0,0,1.874-1.874V18.772a1.874,1.874,0,0,0-1.078-1.687c.44-.684.853-1.377,1.227-2.061H52.47A1.874,1.874,0,0,1,54.344,16.9Z" transform="translate(0 -0.52)"/>
          <path id="Shape-2" data-name="Shape" d="M3.937,35A.937.937,0,0,0,3,35.937v1.874a.937.937,0,0,0,1.874,0V35.937A.937.937,0,0,0,3.937,35Z" transform="translate(-0.189 -2.693)"/>
          <path id="Shape-3" data-name="Shape" d="M53.811,34a2.811,2.811,0,1,0,2.811,2.811A2.811,2.811,0,0,0,53.811,34Zm0,3.748a.937.937,0,1,1,.937-.937A.937.937,0,0,1,53.811,37.748Z" transform="translate(-3.215 -2.63)"/>
          <path id="Shape-4" data-name="Shape" d="M36.237,31.75l-3.3.937a3.748,3.748,0,1,0-6.4,3.87l-4.488,4.928a3.682,3.682,0,0,0-1.743-.365,3.5,3.5,0,0,0-.937.141l-3.026-5.837a3.748,3.748,0,1,0-2.6,1.012,3.5,3.5,0,0,0,.937-.141l3.026,5.837a3.748,3.748,0,1,0,5.725.656l4.488-4.928a3.725,3.725,0,0,0,5.5-3.3l3.3-.937a3.748,3.748,0,1,0-.487-1.874Zm-24.361.937a1.874,1.874,0,1,1,1.874,1.874A1.874,1.874,0,0,1,11.876,32.687Zm8.433,14.055a1.874,1.874,0,1,1,1.874-1.874A1.874,1.874,0,0,1,20.309,46.741Zm9.37-10.307a1.874,1.874,0,1,1,1.874-1.874A1.874,1.874,0,0,1,29.679,36.434ZM41.859,31.75a1.874,1.874,0,1,1-1.874-1.874A1.874,1.874,0,0,1,41.859,31.75Z" transform="translate(-0.633 -2.254)"/>
          <path id="Shape-5" data-name="Shape" d="M32.874,43.874a.937.937,0,1,0,0-1.874h-.937a.937.937,0,1,0,0,1.874Z" transform="translate(-1.954 -3.134)"/>
          <path id="Shape-6" data-name="Shape" d="M44.433,42h-7.5a.937.937,0,1,0,0,1.874h7.5a.937.937,0,1,0,0-1.874Z" transform="translate(-2.269 -3.134)"/>
          <path id="Shape-7" data-name="Shape" d="M30.748,46.937A.937.937,0,0,0,29.811,46H27.937a.937.937,0,1,0,0,1.874h1.874A.937.937,0,0,0,30.748,46.937Z" transform="translate(-1.702 -3.387)"/>
          <path id="Shape-8" data-name="Shape" d="M44.244,46H33.937a.937.937,0,0,0,0,1.874H44.244a.937.937,0,0,0,0-1.874Z" transform="translate(-2.08 -3.387)"/>
          <path id="Shape-9" data-name="Shape" d="M44.055,50H30.937a.937.937,0,0,0,0,1.874H44.055a.937.937,0,1,0,0-1.874Z" transform="translate(-1.891 -3.639)"/>
          <path id="Shape-10" data-name="Shape" d="M46.37,10.2a4.685,4.685,0,1,0-4.685,4.685A4.685,4.685,0,0,0,46.37,10.2Zm-4.685,2.811a2.811,2.811,0,1,1,1.988-.823A2.811,2.811,0,0,1,41.685,13.016Z" transform="translate(-2.332 -0.835)"/>
          <path id="Shape-11" data-name="Shape" d="M18.37,11.2A4.685,4.685,0,1,0,17,14.518,4.685,4.685,0,0,0,18.37,11.2Zm-4.685,2.811a2.811,2.811,0,1,1,1.988-.823A2.811,2.811,0,0,1,13.685,14.016Z" transform="translate(-0.567 -0.898)"/>
        </g>
      </g>
    </g>
  </g>
</svg>
