<svg xmlns="http://www.w3.org/2000/svg" xmlns:xlink="http://www.w3.org/1999/xlink" width="295" height="210" viewBox="0 0 295 210">
  <defs>
    <linearGradient id="linear-gradient" x1="0.819" y1="0.136" x2="0.142" y2="0.804" gradientUnits="objectBoundingBox">
      <stop offset="0" stop-color="#ffedaf"/>
      <stop offset="0.271" stop-color="#fe7e81"/>
      <stop offset="0.864" stop-color="#ff1787"/>
      <stop offset="1" stop-color="#c13099"/>
    </linearGradient>
    <clipPath id="clip-path">
      <rect id="Rectángulo_42643" data-name="Rectángulo 42643" width="117.439" height="117.439" fill="url(#linear-gradient)"/>
    </clipPath>
    <radialGradient id="radial-gradient" cx="0.747" cy="0.171" r="0.876" gradientTransform="matrix(-0.433, 0.902, -0.902, -0.433, 1.225, -0.428)" gradientUnits="objectBoundingBox">
      <stop offset="0" stop-color="#fff"/>
      <stop offset="1" stop-color="#d2d5e1"/>
    </radialGradient>
  </defs>
  <g id="Grupo_874487" data-name="Grupo 874487" transform="translate(-495 -598)">
    <path id="Trazado_594492" data-name="Trazado 594492" d="M14,0H281a14,14,0,0,1,14,14V196a14,14,0,0,1-14,14H14A14,14,0,0,1,0,196V14A14,14,0,0,1,14,0Z" transform="translate(495 598)" fill="#ebe3f9"/>
    <path id="Trazado_594493" data-name="Trazado 594493" d="M72.658,14.491V19H70.021V6.2h4.992a5.776,5.776,0,0,1,2.536.527,3.886,3.886,0,0,1,1.683,1.5,4.178,4.178,0,0,1,.589,2.21,3.674,3.674,0,0,1-1.288,2.966,5.363,5.363,0,0,1-3.564,1.085Zm0-2.136h2.355a2.316,2.316,0,0,0,1.6-.492,1.79,1.79,0,0,0,.549-1.406A2.111,2.111,0,0,0,76.6,8.937a2.068,2.068,0,0,0-1.529-.6H72.658Zm14.15-.483a6.9,6.9,0,0,0-.914-.07,1.86,1.86,0,0,0-1.89.976V19h-2.54V9.49h2.4l.07,1.134a2.354,2.354,0,0,1,2.118-1.31,2.662,2.662,0,0,1,.791.114Zm5.6,7.3A4.668,4.668,0,0,1,89,17.893a4.561,4.561,0,0,1-1.314-3.419v-.246a5.745,5.745,0,0,1,.554-2.562,4.064,4.064,0,0,1,1.569-1.74,4.4,4.4,0,0,1,2.316-.611,3.947,3.947,0,0,1,3.072,1.23,5,5,0,0,1,1.121,3.489v1.037H90.263a2.36,2.36,0,0,0,.743,1.494,2.245,2.245,0,0,0,1.569.563,2.742,2.742,0,0,0,2.294-1.063l1.248,1.4a3.813,3.813,0,0,1-1.547,1.261A5.075,5.075,0,0,1,92.407,19.176Zm-.29-7.813a1.587,1.587,0,0,0-1.226.512,2.651,2.651,0,0,0-.6,1.466h3.533v-.2a1.891,1.891,0,0,0-.457-1.311A1.638,1.638,0,0,0,92.117,11.362Zm9.6,5.766a1.666,1.666,0,0,0,1.143-.387,1.355,1.355,0,0,0,.457-1.028H105.7a3.258,3.258,0,0,1-.527,1.771,3.48,3.48,0,0,1-1.419,1.248,4.442,4.442,0,0,1-1.991.444,4.129,4.129,0,0,1-3.217-1.3A5.13,5.13,0,0,1,97.364,14.3v-.167a5.071,5.071,0,0,1,1.169-3.507,4.08,4.08,0,0,1,3.208-1.31A4,4,0,0,1,104.6,10.33a3.594,3.594,0,0,1,1.094,2.7h-2.382a1.745,1.745,0,0,0-.457-1.206,1.7,1.7,0,0,0-2.5.183,3.749,3.749,0,0,0-.453,2.1v.264a3.8,3.8,0,0,0,.448,2.113A1.549,1.549,0,0,0,101.715,17.128ZM109.827,19h-2.549V9.49h2.549Zm-2.7-11.971a1.251,1.251,0,0,1,.382-.94,1.648,1.648,0,0,1,2.079,0,1.244,1.244,0,0,1,.387.94,1.247,1.247,0,0,1-.391.949,1.629,1.629,0,0,1-2.065,0A1.247,1.247,0,0,1,107.129,7.029Zm4.395,7.128a5.64,5.64,0,0,1,.545-2.522,3.989,3.989,0,0,1,1.569-1.714,4.577,4.577,0,0,1,2.377-.606,4.33,4.33,0,0,1,3.142,1.178,4.727,4.727,0,0,1,1.358,3.2l.018.65a4.97,4.97,0,0,1-1.222,3.511,4.735,4.735,0,0,1-6.561,0,5.058,5.058,0,0,1-1.226-3.586Zm2.54.18a3.555,3.555,0,0,0,.51,2.073,1.831,1.831,0,0,0,2.9.009,3.89,3.89,0,0,0,.519-2.267,3.519,3.519,0,0,0-.519-2.06,1.686,1.686,0,0,0-1.459-.731,1.658,1.658,0,0,0-1.441.726A3.955,3.955,0,0,0,114.063,14.338Z" transform="translate(548 749)" fill="#12263f"/>
    <path id="Trazado_593273" data-name="Trazado 593273" d="M-21088-7107.893l10.506,10.5-10.506,10.5" transform="translate(7739.393 -20298.791) rotate(-90)" fill="none" stroke="#6826cc" stroke-linecap="round" stroke-linejoin="round" stroke-width="2"/>
    <g id="Grupo_873978" data-name="Grupo 873978">
      <g id="Grupo_873666" data-name="Grupo 873666" transform="translate(311.439 -15.73)">
        <g id="Grupo_873664" data-name="Grupo 873664" transform="translate(272.561 630.422)">
          <ellipse id="Elipse_4731" data-name="Elipse 4731" cx="46.5" cy="3.5" rx="46.5" ry="3.5" transform="translate(0.439 111.948)" fill="#636363" opacity="0.2"/>
          <g id="Grupo_151722" data-name="Grupo 151722">
            <g id="Grupo_151721" data-name="Grupo 151721">
              <g id="Grupo_151720" data-name="Grupo 151720" clip-path="url(#clip-path)">
                <path id="Trazado_212311" data-name="Trazado 212311" d="M729.763,119.869a58.72,58.72,0,1,0,58.988-58.45,58.72,58.72,0,0,0-58.988,58.45" transform="translate(-729.762 -61.418)" fill="url(#linear-gradient)"/>
              </g>
            </g>
          </g>
          <path id="Trazado_212338" data-name="Trazado 212338" d="M100.331,172.187a45.8,45.8,0,1,1,46.012-45.593,45.855,45.855,0,0,1-46.012,45.593" transform="translate(-41.772 -68.208)" fill="url(#radial-gradient)"/>
        </g>
      </g>
      <g id="etiqueta-de-precio" transform="translate(610.999 623.088)">
        <path id="Trazado_593276" data-name="Trazado 593276" d="M56.423,39.372l-.63-10.9a4.726,4.726,0,0,0-4.447-4.447L32.188,22.917a3.347,3.347,0,0,0-2.558.974L5.355,48.166A.916.916,0,0,0,6.65,49.461L30.925,25.187a1.515,1.515,0,0,1,1.158-.441l19.158,1.107a2.9,2.9,0,0,1,2.724,2.724l.486,8.414a15.611,15.611,0,0,0-3.837-3,6.052,6.052,0,1,0-1.143,5.138,20.178,20.178,0,0,1,5.555,7.818l.045.786a1.515,1.515,0,0,1-.441,1.158L26.174,77.35a2.181,2.181,0,0,1-3.081,0L2.468,56.724a2.181,2.181,0,0,1,0-3.081l1.049-1.049A.916.916,0,1,0,2.222,51.3L1.173,52.349a4.014,4.014,0,0,0,0,5.67L21.8,78.645a4.007,4.007,0,0,0,5.67,0L41.3,64.815c2.944,4.978,8.058,9.83,13.6,8.345,3.281-.879,5.726-3.819,6.885-8.276,2.063-7.938-.486-18.757-5.359-25.513Zm-11.7-8.213a4.248,4.248,0,0,1,3.522,1.9A7.932,7.932,0,0,0,40.506,35.2,4.226,4.226,0,0,1,44.723,31.158ZM43.429,39.4a3.247,3.247,0,0,1,4.464-1.231A4.225,4.225,0,0,1,43.429,39.4ZM60.01,64.424c-.986,3.792-2.97,6.267-5.587,6.968-4.74,1.27-9.323-3.593-11.785-7.917l.942-.942a22.1,22.1,0,0,0,3.134,4.406c1.907,2.048,4.7,3.933,7.378,3.215,2.129-.57,3.778-2.674,4.645-5.923a.916.916,0,0,0-1.769-.472c-.681,2.552-1.9,4.238-3.35,4.626-1.531.41-3.611-.6-5.563-2.694a20.722,20.722,0,0,1-3.122-4.51c11.76-11.76,11.056-11.047,11.2-11.225a29.717,29.717,0,0,1,1.4,9.772.916.916,0,0,0,1.83.071,32.443,32.443,0,0,0-2.581-13.384c-.009-.024-.019-.047-.029-.069-1.446-3.4-3.855-7.249-6.98-9.234a.916.916,0,0,0-.133-.083c-3-1.843-5.854-1.429-7.8,1.437a4.264,4.264,0,0,1-.829-1.065,6.345,6.345,0,0,1,8.34-1.992.917.917,0,0,0,.092.044,15.576,15.576,0,0,1,5.3,4.734.924.924,0,0,0,.073.1c4.64,6.315,7.12,16.687,5.184,24.137Z"/>
        <path id="Trazado_593277" data-name="Trazado 593277" d="M72.355,103.371a1.68,1.68,0,0,0-2.377,0L49.149,124.2a1.683,1.683,0,0,0,0,2.377l17.013,17.013a1.683,1.683,0,0,0,2.377,0l20.829-20.828a1.68,1.68,0,0,0,0-2.377L78.4,109.416a.916.916,0,0,0-1.295,1.295l10.861,10.861L67.351,142.188l-16.8-16.8,20.616-20.616,2.694,2.694a.916.916,0,0,0,1.295-1.295Z" transform="translate(-42.717 -70.204)"/>
        <path id="Trazado_593278" data-name="Trazado 593278" d="M156.071,192.146a2.444,2.444,0,0,0-3.453,0l-.66.66a6.067,6.067,0,0,0-7.243,9.59l1.106,1.106a1.184,1.184,0,1,1-1.675,1.675l-1.106-1.106a1.184,1.184,0,0,1-.322-1.079,2.442,2.442,0,0,0-4.783-.983,6.076,6.076,0,0,0,.642,4.179l-.66.66a2.442,2.442,0,0,0,3.453,3.453l.659-.659a6.068,6.068,0,0,0,7.245-9.591l-1.106-1.106a1.184,1.184,0,1,1,1.675-1.675l1.106,1.106a1.184,1.184,0,0,1,.322,1.079,2.442,2.442,0,1,0,4.783.983,6.076,6.076,0,0,0-.642-4.179l.66-.66A2.444,2.444,0,0,0,156.071,192.146Zm-1.295,2.158-1.182,1.182a.916.916,0,0,0-.086,1.2,4.238,4.238,0,0,1,.752,3.387.61.61,0,0,1-1.2-.246,3.01,3.01,0,0,0-.821-2.743l-1.106-1.106a3.015,3.015,0,0,0-4.264,4.264l1.106,1.106a4.237,4.237,0,0,1-5.526,6.394.915.915,0,0,0-1.2.086l-1.182,1.182a.61.61,0,0,1-.863-.863l1.182-1.182a.916.916,0,0,0,.086-1.2,4.238,4.238,0,0,1-.752-3.387.61.61,0,1,1,1.2.246,3.01,3.01,0,0,0,.821,2.743l1.106,1.106a3.015,3.015,0,1,0,4.264-4.264l-1.106-1.106a4.236,4.236,0,0,1,5.527-6.392.916.916,0,0,0,1.2-.086l1.182-1.182a.611.611,0,0,1,.863.863Z" transform="translate(-120.452 -147.948)"/>
      </g>
    </g>
  </g>
</svg>
