<svg xmlns="http://www.w3.org/2000/svg" xmlns:xlink="http://www.w3.org/1999/xlink" width="295" height="210" viewBox="0 0 295 210">
  <defs>
    <linearGradient id="linear-gradient" x1="0.819" y1="0.136" x2="0.142" y2="0.804" gradientUnits="objectBoundingBox">
      <stop offset="0" stop-color="#ffedaf"/>
      <stop offset="0.271" stop-color="#fe7e81"/>
      <stop offset="0.864" stop-color="#ff1787"/>
      <stop offset="1" stop-color="#c13099"/>
    </linearGradient>
    <clipPath id="clip-path">
      <rect id="Rect치ngulo_42643" data-name="Rect치ngulo 42643" width="117.439" height="117.439" fill="url(#linear-gradient)"/>
    </clipPath>
    <radialGradient id="radial-gradient" cx="0.747" cy="0.171" r="0.876" gradientTransform="matrix(-0.433, 0.902, -0.902, -0.433, 1.225, -0.428)" gradientUnits="objectBoundingBox">
      <stop offset="0" stop-color="#fff"/>
      <stop offset="1" stop-color="#d2d5e1"/>
    </radialGradient>
  </defs>
  <g id="Grupo_874485" data-name="Grupo 874485" transform="translate(-180 -598)">
    <rect id="Rect치ngulo_42643-2" data-name="Rect치ngulo 42643" width="295" height="210" rx="14" transform="translate(180 598)" fill="#ebe3f9"/>
    <path id="Trazado_594490" data-name="Trazado 594490" d="M61.962,12.491V17H59.325V4.2h4.992a5.776,5.776,0,0,1,2.536.527,3.886,3.886,0,0,1,1.683,1.5,4.178,4.178,0,0,1,.589,2.21,3.674,3.674,0,0,1-1.288,2.966,5.363,5.363,0,0,1-3.564,1.085Zm0-2.136h2.355a2.316,2.316,0,0,0,1.6-.492,1.79,1.79,0,0,0,.549-1.406,2.111,2.111,0,0,0-.554-1.521,2.068,2.068,0,0,0-1.529-.6H61.962Zm14.15-.483A6.9,6.9,0,0,0,75.2,9.8a1.86,1.86,0,0,0-1.89.976V17h-2.54V7.49h2.4l.07,1.134a2.354,2.354,0,0,1,2.118-1.31,2.662,2.662,0,0,1,.791.114Zm.51,2.285a5.64,5.64,0,0,1,.545-2.522,3.989,3.989,0,0,1,1.569-1.714,4.577,4.577,0,0,1,2.377-.606,4.33,4.33,0,0,1,3.142,1.178,4.727,4.727,0,0,1,1.358,3.2l.018.65a4.97,4.97,0,0,1-1.222,3.511,4.735,4.735,0,0,1-6.561,0,5.058,5.058,0,0,1-1.226-3.586Zm2.54.18a3.555,3.555,0,0,0,.51,2.073,1.831,1.831,0,0,0,2.9.009,3.89,3.89,0,0,0,.519-2.267,3.519,3.519,0,0,0-.519-2.06,1.686,1.686,0,0,0-1.459-.731,1.658,1.658,0,0,0-1.441.726A3.955,3.955,0,0,0,79.162,12.338Zm7.638-.163a5.731,5.731,0,0,1,1-3.542,3.237,3.237,0,0,1,2.729-1.318A2.913,2.913,0,0,1,92.82,8.352V3.5h2.549V17H93.075l-.123-1.011a2.989,2.989,0,0,1-2.443,1.187,3.228,3.228,0,0,1-2.694-1.323A5.916,5.916,0,0,1,86.8,12.175Zm2.54.181a3.775,3.775,0,0,0,.466,2.057,1.516,1.516,0,0,0,1.354.715,1.7,1.7,0,0,0,1.661-1V10.36a1.675,1.675,0,0,0-1.644-1Q89.34,9.362,89.34,12.356Zm13.693,3.678a3.185,3.185,0,0,1-2.6,1.143A3,3,0,0,1,98.1,16.3a3.752,3.752,0,0,1-.822-2.575V7.49h2.54v6.151q0,1.487,1.354,1.487a1.834,1.834,0,0,0,1.775-.9V7.49h2.549V17H103.1Zm8.332-.905a1.666,1.666,0,0,0,1.143-.387,1.355,1.355,0,0,0,.457-1.028h2.382a3.258,3.258,0,0,1-.527,1.771,3.48,3.48,0,0,1-1.419,1.248,4.442,4.442,0,0,1-1.991.444,4.129,4.129,0,0,1-3.217-1.3,5.13,5.13,0,0,1-1.178-3.582v-.167a5.071,5.071,0,0,1,1.169-3.507,4.08,4.08,0,0,1,3.208-1.31,4,4,0,0,1,2.861,1.015,3.594,3.594,0,0,1,1.094,2.7h-2.382a1.745,1.745,0,0,0-.457-1.206,1.7,1.7,0,0,0-2.5.183,3.749,3.749,0,0,0-.453,2.1v.264A3.8,3.8,0,0,0,110,14.485,1.549,1.549,0,0,0,111.365,15.128Zm8.473-9.976V7.49h1.626V9.354h-1.626V14.1a1.133,1.133,0,0,0,.2.756,1.015,1.015,0,0,0,.773.229,4.051,4.051,0,0,0,.747-.062v1.925a5.229,5.229,0,0,1-1.538.229,2.425,2.425,0,0,1-2.725-2.7V9.354h-1.389V7.49H117.3V5.152Zm2.382,7a5.64,5.64,0,0,1,.545-2.522,3.989,3.989,0,0,1,1.569-1.714,4.577,4.577,0,0,1,2.377-.606,4.33,4.33,0,0,1,3.142,1.178,4.727,4.727,0,0,1,1.358,3.2l.018.65a4.97,4.97,0,0,1-1.222,3.511,4.735,4.735,0,0,1-6.561,0,5.058,5.058,0,0,1-1.226-3.586Zm2.54.18a3.555,3.555,0,0,0,.51,2.073,1.831,1.831,0,0,0,2.9.009,3.89,3.89,0,0,0,.519-2.267,3.519,3.519,0,0,0-.519-2.06,1.686,1.686,0,0,0-1.459-.731,1.658,1.658,0,0,0-1.441.726A3.955,3.955,0,0,0,124.76,12.338Z" transform="translate(233 749)" fill="#12263f"/>
    <path id="Trazado_593272" data-name="Trazado 593272" d="M-21088-7107.893l10.506,10.5-10.506,10.5" transform="translate(7424.393 -20298.791) rotate(-90)" fill="none" stroke="#6826cc" stroke-linecap="round" stroke-linejoin="round" stroke-width="2"/>
    <g id="Grupo_873979" data-name="Grupo 873979">
      <g id="Grupo_873665" data-name="Grupo 873665" transform="translate(-3.561 -15.73)">
        <g id="Grupo_873664" data-name="Grupo 873664" transform="translate(272.561 630.422)">
          <ellipse id="Elipse_4731" data-name="Elipse 4731" cx="46.5" cy="3.5" rx="46.5" ry="3.5" transform="translate(0.439 111.948)" fill="#636363" opacity="0.2"/>
          <g id="Grupo_151722" data-name="Grupo 151722">
            <g id="Grupo_151721" data-name="Grupo 151721">
              <g id="Grupo_151720" data-name="Grupo 151720" clip-path="url(#clip-path)">
                <path id="Trazado_212311" data-name="Trazado 212311" d="M729.763,119.869a58.72,58.72,0,1,0,58.988-58.45,58.72,58.72,0,0,0-58.988,58.45" transform="translate(-729.762 -61.418)" fill="url(#linear-gradient)"/>
              </g>
            </g>
          </g>
          <path id="Trazado_212338" data-name="Trazado 212338" d="M100.331,172.187a45.8,45.8,0,1,1,46.012-45.593,45.855,45.855,0,0,1-46.012,45.593" transform="translate(-41.772 -68.208)" fill="url(#radial-gradient)"/>
        </g>
      </g>
      <g id="identidad-de-la-marca_1_" data-name="identidad-de-la-marca(1)" transform="translate(284 630)">
        <path id="Trazado_593279" data-name="Trazado 593279" d="M16.212,71.485a.931.931,0,0,0,.718.339H70.894a.93.93,0,0,0,.913-1.109l-8.374-42.8a.93.93,0,0,0-.913-.752H55.077V22.513a6.51,6.51,0,0,0-8.839-6.082A6.51,6.51,0,0,0,37.4,22.513v4.652H25.3a.93.93,0,0,0-.913.752l-8.374,42.8a.93.93,0,0,0,.195.77ZM28.1,62.8l8.6,7.162H19.5ZM61.754,29.025l8.01,40.938H40.026l-8.01-40.938H42.051v5.582H40.19v1.861h5.582V34.608H43.912V29.025h9.3v5.582H51.355v1.861h5.582V34.608H55.077V29.025ZM46.238,18.486a4.654,4.654,0,0,1,2.326,4.026v4.652H43.912V22.513a4.654,4.654,0,0,1,2.326-4.026Zm2.326-.626a4.657,4.657,0,0,1,4.652,4.652v4.652H50.425V22.513a6.492,6.492,0,0,0-1.958-4.65l.1,0Zm-9.3,4.652a4.657,4.657,0,0,1,4.652-4.652l.1,0a6.492,6.492,0,0,0-1.958,4.65v4.652H39.26ZM26.07,29.025h1.095V44.842h1.861V29.025H30.12L37.844,68.5l-8.819-7.349v-9.8H27.165v9.8L18.346,68.5Z"/>
        <path id="Trazado_593280" data-name="Trazado 593280" d="M112,280h1.861v1.861H112Z" transform="translate(-84.835 -233.297)"/>
        <path id="Trazado_593281" data-name="Trazado 593281" d="M292.652,241.3A4.652,4.652,0,1,0,288,236.652,4.652,4.652,0,0,0,292.652,241.3Zm0-7.443a2.791,2.791,0,1,1-2.791,2.791A2.791,2.791,0,0,1,292.652,233.861Z" transform="translate(-240.366 -190.879)"/>
        <path id="Trazado_593282" data-name="Trazado 593282" d="M264,336h4.652v1.861H264Z" transform="translate(-219.158 -282.784)"/>
        <path id="Trazado_593283" data-name="Trazado 593283" d="M320,336h9.3v1.861H320Z" transform="translate(-268.645 -282.784)"/>
        <path id="Trazado_593284" data-name="Trazado 593284" d="M248,368h11.165v1.861H248Z" transform="translate(-205.018 -311.063)"/>
        <path id="Trazado_593285" data-name="Trazado 593285" d="M360,368h7.443v1.861H360Z" transform="translate(-303.993 -311.063)"/>
      </g>
    </g>
  </g>
</svg>
