<svg xmlns="http://www.w3.org/2000/svg" xmlns:xlink="http://www.w3.org/1999/xlink" width="67.469" height="68.336" viewBox="0 0 67.469 68.336"><defs><linearGradient id="a" x1="0.819" y1="0.136" x2="0.142" y2="0.804" gradientUnits="objectBoundingBox"><stop offset="0" stop-color="#ffedaf"/><stop offset="0.271" stop-color="#fe7e81"/><stop offset="0.864" stop-color="#ff1787"/><stop offset="1" stop-color="#c13099"/></linearGradient><clipPath id="b"><rect width="67.469" height="67.47" fill="url(#a)"/></clipPath><radialGradient id="d" cx="0.747" cy="0.171" r="0.876" gradientTransform="matrix(-0.433, 0.902, -0.902, -0.433, 1.225, -0.428)" gradientUnits="objectBoundingBox"><stop offset="0" stop-color="#fff"/><stop offset="1" stop-color="#d2d5e1"/></radialGradient></defs><g transform="translate(-285 -5042)"><g transform="translate(12.438 4411.578)"><g transform="translate(272.561 630.422)"><ellipse cx="26.714" cy="2.011" rx="26.714" ry="2.011" transform="translate(0.252 64.315)" fill="#636363" opacity="0.2"/><g clip-path="url(#b)"><path d="M729.763,95a33.735,33.735,0,1,0,33.889-33.58A33.735,33.735,0,0,0,729.763,95" transform="translate(-729.762 -61.418)" fill="url(#a)"/></g><path d="M83.115,137.6a28.508,28.508,0,1,1,28.638-28.377A28.54,28.54,0,0,1,83.115,137.6" transform="translate(-49.482 -75.666)" fill="url(#d)"/></g></g><g transform="translate(235 5055)"><path d="M132.536,43.714l-4.877,4.878a2.563,2.563,0,0,1-1.814.752h-4.086v4.2h-9.846V51.534a1.206,1.206,0,1,0-2.413,0v2.011h-3.136V51.5a7.289,7.289,0,0,1,7.287-7.291h11.131l4.125-4.127a2.567,2.567,0,0,1,3.63,3.631Z" transform="translate(-32.518 -36.167)"/><path d="M187.87,0h-.009a4.022,4.022,0,0,0,0,8.043h.009a4.022,4.022,0,0,0,0-8.043Z" transform="translate(-103.771)"/><path d="M183.323,355h7.233a3.62,3.62,0,0,1-7.233,0Z" transform="translate(-103.286 -326.438)"/><path d="M97.076,366.425a1.207,1.207,0,0,1-1.206,1.207H73.21a1.207,1.207,0,0,1,0-2.414h2.107L74.163,355h4.381a6.035,6.035,0,0,0,12.065,0h4.308l-1.155,10.218H95.87A1.207,1.207,0,0,1,97.076,366.425Z" transform="translate(-0.923 -326.438)"/><path d="M95.027,246H72.206A1.206,1.206,0,0,0,71,247.207v3.942a1.207,1.207,0,0,0,1.206,1.207H95.027a1.207,1.207,0,0,0,1.206-1.207v-3.942A1.207,1.207,0,0,0,95.027,246Z" transform="translate(0 -226.207)"/></g></g></svg>