<svg xmlns="http://www.w3.org/2000/svg" xmlns:xlink="http://www.w3.org/1999/xlink" width="295" height="210" viewBox="0 0 295 210">
  <defs>
    <linearGradient id="linear-gradient" x1="0.819" y1="0.136" x2="0.142" y2="0.804" gradientUnits="objectBoundingBox">
      <stop offset="0" stop-color="#ffedaf"/>
      <stop offset="0.271" stop-color="#fe7e81"/>
      <stop offset="0.864" stop-color="#ff1787"/>
      <stop offset="1" stop-color="#c13099"/>
    </linearGradient>
    <clipPath id="clip-path">
      <rect id="Rect치ngulo_42643" data-name="Rect치ngulo 42643" width="117.439" height="117.439" fill="url(#linear-gradient)"/>
    </clipPath>
    <radialGradient id="radial-gradient" cx="0.747" cy="0.171" r="0.876" gradientTransform="matrix(-0.433, 0.902, -0.902, -0.433, 1.225, -0.428)" gradientUnits="objectBoundingBox">
      <stop offset="0" stop-color="#fff"/>
      <stop offset="1" stop-color="#d2d5e1"/>
    </radialGradient>
  </defs>
  <g id="Grupo_874488" data-name="Grupo 874488" transform="translate(-1125 -598)">
    <rect id="Rect치ngulo_293068" data-name="Rect치ngulo 293068" width="295" height="210" rx="14" transform="translate(1125 598)" fill="#ebe3f9"/>
    <path id="Trazado_594493" data-name="Trazado 594493" d="M54.671,12.491V17H52.035V4.2h4.992a5.776,5.776,0,0,1,2.536.527,3.886,3.886,0,0,1,1.683,1.5,4.178,4.178,0,0,1,.589,2.21,3.674,3.674,0,0,1-1.288,2.966,5.363,5.363,0,0,1-3.564,1.085Zm0-2.136h2.355a2.316,2.316,0,0,0,1.6-.492,1.79,1.79,0,0,0,.549-1.406,2.111,2.111,0,0,0-.554-1.521,2.068,2.068,0,0,0-1.529-.6H54.671Zm14.15-.483a6.9,6.9,0,0,0-.914-.07,1.86,1.86,0,0,0-1.89.976V17h-2.54V7.49h2.4l.07,1.134a2.354,2.354,0,0,1,2.118-1.31,2.662,2.662,0,0,1,.791.114Zm.51,2.285a5.64,5.64,0,0,1,.545-2.522,3.989,3.989,0,0,1,1.569-1.714,4.577,4.577,0,0,1,2.377-.606,4.33,4.33,0,0,1,3.142,1.178,4.727,4.727,0,0,1,1.358,3.2l.018.65a4.97,4.97,0,0,1-1.222,3.511,4.735,4.735,0,0,1-6.561,0,5.058,5.058,0,0,1-1.226-3.586Zm2.54.18a3.555,3.555,0,0,0,.51,2.073,1.831,1.831,0,0,0,2.9.009,3.89,3.89,0,0,0,.519-2.267,3.519,3.519,0,0,0-.519-2.06,1.686,1.686,0,0,0-1.459-.731,1.658,1.658,0,0,0-1.441.726A3.955,3.955,0,0,0,71.872,12.338ZM82.287,7.49l.079,1.063A3.342,3.342,0,0,1,85.1,7.314a2.536,2.536,0,0,1,2.522,1.45,3.265,3.265,0,0,1,2.856-1.45,2.836,2.836,0,0,1,2.3.9,4.141,4.141,0,0,1,.756,2.711V17H90.988V10.922a1.818,1.818,0,0,0-.316-1.185,1.4,1.4,0,0,0-1.116-.374,1.585,1.585,0,0,0-1.582,1.092L87.982,17h-2.54V10.93a1.8,1.8,0,0,0-.325-1.2,1.414,1.414,0,0,0-1.107-.37,1.645,1.645,0,0,0-1.564.9V17H79.9V7.49Zm12.806,4.667a5.64,5.64,0,0,1,.545-2.522,3.989,3.989,0,0,1,1.569-1.714,4.577,4.577,0,0,1,2.377-.606,4.33,4.33,0,0,1,3.142,1.178,4.727,4.727,0,0,1,1.358,3.2l.018.65a4.97,4.97,0,0,1-1.222,3.511,4.735,4.735,0,0,1-6.561,0,5.058,5.058,0,0,1-1.226-3.586Zm2.54.18a3.555,3.555,0,0,0,.51,2.073,1.831,1.831,0,0,0,2.9.009,3.89,3.89,0,0,0,.519-2.267,3.519,3.519,0,0,0-.519-2.06,1.686,1.686,0,0,0-1.459-.731,1.658,1.658,0,0,0-1.441.726A3.955,3.955,0,0,0,97.632,12.338Zm11.988,2.79a1.666,1.666,0,0,0,1.143-.387,1.355,1.355,0,0,0,.457-1.028H113.6a3.258,3.258,0,0,1-.527,1.771,3.48,3.48,0,0,1-1.419,1.248,4.442,4.442,0,0,1-1.991.444,4.129,4.129,0,0,1-3.217-1.3A5.13,5.13,0,0,1,105.27,12.3v-.167a5.071,5.071,0,0,1,1.169-3.507,4.08,4.08,0,0,1,3.208-1.31,4,4,0,0,1,2.861,1.015,3.594,3.594,0,0,1,1.094,2.7H111.22a1.745,1.745,0,0,0-.457-1.206,1.7,1.7,0,0,0-2.5.183,3.749,3.749,0,0,0-.453,2.1v.264a3.8,3.8,0,0,0,.448,2.113A1.549,1.549,0,0,0,109.621,15.128ZM117.733,17h-2.549V7.49h2.549Zm-2.7-11.971a1.251,1.251,0,0,1,.382-.94,1.648,1.648,0,0,1,2.079,0,1.244,1.244,0,0,1,.387.94,1.247,1.247,0,0,1-.391.949,1.629,1.629,0,0,1-2.065,0A1.247,1.247,0,0,1,115.035,5.029Zm4.395,7.128a5.64,5.64,0,0,1,.545-2.522,3.989,3.989,0,0,1,1.569-1.714,4.577,4.577,0,0,1,2.377-.606,4.33,4.33,0,0,1,3.142,1.178,4.727,4.727,0,0,1,1.358,3.2l.018.65a4.97,4.97,0,0,1-1.222,3.511,4.735,4.735,0,0,1-6.561,0,5.058,5.058,0,0,1-1.226-3.586Zm2.54.18a3.555,3.555,0,0,0,.51,2.073,1.831,1.831,0,0,0,2.9.009,3.89,3.89,0,0,0,.519-2.267,3.519,3.519,0,0,0-.519-2.06,1.686,1.686,0,0,0-1.459-.731,1.658,1.658,0,0,0-1.441.726A3.955,3.955,0,0,0,121.969,12.338ZM124.421,3.5h2.769l-2.435,2.725H122.69Zm7.919,3.99.079,1.1a3.32,3.32,0,0,1,2.733-1.274,2.759,2.759,0,0,1,2.25.888,4.142,4.142,0,0,1,.756,2.654V17h-2.54V10.9a1.654,1.654,0,0,0-.352-1.176,1.572,1.572,0,0,0-1.169-.366,1.747,1.747,0,0,0-1.608.916V17h-2.54V7.49Z" transform="translate(1178 749)" fill="#12263f"/>
    <path id="Trazado_593275" data-name="Trazado 593275" d="M-21088-7107.893l10.506,10.5-10.506,10.5" transform="translate(8369.393 -20298.791) rotate(-90)" fill="none" stroke="#6826cc" stroke-linecap="round" stroke-linejoin="round" stroke-width="2"/>
    <g id="Grupo_873976" data-name="Grupo 873976">
      <g id="Grupo_873668" data-name="Grupo 873668" transform="translate(941.439 -15.73)">
        <g id="Grupo_873664" data-name="Grupo 873664" transform="translate(272.561 630.422)">
          <ellipse id="Elipse_4731" data-name="Elipse 4731" cx="46.5" cy="3.5" rx="46.5" ry="3.5" transform="translate(0.439 111.948)" fill="#636363" opacity="0.2"/>
          <g id="Grupo_151722" data-name="Grupo 151722">
            <g id="Grupo_151721" data-name="Grupo 151721">
              <g id="Grupo_151720" data-name="Grupo 151720" clip-path="url(#clip-path)">
                <path id="Trazado_212311" data-name="Trazado 212311" d="M729.763,119.869a58.72,58.72,0,1,0,58.988-58.45,58.72,58.72,0,0,0-58.988,58.45" transform="translate(-729.762 -61.418)" fill="url(#linear-gradient)"/>
              </g>
            </g>
          </g>
          <path id="Trazado_212338" data-name="Trazado 212338" d="M100.331,172.187a45.8,45.8,0,1,1,46.012-45.593,45.855,45.855,0,0,1-46.012,45.593" transform="translate(-41.772 -68.208)" fill="url(#radial-gradient)"/>
        </g>
      </g>
      <g id="descuento" transform="translate(1241 623.074)">
        <path id="Trazado_593286" data-name="Trazado 593286" d="M3.555,52.935a.926.926,0,1,0-1.309-1.309L1.186,52.686a4.058,4.058,0,0,0,0,5.733L22.039,79.272a4.058,4.058,0,0,0,5.733,0L41.753,65.29C44.73,70.324,49.9,75.229,55.5,73.728c3.317-.889,5.789-3.861,6.961-8.367,2.086-8.026-.491-18.964-5.418-25.794l-.637-11.021a4.779,4.779,0,0,0-4.5-4.5l-19.37-1.119a3.385,3.385,0,0,0-2.586.985L5.414,48.458a.926.926,0,1,0,1.309,1.309L31.265,25.225a1.53,1.53,0,0,1,1.171-.446L51.805,25.9a2.928,2.928,0,0,1,2.754,2.754l.491,8.506a15.781,15.781,0,0,0-3.879-3.03,6.119,6.119,0,1,0-1.156,5.195,20.4,20.4,0,0,1,5.616,7.9l.046.795a1.533,1.533,0,0,1-.446,1.171L26.462,77.963a2.2,2.2,0,0,1-3.114,0L2.495,57.11a2.2,2.2,0,0,1,0-3.115Zm41.66-21.672a4.3,4.3,0,0,1,3.561,1.923,8.018,8.018,0,0,0-7.825,2.166,4.272,4.272,0,0,1,4.263-4.089Zm-1.308,8.33a3.282,3.282,0,0,1,4.513-1.245A4.271,4.271,0,0,1,43.907,39.592ZM56.754,50.268a30.04,30.04,0,0,1,1.42,9.88.926.926,0,0,0,1.85.072,32.8,32.8,0,0,0-2.61-13.531q-.014-.037-.031-.072c-1.462-3.433-3.9-7.328-7.056-9.335a.928.928,0,0,0-.134-.083c-3.035-1.863-5.919-1.446-7.887,1.453a4.312,4.312,0,0,1-.838-1.076A6.415,6.415,0,0,1,49.9,35.561a.934.934,0,0,0,.094.046,15.747,15.747,0,0,1,5.359,4.783.926.926,0,0,0,.078.105c4.617,6.285,7.222,16.771,5.239,24.4-1,3.834-3,6.336-5.648,7.045-4.792,1.284-9.425-3.633-11.915-8l.953-.953a22.347,22.347,0,0,0,3.168,4.454c1.928,2.071,4.75,3.976,7.459,3.251,2.152-.577,3.82-2.7,4.7-5.988a.926.926,0,0,0-1.789-.477c-.688,2.58-1.922,4.285-3.386,4.677-1.548.415-3.651-.6-5.625-2.724a20.952,20.952,0,0,1-3.157-4.56C57.313,49.73,56.605,50.448,56.754,50.268Z"/>
        <path id="Trazado_593287" data-name="Trazado 593287" d="M72.617,103.388a1.7,1.7,0,0,0-2.4,0L49.156,124.446a1.7,1.7,0,0,0,0,2.4l17.2,17.2a1.7,1.7,0,0,0,2.4,0l21.058-21.058a1.7,1.7,0,0,0,0-2.4L78.729,109.5a.926.926,0,0,0-1.309,1.309L88.4,121.79,67.559,142.633,50.573,125.647,71.416,104.8l2.723,2.723a.926.926,0,1,0,1.309-1.309Z" transform="translate(-42.653 -70.095)"/>
        <path id="Trazado_593288" data-name="Trazado 593288" d="M144.968,180.834a2.657,2.657,0,0,0-2.654-2.654h-4.889a5.992,5.992,0,1,0-8.655,0H123.88a2.654,2.654,0,1,0,0,5.308h4.889a5.992,5.992,0,1,0,8.655,0h4.889A2.657,2.657,0,0,0,144.968,180.834Zm-16.012-6.795a4.141,4.141,0,1,1,4.141,4.141A4.145,4.145,0,0,1,128.956,174.039Zm-5.879,6.795a.8.8,0,0,1,.8-.8h18.433a.8.8,0,0,1,0,1.606H123.88A.8.8,0,0,1,123.077,180.834Zm14.16,6.795a4.141,4.141,0,1,1-4.141-4.141A4.145,4.145,0,0,1,137.238,187.629Z" transform="translate(-106.263 -127.21)"/>
        <path id="Trazado_593289" data-name="Trazado 593289" d="M198.552,195.086a2.655,2.655,0,1,0,2.655,2.655A2.658,2.658,0,0,0,198.552,195.086Zm0,3.458a.8.8,0,1,1,.8-.8A.8.8,0,0,1,198.552,198.544Z" transform="translate(-171.718 -150.912)"/>
        <path id="Trazado_593290" data-name="Trazado 593290" d="M198.552,310.5a2.655,2.655,0,1,0-2.655-2.655A2.658,2.658,0,0,0,198.552,310.5Zm0-3.458a.8.8,0,1,1-.8.8A.8.8,0,0,1,198.552,307.044Z" transform="translate(-171.718 -247.429)"/>
      </g>
    </g>
  </g>
</svg>
