<svg xmlns="http://www.w3.org/2000/svg" xmlns:xlink="http://www.w3.org/1999/xlink" width="505" height="273" viewBox="0 0 505 273">
  <defs>
    <clipPath id="clip-path">
      <rect id="Rectángulo_293214" data-name="Rectángulo 293214" width="176.552" height="204.086" fill="none"/>
    </clipPath>
    <clipPath id="clip-path-2">
      <rect id="Rectángulo_293215" data-name="Rectángulo 293215" width="176.552" height="204.109" fill="none"/>
    </clipPath>
  </defs>
  <g id="Grupo_874485" data-name="Grupo 874485" transform="translate(-285 -3052)">
    <rect id="Rectángulo_293084" data-name="Rectángulo 293084" width="505" height="273" rx="17" transform="translate(285 3052)" fill="#ebe3f9"/>
    <path id="Trazado_594490" data-name="Trazado 594490" d="M1.016,15V3.625h3.5A5.315,5.315,0,0,1,7.2,4.3,4.712,4.712,0,0,1,9.047,6.223a5.928,5.928,0,0,1,.664,2.832v.523a5.945,5.945,0,0,1-.652,2.82,4.672,4.672,0,0,1-1.84,1.914A5.355,5.355,0,0,1,4.539,15ZM3.359,5.523v7.594H4.492a2.545,2.545,0,0,0,2.1-.9,4.06,4.06,0,0,0,.742-2.57v-.6a4.124,4.124,0,0,0-.719-2.629,2.537,2.537,0,0,0-2.1-.895Zm11.8,9.633a4.15,4.15,0,0,1-3.027-1.141,4.054,4.054,0,0,1-1.168-3.039v-.219a5.106,5.106,0,0,1,.492-2.277,3.612,3.612,0,0,1,1.395-1.547,3.914,3.914,0,0,1,2.059-.543,3.508,3.508,0,0,1,2.73,1.094,4.444,4.444,0,0,1,1,3.1v.922H13.25a2.1,2.1,0,0,0,.66,1.328,2,2,0,0,0,1.395.5,2.437,2.437,0,0,0,2.039-.945l1.109,1.242a3.389,3.389,0,0,1-1.375,1.121A4.511,4.511,0,0,1,15.156,15.156ZM14.9,8.211a1.411,1.411,0,0,0-1.09.455,2.357,2.357,0,0,0-.535,1.3h3.141V9.788a1.681,1.681,0,0,0-.406-1.165A1.456,1.456,0,0,0,14.9,8.211Zm9.594,4.453a.727.727,0,0,0-.41-.652,4.659,4.659,0,0,0-1.316-.426q-3.016-.633-3.016-2.562a2.323,2.323,0,0,1,.934-1.879,3.766,3.766,0,0,1,2.441-.754,4.053,4.053,0,0,1,2.574.758,2.388,2.388,0,0,1,.965,1.969H24.406a1.092,1.092,0,0,0-.312-.8A1.322,1.322,0,0,0,23.117,8a1.351,1.351,0,0,0-.883.258.814.814,0,0,0-.312.656.7.7,0,0,0,.355.605,3.657,3.657,0,0,0,1.2.4A9.8,9.8,0,0,1,24.9,10.3a2.336,2.336,0,0,1,1.789,2.273,2.2,2.2,0,0,1-.992,1.871,4.28,4.28,0,0,1-2.562.715,4.47,4.47,0,0,1-1.887-.379,3.166,3.166,0,0,1-1.293-1.039,2.414,2.414,0,0,1-.469-1.426h2.141a1.179,1.179,0,0,0,.445.922,1.766,1.766,0,0,0,1.109.32,1.635,1.635,0,0,0,.98-.246A.766.766,0,0,0,24.492,12.664Zm7.164.672a1.481,1.481,0,0,0,1.016-.344,1.2,1.2,0,0,0,.406-.914H35.2a2.9,2.9,0,0,1-.469,1.574,3.093,3.093,0,0,1-1.262,1.109,3.949,3.949,0,0,1-1.77.395A3.67,3.67,0,0,1,28.836,14a4.56,4.56,0,0,1-1.047-3.184v-.148a4.508,4.508,0,0,1,1.039-3.117A3.627,3.627,0,0,1,31.68,6.391a3.555,3.555,0,0,1,2.543.9A3.2,3.2,0,0,1,35.2,9.7H33.078a1.551,1.551,0,0,0-.406-1.072,1.51,1.51,0,0,0-2.223.163,3.333,3.333,0,0,0-.4,1.866v.235a3.375,3.375,0,0,0,.4,1.878A1.377,1.377,0,0,0,31.656,13.336Zm9.891.8a2.831,2.831,0,0,1-2.312,1.016,2.67,2.67,0,0,1-2.074-.781,3.335,3.335,0,0,1-.73-2.289V6.547h2.258v5.467q0,1.322,1.2,1.322a1.63,1.63,0,0,0,1.578-.8V6.547h2.266V15H41.609Zm7.781,1.016A4.15,4.15,0,0,1,46.3,14.016a4.054,4.054,0,0,1-1.168-3.039v-.219a5.106,5.106,0,0,1,.492-2.277A3.612,3.612,0,0,1,47.02,6.934a3.914,3.914,0,0,1,2.059-.543,3.508,3.508,0,0,1,2.73,1.094,4.444,4.444,0,0,1,1,3.1v.922H47.422a2.1,2.1,0,0,0,.66,1.328,2,2,0,0,0,1.395.5,2.437,2.437,0,0,0,2.039-.945l1.109,1.242a3.389,3.389,0,0,1-1.375,1.121A4.511,4.511,0,0,1,49.328,15.156ZM49.07,8.211a1.411,1.411,0,0,0-1.09.455,2.357,2.357,0,0,0-.535,1.3h3.141V9.788a1.681,1.681,0,0,0-.406-1.165A1.456,1.456,0,0,0,49.07,8.211Zm7.094-1.664.07.977a2.951,2.951,0,0,1,2.43-1.133,2.453,2.453,0,0,1,2,.789,3.682,3.682,0,0,1,.672,2.359V15H59.078V9.581a1.47,1.47,0,0,0-.312-1.045,1.4,1.4,0,0,0-1.039-.325,1.553,1.553,0,0,0-1.43.814V15H54.039V6.547ZM65.75,4.469V6.547H67.2V8.2H65.75v4.219a1.007,1.007,0,0,0,.18.672.9.9,0,0,0,.688.2,3.6,3.6,0,0,0,.664-.055v1.711a4.648,4.648,0,0,1-1.367.2,2.156,2.156,0,0,1-2.422-2.4V8.2H62.258V6.547h1.234V4.469ZM67.867,10.7a5.013,5.013,0,0,1,.484-2.242A3.546,3.546,0,0,1,69.746,6.93a4.069,4.069,0,0,1,2.113-.539,3.849,3.849,0,0,1,2.793,1.047,4.2,4.2,0,0,1,1.207,2.844l.016.578a4.418,4.418,0,0,1-1.086,3.121,4.209,4.209,0,0,1-5.832,0,4.5,4.5,0,0,1-1.09-3.187Zm2.258.16a3.16,3.16,0,0,0,.453,1.843,1.628,1.628,0,0,0,2.578.008,3.457,3.457,0,0,0,.461-2.015,3.128,3.128,0,0,0-.461-1.831,1.5,1.5,0,0,0-1.3-.649,1.474,1.474,0,0,0-1.281.646A3.516,3.516,0,0,0,70.125,10.856Zm11.719,1.808a.727.727,0,0,0-.41-.652,4.659,4.659,0,0,0-1.316-.426Q77.1,10.953,77.1,9.023a2.323,2.323,0,0,1,.934-1.879,3.766,3.766,0,0,1,2.441-.754,4.053,4.053,0,0,1,2.574.758,2.388,2.388,0,0,1,.965,1.969H81.758a1.092,1.092,0,0,0-.312-.8A1.322,1.322,0,0,0,80.469,8a1.351,1.351,0,0,0-.883.258.814.814,0,0,0-.312.656.7.7,0,0,0,.355.605,3.657,3.657,0,0,0,1.2.4,9.8,9.8,0,0,1,1.422.379,2.336,2.336,0,0,1,1.789,2.273,2.2,2.2,0,0,1-.992,1.871,4.28,4.28,0,0,1-2.562.715,4.47,4.47,0,0,1-1.887-.379A3.166,3.166,0,0,1,77.3,13.738a2.414,2.414,0,0,1-.469-1.426h2.141a1.179,1.179,0,0,0,.445.922,1.766,1.766,0,0,0,1.109.32,1.635,1.635,0,0,0,.98-.246A.766.766,0,0,0,81.844,12.664ZM90.023,15V8.2H88.766V6.547h1.258V6.156A3.17,3.17,0,0,1,91,3.7a3.945,3.945,0,0,1,2.723-.863,9.031,9.031,0,0,1,2.563.461l-.328,1.867a10,10,0,0,0-1.187-.293,5.835,5.835,0,0,0-.906-.066q-1.578,0-1.578,1.4v.344h1.664V8.2H92.289V15Zm7.32,0H95.078V6.547h2.266Zm3.945-8.453.07.977a2.951,2.951,0,0,1,2.43-1.133,2.453,2.453,0,0,1,2,.789,3.682,3.682,0,0,1,.672,2.359V15H104.2V9.581a1.47,1.47,0,0,0-.312-1.045,1.4,1.4,0,0,0-1.039-.325,1.553,1.553,0,0,0-1.43.814V15H99.164V6.547ZM113.07,15a2.507,2.507,0,0,1-.227-.758,2.732,2.732,0,0,1-2.133.914,3,3,0,0,1-2.059-.719,2.312,2.312,0,0,1-.816-1.812,2.389,2.389,0,0,1,1-2.062,4.915,4.915,0,0,1,2.879-.727h1.039V9.352a1.393,1.393,0,0,0-.3-.937,1.183,1.183,0,0,0-.949-.352,1.345,1.345,0,0,0-.895.273.929.929,0,0,0-.324.75h-2.258a2.268,2.268,0,0,1,.453-1.359,3,3,0,0,1,1.281-.98,4.669,4.669,0,0,1,1.859-.355,3.689,3.689,0,0,1,2.48.785,2.747,2.747,0,0,1,.918,2.207v3.664a4.041,4.041,0,0,0,.336,1.82V15ZM111.2,13.43a1.945,1.945,0,0,0,.922-.223,1.462,1.462,0,0,0,.625-.6V11.156h-.844q-1.7,0-1.8,1.172l-.008.133a.9.9,0,0,0,.3.7A1.153,1.153,0,0,0,111.2,13.43Zm7.625-6.883.07.977a2.951,2.951,0,0,1,2.43-1.133,2.453,2.453,0,0,1,2,.789A3.682,3.682,0,0,1,124,9.539V15h-2.258V9.581a1.47,1.47,0,0,0-.312-1.045,1.4,1.4,0,0,0-1.039-.325,1.553,1.553,0,0,0-1.43.814V15H116.7V6.547Zm10.4,6.789a1.481,1.481,0,0,0,1.016-.344,1.2,1.2,0,0,0,.406-.914h2.117a2.9,2.9,0,0,1-.469,1.574,3.093,3.093,0,0,1-1.262,1.109,3.949,3.949,0,0,1-1.77.395A3.67,3.67,0,0,1,126.406,14a4.56,4.56,0,0,1-1.047-3.184v-.148A4.508,4.508,0,0,1,126.4,7.555a3.627,3.627,0,0,1,2.852-1.164,3.555,3.555,0,0,1,2.543.9,3.2,3.2,0,0,1,.973,2.4h-2.117a1.551,1.551,0,0,0-.406-1.072,1.51,1.51,0,0,0-2.223.163,3.333,3.333,0,0,0-.4,1.866v.235a3.375,3.375,0,0,0,.4,1.878A1.377,1.377,0,0,0,129.227,13.336ZM136.438,15h-2.266V6.547h2.266Zm-2.4-10.641a1.112,1.112,0,0,1,.34-.836,1.465,1.465,0,0,1,1.848,0,1.105,1.105,0,0,1,.344.836,1.109,1.109,0,0,1-.348.844,1.448,1.448,0,0,1-1.836,0A1.109,1.109,0,0,1,134.039,4.359Zm8.148,10.8a4.15,4.15,0,0,1-3.027-1.141,4.054,4.054,0,0,1-1.168-3.039v-.219a5.106,5.106,0,0,1,.492-2.277,3.612,3.612,0,0,1,1.395-1.547,3.914,3.914,0,0,1,2.059-.543,3.508,3.508,0,0,1,2.73,1.094,4.444,4.444,0,0,1,1,3.1v.922h-5.383a2.1,2.1,0,0,0,.66,1.328,2,2,0,0,0,1.395.5,2.437,2.437,0,0,0,2.039-.945l1.109,1.242a3.389,3.389,0,0,1-1.375,1.121A4.511,4.511,0,0,1,142.188,15.156Zm-.258-6.945a1.411,1.411,0,0,0-1.09.455,2.357,2.357,0,0,0-.535,1.3h3.141V9.788a1.681,1.681,0,0,0-.406-1.165A1.456,1.456,0,0,0,141.93,8.211Zm9.766.453a6.134,6.134,0,0,0-.812-.062,1.654,1.654,0,0,0-1.68.867V15h-2.258V6.547h2.133l.063,1.008a2.092,2.092,0,0,1,1.883-1.164,2.366,2.366,0,0,1,.7.1Zm.453,2.031a5.013,5.013,0,0,1,.484-2.242,3.546,3.546,0,0,1,1.395-1.523,4.069,4.069,0,0,1,2.113-.539,3.849,3.849,0,0,1,2.793,1.047,4.2,4.2,0,0,1,1.207,2.844l.016.578a4.418,4.418,0,0,1-1.086,3.121,4.209,4.209,0,0,1-5.832,0,4.5,4.5,0,0,1-1.09-3.187Zm2.258.16a3.16,3.16,0,0,0,.453,1.843,1.628,1.628,0,0,0,2.578.008,3.457,3.457,0,0,0,.461-2.015,3.128,3.128,0,0,0-.461-1.831,1.5,1.5,0,0,0-1.3-.649,1.474,1.474,0,0,0-1.281.646A3.516,3.516,0,0,0,154.406,10.856Zm11.719,1.808a.727.727,0,0,0-.41-.652,4.659,4.659,0,0,0-1.316-.426q-3.016-.633-3.016-2.562a2.323,2.323,0,0,1,.934-1.879,3.766,3.766,0,0,1,2.441-.754,4.053,4.053,0,0,1,2.574.758,2.388,2.388,0,0,1,.965,1.969h-2.258a1.092,1.092,0,0,0-.312-.8A1.322,1.322,0,0,0,164.75,8a1.351,1.351,0,0,0-.883.258.814.814,0,0,0-.312.656.7.7,0,0,0,.355.605,3.657,3.657,0,0,0,1.2.4,9.8,9.8,0,0,1,1.422.379,2.336,2.336,0,0,1,1.789,2.273,2.205,2.205,0,0,1-.992,1.871,4.28,4.28,0,0,1-2.562.715,4.47,4.47,0,0,1-1.887-.379,3.166,3.166,0,0,1-1.293-1.039,2.414,2.414,0,0,1-.469-1.426h2.141a1.179,1.179,0,0,0,.445.922,1.766,1.766,0,0,0,1.109.32,1.635,1.635,0,0,0,.98-.246A.766.766,0,0,0,166.125,12.664Z" transform="translate(452.832 3282)" fill="#12263f"/>
    <g id="Grupo_873823" data-name="Grupo 873823">
      <g id="Grupo_873821" data-name="Grupo 873821">
        <g id="Grupo_873820" data-name="Grupo 873820" transform="translate(-526.553)">
          <circle id="Elipse_4735" data-name="Elipse 4735" cx="88" cy="88" r="88" transform="translate(985 3090)" fill="#cabce3"/>
          <g id="Grupo_873818" data-name="Grupo 873818" transform="translate(978.552 3052)">
            <g id="Grupo_873809" data-name="Grupo 873809">
              <g id="Grupo_873808" data-name="Grupo 873808" clip-path="url(#clip-path)">
                <path id="Trazado_593860" data-name="Trazado 593860" d="M170.936,84.749A88.294,88.294,0,0,0,5.492,146.484c.041.124.083.235.124.359a88.307,88.307,0,0,0,165.32,0c.041-.124.083-.235.124-.359a88.557,88.557,0,0,0-.124-61.735M88.283,42.691a4.6,4.6,0,1,1,4.581-4.609V38.1a4.593,4.593,0,0,1-4.581,4.6" fill="#ebcea8"/>
                <path id="Trazado_593861" data-name="Trazado 593861" d="M171.062,146.491c-.041.124-.083.235-.124.359a88.307,88.307,0,0,1-165.32,0c-.041-.124-.083-.235-.124-.359Z" fill="#6826cc"/>
              </g>
            </g>
            <g id="Grupo_873813" data-name="Grupo 873813">
              <g id="Grupo_873812" data-name="Grupo 873812" clip-path="url(#clip-path)">
                <circle id="Elipse_4734" data-name="Elipse 4734" cx="4.591" cy="4.591" r="4.591" transform="translate(83.686 33.505)" fill="none" stroke="#7a5e43" stroke-miterlimit="10" stroke-width="0.68"/>
              </g>
            </g>
            <g id="Grupo_873817" data-name="Grupo 873817">
              <g id="Grupo_873816" data-name="Grupo 873816" clip-path="url(#clip-path)">
                <path id="Trazado_593870" data-name="Trazado 593870" d="M104.249,0c-.461,2.306-1.01,4.671-1.693,7.08A128.751,128.751,0,0,1,98.15,19.855l-.951,2.4c-.722,1.826-1.46,3.684-2.24,5.526l1.452.12c.72-1.718,1.4-3.443,2.071-5.14l.949-2.394a130.434,130.434,0,0,0,4.451-12.91c.719-2.538,1.3-5.031,1.774-7.457Z" fill="#7a5e43"/>
                <path id="Trazado_593871" data-name="Trazado 593871" d="M91.18,34.906c-.092.1-.179.211-.277.3a2.943,2.943,0,0,1-2,.887c-2.2-.086-3.055-3.009-3.741-5.359-.144-.49-.277-.948-.413-1.343-1.566-4.563-2.874-9.179-4.138-13.643C79.024,10.139,77.787,4.978,76.816,0H75.41c.984,5.1,2.248,10.379,3.877,16.126,1.21,4.273,2.582,9.117,4.16,13.716.13.377.257.813.393,1.281.767,2.629,1.817,6.227,5.012,6.351h.13a4.215,4.215,0,0,0,2.877-1.266c.131-.124.244-.266.367-.4Z" fill="#7a5e43"/>
              </g>
            </g>
          </g>
          <path id="Trazado_593872" data-name="Trazado 593872" d="M-21088-7107.893l6.008,10.5-6.008,10.5" transform="translate(8164.216 -17852.791) rotate(-90)" fill="none" stroke="#ebcea8" stroke-linecap="round" stroke-linejoin="round" stroke-width="4"/>
        </g>
        <path id="Trazado_593878" data-name="Trazado 593878" d="M-7878.132-8506.5v21.966h13.716l.643-2.785a14.6,14.6,0,0,1,11.037-2.572c6.644,1.071,26.9,6.429,26.9,6.429l9.966-1.071,31.5-19.395-70.293-3.429Z" transform="translate(8369.03 11698.189)" fill="#ebcea8"/>
        <g id="oferta" transform="translate(486.597 3111.951)">
          <path id="Trazado_593873" data-name="Trazado 593873" d="M117.346,45.684l0,.067a11.383,11.383,0,0,0,6.5,10.858l.043.021a7.653,7.653,0,0,1,3.466,3.333l.017.032a11.893,11.893,0,0,0,11.178,6.237l.071,0a8.139,8.139,0,0,1,4.812,1.251,12.2,12.2,0,0,0,12.939,0,8.139,8.139,0,0,1,4.812-1.251l.071,0a11.9,11.9,0,0,0,11.18-6.244l.011-.022a7.667,7.667,0,0,1,3.476-3.34l.035-.017a11.382,11.382,0,0,0,6.5-10.859l0-.063a7.283,7.283,0,0,1,1.267-4.514,11.2,11.2,0,0,0,0-12.664A7.282,7.282,0,0,1,182.441,24l0-.067a11.382,11.382,0,0,0-6.5-10.86l-.038-.019a7.646,7.646,0,0,1-3.461-3.322l-.022-.043a11.9,11.9,0,0,0-11.177-6.237l-.072,0a8.133,8.133,0,0,1-4.81-1.251h0a12.2,12.2,0,0,0-12.939,0,8.146,8.146,0,0,1-4.812,1.25l-.071,0a11.894,11.894,0,0,0-11.176,6.236l-.016.03a7.657,7.657,0,0,1-3.47,3.338l-.04.019a11.382,11.382,0,0,0-6.5,10.859l0,.063a7.278,7.278,0,0,1-1.267,4.513,11.2,11.2,0,0,0,0,12.665,7.277,7.277,0,0,1,1.266,4.513Zm1.965-14.947a11.226,11.226,0,0,0,1.956-6.964l0-.067a7.465,7.465,0,0,1,4.288-7.1l.034-.016a11.561,11.561,0,0,0,5.236-5.041l.019-.036a7.962,7.962,0,0,1,7.491-4.142l.069,0a12.029,12.029,0,0,0,7.116-1.849,8.252,8.252,0,0,1,8.753,0,12.057,12.057,0,0,0,7.115,1.85l.069,0a7.95,7.95,0,0,1,7.488,4.134l.026.049a11.559,11.559,0,0,0,5.232,5.034l.033.016a7.466,7.466,0,0,1,4.292,7.1l0,.07a11.224,11.224,0,0,0,1.957,6.963,7.251,7.251,0,0,1,0,8.2,11.236,11.236,0,0,0-1.955,6.965l0,.066a7.469,7.469,0,0,1-4.293,7.1l-.029.013a11.574,11.574,0,0,0-5.241,5.049l-.014.029a7.958,7.958,0,0,1-7.492,4.142l-.068,0a12.052,12.052,0,0,0-7.117,1.85,8.253,8.253,0,0,1-8.751,0,12.032,12.032,0,0,0-6.45-1.869q-.332,0-.666.018l-.069,0a7.953,7.953,0,0,1-7.494-4.145l-.02-.037a11.547,11.547,0,0,0-5.228-5.032l-.036-.018a7.464,7.464,0,0,1-4.292-7.1l0-.07a11.234,11.234,0,0,0-1.957-6.963,7.252,7.252,0,0,1,0-8.2Zm0,0" transform="translate(-86.11 -0.346)" fill="#5f3030"/>
          <path id="Trazado_593874" data-name="Trazado 593874" d="M205.274,91.02a1.636,1.636,0,0,0,2.254-.522l19.385-31.055a1.637,1.637,0,1,0-2.777-1.733L204.753,88.765a1.636,1.636,0,0,0,.522,2.255Zm0,0" transform="translate(-152.049 -39.609)" fill="#5f3030"/>
          <path id="Trazado_593875" data-name="Trazado 593875" d="M188.66,77.2c3.985,0,7.227-3.7,7.227-8.241s-3.242-8.24-7.227-8.24-7.226,3.7-7.226,8.24S184.675,77.2,188.66,77.2Zm0-13.209c2.181,0,3.954,2.228,3.954,4.968s-1.774,4.968-3.954,4.968-3.954-2.23-3.954-4.968S186.48,63.992,188.66,63.992Zm0,0" transform="translate(-133.698 -42.625)" fill="#5f3030"/>
          <path id="Trazado_593876" data-name="Trazado 593876" d="M267.684,148.756c0,4.544,3.242,8.24,7.226,8.24s7.227-3.7,7.227-8.24-3.242-8.24-7.226-8.24S267.684,144.211,267.684,148.756Zm11.181,0c0,2.739-1.774,4.968-3.954,4.968s-3.954-2.228-3.954-4.968,1.774-4.968,3.954-4.968S278.865,146.016,278.865,148.756Zm0,0" transform="translate(-202.306 -106.1)" fill="#5f3030"/>
          <path id="Trazado_593877" data-name="Trazado 593877" d="M105.2,277.32a9.918,9.918,0,0,0-13.1-3.992L76.726,280.6a12.529,12.529,0,0,0-10.68-6.589l-14.2-.391a15.01,15.01,0,0,1-6.453-1.666L43.95,271.2a25.484,25.484,0,0,0-23.6.025l.09-3.273a1.963,1.963,0,0,0-1.909-2.017l-15.569-.428a1.963,1.963,0,0,0-2.016,1.909L0,301.582A1.964,1.964,0,0,0,1.91,303.6l15.569.428h.055a1.965,1.965,0,0,0,1.962-1.91l.044-1.635,4.045-2.166a6.94,6.94,0,0,1,5.179-.567l24.153,6.779c.042.012.084.022.128.032a25.863,25.863,0,0,0,5.309.547A26.2,26.2,0,0,0,69.3,302.721a1.925,1.925,0,0,0,.244-.132l35.02-22.653a1.962,1.962,0,0,0,.643-2.615ZM3.981,299.727l.832-30.241,11.644.32-.833,30.242Zm63.547-.515a22.254,22.254,0,0,1-13.614,1.519l-24.088-6.76a10.853,10.853,0,0,0-8.093.885l-2.067,1.106.554-20.107a21.581,21.581,0,0,1,21.925-1.17l1.445.749a18.954,18.954,0,0,0,8.152,2.105l14.2.391a8.61,8.61,0,0,1,8.184,6.861l-21.149-.582a1.964,1.964,0,0,0-.107,3.926l23.34.642h.056a1.965,1.965,0,0,0,1.962-1.91,12.529,12.529,0,0,0-.19-2.547l15.773-7.454.046-.022a6,6,0,0,1,6.784.949Zm0,0" transform="translate(0 -200.427)" fill="#5f3030"/>
        </g>
      </g>
      <rect id="Rectángulo_293219" data-name="Rectángulo 293219" width="295" height="214" transform="translate(390 3052)" fill="none"/>
    </g>
  </g>
</svg>
