<svg xmlns="http://www.w3.org/2000/svg" width="75.911" height="75.912" viewBox="0 0 75.911 75.912">
  <g id="Grupo_874485" data-name="Grupo 874485" transform="translate(-298 -1872)">
    <path id="Trazado_593299" data-name="Trazado 593299" d="M92.519,156.492a37.956,37.956,0,1,1,38.129-37.781,38,38,0,0,1-38.129,37.781" transform="translate(243.262 1791.42)" fill="#fff"/>
    <g id="top-brand" transform="translate(269.012 1885)">
      <g id="Grupo_873980" data-name="Grupo 873980" transform="translate(45.988 0)">
        <path id="Trazado_594134" data-name="Trazado 594134" d="M120.731,60.024a14.8,14.8,0,0,0-6.673,1.57,1,1,0,0,0,.891,1.783c8.369-4.354,18.9,2.148,18.737,11.6a12.97,12.97,0,0,1-12.955,12.955c-9.446.158-15.95-10.367-11.6-18.736a1,1,0,0,0-1.783-.891c-5.024,9.658,2.478,21.8,13.379,21.62C140.534,89.17,140.53,60.773,120.731,60.024Z" transform="translate(-99.801 -54.042)"/>
        <path id="Trazado_594135" data-name="Trazado 594135" d="M87.456,24.159a12.318,12.318,0,0,1,0-6.459,7.847,7.847,0,0,0-.122-5.226,7.847,7.847,0,0,0-3.609-3.783,14.2,14.2,0,0,1-2.6-1.971,14.193,14.193,0,0,1-1.971-2.6A7.848,7.848,0,0,0,75.374.515C72.1-.82,70.093.864,66.918.835,63.744.864,61.735-.82,58.462.515A7.848,7.848,0,0,0,54.68,4.124a14.2,14.2,0,0,1-1.971,2.6,14.2,14.2,0,0,1-2.6,1.971A7.847,7.847,0,0,0,46.5,12.474a7.847,7.847,0,0,0-.123,5.227,12.319,12.319,0,0,1,0,6.459,7.847,7.847,0,0,0,.123,5.227,7.847,7.847,0,0,0,3.609,3.782,12.006,12.006,0,0,1,4.567,4.567,8.312,8.312,0,0,0,3.167,3.32v8.973a1,1,0,0,0,1.323.942l7.748-2.688,7.748,2.688a1,1,0,0,0,1.323-.942V41.056c2.707-1.461,3.051-3.882,5.138-5.917a14.2,14.2,0,0,1,2.6-1.971,7.848,7.848,0,0,0,3.609-3.782,7.846,7.846,0,0,0,.123-5.227ZM67.245,46.286a1,1,0,0,0-.653,0L59.84,48.629V41.757a9.288,9.288,0,0,0,3.849-.29,12.32,12.32,0,0,1,6.459,0,9.265,9.265,0,0,0,3.849.29v6.871ZM85.51,24.59a6.011,6.011,0,0,1-.018,4.033,6.011,6.011,0,0,1-2.839,2.864,13.929,13.929,0,0,0-5.177,5.177,5.327,5.327,0,0,1-6.9,2.857c-6.031-1.578-8.191,1.285-11.354-.018-3.144-1.3-2.672-4.877-8.041-8.016a6.011,6.011,0,0,1-2.839-2.864,6.011,6.011,0,0,1-.018-4.033,14.3,14.3,0,0,0,0-7.321,6.012,6.012,0,0,1,.018-4.033h0a6.011,6.011,0,0,1,2.839-2.864A16.048,16.048,0,0,0,54.118,8.13,16.054,16.054,0,0,0,56.361,5.2a6.011,6.011,0,0,1,2.864-2.839c3.15-1.308,5.269,1.559,11.354-.018,3.229-.877,5.235-.044,6.9,2.857A16.057,16.057,0,0,0,79.718,8.13a16.061,16.061,0,0,0,2.935,2.242c2.9,1.663,3.733,3.671,2.857,6.9a14.294,14.294,0,0,0,0,7.321Z" transform="translate(-45.988 0)"/>
        <path id="Trazado_594136" data-name="Trazado 594136" d="M166.023,138.368l1.5,10.294a1,1,0,0,0,.986.853h12.944a1,1,0,0,0,.986-.853l1.5-10.294a1,1,0,0,0-1.65-.887l-3.906,3.491-2.5-5.334a1,1,0,0,0-1.8,0l-2.5,5.334-3.906-3.491a1,1,0,0,0-1.65.887Zm5.227,4.983a1,1,0,0,0,1.566-.32l2.165-4.621,2.165,4.621a1,1,0,0,0,1.566.32l2.859-2.555-.98,6.726h-11.22l-.98-6.726Z" transform="translate(-154.052 -121.608)"/>
        <path id="Trazado_594137" data-name="Trazado 594137" d="M148.01,103.022a1,1,0,1,0-.7-1.7h0a1,1,0,0,0,.7,1.7Z" transform="translate(-136.946 -90.96)"/>
      </g>
    </g>
  </g>
</svg>
