<svg xmlns="http://www.w3.org/2000/svg" width="75.911" height="75.912" viewBox="0 0 75.911 75.912">
  <g id="Grupo_874487" data-name="Grupo 874487" transform="translate(-917 -1872)">
    <path id="Trazado_593297" data-name="Trazado 593297" d="M92.519,156.492a37.956,37.956,0,1,1,38.129-37.781,38,38,0,0,1-38.129,37.781" transform="translate(862.262 1791.42)" fill="#fff"/>
    <g id="red" transform="translate(928 1883)">
      <g id="Grupo_873982" data-name="Grupo 873982" transform="translate(45.858 10.583)">
        <g id="Grupo_873981" data-name="Grupo 873981">
          <path id="Trazado_594138" data-name="Trazado 594138" d="M447.261,102.4a3.527,3.527,0,1,0,3.527,3.527A3.531,3.531,0,0,0,447.261,102.4Zm0,5.291a1.764,1.764,0,1,1,1.764-1.764A1.766,1.766,0,0,1,447.261,107.691Z" transform="translate(-443.734 -102.4)"/>
        </g>
      </g>
      <g id="Grupo_873984" data-name="Grupo 873984" transform="translate(0 39.684)">
        <g id="Grupo_873983" data-name="Grupo 873983">
          <path id="Trazado_594139" data-name="Trazado 594139" d="M3.527,384a3.527,3.527,0,1,0,3.527,3.527A3.531,3.531,0,0,0,3.527,384Zm0,5.291a1.764,1.764,0,1,1,1.764-1.764A1.766,1.766,0,0,1,3.527,389.291Z" transform="translate(0 -384)"/>
        </g>
      </g>
      <g id="Grupo_873986" data-name="Grupo 873986" transform="translate(38.802 7.936)">
        <g id="Grupo_873985" data-name="Grupo 873985">
          <path id="Trazado_594140" data-name="Trazado 594140" d="M384.336,80.553l-7.608-3.673a.882.882,0,0,0-.766,1.588l7.608,3.673a.882.882,0,0,0,.766-1.588Z" transform="translate(-375.463 -76.792)"/>
        </g>
      </g>
      <g id="Grupo_873988" data-name="Grupo 873988" transform="translate(36.157 45.858)">
        <g id="Grupo_873987" data-name="Grupo 873987">
          <path id="Trazado_594141" data-name="Trazado 594141" d="M353.394,443.733a3.528,3.528,0,1,0,3.527,3.528A3.531,3.531,0,0,0,353.394,443.733Zm0,5.291a1.764,1.764,0,1,1,1.764-1.764A1.766,1.766,0,0,1,353.394,449.024Z" transform="translate(-349.867 -443.733)"/>
        </g>
      </g>
      <g id="Grupo_873990" data-name="Grupo 873990" transform="translate(29.101 43.211)">
        <g id="Grupo_873989" data-name="Grupo 873989">
          <path id="Trazado_594142" data-name="Trazado 594142" d="M290.469,421.886l-7.608-3.673a.882.882,0,1,0-.766,1.588l7.608,3.673a.882.882,0,0,0,.766-1.588Z" transform="translate(-281.596 -418.124)"/>
        </g>
      </g>
      <g id="Grupo_873992" data-name="Grupo 873992" transform="translate(22.929 23.811)">
        <g id="Grupo_873991" data-name="Grupo 873991">
          <path id="Trazado_594143" data-name="Trazado 594143" d="M225.394,230.4a3.527,3.527,0,1,0,3.527,3.527A3.531,3.531,0,0,0,225.394,230.4Zm0,5.291a1.764,1.764,0,1,1,1.764-1.764A1.766,1.766,0,0,1,225.394,235.691Z" transform="translate(-221.867 -230.4)"/>
        </g>
      </g>
      <g id="Grupo_873994" data-name="Grupo 873994" transform="translate(17.637 20.284)">
        <g id="Grupo_873993" data-name="Grupo 873993">
          <path id="Trazado_594144" data-name="Trazado 594144" d="M177.933,201.012l-5.844-4.555A.882.882,0,0,0,171,197.849l5.844,4.555a.882.882,0,1,0,1.085-1.392Z" transform="translate(-170.664 -196.272)"/>
        </g>
      </g>
      <g id="Grupo_873996" data-name="Grupo 873996" transform="translate(32.629 22.929)">
        <g id="Grupo_873995" data-name="Grupo 873995">
          <path id="Trazado_594145" data-name="Trazado 594145" d="M325.434,221.867a9.7,9.7,0,1,0,9.7,9.7A9.712,9.712,0,0,0,325.434,221.867Zm0,17.637a7.937,7.937,0,1,1,7.937-7.937A7.945,7.945,0,0,1,325.434,239.5Z" transform="translate(-315.733 -221.867)"/>
        </g>
      </g>
      <g id="Grupo_873998" data-name="Grupo 873998" transform="translate(38.803 26.456)">
        <g id="Grupo_873997" data-name="Grupo 873997">
          <path id="Trazado_594146" data-name="Trazado 594146" d="M378.994,256a3.527,3.527,0,1,0,3.527,3.527A3.531,3.531,0,0,0,378.994,256Zm0,5.291a1.764,1.764,0,1,1,1.764-1.764A1.766,1.766,0,0,1,378.994,261.291Z" transform="translate(-375.467 -256)"/>
        </g>
      </g>
      <g id="Grupo_874000" data-name="Grupo 874000" transform="translate(37.039 35.275)">
        <g id="Grupo_873999" data-name="Grupo 873999">
          <path id="Trazado_594147" data-name="Trazado 594147" d="M366.25,341.333h-5.117a2.7,2.7,0,0,0-2.733,2.659v2.325a.883.883,0,0,0,.44.764,9.651,9.651,0,0,0,9.7,0,.881.881,0,0,0,.44-.763v-2.325A2.7,2.7,0,0,0,366.25,341.333Zm.969,4.458a8,8,0,0,1-7.055,0v-1.8a.936.936,0,0,1,.969-.9h5.117a.936.936,0,0,1,.969.9v1.8Z" transform="translate(-358.4 -341.333)"/>
        </g>
      </g>
      <g id="Grupo_874002" data-name="Grupo 874002" transform="translate(11.464 33.511)">
        <g id="Grupo_874001" data-name="Grupo 874001">
          <path id="Trazado_594148" data-name="Trazado 594148" d="M120.634,324.267a9.7,9.7,0,1,0,9.7,9.7A9.712,9.712,0,0,0,120.634,324.267Zm0,17.637a7.937,7.937,0,1,1,7.937-7.937A7.945,7.945,0,0,1,120.634,341.9Z" transform="translate(-110.933 -324.267)"/>
        </g>
      </g>
      <g id="Grupo_874004" data-name="Grupo 874004" transform="translate(17.638 37.039)">
        <g id="Grupo_874003" data-name="Grupo 874003">
          <path id="Trazado_594149" data-name="Trazado 594149" d="M174.194,358.4a3.527,3.527,0,1,0,3.527,3.527A3.531,3.531,0,0,0,174.194,358.4Zm0,5.291a1.764,1.764,0,1,1,1.764-1.764A1.766,1.766,0,0,1,174.194,363.691Z" transform="translate(-170.667 -358.4)"/>
        </g>
      </g>
      <g id="Grupo_874006" data-name="Grupo 874006" transform="translate(15.874 45.858)">
        <g id="Grupo_874005" data-name="Grupo 874005">
          <path id="Trazado_594150" data-name="Trazado 594150" d="M161.45,443.733h-5.117a2.7,2.7,0,0,0-2.733,2.659v2.325a.882.882,0,0,0,.44.764,9.651,9.651,0,0,0,9.7,0,.881.881,0,0,0,.44-.763v-2.325A2.7,2.7,0,0,0,161.45,443.733Zm.969,4.458a8,8,0,0,1-7.055,0v-1.8a.936.936,0,0,1,.969-.9h5.117a.936.936,0,0,1,.969.9v1.8Z" transform="translate(-153.6 -443.733)"/>
        </g>
      </g>
      <g id="Grupo_874008" data-name="Grupo 874008" transform="translate(0 11.464)">
        <g id="Grupo_874007" data-name="Grupo 874007">
          <path id="Trazado_594151" data-name="Trazado 594151" d="M9.7,110.933a9.7,9.7,0,1,0,9.7,9.7A9.712,9.712,0,0,0,9.7,110.933Zm0,17.638a7.937,7.937,0,1,1,7.937-7.937A7.945,7.945,0,0,1,9.7,128.571Z" transform="translate(0 -110.933)"/>
        </g>
      </g>
      <g id="Grupo_874010" data-name="Grupo 874010" transform="translate(6.173 14.992)">
        <g id="Grupo_874009" data-name="Grupo 874009">
          <path id="Trazado_594152" data-name="Trazado 594152" d="M63.261,145.067a3.527,3.527,0,1,0,3.527,3.527A3.531,3.531,0,0,0,63.261,145.067Zm0,5.291a1.764,1.764,0,1,1,1.764-1.764A1.766,1.766,0,0,1,63.261,150.358Z" transform="translate(-59.734 -145.067)"/>
        </g>
      </g>
      <g id="Grupo_874012" data-name="Grupo 874012" transform="translate(4.409 23.811)">
        <g id="Grupo_874011" data-name="Grupo 874011">
          <path id="Trazado_594153" data-name="Trazado 594153" d="M50.517,230.4H45.4a2.7,2.7,0,0,0-2.733,2.659v2.325a.882.882,0,0,0,.44.764,9.651,9.651,0,0,0,9.7,0,.881.881,0,0,0,.44-.763V233.06A2.7,2.7,0,0,0,50.517,230.4Zm.969,4.458a8,8,0,0,1-7.055,0v-1.8a.936.936,0,0,1,.969-.9h5.117a.936.936,0,0,1,.969.9v1.8Z" transform="translate(-42.667 -230.4)"/>
        </g>
      </g>
      <g id="Grupo_874014" data-name="Grupo 874014" transform="translate(21.165)">
        <g id="Grupo_874013" data-name="Grupo 874013">
          <path id="Trazado_594154" data-name="Trazado 594154" d="M214.5,0a9.7,9.7,0,1,0,9.7,9.7A9.712,9.712,0,0,0,214.5,0Zm0,17.638A7.937,7.937,0,1,1,222.438,9.7,7.945,7.945,0,0,1,214.5,17.638Z" transform="translate(-204.8)"/>
        </g>
      </g>
      <g id="Grupo_874016" data-name="Grupo 874016" transform="translate(27.338 3.527)">
        <g id="Grupo_874015" data-name="Grupo 874015">
          <path id="Trazado_594155" data-name="Trazado 594155" d="M268.061,34.133a3.527,3.527,0,1,0,3.527,3.528A3.531,3.531,0,0,0,268.061,34.133Zm0,5.291a1.764,1.764,0,1,1,1.764-1.764A1.766,1.766,0,0,1,268.061,39.424Z" transform="translate(-264.534 -34.133)"/>
        </g>
      </g>
      <g id="Grupo_874018" data-name="Grupo 874018" transform="translate(25.574 12.346)">
        <g id="Grupo_874017" data-name="Grupo 874017">
          <path id="Trazado_594156" data-name="Trazado 594156" d="M255.317,119.467H250.2a2.7,2.7,0,0,0-2.733,2.659v2.325a.883.883,0,0,0,.44.764,9.651,9.651,0,0,0,9.7,0,.881.881,0,0,0,.44-.763v-2.325A2.7,2.7,0,0,0,255.317,119.467Zm.969,4.458a8,8,0,0,1-7.055,0v-1.8a.936.936,0,0,1,.969-.9h5.117a.936.936,0,0,1,.969.9v1.8Z" transform="translate(-247.467 -119.467)"/>
        </g>
      </g>
      <g id="Grupo_874020" data-name="Grupo 874020" transform="translate(15.054 8.819)">
        <g id="Grupo_874019" data-name="Grupo 874019">
          <path id="Trazado_594157" data-name="Trazado 594157" d="M153.335,85.641a.883.883,0,0,0-1.243-.1l-6.111,5.23a.882.882,0,1,0,1.146,1.34l6.111-5.23A.882.882,0,0,0,153.335,85.641Z" transform="translate(-145.671 -85.333)"/>
        </g>
      </g>
      <g id="Grupo_874022" data-name="Grupo 874022" transform="translate(35.275 15.875)">
        <g id="Grupo_874021" data-name="Grupo 874021">
          <path id="Trazado_594158" data-name="Trazado 594158" d="M348.212,161.018l-5.291-7.055a.882.882,0,0,0-1.411,1.057l5.291,7.055a.882.882,0,0,0,1.411-1.057Z" transform="translate(-341.333 -153.61)"/>
        </g>
      </g>
      <g id="Grupo_874024" data-name="Grupo 874024" transform="translate(28.403 35.193)">
        <g id="Grupo_874023" data-name="Grupo 874023">
          <path id="Trazado_594159" data-name="Trazado 594159" d="M281.347,340.893a.882.882,0,0,0-1.235-.176l-4.926,3.694a.881.881,0,0,0,1.058,1.41l4.926-3.694A.881.881,0,0,0,281.347,340.893Z" transform="translate(-274.833 -340.54)"/>
        </g>
      </g>
      <g id="Grupo_874026" data-name="Grupo 874026" transform="translate(5.291 42.33)">
        <g id="Grupo_874025" data-name="Grupo 874025">
          <path id="Trazado_594160" data-name="Trazado 594160" d="M58.255,409.6H52.082a.882.882,0,0,0,0,1.764h6.173a.882.882,0,0,0,0-1.764Z" transform="translate(-51.2 -409.6)"/>
        </g>
      </g>
      <g id="Grupo_874028" data-name="Grupo 874028" transform="translate(6.173)">
        <g id="Grupo_874027" data-name="Grupo 874027">
          <path id="Trazado_594161" data-name="Trazado 594161" d="M63.261,0a3.527,3.527,0,1,0,3.527,3.527A3.531,3.531,0,0,0,63.261,0Zm0,5.291a1.764,1.764,0,1,1,1.764-1.764A1.766,1.766,0,0,1,63.261,5.291Z" transform="translate(-59.733)"/>
        </g>
      </g>
      <g id="Grupo_874030" data-name="Grupo 874030" transform="translate(8.819 5.291)">
        <g id="Grupo_874029" data-name="Grupo 874029">
          <path id="Trazado_594162" data-name="Trazado 594162" d="M86.216,51.2a.882.882,0,0,0-.882.882v6.173a.882.882,0,0,0,1.764,0V52.082A.882.882,0,0,0,86.216,51.2Z" transform="translate(-85.334 -51.2)"/>
        </g>
      </g>
    </g>
  </g>
</svg>
