<svg xmlns="http://www.w3.org/2000/svg" width="75.911" height="75.912" viewBox="0 0 75.911 75.912">
  <g id="Grupo_874488" data-name="Grupo 874488" transform="translate(-1227 -1872)">
    <path id="Trazado_594129" data-name="Trazado 594129" d="M92.519,156.492a37.956,37.956,0,1,1,38.129-37.781,38,38,0,0,1-38.129,37.781" transform="translate(1172.262 1791.42)" fill="#fff"/>
    <g id="expediente" transform="translate(1214.648 1884)">
      <g id="Grupo_874048" data-name="Grupo 874048" transform="translate(27.352)">
        <g id="Grupo_874032" data-name="Grupo 874032" transform="translate(34.55 8.272)">
          <g id="Grupo_874031" data-name="Grupo 874031">
            <path id="Trazado_594163" data-name="Trazado 594163" d="M370.664,90.876a1.009,1.009,0,0,1-1.009-1.009v-6.9a1.009,1.009,0,1,1,2.019,0v6.9A1.009,1.009,0,0,1,370.664,90.876Z" transform="translate(-369.655 -81.956)"/>
          </g>
        </g>
        <g id="Grupo_874034" data-name="Grupo 874034" transform="translate(34.545 5.024)">
          <g id="Grupo_874033" data-name="Grupo 874033">
            <circle id="Elipse_4748" data-name="Elipse 4748" cx="1.009" cy="1.009" r="1.009"/>
          </g>
        </g>
        <g id="Grupo_874037" data-name="Grupo 874037">
          <path id="Trazado_594164" data-name="Trazado 594164" d="M73.508,10.6A10.6,10.6,0,0,0,56.468,2.185H31.025a3.677,3.677,0,0,0-3.673,3.673V42.575a3.678,3.678,0,0,0,3.673,3.673h3.2V48A3.678,3.678,0,0,0,37.9,51.678h26.39A3.677,3.677,0,0,0,67.965,48V34a1.009,1.009,0,1,0-2.019,0V48a1.657,1.657,0,0,1-1.655,1.655H37.9A1.657,1.657,0,0,1,36.247,48V46.248H57.415a3.678,3.678,0,0,0,3.673-3.673V21.051a10.64,10.64,0,0,0,4.857-.288v4.116a1.009,1.009,0,0,0,2.019,0V19.921A10.613,10.613,0,0,0,73.508,10.6ZM59.07,42.575a1.657,1.657,0,0,1-1.655,1.655H31.025a1.657,1.657,0,0,1-1.655-1.655V5.858A1.656,1.656,0,0,1,31.025,4.2H54.459a10.548,10.548,0,0,0-2.145,5.952H35.126a1.009,1.009,0,0,0-1.009,1.009v4.263a1.009,1.009,0,0,0,1.009,1.009H53.314a1,1,0,0,0,.611-.206,10.664,10.664,0,0,0,5.145,4.257ZM52.3,12.175v2.244H36.136V12.175Zm10.6,7.014A8.585,8.585,0,1,1,71.49,10.6,8.594,8.594,0,0,1,62.907,19.189Z" transform="translate(-27.352)"/>
          <g id="Grupo_874036" data-name="Grupo 874036" transform="translate(38.596 28.417)">
            <g id="Grupo_874035" data-name="Grupo 874035">
              <path id="Trazado_594165" data-name="Trazado 594165" d="M410.749,283.557a1.009,1.009,0,1,1,.983-.78A1.019,1.019,0,0,1,410.749,283.557Z" transform="translate(-409.742 -281.541)"/>
            </g>
          </g>
        </g>
        <g id="Grupo_874047" data-name="Grupo 874047" transform="translate(6.765 19.948)">
          <g id="Grupo_874046" data-name="Grupo 874046">
            <g id="Grupo_874039" data-name="Grupo 874039">
              <g id="Grupo_874038" data-name="Grupo 874038">
                <path id="Trazado_594166" data-name="Trazado 594166" d="M113.574,199.652H95.386a1.009,1.009,0,0,1,0-2.019h18.188a1.009,1.009,0,1,1,0,2.019Z" transform="translate(-94.377 -197.633)"/>
              </g>
            </g>
            <g id="Grupo_874041" data-name="Grupo 874041" transform="translate(0 4.787)">
              <g id="Grupo_874040" data-name="Grupo 874040">
                <path id="Trazado_594167" data-name="Trazado 594167" d="M113.574,247.082H95.386a1.009,1.009,0,1,1,0-2.019h18.188a1.009,1.009,0,1,1,0,2.019Z" transform="translate(-94.377 -245.063)"/>
              </g>
            </g>
            <g id="Grupo_874043" data-name="Grupo 874043" transform="translate(0 9.575)">
              <g id="Grupo_874042" data-name="Grupo 874042">
                <path id="Trazado_594168" data-name="Trazado 594168" d="M113.574,294.512H95.386a1.009,1.009,0,1,1,0-2.019h18.188a1.009,1.009,0,1,1,0,2.019Z" transform="translate(-94.377 -292.493)"/>
              </g>
            </g>
            <g id="Grupo_874045" data-name="Grupo 874045" transform="translate(0 14.362)">
              <g id="Grupo_874044" data-name="Grupo 874044">
                <path id="Trazado_594169" data-name="Trazado 594169" d="M113.574,341.942H95.386a1.009,1.009,0,0,1,0-2.019h18.188a1.009,1.009,0,0,1,0,2.019Z" transform="translate(-94.377 -339.923)"/>
              </g>
            </g>
          </g>
        </g>
      </g>
    </g>
  </g>
</svg>
