<svg xmlns="http://www.w3.org/2000/svg" xmlns:xlink="http://www.w3.org/1999/xlink" width="1328" height="681.147" viewBox="0 0 1328 681.147">
  <defs>
    <linearGradient id="linear-gradient" x1="0.5" x2="0.5" y2="1" gradientUnits="objectBoundingBox">
      <stop offset="0" stop-color="#fff"/>
      <stop offset="1" stop-color="#fffae7"/>
    </linearGradient>
    <linearGradient id="linear-gradient-2" y1="1" y2="0" xlink:href="#linear-gradient"/>
    <clipPath id="clip-path">
      <rect id="Rectángulo_42710" data-name="Rectángulo 42710" width="466.305" height="457.361" fill="#fff"/>
    </clipPath>
  </defs>
  <g id="Grupo_874450" data-name="Grupo 874450" transform="translate(0 0.171)">
    <g id="Grupo_870592" data-name="Grupo 870592" transform="translate(0 -0.171)">
      <path id="Trazado_217912" data-name="Trazado 217912" d="M1328,0H0V680.977H1328Z" transform="translate(0 0.171)" fill="#fffae7"/>
      <rect id="Rectángulo_42708" data-name="Rectángulo 42708" width="1328" height="77" fill="url(#linear-gradient)"/>
      <rect id="Rectángulo_42709" data-name="Rectángulo 42709" width="1328" height="77" transform="translate(0 603.991)" fill="url(#linear-gradient-2)"/>
    </g>
    <g id="Grupo_870594" data-name="Grupo 870594" transform="translate(861.695)">
      <g id="Grupo_870593" data-name="Grupo 870593" clip-path="url(#clip-path)">
        <path id="Trazado_212654" data-name="Trazado 212654" d="M6.429,13.875A6.659,6.659,0,0,1,0,7.007,6.659,6.659,0,0,1,6.429.139a6.659,6.659,0,0,1,6.429,6.868,6.659,6.659,0,0,1-6.429,6.868" transform="translate(453.448 -0.025)" fill="#fff"/>
        <path id="Trazado_212655" data-name="Trazado 212655" d="M28.41,13.964a6.769,6.769,0,0,1-6.535-6.981A6.769,6.769,0,0,1,28.41,0a6.769,6.769,0,0,1,6.535,6.981,6.769,6.769,0,0,1-6.535,6.981" transform="translate(412.308 0)" fill="#fff"/>
        <path id="Trazado_212656" data-name="Trazado 212656" d="M50.424,13.875A6.659,6.659,0,0,1,44,7.007a6.443,6.443,0,1,1,12.857,0,6.659,6.659,0,0,1-6.429,6.868" transform="translate(371.134 -0.025)" fill="#fff"/>
        <path id="Trazado_212657" data-name="Trazado 212657" d="M72.452,10.992c-3.433,0-6.216-2.368-6.216-5.289S69.02.414,72.452.414s6.216,2.369,6.216,5.29-2.783,5.289-6.216,5.289" transform="translate(329.947 -0.073)" fill="#fff"/>
        <path id="Trazado_212658" data-name="Trazado 212658" d="M94.49,13.473a6.164,6.164,0,0,1-5.951-6.357,5.963,5.963,0,1,1,11.9,0,6.164,6.164,0,0,1-5.951,6.357" transform="translate(288.75 -0.134)" fill="#fff"/>
        <path id="Trazado_212659" data-name="Trazado 212659" d="M116.534,13.206A5.834,5.834,0,0,1,110.9,7.19a5.644,5.644,0,1,1,11.263,0,5.834,5.834,0,0,1-5.632,6.017" transform="translate(247.546 -0.207)" fill="#fff"/>
        <path id="Trazado_212660" data-name="Trazado 212660" d="M138.571,12.983a5.559,5.559,0,0,1-5.366-5.733,5.378,5.378,0,1,1,10.732,0,5.559,5.559,0,0,1-5.366,5.733" transform="translate(206.349 -0.268)" fill="#fff"/>
        <path id="Trazado_212661" data-name="Trazado 212661" d="M160.615,12.715a5.228,5.228,0,0,1-5.047-5.392,5.058,5.058,0,1,1,10.095,0,5.228,5.228,0,0,1-5.047,5.392" transform="translate(165.146 -0.341)" fill="#fff"/>
        <path id="Trazado_212662" data-name="Trazado 212662" d="M182.653,12.492a4.953,4.953,0,0,1-4.782-5.109,4.792,4.792,0,1,1,9.563,0,4.953,4.953,0,0,1-4.782,5.109" transform="translate(123.949 -0.402)" fill="#fff"/>
        <path id="Trazado_212663" data-name="Trazado 212663" d="M204.7,12.225a4.623,4.623,0,0,1-4.463-4.768,4.473,4.473,0,1,1,8.926,0,4.623,4.623,0,0,1-4.463,4.768" transform="translate(82.746 -0.475)" fill="#fff"/>
        <path id="Trazado_212664" data-name="Trazado 212664" d="M226.734,12a4.348,4.348,0,0,1-4.2-4.484,4.206,4.206,0,1,1,8.395,0,4.348,4.348,0,0,1-4.2,4.484" transform="translate(41.549 -0.536)" fill="#fff"/>
        <path id="Trazado_212665" data-name="Trazado 212665" d="M248.778,11.734A4.018,4.018,0,0,1,244.9,7.591a3.887,3.887,0,1,1,7.757,0,4.018,4.018,0,0,1-3.878,4.144" transform="translate(0.346 -0.609)" fill="#fff"/>
        <path id="Trazado_212666" data-name="Trazado 212666" d="M270.816,11.512a3.742,3.742,0,0,1-3.613-3.86,3.621,3.621,0,1,1,7.226,0,3.742,3.742,0,0,1-3.613,3.86" transform="translate(-40.851 -0.67)" fill="#fff"/>
        <path id="Trazado_212667" data-name="Trazado 212667" d="M292.86,11.244a3.412,3.412,0,0,1-3.294-3.52,3.3,3.3,0,1,1,6.588,0,3.412,3.412,0,0,1-3.294,3.52" transform="translate(-82.055 -0.743)" fill="#fff"/>
        <path id="Trazado_212668" data-name="Trazado 212668" d="M314.9,11.021a3.138,3.138,0,0,1-3.028-3.236,3.035,3.035,0,1,1,6.057,0,3.137,3.137,0,0,1-3.028,3.236" transform="translate(-123.25 -0.804)" fill="#fff"/>
        <path id="Trazado_212669" data-name="Trazado 212669" d="M336.942,10.754a2.807,2.807,0,0,1-2.71-2.895,2.716,2.716,0,1,1,5.419,0,2.807,2.807,0,0,1-2.71,2.895" transform="translate(-164.455 -0.877)" fill="#fff"/>
        <path id="Trazado_212670" data-name="Trazado 212670" d="M358.978,10.531a2.531,2.531,0,0,1-2.444-2.611,2.449,2.449,0,1,1,4.888,0,2.531,2.531,0,0,1-2.444,2.611" transform="translate(-205.65 -0.938)" fill="#fff"/>
        <path id="Trazado_212671" data-name="Trazado 212671" d="M381.023,10.263A2.2,2.2,0,0,1,378.9,7.993a2.13,2.13,0,1,1,4.25,0,2.2,2.2,0,0,1-2.125,2.271" transform="translate(-246.855 -1.011)" fill="#fff"/>
        <path id="Trazado_212672" data-name="Trazado 212672" d="M403.067,10a1.871,1.871,0,0,1-1.806-1.93,1.81,1.81,0,1,1,3.613,0A1.871,1.871,0,0,1,403.067,10" transform="translate(-288.058 -1.084)" fill="#fff"/>
        <path id="Trazado_212673" data-name="Trazado 212673" d="M425.1,9.773a1.6,1.6,0,0,1-1.541-1.646,1.544,1.544,0,1,1,3.082,0A1.6,1.6,0,0,1,425.1,9.773" transform="translate(-329.255 -1.145)" fill="#fff"/>
        <path id="Trazado_212674" data-name="Trazado 212674" d="M447.149,9.506A1.308,1.308,0,1,1,448.371,8.2a1.266,1.266,0,0,1-1.222,1.306" transform="translate(-370.458 -1.218)" fill="#fff"/>
        <path id="Trazado_212675" data-name="Trazado 212675" d="M469.186,9.282a1.024,1.024,0,1,1,.956-1.022.991.991,0,0,1-.956,1.022" transform="translate(-411.656 -1.279)" fill="#fff"/>
        <path id="Trazado_212676" data-name="Trazado 212676" d="M491.23,9.016a.683.683,0,1,1,.638-.681.66.66,0,0,1-.638.681" transform="translate(-452.859 -1.352)" fill="#fff"/>
        <path id="Trazado_212677" data-name="Trazado 212677" d="M513.268,8.792a.4.4,0,1,1,.372-.4.385.385,0,0,1-.372.4" transform="translate(-494.056 -1.413)" fill="#fff"/>
        <path id="Trazado_212678" data-name="Trazado 212678" d="M535.312,8.525a.054.054,0,0,1-.053-.056.053.053,0,1,1,.106,0,.054.054,0,0,1-.053.056" transform="translate(-535.259 -1.486)" fill="#fff"/>
        <path id="Trazado_212679" data-name="Trazado 212679" d="M6.468,38.515A6.384,6.384,0,0,1,.305,31.931a6.384,6.384,0,0,1,6.163-6.585,6.384,6.384,0,0,1,6.163,6.585,6.384,6.384,0,0,1-6.163,6.584" transform="translate(453.408 -4.479)" fill="#fff"/>
        <path id="Trazado_212680" data-name="Trazado 212680" d="M28.449,38.6a6.494,6.494,0,0,1-6.269-6.7,6.5,6.5,0,0,1,6.269-6.7,6.5,6.5,0,0,1,6.269,6.7,6.494,6.494,0,0,1-6.269,6.7" transform="translate(412.268 -4.455)" fill="#fff"/>
        <path id="Trazado_212681" data-name="Trazado 212681" d="M50.455,38.559a6.44,6.44,0,0,1-6.216-6.641,6.23,6.23,0,1,1,12.432,0,6.439,6.439,0,0,1-6.216,6.641" transform="translate(371.103 -4.467)" fill="#fff"/>
        <path id="Trazado_212682" data-name="Trazado 212682" d="M72.484,38.381a6.219,6.219,0,0,1-6-6.414,6.017,6.017,0,1,1,12.007,0,6.219,6.219,0,0,1-6,6.414" transform="translate(329.915 -4.515)" fill="#fff"/>
        <path id="Trazado_212683" data-name="Trazado 212683" d="M94.513,38.2a6,6,0,0,1-5.791-6.187,5.8,5.8,0,1,1,11.582,0A6,6,0,0,1,94.513,38.2" transform="translate(288.726 -4.564)" fill="#fff"/>
        <path id="Trazado_212684" data-name="Trazado 212684" d="M116.549,37.979a5.723,5.723,0,0,1-5.525-5.9,5.538,5.538,0,1,1,11.051,0,5.723,5.723,0,0,1-5.525,5.9" transform="translate(247.531 -4.625)" fill="#fff"/>
        <path id="Trazado_212685" data-name="Trazado 212685" d="M138.587,37.757a5.449,5.449,0,0,1-5.26-5.619,5.271,5.271,0,1,1,10.52,0,5.449,5.449,0,0,1-5.26,5.619" transform="translate(206.334 -4.686)" fill="#fff"/>
        <path id="Trazado_212686" data-name="Trazado 212686" d="M160.623,37.533a5.173,5.173,0,0,1-4.994-5.336,5.005,5.005,0,1,1,9.988,0,5.173,5.173,0,0,1-4.994,5.336" transform="translate(165.138 -4.747)" fill="#fff"/>
        <path id="Trazado_212687" data-name="Trazado 212687" d="M182.661,37.31a5.063,5.063,0,1,1,4.729-5.052,4.9,4.9,0,0,1-4.729,5.052" transform="translate(123.941 -4.808)" fill="#fff"/>
        <path id="Trazado_212688" data-name="Trazado 212688" d="M204.7,37.043a4.722,4.722,0,1,1,4.41-4.711,4.568,4.568,0,0,1-4.41,4.711" transform="translate(82.738 -4.881)" fill="#fff"/>
        <path id="Trazado_212689" data-name="Trazado 212689" d="M226.742,36.82a4.437,4.437,0,1,1,4.144-4.428,4.293,4.293,0,0,1-4.144,4.428" transform="translate(41.541 -4.942)" fill="#fff"/>
        <path id="Trazado_212690" data-name="Trazado 212690" d="M248.786,36.553a4.1,4.1,0,1,1,3.825-4.087,3.963,3.963,0,0,1-3.825,4.087" transform="translate(0.338 -5.015)" fill="#fff"/>
        <path id="Trazado_212691" data-name="Trazado 212691" d="M270.824,36.33a3.811,3.811,0,1,1,3.56-3.8,3.687,3.687,0,0,1-3.56,3.8" transform="translate(-40.859 -5.076)" fill="#fff"/>
        <path id="Trazado_212692" data-name="Trazado 212692" d="M292.868,36.063a3.47,3.47,0,1,1,3.241-3.463,3.357,3.357,0,0,1-3.241,3.463" transform="translate(-82.062 -5.149)" fill="#fff"/>
        <path id="Trazado_212693" data-name="Trazado 212693" d="M314.9,35.839a3.186,3.186,0,1,1,2.975-3.179,3.082,3.082,0,0,1-2.975,3.179" transform="translate(-123.258 -5.21)" fill="#fff"/>
        <path id="Trazado_212694" data-name="Trazado 212694" d="M336.942,35.616a2.9,2.9,0,1,1,2.71-2.895,2.807,2.807,0,0,1-2.71,2.895" transform="translate(-164.455 -5.271)" fill="#fff"/>
        <path id="Trazado_212695" data-name="Trazado 212695" d="M358.986,35.35a2.56,2.56,0,1,1,2.391-2.555,2.477,2.477,0,0,1-2.391,2.555" transform="translate(-205.658 -5.344)" fill="#fff"/>
        <path id="Trazado_212696" data-name="Trazado 212696" d="M381.031,35.082a2.219,2.219,0,1,1,2.072-2.214,2.146,2.146,0,0,1-2.072,2.214" transform="translate(-246.863 -5.417)" fill="#fff"/>
        <path id="Trazado_212697" data-name="Trazado 212697" d="M403.067,34.859a1.934,1.934,0,1,1,1.806-1.93,1.872,1.872,0,0,1-1.806,1.93" transform="translate(-288.058 -5.478)" fill="#fff"/>
        <path id="Trazado_212698" data-name="Trazado 212698" d="M425.113,34.591A1.593,1.593,0,1,1,426.6,33a1.541,1.541,0,0,1-1.488,1.589" transform="translate(-329.263 -5.551)" fill="#fff"/>
        <path id="Trazado_212699" data-name="Trazado 212699" d="M447.149,34.369a1.308,1.308,0,1,1,1.222-1.306,1.266,1.266,0,0,1-1.222,1.306" transform="translate(-370.458 -5.612)" fill="#fff"/>
        <path id="Trazado_212700" data-name="Trazado 212700" d="M469.194,34.1a.967.967,0,1,1,.9-.965.936.936,0,0,1-.9.965" transform="translate(-411.663 -5.685)" fill="#fff"/>
        <path id="Trazado_212701" data-name="Trazado 212701" d="M491.23,33.878a.682.682,0,1,1,.638-.68.66.66,0,0,1-.638.68" transform="translate(-452.859 -5.746)" fill="#fff"/>
        <path id="Trazado_212702" data-name="Trazado 212702" d="M513.276,33.611a.341.341,0,1,1,.319-.341.33.33,0,0,1-.319.341" transform="translate(-494.064 -5.819)" fill="#fff"/>
        <path id="Trazado_212703" data-name="Trazado 212703" d="M535.312,33.388a.057.057,0,1,1,.053-.057.055.055,0,0,1-.053.057" transform="translate(-535.259 -5.88)" fill="#fff"/>
        <path id="Trazado_212704" data-name="Trazado 212704" d="M6.507,63.154a6.314,6.314,0,0,1,0-12.6,6.314,6.314,0,0,1,0,12.6" transform="translate(453.369 -8.933)" fill="#fff"/>
        <path id="Trazado_212705" data-name="Trazado 212705" d="M28.5,63.2a6.371,6.371,0,0,1,0-12.714,6.371,6.371,0,0,1,0,12.714" transform="translate(412.221 -8.921)" fill="#fff"/>
        <path id="Trazado_212706" data-name="Trazado 212706" d="M50.495,63.2a6.371,6.371,0,1,1,5.951-6.357A6.164,6.164,0,0,1,50.495,63.2" transform="translate(371.063 -8.921)" fill="#fff"/>
        <path id="Trazado_212707" data-name="Trazado 212707" d="M72.515,63.065a6.2,6.2,0,1,1,5.791-6.187,6,6,0,0,1-5.791,6.187" transform="translate(329.884 -8.958)" fill="#fff"/>
        <path id="Trazado_212708" data-name="Trazado 212708" d="M94.537,62.931a6.03,6.03,0,1,1,5.632-6.017,5.834,5.834,0,0,1-5.632,6.017" transform="translate(288.702 -8.994)" fill="#fff"/>
        <path id="Trazado_212709" data-name="Trazado 212709" d="M116.565,62.753a5.8,5.8,0,1,1,5.419-5.789,5.613,5.613,0,0,1-5.419,5.789" transform="translate(247.515 -9.043)" fill="#fff"/>
        <path id="Trazado_212710" data-name="Trazado 212710" d="M138.6,62.529a5.518,5.518,0,1,1,5.154-5.505,5.338,5.338,0,0,1-5.154,5.505" transform="translate(206.318 -9.104)" fill="#fff"/>
        <path id="Trazado_212711" data-name="Trazado 212711" d="M160.639,62.307a5.234,5.234,0,1,1,4.888-5.222,5.064,5.064,0,0,1-4.888,5.222" transform="translate(165.123 -9.165)" fill="#fff"/>
        <path id="Trazado_212712" data-name="Trazado 212712" d="M182.676,62.084a4.949,4.949,0,1,1,4.622-4.938,4.788,4.788,0,0,1-4.622,4.938" transform="translate(123.925 -9.226)" fill="#fff"/>
        <path id="Trazado_212713" data-name="Trazado 212713" d="M204.721,61.816a4.608,4.608,0,1,1,4.3-4.6,4.458,4.458,0,0,1-4.3,4.6" transform="translate(82.722 -9.299)" fill="#fff"/>
        <path id="Trazado_212714" data-name="Trazado 212714" d="M226.758,61.594A4.323,4.323,0,1,1,230.8,57.28a4.183,4.183,0,0,1-4.038,4.314" transform="translate(41.525 -9.36)" fill="#fff"/>
        <path id="Trazado_212715" data-name="Trazado 212715" d="M248.794,61.371a4.039,4.039,0,1,1,3.772-4.03,3.907,3.907,0,0,1-3.772,4.03" transform="translate(0.33 -9.421)" fill="#fff"/>
        <path id="Trazado_212716" data-name="Trazado 212716" d="M270.832,61.148a3.754,3.754,0,1,1,3.507-3.746,3.632,3.632,0,0,1-3.507,3.746" transform="translate(-40.867 -9.482)" fill="#fff"/>
        <path id="Trazado_212717" data-name="Trazado 212717" d="M292.876,60.88a3.413,3.413,0,1,1,3.188-3.406,3.3,3.3,0,0,1-3.188,3.406" transform="translate(-82.07 -9.555)" fill="#fff"/>
        <path id="Trazado_212718" data-name="Trazado 212718" d="M314.912,60.658a3.129,3.129,0,1,1,2.922-3.122,3.027,3.027,0,0,1-2.922,3.122" transform="translate(-123.266 -9.616)" fill="#fff"/>
        <path id="Trazado_212719" data-name="Trazado 212719" d="M336.957,60.39a2.787,2.787,0,1,1,2.6-2.781,2.7,2.7,0,0,1-2.6,2.781" transform="translate(-164.471 -9.689)" fill="#fff"/>
        <path id="Trazado_212720" data-name="Trazado 212720" d="M358.994,60.167a2.5,2.5,0,1,1,2.338-2.5,2.422,2.422,0,0,1-2.338,2.5" transform="translate(-205.666 -9.749)" fill="#fff"/>
        <path id="Trazado_212721" data-name="Trazado 212721" d="M381.039,59.9a2.162,2.162,0,1,1,2.019-2.157,2.091,2.091,0,0,1-2.019,2.157" transform="translate(-246.871 -9.823)" fill="#fff"/>
        <path id="Trazado_212722" data-name="Trazado 212722" d="M403.075,59.677a1.878,1.878,0,1,1,1.753-1.873,1.816,1.816,0,0,1-1.753,1.873" transform="translate(-288.066 -9.883)" fill="#fff"/>
        <path id="Trazado_212723" data-name="Trazado 212723" d="M425.12,59.409a1.536,1.536,0,1,1,1.435-1.532,1.485,1.485,0,0,1-1.435,1.532" transform="translate(-329.271 -9.957)" fill="#fff"/>
        <path id="Trazado_212724" data-name="Trazado 212724" d="M447.157,59.187a1.252,1.252,0,1,1,1.169-1.249,1.211,1.211,0,0,1-1.169,1.249" transform="translate(-370.466 -10.018)" fill="#fff"/>
        <path id="Trazado_212725" data-name="Trazado 212725" d="M469.194,58.964a.967.967,0,1,1,.9-.965.936.936,0,0,1-.9.965" transform="translate(-411.663 -10.078)" fill="#fff"/>
        <path id="Trazado_212726" data-name="Trazado 212726" d="M491.238,58.7a.626.626,0,1,1,.584-.624.6.6,0,0,1-.584.624" transform="translate(-452.867 -10.151)" fill="#fff"/>
        <path id="Trazado_212727" data-name="Trazado 212727" d="M513.276,58.474a.341.341,0,1,1,.319-.341.33.33,0,0,1-.319.341" transform="translate(-494.064 -10.213)" fill="#fff"/>
        <path id="Trazado_212728" data-name="Trazado 212728" d="M535.312,58.251a.057.057,0,1,1,.053-.057.055.055,0,0,1-.053.057" transform="translate(-535.259 -10.273)" fill="#fff"/>
        <path id="Trazado_212729" data-name="Trazado 212729" d="M6.547,87.794a6.03,6.03,0,0,1,0-12.033,6.03,6.03,0,0,1,0,12.033" transform="translate(453.33 -13.388)" fill="#fff"/>
        <path id="Trazado_212730" data-name="Trazado 212730" d="M28.536,87.838a6.087,6.087,0,0,1,0-12.147,6.087,6.087,0,0,1,0,12.147" transform="translate(412.182 -13.375)" fill="#fff"/>
        <path id="Trazado_212731" data-name="Trazado 212731" d="M50.542,87.794a6.03,6.03,0,1,1,5.632-6.017,5.834,5.834,0,0,1-5.632,6.017" transform="translate(371.016 -13.388)" fill="#fff"/>
        <path id="Trazado_212732" data-name="Trazado 212732" d="M72.554,87.7a5.916,5.916,0,1,1,5.525-5.9,5.723,5.723,0,0,1-5.525,5.9" transform="translate(329.844 -13.412)" fill="#fff"/>
        <path id="Trazado_212733" data-name="Trazado 212733" d="M94.568,87.616a5.8,5.8,0,1,1,5.419-5.789,5.613,5.613,0,0,1-5.419,5.789" transform="translate(288.671 -13.436)" fill="#fff"/>
        <path id="Trazado_212734" data-name="Trazado 212734" d="M116.6,87.437a5.575,5.575,0,1,1,5.207-5.562,5.393,5.393,0,0,1-5.207,5.562" transform="translate(247.484 -13.485)" fill="#fff"/>
        <path id="Trazado_212735" data-name="Trazado 212735" d="M138.626,87.258a5.347,5.347,0,1,1,4.994-5.336,5.173,5.173,0,0,1-4.994,5.336" transform="translate(206.294 -13.534)" fill="#fff"/>
        <path id="Trazado_212736" data-name="Trazado 212736" d="M160.663,87.035a5.063,5.063,0,1,1,4.729-5.052,4.9,4.9,0,0,1-4.729,5.052" transform="translate(165.099 -13.595)" fill="#fff"/>
        <path id="Trazado_212737" data-name="Trazado 212737" d="M182.7,86.813a4.778,4.778,0,1,1,4.463-4.768,4.623,4.623,0,0,1-4.463,4.768" transform="translate(123.902 -13.656)" fill="#fff"/>
        <path id="Trazado_212738" data-name="Trazado 212738" d="M204.736,86.59a4.494,4.494,0,1,1,4.2-4.484,4.348,4.348,0,0,1-4.2,4.484" transform="translate(82.707 -13.717)" fill="#fff"/>
        <path id="Trazado_212739" data-name="Trazado 212739" d="M226.774,86.367a4.21,4.21,0,1,1,3.932-4.2,4.073,4.073,0,0,1-3.932,4.2" transform="translate(41.509 -13.777)" fill="#fff"/>
        <path id="Trazado_212740" data-name="Trazado 212740" d="M248.81,86.145a3.925,3.925,0,1,1,3.666-3.916,3.8,3.8,0,0,1-3.666,3.916" transform="translate(0.314 -13.839)" fill="#fff"/>
        <path id="Trazado_212741" data-name="Trazado 212741" d="M270.847,85.922a3.641,3.641,0,1,1,3.4-3.632,3.522,3.522,0,0,1-3.4,3.632" transform="translate(-40.883 -13.899)" fill="#fff"/>
        <path id="Trazado_212742" data-name="Trazado 212742" d="M292.884,85.7a3.356,3.356,0,1,1,3.135-3.349,3.247,3.247,0,0,1-3.135,3.349" transform="translate(-82.078 -13.96)" fill="#fff"/>
        <path id="Trazado_212743" data-name="Trazado 212743" d="M314.928,85.432a3.015,3.015,0,1,1,2.816-3.008,2.917,2.917,0,0,1-2.816,3.008" transform="translate(-123.281 -14.033)" fill="#fff"/>
        <path id="Trazado_212744" data-name="Trazado 212744" d="M336.965,85.209a2.73,2.73,0,1,1,2.55-2.724,2.642,2.642,0,0,1-2.55,2.724" transform="translate(-164.478 -14.094)" fill="#fff"/>
        <path id="Trazado_212745" data-name="Trazado 212745" d="M359,84.985a2.446,2.446,0,1,1,2.285-2.441A2.366,2.366,0,0,1,359,84.985" transform="translate(-205.674 -14.155)" fill="#fff"/>
        <path id="Trazado_212746" data-name="Trazado 212746" d="M381.047,84.718a2.1,2.1,0,1,1,1.966-2.1,2.037,2.037,0,0,1-1.966,2.1" transform="translate(-246.879 -14.228)" fill="#fff"/>
        <path id="Trazado_212747" data-name="Trazado 212747" d="M403.083,84.5a1.821,1.821,0,1,1,1.7-1.816,1.761,1.761,0,0,1-1.7,1.816" transform="translate(-288.074 -14.289)" fill="#fff"/>
        <path id="Trazado_212748" data-name="Trazado 212748" d="M425.128,84.227a1.479,1.479,0,1,1,1.381-1.476,1.431,1.431,0,0,1-1.381,1.476" transform="translate(-329.279 -14.362)" fill="#fff"/>
        <path id="Trazado_212749" data-name="Trazado 212749" d="M447.165,84a1.195,1.195,0,1,1,1.116-1.192A1.156,1.156,0,0,1,447.165,84" transform="translate(-370.474 -14.423)" fill="#fff"/>
        <path id="Trazado_212750" data-name="Trazado 212750" d="M469.2,83.782a.91.91,0,1,1,.85-.908.881.881,0,0,1-.85.908" transform="translate(-411.671 -14.484)" fill="#fff"/>
        <path id="Trazado_212751" data-name="Trazado 212751" d="M491.246,83.514a.569.569,0,1,1,.531-.567.55.55,0,0,1-.531.567" transform="translate(-452.874 -14.557)" fill="#fff"/>
        <path id="Trazado_212752" data-name="Trazado 212752" d="M513.284,83.291a.284.284,0,1,1,.266-.284.275.275,0,0,1-.266.284" transform="translate(-494.072 -14.618)" fill="#fff"/>
        <path id="Trazado_212753" data-name="Trazado 212753" d="M6.586,112.433a5.746,5.746,0,0,1,0-11.466,5.746,5.746,0,0,1,0,11.466" transform="translate(453.29 -17.842)" fill="#fff"/>
        <path id="Trazado_212754" data-name="Trazado 212754" d="M28.583,112.433a5.746,5.746,0,0,1,0-11.466,5.746,5.746,0,0,1,0,11.466" transform="translate(412.134 -17.842)" fill="#fff"/>
        <path id="Trazado_212755" data-name="Trazado 212755" d="M50.581,112.433a5.746,5.746,0,1,1,5.366-5.733,5.559,5.559,0,0,1-5.366,5.733" transform="translate(370.977 -17.842)" fill="#fff"/>
        <path id="Trazado_212756" data-name="Trazado 212756" d="M72.594,112.345a5.632,5.632,0,1,1,5.26-5.619,5.449,5.449,0,0,1-5.26,5.619" transform="translate(329.805 -17.866)" fill="#fff"/>
        <path id="Trazado_212757" data-name="Trazado 212757" d="M94.608,112.256a5.518,5.518,0,1,1,5.154-5.505,5.338,5.338,0,0,1-5.154,5.505" transform="translate(288.632 -17.891)" fill="#fff"/>
        <path id="Trazado_212758" data-name="Trazado 212758" d="M116.628,112.121a5.347,5.347,0,1,1,4.994-5.336,5.173,5.173,0,0,1-4.994,5.336" transform="translate(247.452 -17.927)" fill="#fff"/>
        <path id="Trazado_212759" data-name="Trazado 212759" d="M138.658,111.943a5.12,5.12,0,1,1,4.782-5.109,4.953,4.953,0,0,1-4.782,5.109" transform="translate(206.263 -17.976)" fill="#fff"/>
        <path id="Trazado_212760" data-name="Trazado 212760" d="M160.686,111.766a4.892,4.892,0,1,1,4.569-4.881,4.733,4.733,0,0,1-4.569,4.881" transform="translate(165.075 -18.025)" fill="#fff"/>
        <path id="Trazado_212761" data-name="Trazado 212761" d="M182.724,111.542a4.608,4.608,0,1,1,4.3-4.6,4.458,4.458,0,0,1-4.3,4.6" transform="translate(123.878 -18.086)" fill="#fff"/>
        <path id="Trazado_212762" data-name="Trazado 212762" d="M204.752,111.364a4.38,4.38,0,1,1,4.091-4.371,4.238,4.238,0,0,1-4.091,4.371" transform="translate(82.691 -18.135)" fill="#fff"/>
        <path id="Trazado_212763" data-name="Trazado 212763" d="M226.789,111.141a4.1,4.1,0,1,1,3.825-4.087,3.963,3.963,0,0,1-3.825,4.087" transform="translate(41.494 -18.195)" fill="#fff"/>
        <path id="Trazado_212764" data-name="Trazado 212764" d="M248.826,110.919a3.811,3.811,0,1,1,3.56-3.8,3.687,3.687,0,0,1-3.56,3.8" transform="translate(0.298 -18.256)" fill="#fff"/>
        <path id="Trazado_212765" data-name="Trazado 212765" d="M270.863,110.7a3.527,3.527,0,1,1,3.294-3.52,3.412,3.412,0,0,1-3.294,3.52" transform="translate(-40.899 -18.317)" fill="#fff"/>
        <path id="Trazado_212766" data-name="Trazado 212766" d="M292.9,110.472a3.243,3.243,0,1,1,3.028-3.236,3.138,3.138,0,0,1-3.028,3.236" transform="translate(-82.094 -18.378)" fill="#fff"/>
        <path id="Trazado_212767" data-name="Trazado 212767" d="M314.936,110.249A2.958,2.958,0,1,1,317.7,107.3a2.862,2.862,0,0,1-2.763,2.951" transform="translate(-123.289 -18.439)" fill="#fff"/>
        <path id="Trazado_212768" data-name="Trazado 212768" d="M336.973,110.026a2.673,2.673,0,1,1,2.5-2.667,2.587,2.587,0,0,1-2.5,2.667" transform="translate(-164.486 -18.5)" fill="#fff"/>
        <path id="Trazado_212769" data-name="Trazado 212769" d="M359.017,109.759a2.332,2.332,0,1,1,2.178-2.327,2.257,2.257,0,0,1-2.178,2.327" transform="translate(-205.689 -18.573)" fill="#fff"/>
        <path id="Trazado_212770" data-name="Trazado 212770" d="M381.055,109.536a2.048,2.048,0,1,1,1.913-2.043,1.981,1.981,0,0,1-1.913,2.043" transform="translate(-246.887 -18.634)" fill="#fff"/>
        <path id="Trazado_212771" data-name="Trazado 212771" d="M403.1,109.269a1.707,1.707,0,1,1,1.594-1.7,1.651,1.651,0,0,1-1.594,1.7" transform="translate(-288.09 -18.707)" fill="#fff"/>
        <path id="Trazado_212772" data-name="Trazado 212772" d="M425.136,109.046a1.422,1.422,0,1,1,1.328-1.419,1.376,1.376,0,0,1-1.328,1.419" transform="translate(-329.287 -18.768)" fill="#fff"/>
        <path id="Trazado_212773" data-name="Trazado 212773" d="M447.173,108.823a1.138,1.138,0,1,1,1.063-1.135,1.1,1.1,0,0,1-1.063,1.135" transform="translate(-370.482 -18.829)" fill="#fff"/>
        <path id="Trazado_212774" data-name="Trazado 212774" d="M469.218,108.556a.8.8,0,1,1,.744-.794.77.77,0,0,1-.744.794" transform="translate(-411.687 -18.902)" fill="#fff"/>
        <path id="Trazado_212775" data-name="Trazado 212775" d="M491.254,108.333a.512.512,0,1,1,.478-.51.5.5,0,0,1-.478.51" transform="translate(-452.882 -18.963)" fill="#fff"/>
        <path id="Trazado_212776" data-name="Trazado 212776" d="M513.292,108.11a.227.227,0,1,1,.213-.227.22.22,0,0,1-.213.227" transform="translate(-494.079 -19.024)" fill="#fff"/>
        <path id="Trazado_212777" data-name="Trazado 212777" d="M6.633,137.029a5.4,5.4,0,0,1,0-10.784,5.4,5.4,0,0,1,0,10.784" transform="translate(453.243 -22.309)" fill="#fff"/>
        <path id="Trazado_212778" data-name="Trazado 212778" d="M28.622,137.074a5.461,5.461,0,0,1,0-10.9,5.461,5.461,0,0,1,0,10.9" transform="translate(412.095 -22.297)" fill="#fff"/>
        <path id="Trazado_212779" data-name="Trazado 212779" d="M50.628,137.029a5.4,5.4,0,1,1,5.047-5.392,5.228,5.228,0,0,1-5.047,5.392" transform="translate(370.929 -22.309)" fill="#fff"/>
        <path id="Trazado_212780" data-name="Trazado 212780" d="M72.633,136.984a5.347,5.347,0,1,1,4.994-5.336,5.173,5.173,0,0,1-4.994,5.336" transform="translate(329.766 -22.321)" fill="#fff"/>
        <path id="Trazado_212781" data-name="Trazado 212781" d="M94.647,136.9a5.234,5.234,0,1,1,4.888-5.222,5.064,5.064,0,0,1-4.888,5.222" transform="translate(288.592 -22.345)" fill="#fff"/>
        <path id="Trazado_212782" data-name="Trazado 212782" d="M116.668,136.761a5.063,5.063,0,1,1,4.729-5.052,4.9,4.9,0,0,1-4.729,5.052" transform="translate(247.413 -22.382)" fill="#fff"/>
        <path id="Trazado_212783" data-name="Trazado 212783" d="M138.689,136.628a4.892,4.892,0,1,1,4.569-4.881,4.733,4.733,0,0,1-4.569,4.881" transform="translate(206.231 -22.418)" fill="#fff"/>
        <path id="Trazado_212784" data-name="Trazado 212784" d="M160.718,136.449a4.664,4.664,0,1,1,4.357-4.654,4.513,4.513,0,0,1-4.357,4.654" transform="translate(165.044 -22.467)" fill="#fff"/>
        <path id="Trazado_212785" data-name="Trazado 212785" d="M182.747,136.271a4.436,4.436,0,1,1,4.144-4.428,4.293,4.293,0,0,1-4.144,4.428" transform="translate(123.855 -22.516)" fill="#fff"/>
        <path id="Trazado_212786" data-name="Trazado 212786" d="M204.783,136.048a4.153,4.153,0,1,1,3.878-4.144,4.018,4.018,0,0,1-3.878,4.144" transform="translate(82.659 -22.577)" fill="#fff"/>
        <path id="Trazado_212787" data-name="Trazado 212787" d="M226.813,135.87a3.925,3.925,0,1,1,3.666-3.916,3.8,3.8,0,0,1-3.666,3.916" transform="translate(41.47 -22.625)" fill="#fff"/>
        <path id="Trazado_212788" data-name="Trazado 212788" d="M248.849,135.646a3.641,3.641,0,1,1,3.4-3.632,3.522,3.522,0,0,1-3.4,3.632" transform="translate(0.275 -22.686)" fill="#fff"/>
        <path id="Trazado_212789" data-name="Trazado 212789" d="M270.879,135.469a3.413,3.413,0,1,1,3.188-3.406,3.3,3.3,0,0,1-3.188,3.406" transform="translate(-40.914 -22.735)" fill="#fff"/>
        <path id="Trazado_212790" data-name="Trazado 212790" d="M292.915,135.246a3.129,3.129,0,1,1,2.922-3.122,3.027,3.027,0,0,1-2.922,3.122" transform="translate(-82.11 -22.796)" fill="#fff"/>
        <path id="Trazado_212791" data-name="Trazado 212791" d="M314.951,135.023a2.844,2.844,0,1,1,2.656-2.838,2.752,2.752,0,0,1-2.656,2.838" transform="translate(-123.305 -22.857)" fill="#fff"/>
        <path id="Trazado_212792" data-name="Trazado 212792" d="M337,134.756a2.5,2.5,0,1,1,2.338-2.5,2.422,2.422,0,0,1-2.338,2.5" transform="translate(-164.51 -22.93)" fill="#fff"/>
        <path id="Trazado_212793" data-name="Trazado 212793" d="M359.033,134.533a2.219,2.219,0,1,1,2.072-2.214,2.146,2.146,0,0,1-2.072,2.214" transform="translate(-205.705 -22.991)" fill="#fff"/>
        <path id="Trazado_212794" data-name="Trazado 212794" d="M381.07,134.31a1.934,1.934,0,1,1,1.806-1.93,1.872,1.872,0,0,1-1.806,1.93" transform="translate(-246.902 -23.052)" fill="#fff"/>
        <path id="Trazado_212795" data-name="Trazado 212795" d="M403.107,134.086a1.65,1.65,0,1,1,1.541-1.646,1.6,1.6,0,0,1-1.541,1.646" transform="translate(-288.098 -23.113)" fill="#fff"/>
        <path id="Trazado_212796" data-name="Trazado 212796" d="M425.152,133.82a1.308,1.308,0,1,1,1.222-1.306,1.266,1.266,0,0,1-1.222,1.306" transform="translate(-329.303 -23.186)" fill="#fff"/>
        <path id="Trazado_212797" data-name="Trazado 212797" d="M447.188,133.6a1.024,1.024,0,1,1,.956-1.022.991.991,0,0,1-.956,1.022" transform="translate(-370.498 -23.247)" fill="#fff"/>
        <path id="Trazado_212798" data-name="Trazado 212798" d="M469.226,133.373a.74.74,0,1,1,.691-.738.715.715,0,0,1-.691.738" transform="translate(-411.695 -23.308)" fill="#fff"/>
        <path id="Trazado_212799" data-name="Trazado 212799" d="M491.262,133.151a.455.455,0,1,1,.425-.454.441.441,0,0,1-.425.454" transform="translate(-452.89 -23.369)" fill="#fff"/>
        <path id="Trazado_212800" data-name="Trazado 212800" d="M513.307,132.883a.114.114,0,1,1,.106-.114.11.11,0,0,1-.106.114" transform="translate(-494.095 -23.442)" fill="#fff"/>
        <path id="Trazado_212801" data-name="Trazado 212801" d="M6.673,161.668a5.119,5.119,0,0,1,0-10.216,5.119,5.119,0,0,1,0,10.216" transform="translate(453.204 -26.763)" fill="#fff"/>
        <path id="Trazado_212802" data-name="Trazado 212802" d="M28.67,161.668a5.119,5.119,0,0,1,0-10.216,5.119,5.119,0,0,1,0,10.216" transform="translate(412.048 -26.763)" fill="#fff"/>
        <path id="Trazado_212803" data-name="Trazado 212803" d="M50.668,161.668a5.119,5.119,0,1,1,4.782-5.108,4.953,4.953,0,0,1-4.782,5.108" transform="translate(370.89 -26.763)" fill="#fff"/>
        <path id="Trazado_212804" data-name="Trazado 212804" d="M72.673,161.624a5.062,5.062,0,1,1,4.729-5.052,4.9,4.9,0,0,1-4.729,5.052" transform="translate(329.726 -26.775)" fill="#fff"/>
        <path id="Trazado_212805" data-name="Trazado 212805" d="M94.686,161.535a4.949,4.949,0,1,1,4.622-4.938,4.788,4.788,0,0,1-4.622,4.938" transform="translate(288.553 -26.8)" fill="#fff"/>
        <path id="Trazado_212806" data-name="Trazado 212806" d="M116.707,161.4a4.778,4.778,0,1,1,4.463-4.768,4.623,4.623,0,0,1-4.463,4.768" transform="translate(247.373 -26.836)" fill="#fff"/>
        <path id="Trazado_212807" data-name="Trazado 212807" d="M138.729,161.267a4.608,4.608,0,1,1,4.3-4.6,4.458,4.458,0,0,1-4.3,4.6" transform="translate(206.192 -26.873)" fill="#fff"/>
        <path id="Trazado_212808" data-name="Trazado 212808" d="M160.749,161.134a4.437,4.437,0,1,1,4.144-4.428,4.293,4.293,0,0,1-4.144,4.428" transform="translate(165.012 -26.909)" fill="#fff"/>
        <path id="Trazado_212809" data-name="Trazado 212809" d="M182.779,160.956a4.21,4.21,0,1,1,3.932-4.2,4.073,4.073,0,0,1-3.932,4.2" transform="translate(123.823 -26.958)" fill="#fff"/>
        <path id="Trazado_212810" data-name="Trazado 212810" d="M204.807,160.777a3.982,3.982,0,1,1,3.719-3.973,3.853,3.853,0,0,1-3.719,3.973" transform="translate(82.636 -27.007)" fill="#fff"/>
        <path id="Trazado_212811" data-name="Trazado 212811" d="M226.837,160.6a3.754,3.754,0,1,1,3.507-3.746,3.632,3.632,0,0,1-3.507,3.746" transform="translate(41.447 -27.056)" fill="#fff"/>
        <path id="Trazado_212812" data-name="Trazado 212812" d="M248.873,160.376a3.47,3.47,0,1,1,3.241-3.463,3.357,3.357,0,0,1-3.241,3.463" transform="translate(0.251 -27.116)" fill="#fff"/>
        <path id="Trazado_212813" data-name="Trazado 212813" d="M270.9,160.2a3.243,3.243,0,1,1,3.028-3.236A3.138,3.138,0,0,1,270.9,160.2" transform="translate(-40.938 -27.165)" fill="#fff"/>
        <path id="Trazado_212814" data-name="Trazado 212814" d="M292.939,159.975a2.958,2.958,0,1,1,2.763-2.951,2.862,2.862,0,0,1-2.763,2.951" transform="translate(-82.133 -27.226)" fill="#fff"/>
        <path id="Trazado_212815" data-name="Trazado 212815" d="M314.975,159.752a2.673,2.673,0,1,1,2.5-2.667,2.587,2.587,0,0,1-2.5,2.667" transform="translate(-123.329 -27.287)" fill="#fff"/>
        <path id="Trazado_212816" data-name="Trazado 212816" d="M337.012,159.529a2.389,2.389,0,1,1,2.231-2.384,2.311,2.311,0,0,1-2.231,2.384" transform="translate(-164.526 -27.348)" fill="#fff"/>
        <path id="Trazado_212817" data-name="Trazado 212817" d="M359.049,159.306a2.1,2.1,0,1,1,1.966-2.1,2.037,2.037,0,0,1-1.966,2.1" transform="translate(-205.721 -27.409)" fill="#fff"/>
        <path id="Trazado_212818" data-name="Trazado 212818" d="M381.086,159.083a1.821,1.821,0,1,1,1.7-1.816,1.761,1.761,0,0,1-1.7,1.816" transform="translate(-246.918 -27.47)" fill="#fff"/>
        <path id="Trazado_212819" data-name="Trazado 212819" d="M403.122,158.86a1.536,1.536,0,1,1,1.435-1.532,1.485,1.485,0,0,1-1.435,1.532" transform="translate(-288.113 -27.531)" fill="#fff"/>
        <path id="Trazado_212820" data-name="Trazado 212820" d="M425.16,158.637a1.252,1.252,0,1,1,1.169-1.249,1.211,1.211,0,0,1-1.169,1.249" transform="translate(-329.31 -27.591)" fill="#fff"/>
        <path id="Trazado_212821" data-name="Trazado 212821" d="M447.2,158.37a.91.91,0,1,1,.85-.908.881.881,0,0,1-.85.908" transform="translate(-370.514 -27.665)" fill="#fff"/>
        <path id="Trazado_212822" data-name="Trazado 212822" d="M469.241,158.147a.626.626,0,1,1,.584-.624.6.6,0,0,1-.584.624" transform="translate(-411.711 -27.725)" fill="#fff"/>
        <path id="Trazado_212823" data-name="Trazado 212823" d="M491.278,157.924a.341.341,0,1,1,.319-.341.33.33,0,0,1-.319.341" transform="translate(-452.906 -27.786)" fill="#fff"/>
        <path id="Trazado_212824" data-name="Trazado 212824" d="M513.315,157.7a.057.057,0,1,1,.053-.057.055.055,0,0,1-.053.057" transform="translate(-494.103 -27.847)" fill="#fff"/>
        <path id="Trazado_212825" data-name="Trazado 212825" d="M6.72,186.264a4.778,4.778,0,0,1,0-9.535,4.778,4.778,0,0,1,0,9.535" transform="translate(453.157 -31.23)" fill="#fff"/>
        <path id="Trazado_212826" data-name="Trazado 212826" d="M28.709,186.309a4.835,4.835,0,0,1,0-9.649,4.835,4.835,0,0,1,0,9.649" transform="translate(412.009 -31.218)" fill="#fff"/>
        <path id="Trazado_212827" data-name="Trazado 212827" d="M50.715,186.264a4.778,4.778,0,1,1,4.463-4.768,4.623,4.623,0,0,1-4.463,4.768" transform="translate(370.843 -31.23)" fill="#fff"/>
        <path id="Trazado_212828" data-name="Trazado 212828" d="M72.72,186.22a4.722,4.722,0,1,1,4.41-4.711,4.568,4.568,0,0,1-4.41,4.711" transform="translate(329.679 -31.242)" fill="#fff"/>
        <path id="Trazado_212829" data-name="Trazado 212829" d="M94.734,186.13a4.608,4.608,0,1,1,4.3-4.6,4.458,4.458,0,0,1-4.3,4.6" transform="translate(288.506 -31.266)" fill="#fff"/>
        <path id="Trazado_212830" data-name="Trazado 212830" d="M116.746,186.041a4.494,4.494,0,1,1,4.2-4.484,4.348,4.348,0,0,1-4.2,4.484" transform="translate(247.334 -31.291)" fill="#fff"/>
        <path id="Trazado_212831" data-name="Trazado 212831" d="M138.76,185.952a4.38,4.38,0,1,1,4.091-4.371,4.238,4.238,0,0,1-4.091,4.371" transform="translate(206.16 -31.315)" fill="#fff"/>
        <path id="Trazado_212832" data-name="Trazado 212832" d="M160.788,185.773a4.153,4.153,0,1,1,3.878-4.144,4.018,4.018,0,0,1-3.878,4.144" transform="translate(164.973 -31.364)" fill="#fff"/>
        <path id="Trazado_212833" data-name="Trazado 212833" d="M182.81,185.64a3.982,3.982,0,1,1,3.719-3.973,3.853,3.853,0,0,1-3.719,3.973" transform="translate(123.792 -31.4)" fill="#fff"/>
        <path id="Trazado_212834" data-name="Trazado 212834" d="M204.839,185.462a3.754,3.754,0,1,1,3.507-3.746,3.632,3.632,0,0,1-3.507,3.746" transform="translate(82.604 -31.449)" fill="#fff"/>
        <path id="Trazado_212835" data-name="Trazado 212835" d="M226.868,185.283a3.527,3.527,0,1,1,3.294-3.52,3.412,3.412,0,0,1-3.294,3.52" transform="translate(41.415 -31.498)" fill="#fff"/>
        <path id="Trazado_212836" data-name="Trazado 212836" d="M248.9,185.1a3.3,3.3,0,1,1,3.082-3.292A3.192,3.192,0,0,1,248.9,185.1" transform="translate(0.228 -31.547)" fill="#fff"/>
        <path id="Trazado_212837" data-name="Trazado 212837" d="M270.926,184.926a3.072,3.072,0,1,1,2.869-3.065,2.972,2.972,0,0,1-2.869,3.065" transform="translate(-40.962 -31.595)" fill="#fff"/>
        <path id="Trazado_212838" data-name="Trazado 212838" d="M292.962,184.7a2.787,2.787,0,1,1,2.6-2.781,2.7,2.7,0,0,1-2.6,2.781" transform="translate(-82.157 -31.656)" fill="#fff"/>
        <path id="Trazado_212839" data-name="Trazado 212839" d="M315,184.481a2.5,2.5,0,1,1,2.338-2.5,2.422,2.422,0,0,1-2.338,2.5" transform="translate(-123.352 -31.717)" fill="#fff"/>
        <path id="Trazado_212840" data-name="Trazado 212840" d="M337.036,184.258a2.219,2.219,0,1,1,2.072-2.214,2.146,2.146,0,0,1-2.072,2.214" transform="translate(-164.549 -31.778)" fill="#fff"/>
        <path id="Trazado_212841" data-name="Trazado 212841" d="M359.072,184.035a1.934,1.934,0,1,1,1.806-1.93,1.871,1.871,0,0,1-1.806,1.93" transform="translate(-205.745 -31.839)" fill="#fff"/>
        <path id="Trazado_212842" data-name="Trazado 212842" d="M381.11,183.812a1.65,1.65,0,1,1,1.541-1.646,1.6,1.6,0,0,1-1.541,1.646" transform="translate(-246.942 -31.9)" fill="#fff"/>
        <path id="Trazado_212843" data-name="Trazado 212843" d="M403.146,183.589a1.365,1.365,0,1,1,1.275-1.363,1.321,1.321,0,0,1-1.275,1.363" transform="translate(-288.137 -31.961)" fill="#fff"/>
        <path id="Trazado_212844" data-name="Trazado 212844" d="M425.183,183.366a1.081,1.081,0,1,1,1.009-1.079,1.045,1.045,0,0,1-1.009,1.079" transform="translate(-329.334 -32.021)" fill="#fff"/>
        <path id="Trazado_212845" data-name="Trazado 212845" d="M447.22,183.144a.8.8,0,1,1,.744-.794.77.77,0,0,1-.744.794" transform="translate(-370.529 -32.082)" fill="#fff"/>
        <path id="Trazado_212846" data-name="Trazado 212846" d="M469.257,182.921a.512.512,0,1,1,.478-.51.5.5,0,0,1-.478.51" transform="translate(-411.726 -32.143)" fill="#fff"/>
        <path id="Trazado_212847" data-name="Trazado 212847" d="M491.294,182.7a.227.227,0,1,1,.213-.227.22.22,0,0,1-.213.227" transform="translate(-452.922 -32.204)" fill="#fff"/>
        <path id="Trazado_212848" data-name="Trazado 212848" d="M6.759,210.9a4.494,4.494,0,0,1,0-8.968,4.494,4.494,0,0,1,0,8.968" transform="translate(453.117 -35.684)" fill="#fff"/>
        <path id="Trazado_212849" data-name="Trazado 212849" d="M28.756,210.9a4.494,4.494,0,0,1,0-8.968,4.494,4.494,0,0,1,0,8.968" transform="translate(411.961 -35.684)" fill="#fff"/>
        <path id="Trazado_212850" data-name="Trazado 212850" d="M50.754,210.9a4.494,4.494,0,1,1,4.2-4.484,4.348,4.348,0,0,1-4.2,4.484" transform="translate(370.804 -35.684)" fill="#fff"/>
        <path id="Trazado_212851" data-name="Trazado 212851" d="M72.759,210.859a4.437,4.437,0,1,1,4.144-4.428,4.293,4.293,0,0,1-4.144,4.428" transform="translate(329.64 -35.696)" fill="#fff"/>
        <path id="Trazado_212852" data-name="Trazado 212852" d="M94.773,210.77a4.323,4.323,0,1,1,4.038-4.314,4.183,4.183,0,0,1-4.038,4.314" transform="translate(288.466 -35.721)" fill="#fff"/>
        <path id="Trazado_212853" data-name="Trazado 212853" d="M116.786,210.681a4.21,4.21,0,1,1,3.932-4.2,4.073,4.073,0,0,1-3.932,4.2" transform="translate(247.295 -35.745)" fill="#fff"/>
        <path id="Trazado_212854" data-name="Trazado 212854" d="M138.8,210.592a4.1,4.1,0,1,1,3.825-4.087,3.963,3.963,0,0,1-3.825,4.087" transform="translate(206.121 -35.769)" fill="#fff"/>
        <path id="Trazado_212855" data-name="Trazado 212855" d="M160.82,210.458a3.925,3.925,0,1,1,3.666-3.916,3.8,3.8,0,0,1-3.666,3.916" transform="translate(164.942 -35.806)" fill="#fff"/>
        <path id="Trazado_212856" data-name="Trazado 212856" d="M182.842,210.324a3.754,3.754,0,1,1,3.507-3.746,3.632,3.632,0,0,1-3.507,3.746" transform="translate(123.76 -35.842)" fill="#fff"/>
        <path id="Trazado_212857" data-name="Trazado 212857" d="M204.87,210.146a3.527,3.527,0,1,1,3.294-3.52,3.412,3.412,0,0,1-3.294,3.52" transform="translate(82.573 -35.891)" fill="#fff"/>
        <path id="Trazado_212858" data-name="Trazado 212858" d="M226.9,209.968a3.3,3.3,0,1,1,3.082-3.292,3.192,3.192,0,0,1-3.082,3.292" transform="translate(41.384 -35.94)" fill="#fff"/>
        <path id="Trazado_212859" data-name="Trazado 212859" d="M248.928,209.789a3.072,3.072,0,1,1,2.869-3.065,2.972,2.972,0,0,1-2.869,3.065" transform="translate(0.196 -35.989)" fill="#fff"/>
        <path id="Trazado_212860" data-name="Trazado 212860" d="M270.957,209.611a2.844,2.844,0,1,1,2.656-2.838,2.752,2.752,0,0,1-2.656,2.838" transform="translate(-40.993 -36.037)" fill="#fff"/>
        <path id="Trazado_212861" data-name="Trazado 212861" d="M292.986,209.432a2.617,2.617,0,1,1,2.444-2.611,2.531,2.531,0,0,1-2.444,2.611" transform="translate(-82.18 -36.086)" fill="#fff"/>
        <path id="Trazado_212862" data-name="Trazado 212862" d="M315.022,209.21a2.332,2.332,0,1,1,2.178-2.327,2.257,2.257,0,0,1-2.178,2.327" transform="translate(-123.376 -36.147)" fill="#fff"/>
        <path id="Trazado_212863" data-name="Trazado 212863" d="M337.06,208.987a2.048,2.048,0,1,1,1.913-2.043,1.981,1.981,0,0,1-1.913,2.043" transform="translate(-164.573 -36.208)" fill="#fff"/>
        <path id="Trazado_212864" data-name="Trazado 212864" d="M359.088,208.808a1.821,1.821,0,1,1,1.7-1.816,1.761,1.761,0,0,1-1.7,1.816" transform="translate(-205.76 -36.257)" fill="#fff"/>
        <path id="Trazado_212865" data-name="Trazado 212865" d="M381.125,208.585a1.536,1.536,0,1,1,1.435-1.532,1.485,1.485,0,0,1-1.435,1.532" transform="translate(-246.957 -36.318)" fill="#fff"/>
        <path id="Trazado_212866" data-name="Trazado 212866" d="M403.162,208.363a1.252,1.252,0,1,1,1.169-1.249,1.211,1.211,0,0,1-1.169,1.249" transform="translate(-288.153 -36.378)" fill="#fff"/>
        <path id="Trazado_212867" data-name="Trazado 212867" d="M425.2,208.14a.967.967,0,1,1,.9-.965.936.936,0,0,1-.9.965" transform="translate(-329.35 -36.439)" fill="#fff"/>
        <path id="Trazado_212868" data-name="Trazado 212868" d="M447.236,207.918a.683.683,0,1,1,.638-.681.66.66,0,0,1-.638.681" transform="translate(-370.545 -36.5)" fill="#fff"/>
        <path id="Trazado_212869" data-name="Trazado 212869" d="M469.273,207.695a.4.4,0,1,1,.372-.4.385.385,0,0,1-.372.4" transform="translate(-411.742 -36.561)" fill="#fff"/>
        <path id="Trazado_212870" data-name="Trazado 212870" d="M491.309,207.471a.114.114,0,1,1,.106-.114.11.11,0,0,1-.106.114" transform="translate(-452.937 -36.622)" fill="#fff"/>
        <path id="Trazado_212871" data-name="Trazado 212871" d="M6.806,235.5a4.153,4.153,0,0,1,0-8.287,4.153,4.153,0,0,1,0,8.287" transform="translate(453.07 -40.151)" fill="#fff"/>
        <path id="Trazado_212872" data-name="Trazado 212872" d="M28.8,235.5a4.153,4.153,0,1,1,3.878-4.144A4.018,4.018,0,0,1,28.8,235.5" transform="translate(411.914 -40.151)" fill="#fff"/>
        <path id="Trazado_212873" data-name="Trazado 212873" d="M50.8,235.5a4.153,4.153,0,1,1,3.878-4.144A4.018,4.018,0,0,1,50.8,235.5" transform="translate(370.756 -40.151)" fill="#fff"/>
        <path id="Trazado_212874" data-name="Trazado 212874" d="M72.806,235.455a4.1,4.1,0,1,1,3.825-4.087,3.962,3.962,0,0,1-3.825,4.087" transform="translate(329.593 -40.163)" fill="#fff"/>
        <path id="Trazado_212875" data-name="Trazado 212875" d="M94.812,235.41a4.039,4.039,0,1,1,3.772-4.03,3.907,3.907,0,0,1-3.772,4.03" transform="translate(288.427 -40.175)" fill="#fff"/>
        <path id="Trazado_212876" data-name="Trazado 212876" d="M116.825,235.321a3.925,3.925,0,1,1,3.666-3.916,3.8,3.8,0,0,1-3.666,3.916" transform="translate(247.255 -40.199)" fill="#fff"/>
        <path id="Trazado_212877" data-name="Trazado 212877" d="M138.839,235.232a3.811,3.811,0,1,1,3.56-3.8,3.687,3.687,0,0,1-3.56,3.8" transform="translate(206.082 -40.224)" fill="#fff"/>
        <path id="Trazado_212878" data-name="Trazado 212878" d="M160.859,235.1a3.641,3.641,0,1,1,3.4-3.632,3.522,3.522,0,0,1-3.4,3.632" transform="translate(164.902 -40.26)" fill="#fff"/>
        <path id="Trazado_212879" data-name="Trazado 212879" d="M182.881,234.964a3.47,3.47,0,1,1,3.241-3.463,3.357,3.357,0,0,1-3.241,3.463" transform="translate(123.721 -40.297)" fill="#fff"/>
        <path id="Trazado_212880" data-name="Trazado 212880" d="M204.9,234.83a3.3,3.3,0,1,1,3.082-3.292,3.192,3.192,0,0,1-3.082,3.292" transform="translate(82.541 -40.333)" fill="#fff"/>
        <path id="Trazado_212881" data-name="Trazado 212881" d="M226.931,234.652a3.072,3.072,0,1,1,2.869-3.065,2.972,2.972,0,0,1-2.869,3.065" transform="translate(41.352 -40.382)" fill="#fff"/>
        <path id="Trazado_212882" data-name="Trazado 212882" d="M248.959,234.474a2.844,2.844,0,1,1,2.656-2.838,2.752,2.752,0,0,1-2.656,2.838" transform="translate(0.165 -40.431)" fill="#fff"/>
        <path id="Trazado_212883" data-name="Trazado 212883" d="M270.981,234.34a2.673,2.673,0,1,1,2.5-2.667,2.587,2.587,0,0,1-2.5,2.667" transform="translate(-41.017 -40.468)" fill="#fff"/>
        <path id="Trazado_212884" data-name="Trazado 212884" d="M293.017,234.117a2.389,2.389,0,1,1,2.231-2.384,2.311,2.311,0,0,1-2.231,2.384" transform="translate(-82.212 -40.528)" fill="#fff"/>
        <path id="Trazado_212885" data-name="Trazado 212885" d="M315.046,233.939a2.162,2.162,0,1,1,2.019-2.157,2.092,2.092,0,0,1-2.019,2.157" transform="translate(-123.399 -40.577)" fill="#fff"/>
        <path id="Trazado_212886" data-name="Trazado 212886" d="M337.083,233.716a1.878,1.878,0,1,1,1.753-1.873,1.816,1.816,0,0,1-1.753,1.873" transform="translate(-164.596 -40.638)" fill="#fff"/>
        <path id="Trazado_212887" data-name="Trazado 212887" d="M359.112,233.537a1.65,1.65,0,1,1,1.541-1.646,1.6,1.6,0,0,1-1.541,1.646" transform="translate(-205.784 -40.687)" fill="#fff"/>
        <path id="Trazado_212888" data-name="Trazado 212888" d="M381.149,233.315a1.365,1.365,0,1,1,1.275-1.363,1.321,1.321,0,0,1-1.275,1.363" transform="translate(-246.981 -40.748)" fill="#fff"/>
        <path id="Trazado_212889" data-name="Trazado 212889" d="M403.185,233.092a1.081,1.081,0,1,1,1.009-1.079,1.045,1.045,0,0,1-1.009,1.079" transform="translate(-288.176 -40.809)" fill="#fff"/>
        <path id="Trazado_212890" data-name="Trazado 212890" d="M425.215,232.914a.853.853,0,1,1,.8-.851.826.826,0,0,1-.8.851" transform="translate(-329.366 -40.857)" fill="#fff"/>
        <path id="Trazado_212891" data-name="Trazado 212891" d="M447.251,232.69a.569.569,0,1,1,.531-.567.55.55,0,0,1-.531.567" transform="translate(-370.561 -40.918)" fill="#fff"/>
        <path id="Trazado_212892" data-name="Trazado 212892" d="M469.289,232.467a.284.284,0,1,1,.266-.283.275.275,0,0,1-.266.283" transform="translate(-411.758 -40.979)" fill="#fff"/>
        <path id="Trazado_212893" data-name="Trazado 212893" d="M491.317,232.29a.057.057,0,1,1,.053-.057.055.055,0,0,1-.053.057" transform="translate(-452.945 -41.028)" fill="#fff"/>
        <path id="Trazado_212894" data-name="Trazado 212894" d="M6.846,260.139a3.868,3.868,0,0,1,0-7.719,3.868,3.868,0,0,1,0,7.719" transform="translate(453.031 -44.605)" fill="#fff"/>
        <path id="Trazado_212895" data-name="Trazado 212895" d="M28.843,260.139a3.868,3.868,0,1,1,3.613-3.86,3.742,3.742,0,0,1-3.613,3.86" transform="translate(411.875 -44.605)" fill="#fff"/>
        <path id="Trazado_212896" data-name="Trazado 212896" d="M50.841,260.139a3.868,3.868,0,1,1,3.613-3.86,3.742,3.742,0,0,1-3.613,3.86" transform="translate(370.717 -44.605)" fill="#fff"/>
        <path id="Trazado_212897" data-name="Trazado 212897" d="M72.846,260.095a3.811,3.811,0,1,1,3.56-3.8,3.687,3.687,0,0,1-3.56,3.8" transform="translate(329.553 -44.617)" fill="#fff"/>
        <path id="Trazado_212898" data-name="Trazado 212898" d="M94.852,260.05a3.754,3.754,0,1,1,3.507-3.746,3.632,3.632,0,0,1-3.507,3.746" transform="translate(288.388 -44.63)" fill="#fff"/>
        <path id="Trazado_212899" data-name="Trazado 212899" d="M116.864,259.961a3.641,3.641,0,1,1,3.4-3.632,3.522,3.522,0,0,1-3.4,3.632" transform="translate(247.216 -44.654)" fill="#fff"/>
        <path id="Trazado_212900" data-name="Trazado 212900" d="M138.878,259.871a3.527,3.527,0,1,1,3.294-3.52,3.412,3.412,0,0,1-3.294,3.52" transform="translate(206.042 -44.678)" fill="#fff"/>
        <path id="Trazado_212901" data-name="Trazado 212901" d="M160.891,259.782a3.413,3.413,0,1,1,3.188-3.406,3.3,3.3,0,0,1-3.188,3.406" transform="translate(164.871 -44.703)" fill="#fff"/>
        <path id="Trazado_212902" data-name="Trazado 212902" d="M182.912,259.648a3.243,3.243,0,1,1,3.028-3.235,3.137,3.137,0,0,1-3.028,3.235" transform="translate(123.689 -44.739)" fill="#fff"/>
        <path id="Trazado_212903" data-name="Trazado 212903" d="M204.933,259.514a3.072,3.072,0,1,1,2.869-3.065,2.972,2.972,0,0,1-2.869,3.065" transform="translate(82.51 -44.776)" fill="#fff"/>
        <path id="Trazado_212904" data-name="Trazado 212904" d="M226.963,259.337a2.844,2.844,0,1,1,2.656-2.838,2.752,2.752,0,0,1-2.656,2.838" transform="translate(41.321 -44.825)" fill="#fff"/>
        <path id="Trazado_212905" data-name="Trazado 212905" d="M248.983,259.2a2.673,2.673,0,1,1,2.5-2.667,2.587,2.587,0,0,1-2.5,2.667" transform="translate(0.141 -44.861)" fill="#fff"/>
        <path id="Trazado_212906" data-name="Trazado 212906" d="M271.013,259.024a2.446,2.446,0,1,1,2.285-2.441,2.366,2.366,0,0,1-2.285,2.441" transform="translate(-41.048 -44.91)" fill="#fff"/>
        <path id="Trazado_212907" data-name="Trazado 212907" d="M293.049,258.8a2.162,2.162,0,1,1,2.019-2.157,2.091,2.091,0,0,1-2.019,2.157" transform="translate(-82.243 -44.97)" fill="#fff"/>
        <path id="Trazado_212908" data-name="Trazado 212908" d="M315.077,258.623a1.934,1.934,0,1,1,1.806-1.93,1.872,1.872,0,0,1-1.806,1.93" transform="translate(-123.431 -45.019)" fill="#fff"/>
        <path id="Trazado_212909" data-name="Trazado 212909" d="M337.107,258.445a1.707,1.707,0,1,1,1.594-1.7,1.651,1.651,0,0,1-1.594,1.7" transform="translate(-164.62 -45.068)" fill="#fff"/>
        <path id="Trazado_212910" data-name="Trazado 212910" d="M359.143,258.222a1.422,1.422,0,1,1,1.328-1.419,1.376,1.376,0,0,1-1.328,1.419" transform="translate(-205.815 -45.129)" fill="#fff"/>
        <path id="Trazado_212911" data-name="Trazado 212911" d="M381.173,258.043a1.195,1.195,0,1,1,1.116-1.192,1.155,1.155,0,0,1-1.116,1.192" transform="translate(-247.005 -45.178)" fill="#fff"/>
        <path id="Trazado_212912" data-name="Trazado 212912" d="M403.209,257.82a.91.91,0,1,1,.85-.908.881.881,0,0,1-.85.908" transform="translate(-288.2 -45.238)" fill="#fff"/>
        <path id="Trazado_212913" data-name="Trazado 212913" d="M425.238,257.643a.683.683,0,1,1,.638-.681.66.66,0,0,1-.638.681" transform="translate(-329.389 -45.287)" fill="#fff"/>
        <path id="Trazado_212914" data-name="Trazado 212914" d="M447.275,257.419a.4.4,0,1,1,.372-.4.385.385,0,0,1-.372.4" transform="translate(-370.584 -45.348)" fill="#fff"/>
        <path id="Trazado_212915" data-name="Trazado 212915" d="M469.312,257.2a.113.113,0,1,1,.106-.113.11.11,0,0,1-.106.113" transform="translate(-411.782 -45.409)" fill="#fff"/>
        <path id="Trazado_212916" data-name="Trazado 212916" d="M6.893,284.734a3.527,3.527,0,0,1,0-7.038,3.527,3.527,0,0,1,0,7.038" transform="translate(452.983 -49.072)" fill="#fff"/>
        <path id="Trazado_212917" data-name="Trazado 212917" d="M28.89,284.734a3.527,3.527,0,1,1,3.294-3.52,3.412,3.412,0,0,1-3.294,3.52" transform="translate(411.828 -49.072)" fill="#fff"/>
        <path id="Trazado_212918" data-name="Trazado 212918" d="M50.888,284.734a3.527,3.527,0,1,1,3.294-3.52,3.412,3.412,0,0,1-3.294,3.52" transform="translate(370.67 -49.072)" fill="#fff"/>
        <path id="Trazado_212919" data-name="Trazado 212919" d="M72.893,284.69a3.47,3.47,0,1,1,3.241-3.463,3.357,3.357,0,0,1-3.241,3.463" transform="translate(329.506 -49.084)" fill="#fff"/>
        <path id="Trazado_212920" data-name="Trazado 212920" d="M94.9,284.645a3.413,3.413,0,1,1,3.188-3.406,3.3,3.3,0,0,1-3.188,3.406" transform="translate(288.34 -49.096)" fill="#fff"/>
        <path id="Trazado_212921" data-name="Trazado 212921" d="M116.9,284.6a3.356,3.356,0,1,1,3.135-3.349A3.247,3.247,0,0,1,116.9,284.6" transform="translate(247.177 -49.108)" fill="#fff"/>
        <path id="Trazado_212922" data-name="Trazado 212922" d="M138.917,284.511a3.243,3.243,0,1,1,3.028-3.236,3.138,3.138,0,0,1-3.028,3.236" transform="translate(206.003 -49.132)" fill="#fff"/>
        <path id="Trazado_212923" data-name="Trazado 212923" d="M160.93,284.422a3.129,3.129,0,1,1,2.922-3.122,3.027,3.027,0,0,1-2.922,3.122" transform="translate(164.831 -49.157)" fill="#fff"/>
        <path id="Trazado_212924" data-name="Trazado 212924" d="M182.952,284.288a2.958,2.958,0,1,1,2.763-2.951,2.862,2.862,0,0,1-2.763,2.951" transform="translate(123.65 -49.194)" fill="#fff"/>
        <path id="Trazado_212925" data-name="Trazado 212925" d="M204.972,284.154a2.787,2.787,0,1,1,2.6-2.781,2.7,2.7,0,0,1-2.6,2.781" transform="translate(82.47 -49.23)" fill="#fff"/>
        <path id="Trazado_212926" data-name="Trazado 212926" d="M226.994,284.02a2.617,2.617,0,1,1,2.444-2.611,2.531,2.531,0,0,1-2.444,2.611" transform="translate(41.289 -49.266)" fill="#fff"/>
        <path id="Trazado_212927" data-name="Trazado 212927" d="M249.022,283.843a2.389,2.389,0,1,1,2.231-2.384,2.311,2.311,0,0,1-2.231,2.384" transform="translate(0.102 -49.315)" fill="#fff"/>
        <path id="Trazado_212928" data-name="Trazado 212928" d="M271.052,283.664a2.162,2.162,0,1,1,2.019-2.157,2.091,2.091,0,0,1-2.019,2.157" transform="translate(-41.088 -49.364)" fill="#fff"/>
        <path id="Trazado_212929" data-name="Trazado 212929" d="M293.08,283.486a1.934,1.934,0,1,1,1.806-1.93,1.872,1.872,0,0,1-1.806,1.93" transform="translate(-82.275 -49.413)" fill="#fff"/>
        <path id="Trazado_212930" data-name="Trazado 212930" d="M315.109,283.307a1.707,1.707,0,1,1,1.594-1.7,1.651,1.651,0,0,1-1.594,1.7" transform="translate(-123.462 -49.461)" fill="#fff"/>
        <path id="Trazado_212931" data-name="Trazado 212931" d="M337.138,283.13a1.479,1.479,0,1,1,1.381-1.476,1.431,1.431,0,0,1-1.381,1.476" transform="translate(-164.652 -49.51)" fill="#fff"/>
        <path id="Trazado_212932" data-name="Trazado 212932" d="M359.167,282.951a1.252,1.252,0,1,1,1.169-1.249,1.211,1.211,0,0,1-1.169,1.249" transform="translate(-205.839 -49.559)" fill="#fff"/>
        <path id="Trazado_212933" data-name="Trazado 212933" d="M381.2,282.772a1.024,1.024,0,1,1,.956-1.022.991.991,0,0,1-.956,1.022" transform="translate(-247.028 -49.608)" fill="#fff"/>
        <path id="Trazado_212934" data-name="Trazado 212934" d="M403.233,282.55a.74.74,0,1,1,.691-.738.715.715,0,0,1-.691.738" transform="translate(-288.224 -49.669)" fill="#fff"/>
        <path id="Trazado_212935" data-name="Trazado 212935" d="M425.262,282.372a.512.512,0,1,1,.478-.51.5.5,0,0,1-.478.51" transform="translate(-329.413 -49.717)" fill="#fff"/>
        <path id="Trazado_212936" data-name="Trazado 212936" d="M447.3,282.149a.227.227,0,1,1,.213-.227.22.22,0,0,1-.213.227" transform="translate(-370.608 -49.778)" fill="#fff"/>
        <path id="Trazado_212937" data-name="Trazado 212937" d="M6.932,309.374a3.243,3.243,0,0,1,0-6.471,3.243,3.243,0,0,1,0,6.471" transform="translate(452.944 -53.526)" fill="#fff"/>
        <path id="Trazado_212938" data-name="Trazado 212938" d="M28.929,309.374a3.243,3.243,0,1,1,3.028-3.236,3.138,3.138,0,0,1-3.028,3.236" transform="translate(411.788 -53.526)" fill="#fff"/>
        <path id="Trazado_212939" data-name="Trazado 212939" d="M50.927,309.374a3.243,3.243,0,1,1,3.028-3.236,3.138,3.138,0,0,1-3.028,3.236" transform="translate(370.63 -53.526)" fill="#fff"/>
        <path id="Trazado_212940" data-name="Trazado 212940" d="M72.932,309.329a3.186,3.186,0,1,1,2.975-3.179,3.082,3.082,0,0,1-2.975,3.179" transform="translate(329.467 -53.538)" fill="#fff"/>
        <path id="Trazado_212941" data-name="Trazado 212941" d="M94.938,309.285a3.129,3.129,0,1,1,2.922-3.122,3.027,3.027,0,0,1-2.922,3.122" transform="translate(288.301 -53.551)" fill="#fff"/>
        <path id="Trazado_212942" data-name="Trazado 212942" d="M116.951,309.2a3.015,3.015,0,1,1,2.816-3.008,2.917,2.917,0,0,1-2.816,3.008" transform="translate(247.129 -53.575)" fill="#fff"/>
        <path id="Trazado_212943" data-name="Trazado 212943" d="M138.957,309.151a2.958,2.958,0,1,1,2.763-2.952,2.862,2.862,0,0,1-2.763,2.952" transform="translate(205.964 -53.587)" fill="#fff"/>
        <path id="Trazado_212944" data-name="Trazado 212944" d="M160.969,309.062a2.844,2.844,0,1,1,2.656-2.838,2.752,2.752,0,0,1-2.656,2.838" transform="translate(164.792 -53.611)" fill="#fff"/>
        <path id="Trazado_212945" data-name="Trazado 212945" d="M182.991,308.928a2.673,2.673,0,1,1,2.5-2.667,2.587,2.587,0,0,1-2.5,2.667" transform="translate(123.611 -53.648)" fill="#fff"/>
        <path id="Trazado_212946" data-name="Trazado 212946" d="M205.012,308.794a2.5,2.5,0,1,1,2.338-2.5,2.422,2.422,0,0,1-2.338,2.5" transform="translate(82.431 -53.684)" fill="#fff"/>
        <path id="Trazado_212947" data-name="Trazado 212947" d="M227.033,308.66a2.332,2.332,0,1,1,2.178-2.327,2.257,2.257,0,0,1-2.178,2.327" transform="translate(41.25 -53.721)" fill="#fff"/>
        <path id="Trazado_212948" data-name="Trazado 212948" d="M249.054,308.527a2.162,2.162,0,1,1,2.019-2.157,2.092,2.092,0,0,1-2.019,2.157" transform="translate(0.07 -53.758)" fill="#fff"/>
        <path id="Trazado_212949" data-name="Trazado 212949" d="M271.083,308.349a1.934,1.934,0,1,1,1.806-1.93,1.872,1.872,0,0,1-1.806,1.93" transform="translate(-41.119 -53.806)" fill="#fff"/>
        <path id="Trazado_212950" data-name="Trazado 212950" d="M293.112,308.17a1.707,1.707,0,1,1,1.594-1.7,1.651,1.651,0,0,1-1.594,1.7" transform="translate(-82.306 -53.855)" fill="#fff"/>
        <path id="Trazado_212951" data-name="Trazado 212951" d="M315.132,308.036a1.536,1.536,0,1,1,1.435-1.532,1.485,1.485,0,0,1-1.435,1.532" transform="translate(-123.486 -53.891)" fill="#fff"/>
        <path id="Trazado_212952" data-name="Trazado 212952" d="M337.162,307.859a1.308,1.308,0,1,1,1.222-1.306,1.266,1.266,0,0,1-1.222,1.306" transform="translate(-164.675 -53.94)" fill="#fff"/>
        <path id="Trazado_212953" data-name="Trazado 212953" d="M359.19,307.68A1.081,1.081,0,1,1,360.2,306.6a1.045,1.045,0,0,1-1.009,1.078" transform="translate(-205.863 -53.989)" fill="#fff"/>
        <path id="Trazado_212954" data-name="Trazado 212954" d="M381.228,307.457a.8.8,0,1,1,.744-.794.77.77,0,0,1-.744.794" transform="translate(-247.06 -54.05)" fill="#fff"/>
        <path id="Trazado_212955" data-name="Trazado 212955" d="M403.256,307.278a.569.569,0,1,1,.531-.567.55.55,0,0,1-.531.567" transform="translate(-288.247 -54.099)" fill="#fff"/>
        <path id="Trazado_212956" data-name="Trazado 212956" d="M425.286,307.1a.341.341,0,1,1,.319-.341.33.33,0,0,1-.319.341" transform="translate(-329.436 -54.148)" fill="#fff"/>
        <path id="Trazado_212957" data-name="Trazado 212957" d="M447.322,306.878a.057.057,0,1,1,.053-.057.055.055,0,0,1-.053.057" transform="translate(-370.632 -54.208)" fill="#fff"/>
        <path id="Trazado_212958" data-name="Trazado 212958" d="M6.98,333.969a2.9,2.9,0,0,1,0-5.789,2.9,2.9,0,0,1,0,5.789" transform="translate(452.897 -57.993)" fill="#fff"/>
        <path id="Trazado_212959" data-name="Trazado 212959" d="M28.977,333.969a2.9,2.9,0,1,1,2.71-2.895,2.807,2.807,0,0,1-2.71,2.895" transform="translate(411.741 -57.993)" fill="#fff"/>
        <path id="Trazado_212960" data-name="Trazado 212960" d="M50.975,333.969a2.9,2.9,0,1,1,2.71-2.895,2.807,2.807,0,0,1-2.71,2.895" transform="translate(370.583 -57.993)" fill="#fff"/>
        <path id="Trazado_212961" data-name="Trazado 212961" d="M72.972,333.969a2.9,2.9,0,1,1,2.71-2.895,2.807,2.807,0,0,1-2.71,2.895" transform="translate(329.427 -57.993)" fill="#fff"/>
        <path id="Trazado_212962" data-name="Trazado 212962" d="M94.985,333.88a2.787,2.787,0,1,1,2.6-2.781,2.7,2.7,0,0,1-2.6,2.781" transform="translate(288.254 -58.017)" fill="#fff"/>
        <path id="Trazado_212963" data-name="Trazado 212963" d="M116.99,333.836a2.73,2.73,0,1,1,2.55-2.724,2.642,2.642,0,0,1-2.55,2.724" transform="translate(247.09 -58.029)" fill="#fff"/>
        <path id="Trazado_212964" data-name="Trazado 212964" d="M139,333.791a2.673,2.673,0,1,1,2.5-2.667,2.587,2.587,0,0,1-2.5,2.667" transform="translate(205.924 -58.042)" fill="#fff"/>
        <path id="Trazado_212965" data-name="Trazado 212965" d="M161.017,333.657a2.5,2.5,0,1,1,2.338-2.5,2.422,2.422,0,0,1-2.338,2.5" transform="translate(164.745 -58.078)" fill="#fff"/>
        <path id="Trazado_212966" data-name="Trazado 212966" d="M183.03,333.568a2.389,2.389,0,1,1,2.231-2.384,2.311,2.311,0,0,1-2.231,2.384" transform="translate(123.571 -58.102)" fill="#fff"/>
        <path id="Trazado_212967" data-name="Trazado 212967" d="M205.051,333.435a2.219,2.219,0,1,1,2.072-2.214,2.146,2.146,0,0,1-2.072,2.214" transform="translate(82.392 -58.139)" fill="#fff"/>
        <path id="Trazado_212968" data-name="Trazado 212968" d="M227.073,333.3a2.048,2.048,0,1,1,1.913-2.043,1.981,1.981,0,0,1-1.913,2.043" transform="translate(41.21 -58.176)" fill="#fff"/>
        <path id="Trazado_212969" data-name="Trazado 212969" d="M249.093,333.167a1.878,1.878,0,1,1,1.753-1.873,1.816,1.816,0,0,1-1.753,1.873" transform="translate(0.031 -58.212)" fill="#fff"/>
        <path id="Trazado_212970" data-name="Trazado 212970" d="M271.115,333.033a1.707,1.707,0,1,1,1.594-1.7,1.651,1.651,0,0,1-1.594,1.7" transform="translate(-41.15 -58.249)" fill="#fff"/>
        <path id="Trazado_212971" data-name="Trazado 212971" d="M293.143,332.854a1.479,1.479,0,1,1,1.381-1.476,1.431,1.431,0,0,1-1.381,1.476" transform="translate(-82.338 -58.297)" fill="#fff"/>
        <path id="Trazado_212972" data-name="Trazado 212972" d="M315.164,332.721a1.308,1.308,0,1,1,1.222-1.306,1.266,1.266,0,0,1-1.222,1.306" transform="translate(-123.517 -58.334)" fill="#fff"/>
        <path id="Trazado_212973" data-name="Trazado 212973" d="M337.193,332.543a1.081,1.081,0,1,1,1.01-1.078,1.045,1.045,0,0,1-1.01,1.078" transform="translate(-164.707 -58.383)" fill="#fff"/>
        <path id="Trazado_212974" data-name="Trazado 212974" d="M359.222,332.365a.853.853,0,1,1,.8-.851.826.826,0,0,1-.8.851" transform="translate(-205.894 -58.431)" fill="#fff"/>
        <path id="Trazado_212975" data-name="Trazado 212975" d="M381.251,332.186a.626.626,0,1,1,.584-.624.6.6,0,0,1-.584.624" transform="translate(-247.083 -58.48)" fill="#fff"/>
        <path id="Trazado_212976" data-name="Trazado 212976" d="M403.28,332.008a.4.4,0,1,1,.372-.4.385.385,0,0,1-.372.4" transform="translate(-288.271 -58.529)" fill="#fff"/>
        <path id="Trazado_212977" data-name="Trazado 212977" d="M425.317,331.785a.114.114,0,1,1,.106-.114.11.11,0,0,1-.106.114" transform="translate(-329.468 -58.59)" fill="#fff"/>
        <path id="Trazado_212978" data-name="Trazado 212978" d="M7.027,358.564a2.56,2.56,0,0,1,0-5.108,2.56,2.56,0,0,1,0,5.108" transform="translate(452.85 -62.459)" fill="#fff"/>
        <path id="Trazado_212979" data-name="Trazado 212979" d="M29.016,358.609A2.617,2.617,0,1,1,31.46,356a2.531,2.531,0,0,1-2.444,2.611" transform="translate(411.702 -62.447)" fill="#fff"/>
        <path id="Trazado_212980" data-name="Trazado 212980" d="M51.014,358.609A2.617,2.617,0,1,1,53.458,356a2.531,2.531,0,0,1-2.444,2.611" transform="translate(370.544 -62.447)" fill="#fff"/>
        <path id="Trazado_212981" data-name="Trazado 212981" d="M73.019,358.564a2.56,2.56,0,1,1,2.391-2.555,2.477,2.477,0,0,1-2.391,2.555" transform="translate(329.38 -62.459)" fill="#fff"/>
        <path id="Trazado_212982" data-name="Trazado 212982" d="M95.025,358.52a2.5,2.5,0,1,1,2.338-2.5,2.422,2.422,0,0,1-2.338,2.5" transform="translate(288.214 -62.472)" fill="#fff"/>
        <path id="Trazado_212983" data-name="Trazado 212983" d="M117.03,358.475a2.446,2.446,0,1,1,2.285-2.441,2.366,2.366,0,0,1-2.285,2.441" transform="translate(247.051 -62.484)" fill="#fff"/>
        <path id="Trazado_212984" data-name="Trazado 212984" d="M139.043,358.386a2.332,2.332,0,1,1,2.178-2.327,2.257,2.257,0,0,1-2.178,2.327" transform="translate(205.877 -62.508)" fill="#fff"/>
        <path id="Trazado_212985" data-name="Trazado 212985" d="M161.056,358.3a2.219,2.219,0,1,1,2.072-2.214,2.146,2.146,0,0,1-2.072,2.214" transform="translate(164.705 -62.532)" fill="#fff"/>
        <path id="Trazado_212986" data-name="Trazado 212986" d="M183.07,358.207a2.1,2.1,0,1,1,1.966-2.1,2.037,2.037,0,0,1-1.966,2.1" transform="translate(123.532 -62.557)" fill="#fff"/>
        <path id="Trazado_212987" data-name="Trazado 212987" d="M205.09,358.074a1.934,1.934,0,1,1,1.806-1.93,1.872,1.872,0,0,1-1.806,1.93" transform="translate(82.352 -62.593)" fill="#fff"/>
        <path id="Trazado_212988" data-name="Trazado 212988" d="M227.1,357.985a1.821,1.821,0,1,1,1.7-1.816,1.761,1.761,0,0,1-1.7,1.816" transform="translate(41.179 -62.618)" fill="#fff"/>
        <path id="Trazado_212989" data-name="Trazado 212989" d="M249.125,357.851a1.65,1.65,0,1,1,1.541-1.646,1.6,1.6,0,0,1-1.541,1.646" transform="translate(-0.001 -62.654)" fill="#fff"/>
        <path id="Trazado_212990" data-name="Trazado 212990" d="M271.154,357.673a1.422,1.422,0,1,1,1.328-1.419,1.376,1.376,0,0,1-1.328,1.419" transform="translate(-41.19 -62.703)" fill="#fff"/>
        <path id="Trazado_212991" data-name="Trazado 212991" d="M293.175,357.539a1.252,1.252,0,1,1,1.169-1.249,1.211,1.211,0,0,1-1.169,1.249" transform="translate(-82.369 -62.739)" fill="#fff"/>
        <path id="Trazado_212992" data-name="Trazado 212992" d="M315.2,357.405a1.081,1.081,0,1,1,1.009-1.078,1.045,1.045,0,0,1-1.009,1.078" transform="translate(-123.549 -62.776)" fill="#fff"/>
        <path id="Trazado_212993" data-name="Trazado 212993" d="M337.225,357.227a.853.853,0,1,1,.8-.851.826.826,0,0,1-.8.851" transform="translate(-164.738 -62.825)" fill="#fff"/>
        <path id="Trazado_212994" data-name="Trazado 212994" d="M359.253,357.049a.626.626,0,1,1,.584-.624.6.6,0,0,1-.584.624" transform="translate(-205.926 -62.874)" fill="#fff"/>
        <path id="Trazado_212995" data-name="Trazado 212995" d="M381.283,356.87a.4.4,0,1,1,.372-.4.385.385,0,0,1-.372.4" transform="translate(-247.115 -62.922)" fill="#fff"/>
        <path id="Trazado_212996" data-name="Trazado 212996" d="M403.311,356.692a.171.171,0,1,1,.159-.17.165.165,0,0,1-.159.17" transform="translate(-288.302 -62.971)" fill="#fff"/>
        <path id="Trazado_212997" data-name="Trazado 212997" d="M7.066,383.2a2.275,2.275,0,0,1,0-4.54,2.275,2.275,0,0,1,0,4.54" transform="translate(452.81 -66.914)" fill="#fff"/>
        <path id="Trazado_212998" data-name="Trazado 212998" d="M29.063,383.2a2.275,2.275,0,1,1,2.125-2.271,2.2,2.2,0,0,1-2.125,2.271" transform="translate(411.654 -66.914)" fill="#fff"/>
        <path id="Trazado_212999" data-name="Trazado 212999" d="M51.061,383.2a2.275,2.275,0,1,1,2.125-2.271,2.2,2.2,0,0,1-2.125,2.271" transform="translate(370.497 -66.914)" fill="#fff"/>
        <path id="Trazado_213000" data-name="Trazado 213000" d="M73.066,383.16a2.219,2.219,0,1,1,2.072-2.214,2.147,2.147,0,0,1-2.072,2.214" transform="translate(329.333 -66.926)" fill="#fff"/>
        <path id="Trazado_213001" data-name="Trazado 213001" d="M95.072,383.115a2.162,2.162,0,1,1,2.019-2.157,2.092,2.092,0,0,1-2.019,2.157" transform="translate(288.167 -66.938)" fill="#fff"/>
        <path id="Trazado_213002" data-name="Trazado 213002" d="M117.077,383.07a2.1,2.1,0,1,1,1.966-2.1,2.037,2.037,0,0,1-1.966,2.1" transform="translate(247.003 -66.95)" fill="#fff"/>
        <path id="Trazado_213003" data-name="Trazado 213003" d="M139.083,383.026A2.048,2.048,0,1,1,141,380.982a1.981,1.981,0,0,1-1.913,2.043" transform="translate(205.838 -66.962)" fill="#fff"/>
        <path id="Trazado_213004" data-name="Trazado 213004" d="M161.1,382.937a1.934,1.934,0,1,1,1.806-1.93,1.872,1.872,0,0,1-1.806,1.93" transform="translate(164.666 -66.987)" fill="#fff"/>
        <path id="Trazado_213005" data-name="Trazado 213005" d="M183.109,382.847a1.821,1.821,0,1,1,1.7-1.816,1.761,1.761,0,0,1-1.7,1.816" transform="translate(123.493 -67.011)" fill="#fff"/>
        <path id="Trazado_213006" data-name="Trazado 213006" d="M205.13,382.713a1.65,1.65,0,1,1,1.541-1.646,1.6,1.6,0,0,1-1.541,1.646" transform="translate(82.313 -67.048)" fill="#fff"/>
        <path id="Trazado_213007" data-name="Trazado 213007" d="M227.143,382.624a1.536,1.536,0,1,1,1.434-1.532,1.485,1.485,0,0,1-1.434,1.532" transform="translate(41.14 -67.072)" fill="#fff"/>
        <path id="Trazado_213008" data-name="Trazado 213008" d="M249.164,382.491a1.365,1.365,0,1,1,1.275-1.363,1.321,1.321,0,0,1-1.275,1.363" transform="translate(-0.04 -67.109)" fill="#fff"/>
        <path id="Trazado_213009" data-name="Trazado 213009" d="M271.186,382.357a1.195,1.195,0,1,1,1.116-1.192,1.156,1.156,0,0,1-1.116,1.192" transform="translate(-41.221 -67.145)" fill="#fff"/>
        <path id="Trazado_213010" data-name="Trazado 213010" d="M293.206,382.223a1.024,1.024,0,1,1,.956-1.022.991.991,0,0,1-.956,1.022" transform="translate(-82.401 -67.182)" fill="#fff"/>
        <path id="Trazado_213011" data-name="Trazado 213011" d="M315.235,382.045a.8.8,0,1,1,.744-.794.77.77,0,0,1-.744.794" transform="translate(-123.588 -67.23)" fill="#fff"/>
        <path id="Trazado_213012" data-name="Trazado 213012" d="M337.256,381.911a.626.626,0,1,1,.584-.624.6.6,0,0,1-.584.624" transform="translate(-164.77 -67.267)" fill="#fff"/>
        <path id="Trazado_213013" data-name="Trazado 213013" d="M359.285,381.733a.4.4,0,1,1,.372-.4.385.385,0,0,1-.372.4" transform="translate(-205.957 -67.316)" fill="#fff"/>
        <path id="Trazado_213014" data-name="Trazado 213014" d="M381.314,381.555a.171.171,0,1,1,.159-.17.165.165,0,0,1-.159.17" transform="translate(-247.146 -67.364)" fill="#fff"/>
        <path id="Trazado_213015" data-name="Trazado 213015" d="M7.113,407.8a1.934,1.934,0,0,1,0-3.86,1.934,1.934,0,0,1,0,3.86" transform="translate(452.763 -71.38)" fill="#fff"/>
        <path id="Trazado_213016" data-name="Trazado 213016" d="M29.11,407.8a1.934,1.934,0,1,1,1.806-1.93,1.872,1.872,0,0,1-1.806,1.93" transform="translate(411.607 -71.38)" fill="#fff"/>
        <path id="Trazado_213017" data-name="Trazado 213017" d="M51.108,407.8a1.934,1.934,0,1,1,1.806-1.93,1.872,1.872,0,0,1-1.806,1.93" transform="translate(370.449 -71.38)" fill="#fff"/>
        <path id="Trazado_213018" data-name="Trazado 213018" d="M73.105,407.8a1.934,1.934,0,1,1,1.806-1.93,1.872,1.872,0,0,1-1.806,1.93" transform="translate(329.293 -71.38)" fill="#fff"/>
        <path id="Trazado_213019" data-name="Trazado 213019" d="M95.111,407.755a1.877,1.877,0,1,1,1.753-1.873,1.816,1.816,0,0,1-1.753,1.873" transform="translate(288.128 -71.392)" fill="#fff"/>
        <path id="Trazado_213020" data-name="Trazado 213020" d="M117.116,407.71a1.821,1.821,0,1,1,1.7-1.816,1.761,1.761,0,0,1-1.7,1.816" transform="translate(246.964 -71.405)" fill="#fff"/>
        <path id="Trazado_213021" data-name="Trazado 213021" d="M139.13,407.621a1.707,1.707,0,1,1,1.594-1.7,1.651,1.651,0,0,1-1.594,1.7" transform="translate(205.791 -71.429)" fill="#fff"/>
        <path id="Trazado_213022" data-name="Trazado 213022" d="M161.135,407.576a1.65,1.65,0,1,1,1.541-1.646,1.6,1.6,0,0,1-1.541,1.646" transform="translate(164.627 -71.441)" fill="#fff"/>
        <path id="Trazado_213023" data-name="Trazado 213023" d="M183.149,407.487a1.536,1.536,0,1,1,1.434-1.532,1.485,1.485,0,0,1-1.434,1.532" transform="translate(123.453 -71.466)" fill="#fff"/>
        <path id="Trazado_213024" data-name="Trazado 213024" d="M205.169,407.353a1.365,1.365,0,1,1,1.275-1.363,1.321,1.321,0,0,1-1.275,1.363" transform="translate(82.274 -71.502)" fill="#fff"/>
        <path id="Trazado_213025" data-name="Trazado 213025" d="M227.183,407.264a1.252,1.252,0,1,1,1.169-1.249,1.211,1.211,0,0,1-1.169,1.249" transform="translate(41.1 -71.526)" fill="#fff"/>
        <path id="Trazado_213026" data-name="Trazado 213026" d="M249.2,407.131a1.081,1.081,0,1,1,1.009-1.078,1.045,1.045,0,0,1-1.009,1.078" transform="translate(-0.079 -71.563)" fill="#fff"/>
        <path id="Trazado_213027" data-name="Trazado 213027" d="M271.225,407a.91.91,0,1,1,.85-.908.881.881,0,0,1-.85.908" transform="translate(-41.261 -71.6)" fill="#fff"/>
        <path id="Trazado_213028" data-name="Trazado 213028" d="M293.246,406.863a.74.74,0,1,1,.691-.738.715.715,0,0,1-.691.738" transform="translate(-82.44 -71.636)" fill="#fff"/>
        <path id="Trazado_213029" data-name="Trazado 213029" d="M315.266,406.729a.569.569,0,1,1,.531-.567.55.55,0,0,1-.531.567" transform="translate(-123.62 -71.673)" fill="#fff"/>
        <path id="Trazado_213030" data-name="Trazado 213030" d="M337.288,406.6a.4.4,0,1,1,.372-.4.385.385,0,0,1-.372.4" transform="translate(-164.801 -71.709)" fill="#fff"/>
        <path id="Trazado_213031" data-name="Trazado 213031" d="M359.316,406.417a.171.171,0,1,1,.159-.17.165.165,0,0,1-.159.17" transform="translate(-205.989 -71.758)" fill="#fff"/>
        <path id="Trazado_213032" data-name="Trazado 213032" d="M7.153,432.439a1.65,1.65,0,0,1,0-3.292,1.65,1.65,0,0,1,0,3.292" transform="translate(452.724 -75.835)" fill="#fff"/>
        <path id="Trazado_213033" data-name="Trazado 213033" d="M29.15,432.439a1.65,1.65,0,1,1,1.541-1.646,1.6,1.6,0,0,1-1.541,1.646" transform="translate(411.568 -75.835)" fill="#fff"/>
        <path id="Trazado_213034" data-name="Trazado 213034" d="M51.148,432.439a1.65,1.65,0,1,1,1.541-1.646,1.6,1.6,0,0,1-1.541,1.646" transform="translate(370.41 -75.835)" fill="#fff"/>
        <path id="Trazado_213035" data-name="Trazado 213035" d="M73.153,432.395a1.593,1.593,0,1,1,1.488-1.589,1.541,1.541,0,0,1-1.488,1.589" transform="translate(329.246 -75.847)" fill="#fff"/>
        <path id="Trazado_213036" data-name="Trazado 213036" d="M95.159,432.35a1.536,1.536,0,1,1,1.435-1.532,1.485,1.485,0,0,1-1.435,1.532" transform="translate(288.081 -75.859)" fill="#fff"/>
        <path id="Trazado_213037" data-name="Trazado 213037" d="M117.163,432.306a1.479,1.479,0,1,1,1.381-1.476,1.431,1.431,0,0,1-1.381,1.476" transform="translate(246.917 -75.871)" fill="#fff"/>
        <path id="Trazado_213038" data-name="Trazado 213038" d="M139.169,432.261a1.422,1.422,0,1,1,1.328-1.419,1.376,1.376,0,0,1-1.328,1.419" transform="translate(205.751 -75.883)" fill="#fff"/>
        <path id="Trazado_213039" data-name="Trazado 213039" d="M161.182,432.172a1.308,1.308,0,1,1,1.222-1.306,1.266,1.266,0,0,1-1.222,1.306" transform="translate(164.58 -75.908)" fill="#fff"/>
        <path id="Trazado_213040" data-name="Trazado 213040" d="M183.188,432.127a1.252,1.252,0,1,1,1.169-1.249,1.211,1.211,0,0,1-1.169,1.249" transform="translate(123.414 -75.92)" fill="#fff"/>
        <path id="Trazado_213041" data-name="Trazado 213041" d="M205.208,431.993a1.081,1.081,0,1,1,1.009-1.079,1.046,1.046,0,0,1-1.009,1.079" transform="translate(82.234 -75.956)" fill="#fff"/>
        <path id="Trazado_213042" data-name="Trazado 213042" d="M227.222,431.9a.967.967,0,1,1,.9-.965.936.936,0,0,1-.9.965" transform="translate(41.061 -75.981)" fill="#fff"/>
        <path id="Trazado_213043" data-name="Trazado 213043" d="M249.235,431.815a.853.853,0,1,1,.8-.851.826.826,0,0,1-.8.851" transform="translate(-0.111 -76.005)" fill="#fff"/>
        <path id="Trazado_213044" data-name="Trazado 213044" d="M271.256,431.682a.683.683,0,1,1,.638-.681.66.66,0,0,1-.638.681" transform="translate(-41.292 -76.042)" fill="#fff"/>
        <path id="Trazado_213045" data-name="Trazado 213045" d="M293.277,431.548a.512.512,0,1,1,.478-.51.5.5,0,0,1-.478.51" transform="translate(-82.472 -76.078)" fill="#fff"/>
        <path id="Trazado_213046" data-name="Trazado 213046" d="M315.3,431.414a.341.341,0,1,1,.319-.341.33.33,0,0,1-.319.341" transform="translate(-123.651 -76.115)" fill="#fff"/>
        <path id="Trazado_213047" data-name="Trazado 213047" d="M337.327,431.235a.114.114,0,1,1,.106-.114.11.11,0,0,1-.106.114" transform="translate(-164.84 -76.164)" fill="#fff"/>
        <path id="Trazado_213048" data-name="Trazado 213048" d="M7.2,457.035a1.308,1.308,0,0,1,0-2.611,1.308,1.308,0,0,1,0,2.611" transform="translate(452.677 -80.301)" fill="#fff"/>
        <path id="Trazado_213049" data-name="Trazado 213049" d="M29.2,457.035a1.308,1.308,0,1,1,1.222-1.306,1.266,1.266,0,0,1-1.222,1.306" transform="translate(411.521 -80.301)" fill="#fff"/>
        <path id="Trazado_213050" data-name="Trazado 213050" d="M51.195,457.035a1.308,1.308,0,1,1,1.222-1.306,1.266,1.266,0,0,1-1.222,1.306" transform="translate(370.363 -80.301)" fill="#fff"/>
        <path id="Trazado_213051" data-name="Trazado 213051" d="M73.192,457.035a1.308,1.308,0,1,1,1.222-1.306,1.266,1.266,0,0,1-1.222,1.306" transform="translate(329.207 -80.301)" fill="#fff"/>
        <path id="Trazado_213052" data-name="Trazado 213052" d="M95.2,456.99a1.252,1.252,0,1,1,1.169-1.249A1.211,1.211,0,0,1,95.2,456.99" transform="translate(288.041 -80.313)" fill="#fff"/>
        <path id="Trazado_213053" data-name="Trazado 213053" d="M117.2,456.945a1.195,1.195,0,1,1,1.116-1.192,1.156,1.156,0,0,1-1.116,1.192" transform="translate(246.877 -80.326)" fill="#fff"/>
        <path id="Trazado_213054" data-name="Trazado 213054" d="M139.209,456.9a1.138,1.138,0,1,1,1.063-1.135,1.1,1.1,0,0,1-1.063,1.135" transform="translate(205.712 -80.338)" fill="#fff"/>
        <path id="Trazado_213055" data-name="Trazado 213055" d="M161.221,456.812a1.024,1.024,0,1,1,.956-1.022.991.991,0,0,1-.956,1.022" transform="translate(164.54 -80.362)" fill="#fff"/>
        <path id="Trazado_213056" data-name="Trazado 213056" d="M183.235,456.722a.91.91,0,1,1,.85-.908.881.881,0,0,1-.85.908" transform="translate(123.367 -80.387)" fill="#fff"/>
        <path id="Trazado_213057" data-name="Trazado 213057" d="M205.248,456.633a.8.8,0,1,1,.744-.794.77.77,0,0,1-.744.794" transform="translate(82.195 -80.411)" fill="#fff"/>
        <path id="Trazado_213058" data-name="Trazado 213058" d="M227.262,456.544a.683.683,0,1,1,.638-.681.66.66,0,0,1-.638.681" transform="translate(41.021 -80.435)" fill="#fff"/>
        <path id="Trazado_213059" data-name="Trazado 213059" d="M249.274,456.454a.569.569,0,1,1,.531-.567.55.55,0,0,1-.531.567" transform="translate(-0.15 -80.459)" fill="#fff"/>
        <path id="Trazado_213060" data-name="Trazado 213060" d="M271.3,456.321a.4.4,0,1,1,.372-.4.385.385,0,0,1-.372.4" transform="translate(-41.332 -80.496)" fill="#fff"/>
        <path id="Trazado_213061" data-name="Trazado 213061" d="M293.317,456.188a.227.227,0,1,1,.213-.227.22.22,0,0,1-.213.227" transform="translate(-82.511 -80.533)" fill="#fff"/>
        <path id="Trazado_213062" data-name="Trazado 213062" d="M315.337,456.054a.057.057,0,1,1,.053-.057.055.055,0,0,1-.053.057" transform="translate(-123.691 -80.569)" fill="#fff"/>
        <path id="Trazado_213063" data-name="Trazado 213063" d="M7.239,481.674a1.024,1.024,0,1,1,.956-1.022.991.991,0,0,1-.956,1.022" transform="translate(452.637 -84.756)" fill="#fff"/>
        <path id="Trazado_213064" data-name="Trazado 213064" d="M29.236,481.674a1.024,1.024,0,1,1,.956-1.022.991.991,0,0,1-.956,1.022" transform="translate(411.481 -84.756)" fill="#fff"/>
        <path id="Trazado_213065" data-name="Trazado 213065" d="M51.234,481.674a1.024,1.024,0,1,1,.956-1.022.991.991,0,0,1-.956,1.022" transform="translate(370.323 -84.756)" fill="#fff"/>
        <path id="Trazado_213066" data-name="Trazado 213066" d="M73.239,481.63a.967.967,0,1,1,.9-.965.936.936,0,0,1-.9.965" transform="translate(329.16 -84.768)" fill="#fff"/>
        <path id="Trazado_213067" data-name="Trazado 213067" d="M95.237,481.63a.967.967,0,1,1,.9-.965.936.936,0,0,1-.9.965" transform="translate(288.002 -84.768)" fill="#fff"/>
        <path id="Trazado_213068" data-name="Trazado 213068" d="M117.242,481.585a.91.91,0,1,1,.85-.908.881.881,0,0,1-.85.908" transform="translate(246.838 -84.78)" fill="#fff"/>
        <path id="Trazado_213069" data-name="Trazado 213069" d="M139.256,481.5A.8.8,0,1,1,140,480.7a.77.77,0,0,1-.744.794" transform="translate(205.665 -84.804)" fill="#fff"/>
        <path id="Trazado_213070" data-name="Trazado 213070" d="M161.261,481.451a.74.74,0,1,1,.691-.738.715.715,0,0,1-.691.738" transform="translate(164.501 -84.817)" fill="#fff"/>
        <path id="Trazado_213071" data-name="Trazado 213071" d="M183.274,481.362a.626.626,0,1,1,.584-.624.6.6,0,0,1-.584.624" transform="translate(123.327 -84.841)" fill="#fff"/>
        <path id="Trazado_213072" data-name="Trazado 213072" d="M205.287,481.273a.512.512,0,1,1,.478-.51.5.5,0,0,1-.478.51" transform="translate(82.156 -84.865)" fill="#fff"/>
        <path id="Trazado_213073" data-name="Trazado 213073" d="M227.3,481.184a.4.4,0,1,1,.372-.4.385.385,0,0,1-.372.4" transform="translate(40.982 -84.89)" fill="#fff"/>
        <path id="Trazado_213074" data-name="Trazado 213074" d="M249.314,481.094a.284.284,0,1,1,.266-.284.275.275,0,0,1-.266.284" transform="translate(-0.19 -84.914)" fill="#fff"/>
        <path id="Trazado_213075" data-name="Trazado 213075" d="M271.335,480.961a.114.114,0,1,1,.106-.114.11.11,0,0,1-.106.114" transform="translate(-41.371 -84.951)" fill="#fff"/>
        <path id="Trazado_213076" data-name="Trazado 213076" d="M7.287,506.27a.683.683,0,1,1,.638-.681.66.66,0,0,1-.638.681" transform="translate(452.59 -89.222)" fill="#fff"/>
        <path id="Trazado_213077" data-name="Trazado 213077" d="M29.284,506.27a.683.683,0,1,1,.638-.681.66.66,0,0,1-.638.681" transform="translate(411.434 -89.222)" fill="#fff"/>
        <path id="Trazado_213078" data-name="Trazado 213078" d="M51.282,506.27a.683.683,0,1,1,.638-.681.66.66,0,0,1-.638.681" transform="translate(370.276 -89.222)" fill="#fff"/>
        <path id="Trazado_213079" data-name="Trazado 213079" d="M73.279,506.27a.683.683,0,1,1,.638-.681.66.66,0,0,1-.638.681" transform="translate(329.12 -89.222)" fill="#fff"/>
        <path id="Trazado_213080" data-name="Trazado 213080" d="M95.284,506.225a.626.626,0,1,1,.584-.624.6.6,0,0,1-.584.624" transform="translate(287.955 -89.234)" fill="#fff"/>
        <path id="Trazado_213081" data-name="Trazado 213081" d="M117.289,506.18a.569.569,0,1,1,.531-.567.55.55,0,0,1-.531.567" transform="translate(246.791 -89.247)" fill="#fff"/>
        <path id="Trazado_213082" data-name="Trazado 213082" d="M139.3,506.136a.512.512,0,1,1,.478-.51.5.5,0,0,1-.478.51" transform="translate(205.625 -89.259)" fill="#fff"/>
        <path id="Trazado_213083" data-name="Trazado 213083" d="M161.3,506.091a.455.455,0,1,1,.425-.454.441.441,0,0,1-.425.454" transform="translate(164.461 -89.271)" fill="#fff"/>
        <path id="Trazado_213084" data-name="Trazado 213084" d="M183.314,506a.341.341,0,1,1,.319-.341.33.33,0,0,1-.319.341" transform="translate(123.288 -89.295)" fill="#fff"/>
        <path id="Trazado_213085" data-name="Trazado 213085" d="M205.326,505.913a.227.227,0,1,1,.213-.227.22.22,0,0,1-.213.227" transform="translate(82.116 -89.32)" fill="#fff"/>
        <path id="Trazado_213086" data-name="Trazado 213086" d="M227.34,505.824a.114.114,0,1,1,.106-.114.111.111,0,0,1-.106.114" transform="translate(40.943 -89.344)" fill="#fff"/>
        <path id="Trazado_213087" data-name="Trazado 213087" d="M249.345,505.78a.057.057,0,1,1,.053-.057.055.055,0,0,1-.053.057" transform="translate(-0.221 -89.356)" fill="#fff"/>
        <path id="Trazado_213088" data-name="Trazado 213088" d="M7.334,530.865a.341.341,0,1,1,.319-.341.33.33,0,0,1-.319.341" transform="translate(452.543 -93.689)" fill="#fff"/>
        <path id="Trazado_213089" data-name="Trazado 213089" d="M29.323,530.91a.4.4,0,1,1,.372-.4.385.385,0,0,1-.372.4" transform="translate(411.395 -93.677)" fill="#fff"/>
        <path id="Trazado_213090" data-name="Trazado 213090" d="M51.321,530.91a.4.4,0,1,1,.372-.4.385.385,0,0,1-.372.4" transform="translate(370.237 -93.677)" fill="#fff"/>
        <path id="Trazado_213091" data-name="Trazado 213091" d="M73.326,530.865a.341.341,0,1,1,.319-.341.33.33,0,0,1-.319.341" transform="translate(329.073 -93.689)" fill="#fff"/>
        <path id="Trazado_213092" data-name="Trazado 213092" d="M95.324,530.865a.341.341,0,1,1,.319-.341.33.33,0,0,1-.319.341" transform="translate(287.915 -93.689)" fill="#fff"/>
        <path id="Trazado_213093" data-name="Trazado 213093" d="M117.329,530.82a.284.284,0,1,1,.266-.284.275.275,0,0,1-.266.284" transform="translate(246.752 -93.701)" fill="#fff"/>
        <path id="Trazado_213094" data-name="Trazado 213094" d="M139.335,530.776a.227.227,0,1,1,.213-.227.22.22,0,0,1-.213.227" transform="translate(205.586 -93.713)" fill="#fff"/>
        <path id="Trazado_213095" data-name="Trazado 213095" d="M161.347,530.686a.114.114,0,1,1,.106-.114.111.111,0,0,1-.106.114" transform="translate(164.414 -93.738)" fill="#fff"/>
        <path id="Trazado_213096" data-name="Trazado 213096" d="M183.353,530.642a.057.057,0,1,1,.053-.057.055.055,0,0,1-.053.057" transform="translate(123.249 -93.75)" fill="#fff"/>
        <path id="Trazado_213097" data-name="Trazado 213097" d="M7.373,555.5a.057.057,0,1,1,.053-.057.055.055,0,0,1-.053.057" transform="translate(452.503 -98.143)" fill="#fff"/>
        <path id="Trazado_213098" data-name="Trazado 213098" d="M29.37,555.5a.057.057,0,1,1,.053-.057.055.055,0,0,1-.053.057" transform="translate(411.347 -98.143)" fill="#fff"/>
        <path id="Trazado_213099" data-name="Trazado 213099" d="M51.368,555.5a.057.057,0,1,1,.053-.057.055.055,0,0,1-.053.057" transform="translate(370.19 -98.143)" fill="#fff"/>
        <path id="Trazado_213100" data-name="Trazado 213100" d="M73.365,555.5a.057.057,0,1,1,.053-.057.055.055,0,0,1-.053.057" transform="translate(329.034 -98.143)" fill="#fff"/>
        <path id="Trazado_213101" data-name="Trazado 213101" d="M95.363,555.5a.057.057,0,1,1,.053-.057.055.055,0,0,1-.053.057" transform="translate(287.876 -98.143)" fill="#fff"/>
      </g>
    </g>
  </g>
</svg>
