<svg xmlns="http://www.w3.org/2000/svg" width="607.937" height="565.947" viewBox="0 0 607.937 565.947">
  <g id="cf5_mensaje" transform="translate(-23.603 -17.47)">
    <g id="Grupo_90581" data-name="Grupo 90581" transform="translate(122.519 17.47)">
      <circle id="Elipse_5239" data-name="Elipse 5239" cx="211.664" cy="211.664" r="211.664" fill="#fff"/>
      <path id="Trazado_153153" data-name="Trazado 153153" d="M251.315,77.725A106.147,106.147,0,0,0,160.9,239.408c-.736,8.9-5.256,29.782-29.87,40.7,0,0,32.112,6.57,50.91-15.995A106.13,106.13,0,1,0,251.315,77.69Z" transform="translate(-40.194 27.809)" fill="#ffe0f0"/>
    </g>
    <g id="Grupo_90582" data-name="Grupo 90582" transform="translate(24.666 279.798)">
      <path id="Trazado_153154" data-name="Trazado 153154" d="M167.256,279.22s.508,3.346.981,8.164a23.423,23.423,0,0,1-16.363,0s4.607,8.059,17.028,10c.368,9.916-.368,20.778-4.765,23.773-8.637,5.886-39.207-3.136-39.207-3.136L108.865,357.2,54.188,330.919S68.5,310.509,66.557,302.66,44.571,282.724,39.49,272.212s-11.668-33.286-4.31-49.771c25.087-56.429,97.984-41.94,112.892-18.815s8.164,27.084,12.106,36.107,16.485,26.278,19.919,30.483S167.256,279.22,167.256,279.22Z" transform="translate(-16.881 -155.202)" fill="#ea9c80"/>
      <path id="Trazado_153155" data-name="Trazado 153155" d="M99.108,228.488s-3.1,2.207-4.2-4.047c-1-5.606,1.752-5.518,1.752-5.518s2.383-.648,3.311,4.24S99.108,228.488,99.108,228.488Z" transform="translate(30.332 -128.348)" fill="#3b2645"/>
      <path id="Trazado_153156" data-name="Trazado 153156" d="M109.328,213.559c-3.767-1.524-8.129-.333-11.86.876-3.5,1.121-8.392,2.645-9.811,6.254a.666.666,0,0,0,.6.946c3.346.105,6.429-2.365,9.565-3.381,3.679-1.174,7.8-.946,11.3-2.523C109.976,215.363,110.449,214,109.328,213.559Z" transform="translate(25 -132.9)" fill="#3b2645"/>
      <path id="Trazado_153157" data-name="Trazado 153157" d="M67.946,233.435a13.191,13.191,0,0,0-6.5-4.275c-.4,0-.788.438-.438.771,1.752,1.559,3.644,2.733,5.256,4.432a4.958,4.958,0,0,0-3.276,1.542.543.543,0,0,0,.526.893c.806-.123,1.594-.368,2.418-.42a9.555,9.555,0,0,0,1.875-.088c.333.491.648.964.946,1.472a5.554,5.554,0,0,0,1.629,2.155.6.6,0,0,0,.876-.35C71.608,237.324,69.365,234.959,67.946,233.435Z" transform="translate(4.907 -120.629)" fill="#d5805c"/>
      <path id="Trazado_153158" data-name="Trazado 153158" d="M83.953,286.365q-.158-.49-.368-1a34.669,34.669,0,0,0-3.5-5.764,27.663,27.663,0,0,1-5.116-14.471,15.4,15.4,0,0,1,6.6-13.332c6.027-3.714,12.719-.175,17.309,4.082,2.067,1.945,2.628,6.622,5.624,7.165,9.18,1.629,1.875-13.507.771-16.047a24.526,24.526,0,0,1-2.733-9.916c.105-6.552,5.4-11.878,11-15.259s11.983-5.676,16.8-10.126c2.68-2.488,4.8-5.553,7.586-7.919a25.824,25.824,0,0,0,5.256-4.7c3.854-5.641-5.624-10.669-9.828-12.929a52.855,52.855,0,0,0-18.693-5.518,115.048,115.048,0,0,0-39.68,2.838,71.179,71.179,0,0,0-32.428,16.468c-7.761,7.2-11.51,17.834-13.858,28.03-4.713,20.567-.35,43.938,15.872,58.426,4.117,3.679,9.04,6.64,12.684,10.827,3.153,3.626,4.66,13.069,10.511,12.579a11.492,11.492,0,0,0,4.765-1.752,25.542,25.542,0,0,0,9.863-9.39A15.89,15.89,0,0,0,83.953,286.365Z" transform="translate(-20.63 -157.565)" fill="#efd5bf"/>
      <path id="Trazado_153159" data-name="Trazado 153159" d="M33.66,288.411,58.414,262.57s28.118,20.41,52.925,25.841c0,0,2.1,10.424,4.818,24.912S37.759,302.005,33.66,288.411Z" transform="translate(-15.553 -95.508)" fill="#3f3466"/>
      <path id="Trazado_153160" data-name="Trazado 153160" d="M152.589,205.528c-27.8,11.387-42.711,18.342-71.828,50.122-9.5,10.354-18.395,28.03-29.134,36.492-6.377,5.028-10.126,2.242-12.806-2.663a70.308,70.308,0,0,0,10.827-11.072,2.873,2.873,0,0,0,.736-1.542,3.013,3.013,0,0,0-.683-1.752,86.033,86.033,0,0,0-5.921-8.269c.718.858-6.5,7.5-9.758,10.774l-.105-.28c-6.71-16.433-13.875-32.025-8.97-50.174,3.907-14.488,14.366-26.278,25.735-36.142C63.785,179.74,79.623,170,96.9,170,119.724,170.175,139.135,187.064,152.589,205.528Z" transform="translate(-23.324 -165.111)" fill="#8b82ca"/>
      <path id="Trazado_153161" data-name="Trazado 153161" d="M58.73,252.966s40.767-84.652,78.625-85.738-11.65,45.549-11.65,45.549S91.14,218.208,58.73,252.966Z" transform="translate(3.297 -167.209)" fill="#6f678c"/>
      <path id="Trazado_153162" data-name="Trazado 153162" d="M92.331,267.037l-2.961,7.2c-3.5-1.98-10.511-7.761-14.12-23.178C75.653,251.726,81.82,262.114,92.331,267.037Z" transform="translate(15.718 -104.162)" fill="#e58a6c"/>
    </g>
    <g id="Grupo_90583" data-name="Grupo 90583" transform="translate(467.522 293.25)">
      <path id="Trazado_153163" data-name="Trazado 153163" d="M285.99,279.324a7.463,7.463,0,0,1-1.647,5.974c-.385.455,2.505,4.572,2.47,5.151,0,.158-4.187,3.924-2.891,4.31,7.253,2.155-2.505,19.831,3.5,25.315,7.323,6.6,36.7-2.961,40.013-4.064l.245-.088a15.939,15.939,0,0,1,.753,1.752l15.4,37.491L398.5,328.885s-14.313-20.427-12.263-28.241S408.2,280.532,413.283,270s11.65-33.146,4.31-49.736c-25.1-56.429-98-41.923-112.892-18.8s-7.165,38.454-11.09,47.459-12.263,14.26-16.871,19.113C273.166,271.755,285.99,279.324,285.99,279.324Z" transform="translate(-276.111 -170.281)" fill="#ea9c80"/>
      <path id="Trazado_153164" data-name="Trazado 153164" d="M291.987,229.358s3.1,2.207,4.2-4.047c.981-5.606-1.664-5.518-1.664-5.518s-2.4-.648-3.311,4.24S291.987,229.358,291.987,229.358Z" transform="translate(-264.957 -141.146)" fill="#3b2645"/>
      <path id="Trazado_153165" data-name="Trazado 153165" d="M290.878,214c3.749-1.524,8.111-.315,11.86.893,3.5,1.1,8.392,2.645,9.793,6.237a.666.666,0,0,1-.578.946c-3.346.105-6.447-2.365-9.583-3.364-3.679-1.191-7.8-.964-11.282-2.523C290.265,215.819,289.81,214.435,290.878,214Z" transform="translate(-265.478 -146.019)" fill="#efd5bf"/>
      <path id="Trazado_153166" data-name="Trazado 153166" d="M327.143,231.269a13.069,13.069,0,0,1,6.5-4.275c.42-.088.806.438.438.771-1.752,1.559-3.626,2.733-5.256,4.432a4.975,4.975,0,0,1,3.276,1.524.543.543,0,0,1-.526.911,19.123,19.123,0,0,0-2.4-.42,11.02,11.02,0,0,1-1.875-.088,16.19,16.19,0,0,0-.946,1.472,5.728,5.728,0,0,1-1.647,2.155.6.6,0,0,1-.858-.35C323.587,235.158,325.724,232.793,327.143,231.269Z" transform="translate(-240.233 -135.716)" fill="#d5805c"/>
      <path id="Trazado_153167" data-name="Trazado 153167" d="M371.124,263.6l18.92,13.892S359.877,308.1,314.433,311.6A4.4,4.4,0,0,1,310,305.733l6.465-17.974S346.79,280.961,371.124,263.6Z" transform="translate(-250.823 -108.185)" fill="#e26c00"/>
      <path id="Trazado_153168" data-name="Trazado 153168" d="M296.193,191.36c-16.082,23.09,18.044,37.736,30.868,50.3a56.9,56.9,0,0,1,9.373,12.141,14.594,14.594,0,0,0,2.838,3.959,4.274,4.274,0,0,0,4.537.893,7.008,7.008,0,0,0,2.4-2.645c2.873-4.222,7.726-7.411,12.824-7.008,6.552.508,11.563,7.008,11.825,13.63s-3.329,12.824-8.129,17.344c-2.277,2.137-4.975,4.2-5.746,7.235a8.952,8.952,0,0,0,2.575,8.024,22.02,22.02,0,0,0,7.446,4.59,1.945,1.945,0,0,1,.946.666c.543.981-2.751,5.729-3.241,7.008a7.183,7.183,0,0,0,0,6.57,11.475,11.475,0,0,0,13,6.061c-3.609,7.235-4.222,14.926,2.453,19.5,2.873,1.98,17.186,9.933,20.69,6.5-6.64,6.535-4.082,19.639,4.52,23.2a11.739,11.739,0,0,1,4.975,2.628,7.341,7.341,0,0,1,1.191,5.063,19.27,19.27,0,0,1-5.256,11.352c-2.015,2.155-4.678,4.2-4.888,7.165a2.119,2.119,0,0,0,.193,1.191c.578.981,2,.823,3.118.753a19.375,19.375,0,0,1,8.987,2.365,17.519,17.519,0,0,0,9.04,2.1c5.606-.7,5.5-4.888,5.466-9.2,0-9.67-1.472-20.795-9.548-26.121a4.7,4.7,0,0,0,5.571-2.19,11.4,11.4,0,0,0,1.191-6.342c-.333-8.269-4.783-17.642-12.982-18.815,3.241.473,3.258-8.181,3-9.706a13.21,13.21,0,0,0-6.237-9.53c-3.188-1.752-7.008-2.768-9.425-5.448a10.249,10.249,0,0,0,2.768-16.1c-1.244-1.331-2.943-2.558-3.048-4.38a5.747,5.747,0,0,1,1.139-3.189c5.448-9.057,12.053-17.519,15.1-27.61,3.276-10.932,2.348-20.567,2.348-31.657-3.329-21.023-17.4-40.469-36.948-49.053-12.263-5.256-26.506-7.533-39.768-7.708C326.571,174.752,305.32,178.238,296.193,191.36Z" transform="translate(-264.187 -174.888)" fill="#efd5bf"/>
      <path id="Trazado_153169" data-name="Trazado 153169" d="M291.865,246.564s-7.884-3.259-10.511-5.974c0,0-2.155,2.348-.4,4.275,0,0-2.155,3.661,0,5.256S291.865,246.564,291.865,246.564Z" transform="translate(-273.192 -125.486)" fill="#d86c29"/>
      <path id="Trazado_153170" data-name="Trazado 153170" d="M292.012,192.3c-7.113,5.413-12.263,14.436-10.511,23.2,1,4.888,4.047,9.5,3.416,14.436a21.356,21.356,0,0,1-4.152,8.759,17.624,17.624,0,0,0-3.714,8.882c-.088,3.294,2.277,6.8,5.518,6.8-.683-3.329-1.3-7.13.736-9.846a33.945,33.945,0,0,1,4.2-3.7c4.537-4.4,3.5-11.738,3.661-18.045a7.516,7.516,0,0,1,1.209-4.45c1.752-2.172,4.958-2.085,7.726-2.085a41.135,41.135,0,0,0,27.785-10.932,40.452,40.452,0,0,0,10.336-15.452,9.548,9.548,0,0,0-10.371-13.122,31.676,31.676,0,0,0-10.879,3.1C308.725,183.386,299.195,186.837,292.012,192.3Z" transform="translate(-275.406 -173.588)" fill="#efd5bf"/>
      <path id="Trazado_153171" data-name="Trazado 153171" d="M363.608,284.569a9.25,9.25,0,0,1,8.5.876,1.139,1.139,0,0,1,.438.578v.14a.985.985,0,0,1,0,.385v.333a1.594,1.594,0,0,1-1.1,1.454c-1.331.455-2.54-.088-3.889,0a5.974,5.974,0,0,0-4.24,2.8c-1.629,1.892-4.73,1.594-4.888-1.3S361.488,285.322,363.608,284.569Z" transform="translate(-214.225 -92.908)" fill="#adb8d8"/>
      <path id="Trazado_153172" data-name="Trazado 153172" d="M344.949,191.919c13.735,7.621,22.635,26.576,17.519,41.905-.193.613-1.279.561-1.191-.158,2-16.4-2.873-31.236-16.538-41.257C344.371,192.2,344.616,191.727,344.949,191.919Z" transform="translate(-224.648 -162.116)" fill="#e7ceaf"/>
      <path id="Trazado_153173" data-name="Trazado 153173" d="M342.866,198.169c-.14-.21.14-.508.35-.35,11.79,8.759,12.649,25.28,10.6,38.542-2.54,16.4-8.514,34.127.736,49.579.263.438-.368.771-.648.385-8.514-11.177-6.657-25.648-4.169-38.542,1.752-8.847,3.8-17.852,2.978-26.927S347.807,205.265,342.866,198.169Z" transform="translate(-225.946 -157.679)" fill="#e7ceaf"/>
      <path id="Trazado_153174" data-name="Trazado 153174" d="M318.922,189.512c14.015,1.752,26.454,12.544,31.867,25.14.123.3-.28.561-.438.263-7.288-12.6-18.044-19.761-31.534-24.194C318.133,190.528,318.186,189.425,318.922,189.512Z" transform="translate(-244.363 -163.895)" fill="#e7ceaf"/>
      <path id="Trazado_153175" data-name="Trazado 153175" d="M318.68,194.536a30.29,30.29,0,0,1,19.008,14.1c.21.35-.315.788-.6.456a50.944,50.944,0,0,0-18.92-13.367C317.471,195.359,318,194.4,318.68,194.536Z" transform="translate(-244.734 -160.125)" fill="#e7ceaf"/>
      <path id="Trazado_153176" data-name="Trazado 153176" d="M352.855,258.695c5.991-2.137,9.39,7.183,9.232,11.545a.753.753,0,0,1-1.472.193c-.876-2.313-.946-4.835-2.26-7.008a9.022,9.022,0,0,0-5.5-3.784.49.49,0,0,1,0-.946Z" transform="translate(-218.679 -112.109)" fill="#e7ceaf"/>
      <path id="Trazado_153177" data-name="Trazado 153177" d="M347.4,259.519a.683.683,0,0,1,1.244.525c-2.926,9.022,8.584,16.012,14.681,20.515a.526.526,0,0,1-.526.911C355.86,278.264,342.037,268.646,347.4,259.519Z" transform="translate(-223.418 -111.497)" fill="#e7ceaf"/>
      <path id="Trazado_153178" data-name="Trazado 153178" d="M361.315,272.906c-.228-.42.263-1,.7-.7,3.959,2.768,4.8,9.793,1.945,13.56a.508.508,0,0,1-.928-.385,12.614,12.614,0,0,0-1.752-12.474Z" transform="translate(-212.09 -101.777)" fill="#e7ceaf"/>
      <path id="Trazado_153179" data-name="Trazado 153179" d="M339.92,249.9a.561.561,0,0,1,1.051,0c.613,1.98.385,4.17,1.647,5.921a3.5,3.5,0,0,0,4.783,1.016c.35-.21.683.21.526.526-1.069,2.242-4.187,1.857-5.869.578a8.006,8.006,0,0,1-2.137-8.041Z" transform="translate(-228.379 -118.763)" fill="#e7ceaf"/>
      <path id="Trazado_153180" data-name="Trazado 153180" d="M305.59,264.429a15.938,15.938,0,0,1,.753,1.752l2.172,5.256c3.7-2.768,9.2-8.9,12.263-21.986a45.094,45.094,0,0,1-15.189,14.979Z" transform="translate(-253.946 -118.825)" fill="#e58a6c"/>
    </g>
    <text id="_..." data-name="..." transform="translate(301.756 269.021)" fill="#091320" font-size="75" font-family="Roboto-Regular, Roboto"><tspan x="0" y="0">...</tspan></text>
    <g id="Grupo_90584" data-name="Grupo 90584" transform="translate(222.062 341.045)">
      <path id="Trazado_153181" data-name="Trazado 153181" d="M136,346.386c11.37-14.4,19.026-41.292,19.026-72.108S147.37,216.571,136,202.17" transform="translate(-136 -202.17)" fill="none" stroke="#727997" stroke-linecap="round" stroke-miterlimit="10" stroke-width="2"/>
      <path id="Trazado_153182" data-name="Trazado 153182" d="M157.8,346.386c11.387-14.4,19.043-41.292,19.043-72.108s-7.656-57.708-19.043-72.108" transform="translate(-119.609 -202.17)" fill="none" stroke="#727997" stroke-linecap="round" stroke-miterlimit="10" stroke-width="3"/>
      <path id="Trazado_153183" data-name="Trazado 153183" d="M179.64,346.386c11.37-14.4,19.026-41.292,19.026-72.108s-7.656-57.708-19.026-72.108" transform="translate(-103.187 -202.17)" fill="none" stroke="#727997" stroke-linecap="round" stroke-miterlimit="10" stroke-width="4"/>
      <path id="Trazado_153184" data-name="Trazado 153184" d="M201.47,346.386c11.387-14.4,19.043-41.292,19.043-72.108s-7.656-57.708-19.043-72.108" transform="translate(-86.773 -202.17)" fill="none" stroke="#727997" stroke-linecap="round" stroke-miterlimit="10" stroke-width="5"/>
      <path id="Trazado_153185" data-name="Trazado 153185" d="M223.31,346.386c11.37-14.4,19.043-41.292,19.043-72.108s-7.673-57.708-19.043-72.108" transform="translate(-70.352 -202.17)" fill="none" stroke="#727997" stroke-linecap="round" stroke-miterlimit="10" stroke-width="6"/>
      <path id="Trazado_153186" data-name="Trazado 153186" d="M245.14,346.386c11.387-14.4,19.043-41.292,19.043-72.108s-7.656-57.708-19.043-72.108" transform="translate(-53.938 -202.17)" fill="none" stroke="#727997" stroke-linecap="round" stroke-miterlimit="10" stroke-width="7"/>
    </g>
    <path id="Trazado_594505" data-name="Trazado 594505" d="M5.09-17.773,10.9-3.271l5.811-14.5h3.04V0H17.407V-6.921l.22-7.471L11.792,0H10L4.175-14.355l.232,7.434V0H2.063V-17.773ZM29.016.244a5.771,5.771,0,0,1-4.37-1.764,6.547,6.547,0,0,1-1.685-4.718v-.415a7.926,7.926,0,0,1,.751-3.51,5.856,5.856,0,0,1,2.1-2.417,5.279,5.279,0,0,1,2.924-.873,4.947,4.947,0,0,1,4,1.7A7.346,7.346,0,0,1,34.167-6.9v.94H25.22A4.7,4.7,0,0,0,26.361-2.8a3.588,3.588,0,0,0,2.777,1.2,3.933,3.933,0,0,0,2.026-.488,5.091,5.091,0,0,0,1.453-1.294L34-2.307A5.546,5.546,0,0,1,29.016.244ZM28.735-11.6a3.012,3.012,0,0,0-2.295.995,4.836,4.836,0,0,0-1.147,2.789h6.616v-.171a4.3,4.3,0,0,0-.928-2.667A2.836,2.836,0,0,0,28.735-11.6Zm10.181-1.611.073,1.66a4.813,4.813,0,0,1,3.955-1.9q4.187,0,4.224,4.724V0H44.91V-8.74a3.041,3.041,0,0,0-.653-2.112,2.617,2.617,0,0,0-2-.684,3.259,3.259,0,0,0-1.929.586,3.979,3.979,0,0,0-1.294,1.538V0H36.78V-13.208ZM58.264-3.5a1.663,1.663,0,0,0-.69-1.422,6.639,6.639,0,0,0-2.4-.873,11.37,11.37,0,0,1-2.722-.879A3.873,3.873,0,0,1,50.958-7.9a2.92,2.92,0,0,1-.482-1.685,3.426,3.426,0,0,1,1.373-2.747,5.363,5.363,0,0,1,3.51-1.123A5.519,5.519,0,0,1,59-12.292a3.683,3.683,0,0,1,1.4,2.966H58.13a2.039,2.039,0,0,0-.787-1.6,2.95,2.95,0,0,0-1.984-.671,3.087,3.087,0,0,0-1.929.537,1.691,1.691,0,0,0-.7,1.4,1.37,1.37,0,0,0,.647,1.233,7.96,7.96,0,0,0,2.338.793,12.18,12.18,0,0,1,2.74.9,4,4,0,0,1,1.556,1.263,3.106,3.106,0,0,1,.507,1.8A3.38,3.38,0,0,1,59.106-.824,5.94,5.94,0,0,1,55.432.244a6.651,6.651,0,0,1-2.808-.562,4.566,4.566,0,0,1-1.91-1.569,3.781,3.781,0,0,1-.69-2.179h2.258a2.338,2.338,0,0,0,.909,1.8,3.528,3.528,0,0,0,2.24.665,3.642,3.642,0,0,0,2.057-.519A1.594,1.594,0,0,0,58.264-3.5ZM71.619,0A4.744,4.744,0,0,1,71.3-1.392,5.039,5.039,0,0,1,67.542.244a4.662,4.662,0,0,1-3.2-1.1,3.574,3.574,0,0,1-1.251-2.8,3.734,3.734,0,0,1,1.569-3.2,7.4,7.4,0,0,1,4.413-1.141h2.2V-9.045a2.536,2.536,0,0,0-.708-1.886,2.845,2.845,0,0,0-2.087-.7,3.293,3.293,0,0,0-2.026.61,1.8,1.8,0,0,0-.818,1.477H63.354a3.117,3.117,0,0,1,.7-1.91,4.791,4.791,0,0,1,1.9-1.459,6.406,6.406,0,0,1,2.643-.537,5.221,5.221,0,0,1,3.577,1.141,4.117,4.117,0,0,1,1.343,3.143v6.079A7.432,7.432,0,0,0,73.987-.2V0ZM67.871-1.721a3.969,3.969,0,0,0,2.014-.549A3.323,3.323,0,0,0,71.265-3.7v-2.71h-1.77q-4.15,0-4.15,2.429a2.056,2.056,0,0,0,.708,1.66A2.721,2.721,0,0,0,67.871-1.721ZM79.395-13.208V1.526q0,3.809-3.455,3.809a4.214,4.214,0,0,1-1.379-.218V3.32a4.366,4.366,0,0,0,1.025.1,1.534,1.534,0,0,0,1.154-.409,2.024,2.024,0,0,0,.4-1.423V-13.208Zm-2.49-3.5a1.354,1.354,0,0,1,.336-.922,1.234,1.234,0,0,1,.983-.385,1.28,1.28,0,0,1,1,.378,1.334,1.334,0,0,1,.342.928,1.29,1.29,0,0,1-.342.916,1.3,1.3,0,0,1-1,.366,1.263,1.263,0,0,1-.989-.366A1.318,1.318,0,0,1,76.9-16.711ZM88.513.244a5.771,5.771,0,0,1-4.37-1.764,6.547,6.547,0,0,1-1.685-4.718v-.415a7.926,7.926,0,0,1,.751-3.51,5.856,5.856,0,0,1,2.1-2.417,5.279,5.279,0,0,1,2.924-.873,4.947,4.947,0,0,1,4,1.7A7.346,7.346,0,0,1,93.665-6.9v.94H84.717A4.7,4.7,0,0,0,85.858-2.8a3.588,3.588,0,0,0,2.777,1.2,3.933,3.933,0,0,0,2.026-.488,5.091,5.091,0,0,0,1.453-1.294l1.379,1.074A5.546,5.546,0,0,1,88.513.244ZM88.232-11.6a3.012,3.012,0,0,0-2.295.995A4.836,4.836,0,0,0,84.79-7.812h6.616v-.171a4.3,4.3,0,0,0-.928-2.667A2.836,2.836,0,0,0,88.232-11.6Z" transform="translate(283.689 95.138)" fill="#2f237d"/>
    <path id="Trazado_594506" data-name="Trazado 594506" d="M15.137-5.64a6.539,6.539,0,0,1-2.081,4.352A6.821,6.821,0,0,1,8.4.244,6.263,6.263,0,0,1,3.351-2.014a9.086,9.086,0,0,1-1.9-6.042V-9.766a10.127,10.127,0,0,1,.885-4.358A6.611,6.611,0,0,1,4.846-17.01a6.985,6.985,0,0,1,3.76-1.007,6.422,6.422,0,0,1,4.541,1.581,6.618,6.618,0,0,1,1.99,4.376H12.781a5.107,5.107,0,0,0-1.324-3.086,4.007,4.007,0,0,0-2.85-.955,4.193,4.193,0,0,0-3.522,1.662A7.628,7.628,0,0,0,3.809-9.711v1.723A7.841,7.841,0,0,0,5.017-3.383,3.9,3.9,0,0,0,8.4-1.672a4.51,4.51,0,0,0,3-.885A4.911,4.911,0,0,0,12.781-5.64Zm2.246-1.086a7.8,7.8,0,0,1,.763-3.491A5.691,5.691,0,0,1,20.27-12.61a5.782,5.782,0,0,1,3.107-.842,5.57,5.57,0,0,1,4.364,1.868,7.186,7.186,0,0,1,1.666,4.968v.159A7.869,7.869,0,0,1,28.668-3,5.608,5.608,0,0,1,26.556-.61,5.848,5.848,0,0,1,23.4.244a5.556,5.556,0,0,1-4.352-1.868,7.149,7.149,0,0,1-1.666-4.944Zm2.271.269A5.651,5.651,0,0,0,20.673-2.93,3.262,3.262,0,0,0,23.4-1.6a3.242,3.242,0,0,0,2.734-1.349,6.179,6.179,0,0,0,1.013-3.778,5.641,5.641,0,0,0-1.031-3.522,3.279,3.279,0,0,0-2.74-1.349,3.243,3.243,0,0,0-2.7,1.331A6.133,6.133,0,0,0,19.653-6.458ZM24.4-18.726h2.734l-3.271,3.589-1.819-.006ZM31.689-6.714A7.737,7.737,0,0,1,33.13-11.6,4.555,4.555,0,0,1,36.9-13.452a4.581,4.581,0,0,1,3.674,1.587V-18.75h2.258V0H40.759l-.11-1.416A4.6,4.6,0,0,1,36.877.244a4.511,4.511,0,0,1-3.741-1.88,7.825,7.825,0,0,1-1.447-4.907Zm2.258.256a5.858,5.858,0,0,0,.928,3.516,3,3,0,0,0,2.563,1.27A3.3,3.3,0,0,0,40.576-3.6V-9.668a3.32,3.32,0,0,0-3.113-1.868,3.013,3.013,0,0,0-2.588,1.282A6.45,6.45,0,0,0,33.948-6.458ZM48.792,0H46.533V-13.208h2.258ZM46.35-16.711a1.348,1.348,0,0,1,.336-.928,1.26,1.26,0,0,1,.995-.378,1.28,1.28,0,0,1,1,.378,1.334,1.334,0,0,1,.342.928,1.29,1.29,0,0,1-.342.916,1.3,1.3,0,0,1-1,.366,1.283,1.283,0,0,1-.995-.366A1.3,1.3,0,0,1,46.35-16.711Zm5.518,10A7.763,7.763,0,0,1,53.3-11.627a4.568,4.568,0,0,1,3.784-1.825,4.543,4.543,0,0,1,3.772,1.709l.11-1.465h2.063V-.317a5.373,5.373,0,0,1-1.52,4.041A5.608,5.608,0,0,1,57.422,5.2a6.793,6.793,0,0,1-2.8-.61,4.812,4.812,0,0,1-2.087-1.672l1.172-1.355a4.416,4.416,0,0,0,3.552,1.794,3.46,3.46,0,0,0,2.57-.928,3.546,3.546,0,0,0,.922-2.612V-1.318a4.641,4.641,0,0,1-3.7,1.563A4.512,4.512,0,0,1,53.3-1.624,8.162,8.162,0,0,1,51.868-6.714Zm2.271.256a5.922,5.922,0,0,0,.916,3.51,2.975,2.975,0,0,0,2.563,1.276,3.308,3.308,0,0,0,3.137-1.941v-6.03a3.347,3.347,0,0,0-3.113-1.892,3,3,0,0,0-2.576,1.282A6.45,6.45,0,0,0,54.138-6.458Zm11.694-.269a7.8,7.8,0,0,1,.763-3.491,5.691,5.691,0,0,1,2.124-2.393,5.782,5.782,0,0,1,3.107-.842,5.57,5.57,0,0,1,4.364,1.868,7.186,7.186,0,0,1,1.666,4.968v.159A7.869,7.869,0,0,1,77.118-3,5.608,5.608,0,0,1,75.006-.61a5.848,5.848,0,0,1-3.156.854A5.556,5.556,0,0,1,67.5-1.624a7.149,7.149,0,0,1-1.666-4.944Zm2.271.269A5.65,5.65,0,0,0,69.122-2.93,3.262,3.262,0,0,0,71.851-1.6a3.242,3.242,0,0,0,2.734-1.349A6.179,6.179,0,0,0,75.6-6.726a5.641,5.641,0,0,0-1.031-3.522,3.279,3.279,0,0,0-2.74-1.349,3.243,3.243,0,0,0-2.7,1.331A6.133,6.133,0,0,0,68.1-6.458Z" transform="translate(292.194 214.494)" fill="#2f237d"/>
    <path id="Trazado_594509" data-name="Trazado 594509" d="M12.109-8.215h-7.7v6.3h8.948V0H2.063V-17.773H13.232v1.917H4.407v5.725h7.7Zm5.933-4.993.061,1.465a4.878,4.878,0,0,1,3.918-1.709,3.776,3.776,0,0,1,3.772,2.124,5,5,0,0,1,1.715-1.538,5.066,5.066,0,0,1,2.5-.586q4.346,0,4.419,4.6V0H32.166V-8.716a3.033,3.033,0,0,0-.647-2.118,2.849,2.849,0,0,0-2.173-.7,3,3,0,0,0-2.087.751,3.046,3.046,0,0,0-.964,2.02V0H24.023V-8.655q0-2.881-2.82-2.881a3.021,3.021,0,0,0-3.04,1.892V0H15.906V-13.208ZM40.283,0H38.025V-13.208h2.258ZM37.842-16.711a1.348,1.348,0,0,1,.336-.928,1.26,1.26,0,0,1,.995-.378,1.28,1.28,0,0,1,1,.378,1.334,1.334,0,0,1,.342.928,1.29,1.29,0,0,1-.342.916,1.3,1.3,0,0,1-1,.366,1.283,1.283,0,0,1-.995-.366A1.3,1.3,0,0,1,37.842-16.711ZM51.587-3.5a1.663,1.663,0,0,0-.69-1.422,6.639,6.639,0,0,0-2.4-.873,11.37,11.37,0,0,1-2.722-.879A3.873,3.873,0,0,1,44.281-7.9,2.92,2.92,0,0,1,43.8-9.583a3.426,3.426,0,0,1,1.373-2.747,5.363,5.363,0,0,1,3.51-1.123,5.519,5.519,0,0,1,3.644,1.16,3.683,3.683,0,0,1,1.4,2.966H51.453a2.039,2.039,0,0,0-.787-1.6,2.95,2.95,0,0,0-1.984-.671,3.087,3.087,0,0,0-1.929.537,1.691,1.691,0,0,0-.7,1.4A1.37,1.37,0,0,0,46.7-8.423a7.96,7.96,0,0,0,2.338.793,12.18,12.18,0,0,1,2.74.9,4,4,0,0,1,1.556,1.263,3.106,3.106,0,0,1,.507,1.8A3.38,3.38,0,0,1,52.429-.824,5.94,5.94,0,0,1,48.755.244a6.651,6.651,0,0,1-2.808-.562,4.566,4.566,0,0,1-1.91-1.569,3.781,3.781,0,0,1-.69-2.179h2.258a2.338,2.338,0,0,0,.909,1.8,3.528,3.528,0,0,0,2.24.665,3.642,3.642,0,0,0,2.057-.519A1.594,1.594,0,0,0,51.587-3.5Zm4.6-3.223a7.8,7.8,0,0,1,.763-3.491,5.691,5.691,0,0,1,2.124-2.393,5.782,5.782,0,0,1,3.107-.842,5.57,5.57,0,0,1,4.364,1.868,7.186,7.186,0,0,1,1.666,4.968v.159A7.869,7.869,0,0,1,67.474-3,5.608,5.608,0,0,1,65.363-.61a5.848,5.848,0,0,1-3.156.854,5.556,5.556,0,0,1-4.352-1.868,7.149,7.149,0,0,1-1.666-4.944Zm2.271.269A5.651,5.651,0,0,0,59.479-2.93,3.262,3.262,0,0,0,62.207-1.6a3.242,3.242,0,0,0,2.734-1.349,6.179,6.179,0,0,0,1.013-3.778,5.641,5.641,0,0,0-1.031-3.522,3.279,3.279,0,0,0-2.74-1.349,3.243,3.243,0,0,0-2.7,1.331A6.133,6.133,0,0,0,58.459-6.458Zm18.97-4.724a6.767,6.767,0,0,0-1.111-.085A2.976,2.976,0,0,0,73.3-9.375V0H71.045V-13.208h2.2l.037,1.526a3.516,3.516,0,0,1,3.149-1.77,2.307,2.307,0,0,1,1,.171Z" transform="translate(21.54 578.339)" fill="#2f237d"/>
    <path id="Trazado_594507" data-name="Trazado 594507" d="M8.582-7.19H4.407V0H2.051V-17.773H7.935a6.964,6.964,0,0,1,4.62,1.367,4.919,4.919,0,0,1,1.617,3.979,4.785,4.785,0,0,1-.9,2.893,5.356,5.356,0,0,1-2.5,1.843L14.954-.146V0H12.439ZM4.407-9.106h3.6a4.062,4.062,0,0,0,2.777-.9,3.06,3.06,0,0,0,1.031-2.421,3.222,3.222,0,0,0-.983-2.531A4.161,4.161,0,0,0,8-15.857H4.407ZM22.583.244a5.771,5.771,0,0,1-4.37-1.764,6.547,6.547,0,0,1-1.685-4.718v-.415a7.926,7.926,0,0,1,.751-3.51,5.856,5.856,0,0,1,2.1-2.417,5.279,5.279,0,0,1,2.924-.873,4.947,4.947,0,0,1,4,1.7A7.346,7.346,0,0,1,27.734-6.9v.94H18.787A4.7,4.7,0,0,0,19.928-2.8a3.588,3.588,0,0,0,2.777,1.2,3.933,3.933,0,0,0,2.026-.488,5.091,5.091,0,0,0,1.453-1.294l1.379,1.074A5.546,5.546,0,0,1,22.583.244ZM22.3-11.6a3.012,3.012,0,0,0-2.295.995A4.836,4.836,0,0,0,18.86-7.812h6.616v-.171a4.3,4.3,0,0,0-.928-2.667A2.836,2.836,0,0,0,22.3-11.6Zm13.342,10a3.253,3.253,0,0,0,2.112-.732,2.577,2.577,0,0,0,1-1.831h2.136A4.1,4.1,0,0,1,40.112-2,5.146,5.146,0,0,1,38.19-.366a5.548,5.548,0,0,1-2.545.61,5.441,5.441,0,0,1-4.291-1.8,7.171,7.171,0,0,1-1.593-4.926V-6.86a7.952,7.952,0,0,1,.708-3.43A5.393,5.393,0,0,1,32.5-12.622a5.774,5.774,0,0,1,3.131-.83,5.3,5.3,0,0,1,3.693,1.331,4.755,4.755,0,0,1,1.569,3.455H38.757a3.112,3.112,0,0,0-.97-2.106,3.019,3.019,0,0,0-2.155-.824,3.161,3.161,0,0,0-2.667,1.239,5.819,5.819,0,0,0-.946,3.583v.427a5.7,5.7,0,0,0,.94,3.516A3.176,3.176,0,0,0,35.645-1.6ZM48.914.244a5.771,5.771,0,0,1-4.37-1.764,6.547,6.547,0,0,1-1.685-4.718v-.415a7.926,7.926,0,0,1,.751-3.51,5.856,5.856,0,0,1,2.1-2.417,5.279,5.279,0,0,1,2.924-.873,4.947,4.947,0,0,1,4,1.7A7.346,7.346,0,0,1,54.065-6.9v.94H45.117A4.7,4.7,0,0,0,46.259-2.8a3.588,3.588,0,0,0,2.777,1.2,3.933,3.933,0,0,0,2.026-.488,5.091,5.091,0,0,0,1.453-1.294l1.379,1.074A5.546,5.546,0,0,1,48.914.244ZM48.633-11.6a3.012,3.012,0,0,0-2.295.995A4.836,4.836,0,0,0,45.19-7.812h6.616v-.171a4.3,4.3,0,0,0-.928-2.667A2.836,2.836,0,0,0,48.633-11.6Zm19.2,5.139A7.909,7.909,0,0,1,66.455-1.6,4.421,4.421,0,0,1,62.72.244a4.844,4.844,0,0,1-3.784-1.526v6.36H56.677V-13.208H58.74l.11,1.465a4.652,4.652,0,0,1,3.833-1.709,4.5,4.5,0,0,1,3.766,1.794,8,8,0,0,1,1.385,4.993Zm-2.258-.256a5.836,5.836,0,0,0-.952-3.528,3.067,3.067,0,0,0-2.612-1.294,3.32,3.32,0,0,0-3.076,1.819v6.311a3.326,3.326,0,0,0,3.1,1.807,3.053,3.053,0,0,0,2.582-1.288A6.37,6.37,0,0,0,65.576-6.714Zm8.191-9.692v3.2h2.466v1.746H73.767v8.2A1.833,1.833,0,0,0,74.1-2.07a1.387,1.387,0,0,0,1.123.4,5.468,5.468,0,0,0,1.074-.146V0a6.586,6.586,0,0,1-1.733.243,2.812,2.812,0,0,1-2.283-.916,3.933,3.933,0,0,1-.769-2.6v-8.191H69.1v-1.746h2.4v-3.2Zm4.01,9.68a7.8,7.8,0,0,1,.763-3.491,5.691,5.691,0,0,1,2.124-2.393,5.782,5.782,0,0,1,3.107-.842,5.57,5.57,0,0,1,4.364,1.868A7.186,7.186,0,0,1,89.8-6.616v.159A7.869,7.869,0,0,1,89.063-3,5.608,5.608,0,0,1,86.951-.61,5.848,5.848,0,0,1,83.8.244a5.556,5.556,0,0,1-4.352-1.868,7.149,7.149,0,0,1-1.666-4.944Zm2.271.269A5.65,5.65,0,0,0,81.067-2.93,3.262,3.262,0,0,0,83.8-1.6,3.242,3.242,0,0,0,86.53-2.948a6.179,6.179,0,0,0,1.013-3.778,5.641,5.641,0,0,0-1.031-3.522,3.279,3.279,0,0,0-2.74-1.349,3.243,3.243,0,0,0-2.7,1.331A6.133,6.133,0,0,0,80.048-6.458Zm18.97-4.724a6.767,6.767,0,0,0-1.111-.085,2.976,2.976,0,0,0-3.015,1.892V0H92.633V-13.208h2.2l.037,1.526a3.516,3.516,0,0,1,3.149-1.77,2.307,2.307,0,0,1,1,.171Z" transform="translate(484.041 578.339)" fill="#2f237d"/>
    <path id="Trazado_594508" data-name="Trazado 594508" d="M15.137-5.64a6.539,6.539,0,0,1-2.081,4.352A6.821,6.821,0,0,1,8.4.244,6.263,6.263,0,0,1,3.351-2.014a9.086,9.086,0,0,1-1.9-6.042V-9.766a10.127,10.127,0,0,1,.885-4.358A6.611,6.611,0,0,1,4.846-17.01a6.985,6.985,0,0,1,3.76-1.007,6.422,6.422,0,0,1,4.541,1.581,6.618,6.618,0,0,1,1.99,4.376H12.781a5.107,5.107,0,0,0-1.324-3.086,4.007,4.007,0,0,0-2.85-.955,4.193,4.193,0,0,0-3.522,1.662A7.628,7.628,0,0,0,3.809-9.711v1.723A7.841,7.841,0,0,0,5.017-3.383,3.9,3.9,0,0,0,8.4-1.672a4.51,4.51,0,0,0,3-.885A4.911,4.911,0,0,0,12.781-5.64Zm11,5.64a4.744,4.744,0,0,1-.317-1.392A5.039,5.039,0,0,1,22.058.244a4.662,4.662,0,0,1-3.2-1.1,3.574,3.574,0,0,1-1.251-2.8,3.734,3.734,0,0,1,1.569-3.2,7.4,7.4,0,0,1,4.413-1.141h2.2V-9.045a2.536,2.536,0,0,0-.708-1.886,2.845,2.845,0,0,0-2.087-.7,3.293,3.293,0,0,0-2.026.61,1.8,1.8,0,0,0-.818,1.477H17.871a3.117,3.117,0,0,1,.7-1.91,4.791,4.791,0,0,1,1.9-1.459,6.406,6.406,0,0,1,2.643-.537A5.221,5.221,0,0,1,26.7-12.311,4.117,4.117,0,0,1,28.04-9.167v6.079A7.432,7.432,0,0,0,28.5-.2V0ZM22.388-1.721A3.969,3.969,0,0,0,24.4-2.271,3.323,3.323,0,0,0,25.781-3.7v-2.71h-1.77q-4.15,0-4.15,2.429a2.056,2.056,0,0,0,.708,1.66A2.721,2.721,0,0,0,22.388-1.721ZM33.716-13.208l.073,1.66a4.813,4.813,0,0,1,3.955-1.9q4.187,0,4.224,4.724V0H39.709V-8.74a3.041,3.041,0,0,0-.653-2.112,2.617,2.617,0,0,0-2-.684,3.259,3.259,0,0,0-1.929.586,3.979,3.979,0,0,0-1.294,1.538V0H31.58V-13.208ZM53.528,0a4.744,4.744,0,0,1-.317-1.392A5.039,5.039,0,0,1,49.451.244a4.662,4.662,0,0,1-3.2-1.1A3.574,3.574,0,0,1,45-3.662a3.734,3.734,0,0,1,1.569-3.2,7.4,7.4,0,0,1,4.413-1.141h2.2V-9.045a2.536,2.536,0,0,0-.708-1.886,2.845,2.845,0,0,0-2.087-.7,3.293,3.293,0,0,0-2.026.61,1.8,1.8,0,0,0-.818,1.477H45.264a3.117,3.117,0,0,1,.7-1.91,4.791,4.791,0,0,1,1.9-1.459,6.406,6.406,0,0,1,2.643-.537,5.221,5.221,0,0,1,3.577,1.141,4.117,4.117,0,0,1,1.343,3.143v6.079A7.432,7.432,0,0,0,55.9-.2V0ZM49.78-1.721a3.969,3.969,0,0,0,2.014-.549A3.323,3.323,0,0,0,53.174-3.7v-2.71H51.4q-4.15,0-4.15,2.429a2.056,2.056,0,0,0,.708,1.66A2.721,2.721,0,0,0,49.78-1.721ZM61.426,0H59.167V-18.75h2.258Z" transform="translate(301.756 578.339)" fill="#2f237d"/>
    <g id="Grupo_90598" data-name="Grupo 90598" transform="translate(312.811 140.781)">
      <g id="Grupo_89699" data-name="Grupo 89699" transform="translate(0 0)">
        <path id="Trazado_150570" data-name="Trazado 150570" d="M226.871,44.334v-7.8a20.937,20.937,0,0,0-20.937,20.937h0A20.936,20.936,0,0,0,226.87,78.415h0V70.621a13.143,13.143,0,0,1,0-26.287Z" transform="translate(-205.934 -36.539)" fill="#8880c7" opacity="0.18" style="isolation: isolate"/>
        <g id="Grupo_89698" data-name="Grupo 89698" transform="translate(20.937)" opacity="0.31">
          <path id="Trazado_150571" data-name="Trazado 150571" d="M225.63,78.415a20.938,20.938,0,0,0,20.939-20.937h0A20.939,20.939,0,0,0,225.63,36.539h0v7.8a13.143,13.143,0,1,1,0,26.286Z" transform="translate(-225.63 -36.539)" fill="#6558b5"/>
        </g>
      </g>
      <path id="Trazado_153224" data-name="Trazado 153224" d="M239.95,57.038a13.521,13.521,0,0,0-13.521-13.522v0a13.52,13.52,0,0,0,0,27.039v-.005A13.52,13.52,0,0,0,239.95,57.038Z" transform="translate(-205.494 -36.099)" fill="#6826cc"/>
    </g>
    <g id="Grupo_90600" data-name="Grupo 90600" transform="translate(42.06 510.337)">
      <g id="Grupo_89699-2" data-name="Grupo 89699" transform="translate(0 0)">
        <path id="Trazado_150570-2" data-name="Trazado 150570" d="M226.871,44.334v-7.8a20.937,20.937,0,0,0-20.937,20.937h0A20.936,20.936,0,0,0,226.87,78.415h0V70.621a13.143,13.143,0,0,1,0-26.287Z" transform="translate(-205.934 -36.539)" fill="#8880c7" opacity="0.18" style="isolation: isolate"/>
        <g id="Grupo_89698-2" data-name="Grupo 89698" transform="translate(20.937)" opacity="0.31">
          <path id="Trazado_150571-2" data-name="Trazado 150571" d="M225.63,78.415a20.938,20.938,0,0,0,20.939-20.937h0A20.939,20.939,0,0,0,225.63,36.539h0v7.8a13.143,13.143,0,1,1,0,26.286Z" transform="translate(-225.63 -36.539)" fill="#6558b5"/>
        </g>
      </g>
      <path id="Trazado_153224-2" data-name="Trazado 153224" d="M239.95,57.038a13.521,13.521,0,0,0-13.521-13.522v0a13.52,13.52,0,0,0,0,27.039v-.005A13.52,13.52,0,0,0,239.95,57.038Z" transform="translate(-205.494 -36.099)" fill="#6826cc"/>
    </g>
    <g id="Grupo_90602" data-name="Grupo 90602" transform="translate(515.723 510.337)">
      <g id="Grupo_89699-3" data-name="Grupo 89699" transform="translate(0 0)">
        <path id="Trazado_150570-3" data-name="Trazado 150570" d="M226.871,44.334v-7.8a20.937,20.937,0,0,0-20.937,20.937h0A20.936,20.936,0,0,0,226.87,78.415h0V70.621a13.143,13.143,0,0,1,0-26.287Z" transform="translate(-205.934 -36.539)" fill="#8880c7" opacity="0.18" style="isolation: isolate"/>
        <g id="Grupo_89698-3" data-name="Grupo 89698" transform="translate(20.937)" opacity="0.31">
          <path id="Trazado_150571-3" data-name="Trazado 150571" d="M225.63,78.415a20.938,20.938,0,0,0,20.939-20.937h0A20.939,20.939,0,0,0,225.63,36.539h0v7.8a13.143,13.143,0,1,1,0,26.286Z" transform="translate(-225.63 -36.539)" fill="#6558b5"/>
        </g>
      </g>
      <path id="Trazado_153224-3" data-name="Trazado 153224" d="M239.95,57.038a13.521,13.521,0,0,0-13.521-13.522v0a13.52,13.52,0,0,0,0,27.039v-.005A13.52,13.52,0,0,0,239.95,57.038Z" transform="translate(-205.494 -36.099)" fill="#6826cc"/>
    </g>
    <g id="Grupo_90601" data-name="Grupo 90601" transform="translate(312.811 510.337)">
      <g id="Grupo_89699-4" data-name="Grupo 89699" transform="translate(0 0)">
        <path id="Trazado_150570-4" data-name="Trazado 150570" d="M226.871,44.334v-7.8a20.937,20.937,0,0,0-20.937,20.937h0A20.936,20.936,0,0,0,226.87,78.415h0V70.621a13.143,13.143,0,0,1,0-26.287Z" transform="translate(-205.934 -36.539)" fill="#8880c7" opacity="0.18" style="isolation: isolate"/>
        <g id="Grupo_89698-4" data-name="Grupo 89698" transform="translate(20.937)" opacity="0.31">
          <path id="Trazado_150571-4" data-name="Trazado 150571" d="M225.63,78.415a20.938,20.938,0,0,0,20.939-20.937h0A20.939,20.939,0,0,0,225.63,36.539h0v7.8a13.143,13.143,0,1,1,0,26.286Z" transform="translate(-225.63 -36.539)" fill="#6558b5"/>
        </g>
      </g>
      <path id="Trazado_153224-4" data-name="Trazado 153224" d="M239.95,57.038a13.521,13.521,0,0,0-13.521-13.522v0a13.52,13.52,0,0,0,0,27.039v-.005A13.52,13.52,0,0,0,239.95,57.038Z" transform="translate(-205.494 -36.099)" fill="#6826cc"/>
    </g>
    <g id="Grupo_90599" data-name="Grupo 90599" transform="translate(312.391 28.1)">
      <g id="Grupo_89699-5" data-name="Grupo 89699" transform="translate(0 0)">
        <path id="Trazado_150570-5" data-name="Trazado 150570" d="M226.871,44.334v-7.8a20.937,20.937,0,0,0-20.937,20.937h0A20.936,20.936,0,0,0,226.87,78.415h0V70.621a13.143,13.143,0,0,1,0-26.287Z" transform="translate(-205.934 -36.539)" fill="#8880c7" opacity="0.18" style="isolation: isolate"/>
        <g id="Grupo_89698-5" data-name="Grupo 89698" transform="translate(20.937)" opacity="0.31">
          <path id="Trazado_150571-5" data-name="Trazado 150571" d="M225.63,78.415a20.938,20.938,0,0,0,20.939-20.937h0A20.939,20.939,0,0,0,225.63,36.539h0v7.8a13.143,13.143,0,1,1,0,26.286Z" transform="translate(-225.63 -36.539)" fill="#6558b5"/>
        </g>
      </g>
      <path id="Trazado_153224-5" data-name="Trazado 153224" d="M239.95,57.038a13.521,13.521,0,0,0-13.521-13.522v0a13.52,13.52,0,0,0,0,27.039v-.005A13.52,13.52,0,0,0,239.95,57.038Z" transform="translate(-205.494 -36.099)" fill="#6826cc"/>
    </g>
  </g>
</svg>
