<svg xmlns="http://www.w3.org/2000/svg" width="120" height="120" viewBox="0 0 120 120">
  <g id="cf5_caracteristica" transform="translate(-10 -10)">
    <circle id="Elipse_4890" data-name="Elipse 4890" cx="60" cy="60" r="60" transform="translate(10 10)" fill="#fff"/>
    <g id="Grupo_874449" data-name="Grupo 874449" transform="translate(3.483 6.304)">
      <path id="Trazado_146573" data-name="Trazado 146573" d="M42.837,105.656a.907.907,0,0,1-.907-.907V86.283a.953.953,0,0,1,1.906,0V104.7a.907.907,0,0,1-1,.953Z" transform="translate(-0.882 -5.389)" fill="#0f0140"/>
      <g id="Grupo_874448" data-name="Grupo 874448" transform="translate(32.4 27.12)">
        <path id="Trazado_146574" data-name="Trazado 146574" d="M54.5,50.571a.971.971,0,0,1-.671-.272,2.532,2.532,0,0,0-3.557,0,.956.956,0,0,1-1.343-1.361,4.437,4.437,0,0,1,6.261,0,.907.907,0,0,1,0,1.325A.971.971,0,0,1,54.5,50.571Z" transform="translate(-33.905 -29.02)" fill="#0f0140"/>
        <path id="Trazado_146575" data-name="Trazado 146575" d="M65.325,50.573a.962.962,0,0,1-.662-.272,2.532,2.532,0,0,0-3.557,0,.953.953,0,0,1-1.325,0,.942.942,0,0,1-.018-1.343,4.41,4.41,0,0,1,6.252,0,.907.907,0,0,1,0,1.325A.971.971,0,0,1,65.325,50.573Z" transform="translate(-34.908 -29.021)" fill="#0f0140"/>
        <path id="Trazado_146576" data-name="Trazado 146576" d="M67.653,38.162a12.8,12.8,0,0,1-9.02-3.757.962.962,0,0,1,0-1.325.907.907,0,0,1,.69-.29.953.953,0,0,1,.662.263,10.889,10.889,0,0,0,7.677,3.194.962.962,0,1,1,0,1.915Z" transform="translate(-34.804 -27.645)" fill="#0f0140"/>
        <path id="Trazado_146577" data-name="Trazado 146577" d="M33.362,100.267a.962.962,0,0,1-.962-.907V74.751A10.816,10.816,0,0,1,43.18,63.97h5.19v-1.4l-.127-.082a13.212,13.212,0,0,1-6.016-11.08V48.444l-.091-.082a10.689,10.689,0,0,1-3.63-8A13.276,13.276,0,0,1,51.783,27.12h7.368a13.176,13.176,0,0,1,8.784,3.339.98.98,0,0,1,.318.662.962.962,0,0,1-.245.69.958.958,0,0,1-1.352.073,11.27,11.27,0,0,0-7.486-2.849H51.783A11.361,11.361,0,0,0,40.458,40.359,8.792,8.792,0,0,0,41.719,44.9l.508.835V44.043a9.31,9.31,0,0,1,.7-3.575.971.971,0,0,1,.853-.526.907.907,0,0,1,.3.054.962.962,0,0,1,.662,1.207,7.414,7.414,0,0,0-.563,2.84v7.368a11.343,11.343,0,1,0,22.686,0V42.546H62.626A13.675,13.675,0,0,1,51.4,36.621l-.1-.136-.69.1A7.477,7.477,0,0,0,47.463,37.8a.907.907,0,0,1-.508.145.953.953,0,0,1-.554-1.733,9.383,9.383,0,0,1,3.956-1.524l1.3-.191h.136a.907.907,0,0,1,.817.472,11.8,11.8,0,0,0,9.982,5.671h5.118a.962.962,0,0,1,.962.962V45.74l.5-.835a8.72,8.72,0,0,0,1.27-4.537,11.1,11.1,0,0,0-1.08-4.827.245.245,0,0,1,0-.1.962.962,0,0,1,0-.726.98.98,0,0,1,.517-.526,1.043,1.043,0,0,1,.372-.073.971.971,0,0,1,.907.59,13.049,13.049,0,0,1,1.279,5.662,10.762,10.762,0,0,1-3.63,8.013l-.091.073v2.967A13.2,13.2,0,0,1,62.69,62.491l-.127.082v1.4h5.181a10.789,10.789,0,0,1,7.141,2.722l.281.245.145-.345A7.523,7.523,0,0,1,76.9,64.215a.907.907,0,0,1,.653-.281,1,1,0,0,1,.744.327l8.3,9.492h4.755V72.291a.907.907,0,0,1,.907-.953h7.368a.962.962,0,1,1,0,1.915H93.27V92.218h6.406a.953.953,0,0,1,0,1.906H92.308a.907.907,0,0,1-.907-.907V91.7h-.29a8.339,8.339,0,0,0-4.319,1.6,10.29,10.29,0,0,1-6.107,2.042H76.346a.962.962,0,1,1,0-1.915h4.292a8.312,8.312,0,0,0,4.936-1.633,10.2,10.2,0,0,1,5.508-2.014h.254V75.7H86.165a.98.98,0,0,1-.717-.318l-7.867-9-.191.318a5.7,5.7,0,0,0,0,5.88l1,1.679a.917.917,0,0,1-.771,1.4H68.978a1.506,1.506,0,1,0,0,3h2.45a.962.962,0,1,1,0,1.915h-2.45a1.5,1.5,0,0,0,0,2.994h2.45a.962.962,0,1,1,0,1.915h-2.45a1.506,1.506,0,0,0-1.506,1.5,1.488,1.488,0,0,0,1.08,1.416h.163a1.442,1.442,0,0,1,.272-.054h2.441a.962.962,0,1,1,0,1.915H69.323a.908.908,0,0,1-.4.1,1.515,1.515,0,0,0-1.37,1.407,1.5,1.5,0,0,0,.372,1.089,1.47,1.47,0,0,0,1.034.5h2.468a.971.971,0,0,1,.962.962,1.007,1.007,0,0,1-.989.907H68.978a3.4,3.4,0,0,1-2.559-5.6l.163-.181-.163-.181a3.4,3.4,0,0,1,0-4.537l.163-.181-.163-.181a3.394,3.394,0,0,1,0-4.537l.163-.181-.163-.181a3.416,3.416,0,0,1,2.541-5.69h6.905l-.227-.4a7.659,7.659,0,0,1-.907-4.02v-.1l-.064-.082A8.748,8.748,0,0,0,67.8,65.858h-.626L62.481,76.366a.989.989,0,0,1-.127.209.953.953,0,0,1-.744.363.907.907,0,0,1-.6-.218l-1.924-1.534-.172.191a4.365,4.365,0,0,1-.744.671l-.127.091,2.051,14.437a.907.907,0,0,1-.127.635l-3.684,6.134a.952.952,0,0,1-1.633,0l-3.684-6.134a.907.907,0,0,1-.127-.635l.363-2.55a.962.962,0,0,1,.907-.826h.145a.962.962,0,0,1,.626.381.907.907,0,0,1,.181.708l-.281,2.241L55.5,95.013l2.722-4.483L56.283,76.919h-.272a4.129,4.129,0,0,1-.472,0,3.974,3.974,0,0,1-.472,0H54.8L53.888,83.5a.953.953,0,0,1-.907.817h-.136a.962.962,0,0,1-.808-1.08l.871-7.1-.136-.091A4.782,4.782,0,0,1,52,75.377l-.172-.191L49.9,76.72a.717.717,0,0,1-.209.127.853.853,0,0,1-.39.091.962.962,0,0,1-.907-.572l-4.564-10.49h-.608a8.9,8.9,0,0,0-8.866,8.875V99.314a.907.907,0,0,1-1,.953ZM53.325,73.952l.209.209a2.632,2.632,0,0,0,3.829,0l.209-.209-2.105-1.661Zm9.219-7.84a.907.907,0,0,1-.363.753l-5.19,4.2,4.247,3.394,3.811-8.584H62.563ZM49.7,74.46l4.238-3.394-5.209-4.129a.907.907,0,0,1-.354-.753v-.272H45.884Zm.59-8.766,5.181,4.147,5.181-4.147V63.589l-.372.145a13.076,13.076,0,0,1-9.619,0l-.372-.145Z" transform="translate(-32.4 -27.12)" fill="#0f0140"/>
        <path id="Trazado_146578" data-name="Trazado 146578" d="M92.822,38.383h-.163a.907.907,0,0,1-.771-1.1l.49-2.886L90.29,32.357a1.044,1.044,0,0,1-.281-.554.962.962,0,0,1,.808-1.08l2.9-.417,1.289-2.632a.953.953,0,0,1,1.715,0L98.013,30.3l2.9.426a.964.964,0,0,1,.817.962.989.989,0,0,1-.29.671l-2.1,2.042.49,2.886a.908.908,0,0,1,0,.163.953.953,0,0,1-.962.953.971.971,0,0,1-.445-.109l-2.586-1.361-2.6,1.361a.907.907,0,0,1-.445.109ZM95.2,31.55a.953.953,0,0,1-.717.526L93,32.285l1.071,1.08a.971.971,0,0,1,.272.853l-.254,1.47,1.352-.708a.962.962,0,0,1,.907,0l1.325.7-.254-1.47a.971.971,0,0,1,.272-.853l1.071-1.034L97.259,32.1a.953.953,0,0,1-.717-.526l-.662-1.334Z" transform="translate(-37.733 -27.122)" fill="#0f0140"/>
        <path id="Trazado_146579" data-name="Trazado 146579" d="M98.892,53.393a.907.907,0,0,1-.436-.109l-2.6-1.37-2.6,1.37a1.034,1.034,0,0,1-.436.109h-.163a.907.907,0,0,1-.78-1.107l.49-2.877L90.29,47.358a1.016,1.016,0,0,1-.281-.544.955.955,0,0,1,.808-1.08l2.9-.426,1.289-2.622a.908.908,0,0,1,.436-.436,1,1,0,0,1,1.325.436l1.289,2.622,2.9.426a.907.907,0,0,1,.526,1.624l-2.1,2.051.49,2.877a.907.907,0,0,1-.091.608.953.953,0,0,1-.9.5ZM95.2,46.551a.953.953,0,0,1-.717.526L93,47.286l1.071,1.08a.907.907,0,0,1,.272.844l-.254,1.479,1.352-.7a.962.962,0,0,1,.907,0l1.325.7-.254-1.479a.907.907,0,0,1,.272-.844l1.071-1.044-1.506-.209a.953.953,0,0,1-.717-.526l-.662-1.334Z" transform="translate(-37.732 -28.511)" fill="#0f0140"/>
        <path id="Trazado_146580" data-name="Trazado 146580" d="M98.894,68.394a.908.908,0,0,1-.436-.109l-2.6-1.361-2.6,1.361a.908.908,0,0,1-.436.109h-.163a.953.953,0,0,1-.78-1.107l.49-2.886-2.087-2.042a.98.98,0,0,1-.272-.535.962.962,0,0,1,.808-1.089l2.895-.417L95.01,57.7a.991.991,0,0,1,1.76,0l1.289,2.622,2.9.417a1.007,1.007,0,0,1,.535.272.971.971,0,0,1,0,1.352L99.4,64.4l.49,2.886a.907.907,0,0,1-.907,1.116ZM95.2,61.6a.953.953,0,0,1-.717.526L93,62.332l1.071,1.034a.907.907,0,0,1,.272.844l-.254,1.47L95.445,65a.962.962,0,0,1,.907,0l1.325.69-.254-1.47a.907.907,0,0,1,.272-.844l1.071-1.044-1.506-.209a.953.953,0,0,1-.717-.526l-.662-1.343Z" transform="translate(-37.733 -29.901)" fill="#0f0140"/>
      </g>
    </g>
  </g>
</svg>
