<svg xmlns="http://www.w3.org/2000/svg" width="120" height="120" viewBox="0 0 120 120">
  <g id="cf5_caracteristica_copia_3" data-name="cf5_caracteristica copia 3" transform="translate(-10 -10)">
    <circle id="Elipse_4887" data-name="Elipse 4887" cx="60" cy="60" r="60" transform="translate(10 10)" fill="#fff"/>
    <g id="Grupo_88500" data-name="Grupo 88500" transform="translate(8.367 11.259)">
      <path id="Trazado_146547" data-name="Trazado 146547" d="M58.314,88.461l-5.929-1.976a1.283,1.283,0,0,1-.879-1.218V83.024a8.4,8.4,0,0,0,3.63-6.9v-.96a3.565,3.565,0,0,0,1.21-2.67v-4.84A3.557,3.557,0,0,0,52.8,64.1H44.319a3.573,3.573,0,0,0-2.662,1.21,4.775,4.775,0,0,0-4.517,4.759v2.42a3.565,3.565,0,0,0,1.21,2.67v.96a8.4,8.4,0,0,0,3.63,6.9v2.242a1.283,1.283,0,0,1-.879,1.218l-5.929,1.976a5.969,5.969,0,0,0-4.082,5.647v7.405a1.137,1.137,0,0,0,2.267,0V94.107a3.7,3.7,0,0,1,2.5-3.469l3.323-1.105a8.389,8.389,0,0,0,15.06,0l3.4,1.105a3.7,3.7,0,0,1,2.533,3.517v7.405a1.137,1.137,0,0,0,2.267,0V94.156a5.969,5.969,0,0,0-4.082-5.647Zm-17.7-12.342v-1.21a2.5,2.5,0,0,1,2.5-2.5h3.63a1.129,1.129,0,1,0,0-2.259h-3.63a4.751,4.751,0,0,0-3.7,1.774V70.069a2.5,2.5,0,0,1,2.493-2.5h.339a1.121,1.121,0,0,0,.976-.557,1.275,1.275,0,0,1,1.105-.653H52.8a1.291,1.291,0,0,1,1.291,1.291v4.275a4.751,4.751,0,0,0-2.1-1.508,1.142,1.142,0,0,0-.807,2.138,2.509,2.509,0,0,1,1.662,2.355v1.21a6.131,6.131,0,1,1-12.229,0Zm6.122,15.81a6.163,6.163,0,0,1-5.356-3.154l.436-.145a3.541,3.541,0,0,0,2.42-3.364V84.129a8.413,8.413,0,0,0,4.993,0v1.137a3.541,3.541,0,0,0,2.42,3.364l.428.145A6.139,6.139,0,0,1,46.739,91.929Z" transform="translate(-0.86 -9.288)" fill="#0f0140"/>
      <path id="Trazado_146548" data-name="Trazado 146548" d="M101.1,90.9l-4.969-1.863a1.379,1.379,0,0,1-.4-.258l4.195-2.1a4.735,4.735,0,0,0,2.638-4.259V76.192a12.027,12.027,0,0,0-24.046,0v6.227a4.743,4.743,0,0,0,2.63,4.259l4.2,2.1a1.428,1.428,0,0,1-.411.258L79.962,90.9a5.993,5.993,0,0,0-3.872,5.59V101.6a1.137,1.137,0,0,0,2.267,0V96.487a3.735,3.735,0,0,1,2.42-3.477l2.315-.863a8.4,8.4,0,0,0,14.915,0l2.315.863a3.735,3.735,0,0,1,2.42,3.477V101.6a1.137,1.137,0,0,0,2.267,0V96.487a5.985,5.985,0,0,0-3.88-5.59ZM80.777,82.419V76.192a9.76,9.76,0,1,1,19.513,0v6.227a2.493,2.493,0,0,1-1.379,2.234L95.3,86.46v-.944a8.4,8.4,0,0,0,3.63-6.9,3.372,3.372,0,0,0-1.517-2.823,1.129,1.129,0,0,0-1.226,1.888,1.113,1.113,0,0,1,.5.936,6.139,6.139,0,1,1-12.277,0,1.113,1.113,0,0,1,.484-.936l5.647-3.751,1.8,1.194a1.132,1.132,0,0,0,1.25-1.888l-2.42-1.613a1.137,1.137,0,0,0-1.25,0l-6.268,4.17a3.388,3.388,0,0,0-1.508,2.823,8.373,8.373,0,0,0,3.63,6.9v.944l-3.614-1.807A2.476,2.476,0,0,1,80.777,82.419Zm9.76,12a6.155,6.155,0,0,1-5.308-3.081l.508-.194a3.565,3.565,0,0,0,2.307-3.323v-1.2a8.413,8.413,0,0,0,4.993,0v1.2a3.565,3.565,0,0,0,2.339,3.323l.508.194A6.139,6.139,0,0,1,90.537,94.422Z" transform="translate(-9.561 -9.361)" fill="#0f0140"/>
      <path id="Trazado_146549" data-name="Trazado 146549" d="M87.074,25.635A32.613,32.613,0,0,0,31.827,53.876l-3.283-3.089A1.133,1.133,0,0,0,27,52.448l5.953,5.509a1.129,1.129,0,0,0,.807.3.92.92,0,0,0,.21,0,1.145,1.145,0,0,0,.807-.6l3.638-7.26a1.131,1.131,0,0,0-2.025-1.008l-2.218,4.445a30.959,30.959,0,0,1-.428-5.114,30.33,30.33,0,1,1,59.539,8.163,1.129,1.129,0,0,0,.807,1.4.952.952,0,0,0,.3.04,1.137,1.137,0,0,0,1.1-.807,32.806,32.806,0,0,0,1.137-8.825,32.387,32.387,0,0,0-9.551-23.046Z" fill="#0f0140"/>
      <path id="Trazado_146550" data-name="Trazado 146550" d="M88.13,50.567l-3.025-4.033a1.133,1.133,0,0,0-1.815,1.355l4.9,6.518a1.121,1.121,0,0,0,.9.452h0A1.121,1.121,0,0,0,90,54.407l4.84-6.526a1.129,1.129,0,0,0-1.807-1.355l-2.686,3.59a22.909,22.909,0,1,0-45.81.807,24.257,24.257,0,0,0,.138,2.541,1.132,1.132,0,1,0,2.251-.242,21.827,21.827,0,0,1-.121-2.3,20.643,20.643,0,0,1,41.284-.347Z" transform="translate(-3.46 -2.233)" fill="#0f0140"/>
    </g>
  </g>
</svg>
