<svg xmlns="http://www.w3.org/2000/svg" width="120" height="120" viewBox="0 0 120 120">
  <g id="cf5_caracteristica_copia_4" data-name="cf5_caracteristica copia 4" transform="translate(-10 -10)">
    <circle id="Elipse_4888" data-name="Elipse 4888" cx="60" cy="60" r="60" transform="translate(10 10)" fill="#fff"/>
    <g id="Grupo_88501" data-name="Grupo 88501" transform="translate(7.585 10.535)">
      <path id="Trazado_146551" data-name="Trazado 146551" d="M70.361,40.295a4.283,4.283,0,1,0-4.291-4.25,4.283,4.283,0,0,0,4.291,4.25Zm0-6.428a2.145,2.145,0,1,1-1.529.64,2.145,2.145,0,0,1,1.529-.64Z" transform="translate(-6.873 -1.187)" fill="#0f0140"/>
      <path id="Trazado_146552" data-name="Trazado 146552" d="M85.885,80.224l-3.079-1.638-1.679-3.079a1.081,1.081,0,0,0-1.458-.426,1.064,1.064,0,0,0-.426.426l-1.638,3.079-3.071,1.638a1.073,1.073,0,0,0,0,1.883l3.071,1.638,1.638,3.071a1.073,1.073,0,0,0,1.883,0l1.679-3.071,3.079-1.638a1.081,1.081,0,0,0,.393-1.458,1.064,1.064,0,0,0-.393-.426ZM81.5,82.058a1.064,1.064,0,0,0-.426.426l-.893,1.638-.893-1.638a1.065,1.065,0,0,0-.426-.426l-1.638-.893,1.638-.893a1.065,1.065,0,0,0,.426-.426l.893-1.638.893,1.638a1.065,1.065,0,0,0,.426.426l1.638.893Z" transform="translate(-8.306 -9.017)" fill="#0f0140"/>
      <path id="Trazado_146553" data-name="Trazado 146553" d="M28.7,42.269l3.079,1.638,1.638,3.079a1.064,1.064,0,0,0,1.875,0l1.752-3.038,3.071-1.638a1.073,1.073,0,0,0,0-1.883l-3.071-1.72-1.687-3.071a1.064,1.064,0,0,0-1.875,0l-1.638,3.071-3.079,1.679a1.073,1.073,0,0,0,0,1.883Zm4.381-1.834a1.065,1.065,0,0,0,.426-.426l.893-1.638.893,1.638a1.065,1.065,0,0,0,.426.426l1.638.893-1.638.893a1.064,1.064,0,0,0-.426.426L34.4,44.283l-.893-1.638a1.064,1.064,0,0,0-.426-.426l-1.638-.893Z" transform="translate(-0.014 -1.793)" fill="#0f0140"/>
      <path id="Trazado_146554" data-name="Trazado 146554" d="M90.14,36.5a1.073,1.073,0,0,0-.942-.557H82.771V30.273a5.1,5.1,0,0,0-5.093-5.093H47.143a5.093,5.093,0,0,0-5.085,5.093V57.942L28.392,73.77a1.04,1.04,0,0,0-.262.7V93.749h2.145V74.867L49.461,52.644a4.339,4.339,0,0,1,.278.7,4.839,4.839,0,0,1-1.04,4.438l-.057.082-8.565,13.92a1.056,1.056,0,0,0,.074,1.228l4.25,5.331a1.073,1.073,0,0,0,1.507.172l.09-.082c.066-.066,5.887-5.806,11.218-4.61L46.66,84.423a.983.983,0,0,0-.311.819c0,.237.057,3.513-5.683,5.314a1.064,1.064,0,0,0-.753,1.024v2.137h2.145V92.341c5.5-1.982,6.313-5.4,6.42-6.739l3.668-3.668H77.678A5.1,5.1,0,0,0,82.722,77.6a11.6,11.6,0,0,0,1.122,1.565V93.749h2.137v-15a1.048,1.048,0,0,0-.311-.753,11.8,11.8,0,0,1-2.9-7.812,11.963,11.963,0,0,1,2.9-7.82,1.065,1.065,0,0,0,.27-1.064L82.771,50.744c0-2.121.54-7.3,2.538-9.007l3.93,13.756a.974.974,0,0,0,.139.295l2.145,3.218,1.777-1.22-2.047-3.079L86.98,39.886a1.064,1.064,0,0,0-1.286-.745,4.913,4.913,0,0,0-2.956,2.309V38.036h5.789l5.994,10.989-.09,44.725h2.145l.123-44.97a1.032,1.032,0,0,0-.131-.516ZM42.3,72.247l3.791-6.166,3.472.712v6.469a23.819,23.819,0,0,0-2.145,1.31V70.183H45.276v5.781Zm38.33,4.626a2.948,2.948,0,0,1-2.948,2.948H54.284l5.675-5.658a1.073,1.073,0,0,0,0-1.515.983.983,0,0,0-.278-.2A9.826,9.826,0,0,0,51.7,72.3v-6.4a1.073,1.073,0,0,0-.868-1.048l-3.554-.712L50.443,59c2.94-3.963,1.2-7.525-.131-8.86a1.073,1.073,0,0,0-1.515,0l-.049.057L44.2,55.46V30.273a2.948,2.948,0,0,1,2.94-2.948H77.678a2.948,2.948,0,0,1,2.948,2.948Zm3.087-15.558a14.96,14.96,0,0,0-.942,1.384V58.2Z" transform="translate(0)" fill="#0f0140"/>
      <path id="Trazado_146555" data-name="Trazado 146555" d="M61.2,56.722H72.47l-.385,2.145H60.13V61H72.986a1.065,1.065,0,0,0,1.056-.884l3.087-17.49,4.643-.925-.426-2.1-5.355,1.073a1.065,1.065,0,0,0-.819.868l-.6,3.4H57.984a1.064,1.064,0,0,0-1.064,1.073,1.146,1.146,0,0,0,.049.336l3.218,9.646a1.073,1.073,0,0,0,1.015.729Zm12.979-9.646-1.318,7.5H61.972l-2.53-7.5Z" transform="translate(-5.216 -2.612)" fill="#0f0140"/>
      <path id="Trazado_146556" data-name="Trazado 146556" d="M62.746,67.05A3.218,3.218,0,1,0,65.022,68,3.218,3.218,0,0,0,62.746,67.05Zm0,4.291a1.073,1.073,0,1,1,1.073-1.056A1.073,1.073,0,0,1,62.746,71.341Z" transform="translate(-5.687 -7.585)" fill="#0f0140"/>
      <path id="Trazado_146557" data-name="Trazado 146557" d="M77.736,70.286a3.218,3.218,0,1,0-3.218,3.21,3.218,3.218,0,0,0,3.218-3.21Zm-4.283,0a1.073,1.073,0,1,1,1.064,1.073,1.073,1.073,0,0,1-1.064-1.073Z" transform="translate(-7.821 -7.587)" fill="#0f0140"/>
      <path id="Trazado_146558" data-name="Trazado 146558" d="M63.5,50.224l2.047-.524,1.073,4.291-2.08.516Z" transform="translate(-6.408 -4.442)" fill="#0f0140"/>
      <path id="Trazado_146559" data-name="Trazado 146559" d="M68.69,50h2.145v4.291H68.69Z" transform="translate(-7.348 -4.497)" fill="#0f0140"/>
      <path id="Trazado_146560" data-name="Trazado 146560" d="M72.67,54.047l1.089-4.307,2.08.524-1.073,4.283Z" transform="translate(-8.069 -4.449)" fill="#0f0140"/>
      <path id="Trazado_146561" data-name="Trazado 146561" d="M51.68,30.42h2.145v2.113H51.68Z" transform="translate(-4.266 -0.949)" fill="#0f0140"/>
      <path id="Trazado_146562" data-name="Trazado 146562" d="M55.61,30.42h2.137v2.113H55.61Z" transform="translate(-4.978 -0.949)" fill="#0f0140"/>
      <path id="Trazado_146563" data-name="Trazado 146563" d="M101.4,30.42h2.129v2.113H101.4Z" transform="translate(-13.274 -0.949)" fill="#0f0140"/>
      <path id="Trazado_146564" data-name="Trazado 146564" d="M37.29,57.89h2.145v2.145H37.29Z" transform="translate(-1.659 -5.926)" fill="#0f0140"/>
      <path id="Trazado_146565" data-name="Trazado 146565" d="M73.93,98.45h2.137V100.6H73.93Z" transform="translate(-8.297 -13.274)" fill="#0f0140"/>
    </g>
  </g>
</svg>
