<svg xmlns="http://www.w3.org/2000/svg" width="261.495" height="238.331" viewBox="0 0 261.495 238.331">
  <g id="cf5_ciclo_copia" data-name="cf5_ciclo copia" transform="translate(0 -14.559)">
    <g id="Grupo_88557" data-name="Grupo 88557" transform="translate(197.679 215.419)">
      <g id="Grupo_88554" data-name="Grupo 88554">
        <rect id="Rectángulo_34319" data-name="Rectángulo 34319" width="18.207" height="22.978" transform="translate(31.796 37.309) rotate(-179.55)" fill="#ececec"/>
        <path id="Trazado_146734" data-name="Trazado 146734" d="M260.8,262.958l-.327,22.254-2.871-.026.618-22.245Z" transform="translate(-235.951 -247.952)" fill="#fafafa"/>
        <path id="Trazado_146735" data-name="Trazado 146735" d="M236.818,262.77l10.442.088,18.207.141-18.225,2.394-.15,19.709-10.442-.079Z" transform="translate(-233.508 -247.932)" fill="#e1e1e1"/>
        <path id="Trazado_146736" data-name="Trazado 146736" d="M242.816,262.818l-.415,22.254-3.1-.026.5-22.245Z" transform="translate(-233.817 -247.936)" fill="#fafafa"/>
        <g id="Grupo_88553" data-name="Grupo 88553" transform="translate(8.574)">
          <path id="Trazado_146737" data-name="Trazado 146737" d="M251.484,254.212c0,.141-.3.283-.883.424a13.713,13.713,0,0,1-2.412.318,14.047,14.047,0,0,1-1.714,0,6.4,6.4,0,0,1-.972-.106,8.608,8.608,0,0,1-1.06-.23,2.712,2.712,0,0,1-.654-.283,2.049,2.049,0,0,1-.7-.645,1.908,1.908,0,0,1-.292-1.007,3.162,3.162,0,0,1,.08-.769,14.32,14.32,0,0,1,.7-2.306,6.008,6.008,0,0,1,.671-1.175,4.945,4.945,0,0,1,.451-.53,3.383,3.383,0,0,1,.6-.495,2.589,2.589,0,0,1,.83-.327,2.085,2.085,0,0,1,.936,0,2.977,2.977,0,0,1,1.246.689,9.815,9.815,0,0,1,2.394,2.933,7.112,7.112,0,0,1,.8,2.394c.071.592,0,.928-.133.963-.292.071-.716-1.1-1.882-2.58a11.83,11.83,0,0,0-2.332-2.235,1.4,1.4,0,0,0-.53-.274.168.168,0,0,0-.1,0,.6.6,0,0,0-.159.088,1.148,1.148,0,0,0-.23.2c-.088.088-.177.212-.265.318a4.6,4.6,0,0,0-.433.8,14.031,14.031,0,0,0-.627,1.952,1.53,1.53,0,0,0-.053.283h-.026l.062-.044h0l.053.044a1.042,1.042,0,0,0,.265.133,6.71,6.71,0,0,0,.8.247,8.151,8.151,0,0,0,.883.194c.548.106,1.069.186,1.546.256.972.124,1.767.212,2.341.318S251.484,254.071,251.484,254.212Z" transform="translate(-242.799 -246.097)" fill="#e1e1e1"/>
          <path id="Trazado_146738" data-name="Trazado 146738" d="M252.191,254.257c-.053-.292,1.307-.716,3.437-1.343a29.328,29.328,0,0,0,3.534-1.281,3.578,3.578,0,0,0,.777-.433.388.388,0,0,0,.115-.124v.044a2.486,2.486,0,0,0-.133-.318l-.265-.548a8.73,8.73,0,0,0-.548-.989,4.046,4.046,0,0,0-.654-.769,3.839,3.839,0,0,0-.362-.3,2.479,2.479,0,0,0-.336-.177.883.883,0,0,0-.53-.053,1.767,1.767,0,0,0-.645.38,14.133,14.133,0,0,0-2.491,2.7c-1.219,1.767-1.537,3.092-1.846,3.048-.133,0-.23-.389-.186-1.06a7.951,7.951,0,0,1,.786-2.712,11.917,11.917,0,0,1,2.5-3.392,3.481,3.481,0,0,1,1.29-.813,2.739,2.739,0,0,1,1.767,0,3.789,3.789,0,0,1,.76.371,4.467,4.467,0,0,1,.61.468,5.593,5.593,0,0,1,1,1.157,10.867,10.867,0,0,1,.68,1.237l.265.583a3.058,3.058,0,0,1,.265.83,1.846,1.846,0,0,1-.2,1.21,2.323,2.323,0,0,1-.671.742,5.133,5.133,0,0,1-1.246.627,19.154,19.154,0,0,1-3.984.954C253.64,254.6,252.235,254.522,252.191,254.257Z" transform="translate(-243.877 -245.974)" fill="#ececec"/>
        </g>
        <rect id="Rectángulo_34320" data-name="Rectángulo 34320" width="26.759" height="7.606" transform="translate(26.758 15.021) rotate(-179.55)" fill="#e1e1e1"/>
        <rect id="Rectángulo_34321" data-name="Rectángulo 34321" width="24.188" height="7.606" transform="translate(34.039 15.077) rotate(-179.55)" fill="#ececec"/>
        <path id="Trazado_146739" data-name="Trazado 146739" d="M262.876,254.368l-.168,7.642-2.818-.062.194-7.6Z" transform="translate(-236.217 -246.951)" fill="#fafafa"/>
        <path id="Trazado_146740" data-name="Trazado 146740" d="M240.145,254.232l-.274,7.571-3.1-.027.168-7.606Z" transform="translate(-233.522 -246.93)" fill="#fafafa"/>
      </g>
      <g id="Grupo_88556" data-name="Grupo 88556" transform="translate(26.049 16.032)">
        <rect id="Rectángulo_34322" data-name="Rectángulo 34322" width="10.318" height="13.022" transform="translate(18.008 21.27) rotate(-179.55)" fill="#ececec"/>
        <path id="Trazado_146741" data-name="Trazado 146741" d="M278.261,273.908l-.186,12.607-1.625-.018.345-12.607Z" transform="translate(-264.197 -265.26)" fill="#fafafa"/>
        <path id="Trazado_146742" data-name="Trazado 146742" d="M264.677,273.8l5.919.044,10.31.079-10.327,1.361-.088,11.167-5.91-.044Z" transform="translate(-262.813 -265.25)" fill="#e1e1e1"/>
        <path id="Trazado_146743" data-name="Trazado 146743" d="M268.068,273.828l-.23,12.607-1.758-.018.283-12.607Z" transform="translate(-262.988 -265.251)" fill="#fafafa"/>
        <g id="Grupo_88555" data-name="Grupo 88555" transform="translate(4.718)">
          <path id="Trazado_146744" data-name="Trazado 146744" d="M272.973,268.93c0,.194-.68.433-1.864.53a7.068,7.068,0,0,1-2.164-.185,1.449,1.449,0,0,1-.83-.574,1.228,1.228,0,0,1-.194-.636,2.165,2.165,0,0,1,.071-.442,7.952,7.952,0,0,1,.4-1.334,4.2,4.2,0,0,1,.4-.689,2.342,2.342,0,0,1,.636-.61,1.431,1.431,0,0,1,1.1-.194,1.829,1.829,0,0,1,.76.424,5.681,5.681,0,0,1,1.36,1.714c.557,1.122.477,1.926.292,1.952s-.477-.6-1.148-1.4a7.128,7.128,0,0,0-1.316-1.219.574.574,0,0,0-.256-.124h-.044a1.254,1.254,0,0,0-.239.265,2.392,2.392,0,0,0-.23.424,8.709,8.709,0,0,0-.353,1.087v.124h-.177a.362.362,0,0,0,.1-.088h0a.327.327,0,0,0,.115.062,9.325,9.325,0,0,0,1.767.415C272.24,268.6,272.964,268.726,272.973,268.93Z" transform="translate(-267.92 -264.196)" fill="#e1e1e1"/>
          <path id="Trazado_146745" data-name="Trazado 146745" d="M273.375,268.953c0-.221.733-.512,1.917-.883a20.208,20.208,0,0,0,1.988-.76,1.818,1.818,0,0,0,.4-.23s0-.044,0,0a.433.433,0,0,0,0,.15l-.2-.424a4.347,4.347,0,0,0-.3-.539,2.209,2.209,0,0,0-.336-.4,1.113,1.113,0,0,0-.327-.23.292.292,0,0,0-.177,0,.972.972,0,0,0-.3.168,8.286,8.286,0,0,0-1.4,1.466c-.707.936-.945,1.678-1.175,1.652s-.362-.883.212-2.209a6.565,6.565,0,0,1,1.422-2,2.164,2.164,0,0,1,.8-.5,1.767,1.767,0,0,1,1.148,0,2.3,2.3,0,0,1,.468.23,3.027,3.027,0,0,1,.38.283,3.7,3.7,0,0,1,.6.7,7.52,7.52,0,0,1,.4.724l.15.336a2.11,2.11,0,0,1,.168.521,1.263,1.263,0,0,1-.141.813,1.5,1.5,0,0,1-.442.486,2.791,2.791,0,0,1-.751.371,9.761,9.761,0,0,1-2.3.512C274.214,269.262,273.41,269.156,273.375,268.953Z" transform="translate(-268.542 -264.121)" fill="#e1e1e1"/>
        </g>
        <rect id="Rectángulo_34323" data-name="Rectángulo 34323" width="15.16" height="4.311" transform="translate(15.159 8.645) rotate(-179.55)" fill="#e1e1e1"/>
        <rect id="Rectángulo_34324" data-name="Rectángulo 34324" width="13.702" height="4.311" transform="translate(19.276 8.68) rotate(-179.55)" fill="#ececec"/>
        <path id="Trazado_146746" data-name="Trazado 146746" d="M279.446,269.038l-.1,4.329-1.6-.035.106-4.311Z" transform="translate(-264.348 -264.692)" fill="#fafafa"/>
        <path id="Trazado_146747" data-name="Trazado 146747" d="M266.557,268.955l-.159,4.293-1.758-.018.1-4.311Z" transform="translate(-262.82 -264.681)" fill="#fafafa"/>
      </g>
    </g>
    <path id="Trazado_146748" data-name="Trazado 146748" d="M270.825,288.19c0,.088-58.554.159-130.747.159S9.33,288.279,9.33,288.19s58.536-.15,130.747-.15S270.825,288.111,270.825,288.19Z" transform="translate(-9.33 -35.459)" fill="#091320"/>
    <g id="Grupo_88563" data-name="Grupo 88563" transform="translate(108.088 14.559)">
      <g id="Grupo_88559" data-name="Grupo 88559">
        <g id="Grupo_88558" data-name="Grupo 88558">
          <rect id="Rectángulo_34325" data-name="Rectángulo 34325" width="136.189" height="195.441" rx="7.76" fill="#091320"/>
          <rect id="Rectángulo_34326" data-name="Rectángulo 34326" width="127.602" height="163.222" transform="translate(4.037 13.508)" fill="#fff"/>
          <path id="Trazado_146749" data-name="Trazado 146749" d="M213.24,228.04a5.23,5.23,0,1,1-5.221-5.23,5.23,5.23,0,0,1,5.221,5.23Z" transform="translate(-139.968 -42.414)" fill="#375a64"/>
          <rect id="Rectángulo_34327" data-name="Rectángulo 34327" width="41.018" height="2.156" rx="1.078" transform="translate(47.626 5.627)" fill="#375a64"/>
        </g>
        <path id="Trazado_146750" data-name="Trazado 146750" d="M274.338,177.395h0a1.528,1.528,0,0,1-1.528-1.528l.062-115.879A1.528,1.528,0,0,1,274.4,58.45h0a1.537,1.537,0,0,1,1.537,1.537l-.062,115.879a1.528,1.528,0,0,1-1.537,1.528Z" transform="translate(-148.132 -23.254)" fill="#e1e1e1"/>
        <path id="Trazado_146751" data-name="Trazado 146751" d="M231.752,48.978c0,.088-11.838.15-26.441.141s-26.441-.08-26.441-.168,11.838-.15,26.441-.141S231.752,48.907,231.752,48.978Z" transform="translate(-137.181 -22.13)" fill="#091320"/>
        <path id="Trazado_146752" data-name="Trazado 146752" d="M150.29,51.44h.645L152.7,51.4l-.053.053v-2a.689.689,0,0,1,.592-.548h.839a.68.68,0,0,1,.574.68v1.846l-.1-.088h2.209l-.1.1V47.995a.724.724,0,0,0-.309-.512l-1.025-1-.928-.883-.451-.442c-.159-.15-.274-.3-.451-.336a.574.574,0,0,0-.495.1c-.133.106-.274.265-.406.4l-.8.8c-.495.512-1.016.989-1.4,1.431a1.617,1.617,0,0,0-.106.822v3.11a.768.768,0,0,1,0-.265V47.942a.883.883,0,0,1,.124-.468c.406-.5.883-.936,1.4-1.475l.786-.8c.141-.133.256-.274.424-.415a.733.733,0,0,1,.645-.133,1.219,1.219,0,0,1,.539.38l.451.442.883.883.963.945a.883.883,0,0,1,.371.645v3.543h-2.438V49.55a.53.53,0,0,0-.433-.53h-.8a.521.521,0,0,0-.468.415v2.023h-2.3C150.334,51.449,150.281,51.449,150.29,51.44Z" transform="translate(-133.849 -21.642)" fill="#091320"/>
      </g>
      <g id="Grupo_88560" data-name="Grupo 88560" transform="translate(108.388 22.943)">
        <path id="Trazado_146753" data-name="Trazado 146753" d="M263.4,45.543a.071.071,0,0,0-.062,0h-7.165v-.3l-.079-.583a.1.1,0,0,0-.088-.08h-1.44c-.115,0-.194,0-.194.1s.079.088.194.1h1.316l.733,5.689a.088.088,0,0,0,.088.071h5.831c.141,0,.2,0,.2-.1s-.062-.088-.2-.1l-5.716-.088-.124-.989,5.981.08h0a.1.1,0,0,0,.088-.071l.442-2.376.23-1.281A.071.071,0,0,0,263.4,45.543Zm-7.2.124,6.935.1-.61,3.322h-5.831Z" transform="translate(-254.37 -44.58)" fill="#091320"/>
        <path id="Trazado_146754" data-name="Trazado 146754" d="M258.577,52.727a.671.671,0,0,0-.239-.4.7.7,0,0,0-.671-.115.716.716,0,0,0-.477.671.707.707,0,0,0,.468.671.574.574,0,0,0,.239,0,.707.707,0,0,0,.433-.15.618.618,0,0,0,.247-.389,1.6,1.6,0,0,0,0-.336Zm-.83.6a.459.459,0,0,1,0-.883.345.345,0,0,1,.159,0,.451.451,0,0,1,.283.1.539.539,0,0,1,.185.265.782.782,0,0,1,0,.1h0a.782.782,0,0,1,0,.1.512.512,0,0,1-.194.256.459.459,0,0,1-.433.071Z" transform="translate(-254.699 -45.465)" fill="#091320"/>
        <path id="Trazado_146755" data-name="Trazado 146755" d="M262.883,52.765a.654.654,0,0,0-.238-.4.716.716,0,1,0-.68,1.228.76.76,0,0,0,.238,0,.707.707,0,0,0,.433-.15.724.724,0,0,0,.247-.4.521.521,0,0,0,0-.168A.449.449,0,0,0,262.883,52.765Zm-.839.592a.468.468,0,0,1,0-.883.556.556,0,0,1,.168,0,.539.539,0,0,1,.283.088.512.512,0,0,1,.177.265.309.309,0,0,1,0,.106h0a.875.875,0,0,1,0,.1.486.486,0,0,1-.186.265A.477.477,0,0,1,262.044,53.357Z" transform="translate(-255.197 -45.468)" fill="#091320"/>
      </g>
      <g id="Grupo_88561" data-name="Grupo 88561" transform="translate(33.517 157.636)">
        <path id="Trazado_146756" data-name="Trazado 146756" d="M172.712,198.672c0,.883-.61,1.352-1.617,1.352h-1.06v1.246h-.415V197.32H171.1C172.1,197.32,172.712,197.824,172.712,198.672Zm-.415,0c0-.627-.424-.989-1.21-.989h-1.051v2.005h1.051C171.873,199.688,172.3,199.29,172.3,198.672Z" transform="translate(-169.62 -197.079)" fill="#091320"/>
        <path id="Trazado_146757" data-name="Trazado 146757" d="M176.782,198.43V201.4h-.389v-.539a1.166,1.166,0,0,1-1.069.565,1.148,1.148,0,0,1-1.246-1.272V198.43h.4v1.687a.883.883,0,0,0,.883.954.963.963,0,0,0,1.007-1.078V198.43Z" transform="translate(-170.139 -197.208)" fill="#091320"/>
        <path id="Trazado_146758" data-name="Trazado 146758" d="M179.9,198.409v.389h-.088a.963.963,0,0,0-1.007,1.1V201.4h-.4v-2.968h.389v.583A1.1,1.1,0,0,1,179.9,198.409Z" transform="translate(-170.645 -197.205)" fill="#091320"/>
        <path id="Trazado_146759" data-name="Trazado 146759" d="M180.55,199.912a1.458,1.458,0,0,1,1.528-1.5,1.3,1.3,0,0,1,1.166.583l-.3.2a1.025,1.025,0,0,0-.883-.433,1.157,1.157,0,0,0,0,2.306,1.007,1.007,0,0,0,.883-.433l.3.2a1.307,1.307,0,0,1-1.166.592,1.466,1.466,0,0,1-1.528-1.519Z" transform="translate(-170.894 -197.206)" fill="#091320"/>
        <path id="Trazado_146760" data-name="Trazado 146760" d="M187.17,199.531V201.3h-.406V199.61a.83.83,0,0,0-.883-.945.972.972,0,0,0-1.042,1.069V201.3h-.4V197.11h.4v1.767a1.254,1.254,0,0,1,1.113-.539,1.131,1.131,0,0,1,1.219,1.193Z" transform="translate(-171.348 -197.054)" fill="#091320"/>
        <path id="Trazado_146761" data-name="Trazado 146761" d="M190.971,199.563V201.4h-.389v-.459a1.113,1.113,0,0,1-1.016.486c-.671,0-1.087-.353-1.087-.883s.292-.839,1.148-.839h.945v-.177c0-.512-.292-.786-.883-.786a1.458,1.458,0,0,0-.981.353l-.186-.3a1.882,1.882,0,0,1,1.21-.406,1.06,1.06,0,0,1,1.237,1.175Zm-.4.945v-.486h-.936c-.574,0-.76.23-.76.53s.274.557.751.557a.954.954,0,0,0,.945-.6Z" transform="translate(-171.819 -197.202)" fill="#091320"/>
        <path id="Trazado_146762" data-name="Trazado 146762" d="M192.07,201.064l.177-.318a1.767,1.767,0,0,0,1.06.336c.557,0,.8-.194.8-.486,0-.777-1.926-.168-1.926-1.343,0-.486.415-.883,1.175-.883a2.041,2.041,0,0,1,1.051.274l-.177.318a1.564,1.564,0,0,0-.883-.247c-.539,0-.777.2-.777.486,0,.8,1.926.2,1.926,1.343,0,.512-.451.883-1.228.883a2.005,2.005,0,0,1-1.193-.362Z" transform="translate(-172.237 -197.201)" fill="#091320"/>
        <path id="Trazado_146763" data-name="Trazado 146763" d="M198.2,200.045h-2.482a1.1,1.1,0,0,0,1.166,1.034,1.148,1.148,0,0,0,.883-.389l.23.265a1.493,1.493,0,0,1-1.148.486,1.467,1.467,0,0,1-1.555-1.519,1.431,1.431,0,0,1,1.449-1.5,1.4,1.4,0,0,1,1.44,1.5A.782.782,0,0,1,198.2,200.045Zm-2.482-.3h2.111a1.06,1.06,0,0,0-2.111,0Z" transform="translate(-172.612 -197.207)" fill="#091320"/>
        <path id="Trazado_146764" data-name="Trazado 146764" d="M205.487,198.449l-1.131,2.968h-.38l-.936-2.438-.936,2.438h-.38l-1.113-2.977H201l.883,2.518.954-2.518h.345l.945,2.518.945-2.518Z" transform="translate(-173.233 -197.21)" fill="#091320"/>
        <path id="Trazado_146765" data-name="Trazado 146765" d="M208.912,199.568v1.838h-.38v-.459a1.131,1.131,0,0,1-1.025.486c-.671,0-1.078-.353-1.078-.883s.292-.883,1.14-.883h.945v-.177c0-.512-.283-.786-.839-.786a1.528,1.528,0,0,0-.989.345l-.177-.292a1.864,1.864,0,0,1,1.2-.406,1.06,1.06,0,0,1,1.2,1.219Zm-.4.945v-.486h-.883c-.583,0-.769.23-.769.53s.283.557.751.557a.954.954,0,0,0,.9-.6Z" transform="translate(-173.911 -197.198)" fill="#091320"/>
        <path id="Trazado_146766" data-name="Trazado 146766" d="M210,201.074l.186-.318a1.767,1.767,0,0,0,1.051.336c.565,0,.8-.194.8-.486,0-.777-1.926-.168-1.926-1.343,0-.486.424-.883,1.175-.883a2.1,2.1,0,0,1,1.051.283l-.177.318a1.608,1.608,0,0,0-.883-.256c-.539,0-.769.212-.769.495,0,.8,1.926.194,1.917,1.343,0,.512-.451.883-1.219.883a2.014,2.014,0,0,1-1.2-.371Z" transform="translate(-174.327 -197.203)" fill="#091320"/>
        <path id="Trazado_146767" data-name="Trazado 146767" d="M214.81,201.076l.177-.318a1.82,1.82,0,0,0,1.06.336c.565,0,.8-.194.8-.486,0-.777-1.926-.168-1.926-1.334,0-.486.424-.883,1.175-.883a2.014,2.014,0,0,1,1.051.274l-.177.327a1.476,1.476,0,0,0-.883-.256c-.539,0-.769.2-.769.486,0,.8,1.917.2,1.917,1.343,0,.512-.451.883-1.219.883a1.952,1.952,0,0,1-1.2-.371Z" transform="translate(-174.888 -197.204)" fill="#091320"/>
        <path id="Trazado_146768" data-name="Trazado 146768" d="M221.072,198.453v2.968h-.38v-.548a1.193,1.193,0,0,1-1.069.574,1.148,1.148,0,0,1-1.254-1.281V198.4h.4v1.687a.83.83,0,0,0,.883.954.963.963,0,0,0,1.016-1.078v-1.555Z" transform="translate(-175.302 -197.205)" fill="#091320"/>
        <path id="Trazado_146769" data-name="Trazado 146769" d="M222.36,199.94a1.467,1.467,0,0,1,1.537-1.511,1.3,1.3,0,0,1,1.157.592l-.3.2a1,1,0,0,0-.883-.442,1.157,1.157,0,1,0,0,2.315,1.025,1.025,0,0,0,.883-.433l.3.2a1.316,1.316,0,0,1-1.166.583,1.467,1.467,0,0,1-1.528-1.511Z" transform="translate(-175.768 -197.208)" fill="#091320"/>
        <path id="Trazado_146770" data-name="Trazado 146770" d="M225.9,199.94a1.466,1.466,0,0,1,1.537-1.511,1.3,1.3,0,0,1,1.157.592l-.3.2a1,1,0,0,0-.883-.442,1.157,1.157,0,0,0,0,2.315,1.007,1.007,0,0,0,.883-.433l.3.2a1.316,1.316,0,0,1-1.166.583,1.466,1.466,0,0,1-1.528-1.511Z" transform="translate(-176.181 -197.208)" fill="#091320"/>
        <path id="Trazado_146771" data-name="Trazado 146771" d="M232.325,200.073h-2.482a1.1,1.1,0,0,0,1.166,1.034,1.184,1.184,0,0,0,.883-.389l.221.256a1.44,1.44,0,0,1-1.14.486,1.466,1.466,0,0,1-1.564-1.511,1.449,1.449,0,1,1,2.9,0A.777.777,0,0,1,232.325,200.073Zm-2.482-.3h2.1a1.054,1.054,0,0,0-2.1,0Z" transform="translate(-176.59 -197.217)" fill="#091320"/>
        <path id="Trazado_146772" data-name="Trazado 146772" d="M233.18,201.09l.177-.318a1.767,1.767,0,0,0,1.051.336c.565,0,.8-.194.8-.486,0-.777-1.926-.168-1.926-1.343,0-.477.415-.839,1.175-.839a2.058,2.058,0,0,1,1.051.274l-.177.327a1.511,1.511,0,0,0-.883-.256c-.539,0-.777.2-.777.486,0,.8,1.926.2,1.926,1.343,0,.512-.451.883-1.228.883A1.944,1.944,0,0,1,233.18,201.09Z" transform="translate(-177.029 -197.21)" fill="#091320"/>
        <path id="Trazado_146773" data-name="Trazado 146773" d="M236.3,201.086l.186-.318a1.767,1.767,0,0,0,1.051.336c.565,0,.8-.194.8-.486,0-.769-1.926-.159-1.926-1.334,0-.486.424-.883,1.175-.883a2.014,2.014,0,0,1,1.051.274l-.177.327a1.475,1.475,0,0,0-.883-.256c-.53,0-.769.2-.769.486,0,.8,1.926.2,1.917,1.343,0,.512-.451.883-1.219.883A1.97,1.97,0,0,1,236.3,201.086Z" transform="translate(-177.393 -197.205)" fill="#091320"/>
        <path id="Trazado_146774" data-name="Trazado 146774" d="M240.292,197.951v.353h.883v.336h-.883v2.65h-.362v-2.65h-.53V198.3h.53v-.371a.822.822,0,0,1,.883-.883.883.883,0,0,1,.592.194l-.141.292a.636.636,0,0,0-.433-.141.486.486,0,0,0-.539.557Z" transform="translate(-177.754 -197.047)" fill="#091320"/>
        <path id="Trazado_146775" data-name="Trazado 146775" d="M244.732,198.47v2.968h-.389V200.9a1.184,1.184,0,0,1-1.069.565,1.148,1.148,0,0,1-1.246-1.272V198.47h.4v1.678c0,.636.327.954.883.954a.963.963,0,0,0,1.007-1.078V198.47Z" transform="translate(-178.06 -197.213)" fill="#091320"/>
        <path id="Trazado_146776" data-name="Trazado 146776" d="M246.36,197.09h.406v4.187h-.4Z" transform="translate(-178.566 -197.052)" fill="#091320"/>
      </g>
      <g id="Grupo_88562" data-name="Grupo 88562" transform="translate(40.814 146.693)">
        <path id="Trazado_146777" data-name="Trazado 146777" d="M180.018,186.127H177.88V185.12h5.46v1.007h-2.129v5.424h-1.193Z" transform="translate(-177.88 -184.714)" fill="#6558b8"/>
        <path id="Trazado_146778" data-name="Trazado 146778" d="M189.788,188.693V191.5H188.64v-2.65c0-.883-.433-1.29-1.166-1.29a1.3,1.3,0,0,0-1.369,1.475v2.482H185V184.7h1.148v2.482a2.182,2.182,0,0,1,1.634-.627,1.917,1.917,0,0,1,2.005,2.138Z" transform="translate(-178.71 -184.665)" fill="#6558b8"/>
        <path id="Trazado_146779" data-name="Trazado 146779" d="M196.122,188.865v2.88h-1.078v-.6a1.767,1.767,0,0,1-1.546.663c-1.122,0-1.829-.618-1.829-1.467s.557-1.466,2.041-1.466h1.263V188.8c0-.671-.4-1.069-1.219-1.069a2.376,2.376,0,0,0-1.484.495l-.451-.839a3.419,3.419,0,0,1,2.076-.61C195.31,186.78,196.122,187.451,196.122,188.865Zm-1.148,1.343v-.583H193.79c-.777,0-.989.292-.989.645s.353.68.936.68a1.246,1.246,0,0,0,1.237-.742Z" transform="translate(-179.488 -184.907)" fill="#6558b8"/>
        <path id="Trazado_146780" data-name="Trazado 146780" d="M203.2,188.937v2.809h-1.148V189.1c0-.883-.433-1.29-1.166-1.29a1.308,1.308,0,0,0-1.369,1.475v2.482H198.37v-4.9h1.1v.627a2.129,2.129,0,0,1,1.687-.689,1.917,1.917,0,0,1,2.05,2.138Z" transform="translate(-180.269 -184.909)" fill="#6558b8"/>
        <path id="Trazado_146781" data-name="Trazado 146781" d="M207.492,189.378l-.883.8v1.3H205.46v-6.82h1.148v4.117l2.376-2.2h1.369l-2.05,2.05,2.244,2.853h-1.4Z" transform="translate(-181.095 -184.66)" fill="#6558b8"/>
        <path id="Trazado_146782" data-name="Trazado 146782" d="M219.435,186.85l-2.3,5.3a1.891,1.891,0,0,1-1.891,1.449,1.97,1.97,0,0,1-1.307-.451l.459-.839a1.228,1.228,0,0,0,.839.336c.406,0,.645-.186.883-.68l.079-.186-2.138-4.921h1.193l1.546,3.622,1.555-3.622Z" transform="translate(-182.084 -184.915)" fill="#6558b8"/>
        <path id="Trazado_146783" data-name="Trazado 146783" d="M220.36,189.253a2.65,2.65,0,1,1,2.606,2.518,2.474,2.474,0,0,1-2.606-2.518Zm4.064,0a1.458,1.458,0,1,0-1.458,1.537,1.422,1.422,0,0,0,1.493-1.537Z" transform="translate(-182.832 -184.871)" fill="#6558b8"/>
        <path id="Trazado_146784" data-name="Trazado 146784" d="M232.257,186.85v4.9h-1.1v-.627a1.988,1.988,0,0,1-1.572.689,1.935,1.935,0,0,1-2.111-2.164v-2.8h1.14v2.65c0,.883.424,1.316,1.148,1.316a1.3,1.3,0,0,0,1.343-1.484v-2.474Z" transform="translate(-183.66 -184.915)" fill="#6558b8"/>
        <path id="Trazado_146785" data-name="Trazado 146785" d="M234.35,190.9a.716.716,0,0,1,.751-.707.7.7,0,0,1,.724.707.716.716,0,0,1-.724.716.724.724,0,0,1-.751-.716Zm.071-5.778h1.387l-.265,4.311h-.883Z" transform="translate(-184.463 -184.714)" fill="#6558b8"/>
      </g>
    </g>
    <g id="Grupo_88580" data-name="Grupo 88580" transform="translate(99.2 51.61)">
      <g id="Grupo_88573" data-name="Grupo 88573" transform="translate(62.394)">
        <g id="Grupo_88572" data-name="Grupo 88572">
          <g id="Grupo_88570" data-name="Grupo 88570" transform="translate(6.548 1.177)">
            <g id="Grupo_88569" data-name="Grupo 88569" transform="translate(0 0.749)">
              <g id="Grupo_88564" data-name="Grupo 88564">
                <path id="Trazado_146786" data-name="Trazado 146786" d="M222.435,74.656l-1.767,24.559a7.659,7.659,0,0,1-7.642,7.12h0a7.659,7.659,0,0,1-7.642-8.163c.159-2.332.292-4.249.292-4.249S199.731,93,199.66,87.06c0-3.437.548-11.228,1.06-17.2a7.8,7.8,0,0,1,7.765-7.129h3.6a11,11,0,0,1,10.354,11.926Z" transform="translate(-199.66 -62.73)" fill="#ffbf9d"/>
                <path id="Trazado_146787" data-name="Trazado 146787" d="M206.5,97.7a14.347,14.347,0,0,0,7.739-2.288s-1.908,4.329-7.845,3.79Z" transform="translate(-200.445 -66.54)" fill="#ff9a6c"/>
              </g>
              <g id="Grupo_88567" data-name="Grupo 88567" transform="translate(2.042 8.934)">
                <g id="Grupo_88566" data-name="Grupo 88566" transform="translate(0.153 2.984)">
                  <path id="Trazado_146788" data-name="Trazado 146788" d="M202.158,77.112c.106.115.751-.362,1.661-.362s1.581.459,1.687.345-.062-.247-.353-.459a2.359,2.359,0,0,0-1.352-.415,2.218,2.218,0,0,0-1.316.424C202.2,76.909,202.105,77.059,202.158,77.112Z" transform="translate(-202.144 -76.22)" fill="#091320"/>
                  <g id="Grupo_88565" data-name="Grupo 88565" transform="translate(0.005 0.124)">
                    <path id="Trazado_146789" data-name="Trazado 146789" d="M211.38,80a.883.883,0,0,0,.813.883.8.8,0,0,0,.883-.769.883.883,0,0,0-.813-.883.8.8,0,0,0-.883.769Z" transform="translate(-203.226 -76.694)" fill="#091320"/>
                    <path id="Trazado_146790" data-name="Trazado 146790" d="M202.15,80a.883.883,0,0,0,.813.883.813.813,0,0,0,.883-.769.883.883,0,0,0-.813-.883.8.8,0,0,0-.883.769Z" transform="translate(-202.15 -76.694)" fill="#091320"/>
                    <path id="Trazado_146791" data-name="Trazado 146791" d="M212.148,77.252c.106.106.742-.362,1.661-.362s1.581.459,1.679.345-.053-.247-.353-.459a2.306,2.306,0,0,0-1.343-.415,2.244,2.244,0,0,0-1.325.424C212.192,77,212.1,77.2,212.148,77.252Z" transform="translate(-203.314 -76.36)" fill="#091320"/>
                  </g>
                  <path id="Trazado_146792" data-name="Trazado 146792" d="M208.165,84.407a6,6,0,0,0-1.484-.265c-.239,0-.459-.071-.495-.23a1.184,1.184,0,0,1,.159-.689c.221-.565.442-1.157.689-1.767a30.619,30.619,0,0,0,1.546-4.647,30.441,30.441,0,0,0-1.917,4.505L206,83.082a1.36,1.36,0,0,0-.124.883.6.6,0,0,0,.389.345,1.767,1.767,0,0,0,.4.053A5.654,5.654,0,0,0,208.165,84.407Z" transform="translate(-202.576 -76.289)" fill="#091320"/>
                  <path id="Trazado_146793" data-name="Trazado 146793" d="M211.126,86.13c-.15,0-.15.981-1,1.687s-1.9.592-1.908.733.23.194.68.2a2.421,2.421,0,0,0,1.59-.557,2.147,2.147,0,0,0,.777-1.413C211.3,86.368,211.2,86.121,211.126,86.13Z" transform="translate(-202.853 -77.375)" fill="#091320"/>
                </g>
                <path id="Trazado_146794" data-name="Trazado 146794" d="M212.209,73.529c.088.247,1.007.133,2.076.256s1.935.424,2.076.2-.079-.345-.433-.583a3.481,3.481,0,0,0-1.546-.539,3.445,3.445,0,0,0-1.617.194C212.368,73.22,212.174,73.415,212.209,73.529Z" transform="translate(-203.164 -72.842)" fill="#091320"/>
                <path id="Trazado_146795" data-name="Trazado 146795" d="M202,73.987c.159.2.786,0,1.546,0s1.4.141,1.546-.08,0-.309-.318-.512a2.12,2.12,0,0,0-1.254-.336,2.164,2.164,0,0,0-1.237.415C202,73.669,201.926,73.89,202,73.987Z" transform="translate(-201.971 -72.867)" fill="#091320"/>
              </g>
              <g id="Grupo_88568" data-name="Grupo 88568" transform="translate(20.54 16.219)">
                <path id="Trazado_146796" data-name="Trazado 146796" d="M223.14,81.258c.106,0,4.081-1.21,3.958,2.853s-4.187,3.1-4.187,2.986S223.14,81.258,223.14,81.258Z" transform="translate(-222.91 -81.089)" fill="#ffbf9d"/>
                <path id="Trazado_146797" data-name="Trazado 146797" d="M224.369,85.764a1.12,1.12,0,0,0,.186.106.7.7,0,0,0,.53,0,1.767,1.767,0,0,0,.883-1.546,2.4,2.4,0,0,0-.159-1.025.8.8,0,0,0-.521-.557.353.353,0,0,0-.424.177c-.053.115,0,.194-.053.2s-.088-.071-.044-.239a.433.433,0,0,1,.168-.247.521.521,0,0,1,.389-.1,1.007,1.007,0,0,1,.724.654,2.394,2.394,0,0,1,.2,1.14,1.82,1.82,0,0,1-1.087,1.767.76.76,0,0,1-.645-.124C224.369,85.861,224.352,85.773,224.369,85.764Z" transform="translate(-223.079 -81.257)" fill="#ff9a6c"/>
              </g>
            </g>
            <path id="Trazado_146798" data-name="Trazado 146798" d="M223.261,78.886a2.111,2.111,0,0,0-1.952,1c-.265.583-.327,1.237-.592,1.82a1.44,1.44,0,0,1-1.475.963,1.254,1.254,0,0,1-.883-.883,3.472,3.472,0,0,1,0-1.316c.247-1.9.645-3.781.716-5.689a9.806,9.806,0,0,0-1.193-5.53,5.362,5.362,0,0,0-4.762-2.65c-1.254.1-2.421.76-3.675.936a4.991,4.991,0,0,1-4.126-1.378c-.132-.133-.769-.557-.769-.557a2.341,2.341,0,0,1,.433-1.254c2.482-2.306,6.97-2.942,10.257-2.12a11.882,11.882,0,0,1,7.792,6.237c1.413,3.074.989,7.368.212,10.486" transform="translate(-200.23 -61.882)" fill="#091320"/>
          </g>
          <path id="Trazado_146799" data-name="Trazado 146799" d="M200.084,69.259a3.861,3.861,0,0,0,3.233,2.129,10.548,10.548,0,0,0,3.967-.574,30.407,30.407,0,0,1,6.1-.883c.2,0,.442,0,.548-.168s-.079-.495-.292-.663c-1.767-1.387-6.051-2.244-8.3-2.332a6.6,6.6,0,0,0-5.831,2.765" transform="translate(-193.094 -61.273)" fill="#091320"/>
          <path id="Trazado_146800" data-name="Trazado 146800" d="M200.82,68.7a7.633,7.633,0,0,1,4.417-2.005,17.988,17.988,0,0,1,18,10,20.485,20.485,0,0,0,.883-4.709c0-1.21-.724-8.41-8.128-10.672C216.041,61.31,204.884,57.052,200.82,68.7Z" transform="translate(-193.247 -60.55)" fill="#6558b8"/>
          <g id="Grupo_88571" data-name="Grupo 88571" transform="translate(7.573)" opacity="0.4">
            <path id="Trazado_146801" data-name="Trazado 146801" d="M200.82,68.7a7.262,7.262,0,0,1,4.965-2.253c4.594-.2,13.251,1.9,17.465,10.248a20.486,20.486,0,0,0,.883-4.709c0-1.21-.724-8.41-8.128-10.672C216.041,61.31,204.884,57.052,200.82,68.7Z" transform="translate(-200.82 -60.55)"/>
          </g>
          <path id="Trazado_146802" data-name="Trazado 146802" d="M221.553,75.473c-2.217-3.737-5.539-6.308-9.126-8.543a57.325,57.325,0,0,0-13.6-5.539,8.94,8.94,0,0,0-3.755-.4,3.41,3.41,0,0,0-2.792,2.279c-.389,1.546,2.35,3.922,3.631,4.859a43.8,43.8,0,0,0,3.9,2.3s0-2.862,4.541-3.445C210.581,66.2,221.747,75.632,221.553,75.473Z" transform="translate(-192.248 -60.596)" fill="#6558b8"/>
        </g>
        <path id="Trazado_146803" data-name="Trazado 146803" d="M214.868,64.46a21.67,21.67,0,0,0-4.161-1.643,22.228,22.228,0,0,0-4.417-.451,4.417,4.417,0,0,1,1.325-.177,12.156,12.156,0,0,1,3.207.327,12,12,0,0,1,2.995,1.175,4.179,4.179,0,0,1,1.051.769Z" transform="translate(-193.885 -60.74)" fill="#fff"/>
      </g>
      <path id="Trazado_146804" data-name="Trazado 146804" d="M241.8,174.39c0,.088-15.195.159-33.941.159s-33.959-.071-33.959-.159,15.2-.15,33.959-.15S241.8,174.3,241.8,174.39Z" transform="translate(-127.714 -73.803)" fill="#091320"/>
      <g id="Grupo_88579" data-name="Grupo 88579" transform="translate(0 35.134)">
        <g id="Grupo_88576" data-name="Grupo 88576" transform="translate(0 4.196)">
          <path id="Trazado_146805" data-name="Trazado 146805" d="M175.971,118.483l-8.746,3.949L153.664,111.38l-4.134,6.537s7.721,8.94,10.6,11.97,4.771,4.656,7.067,4.373,15.133-6.361,15.133-6.361S179.249,118.863,175.971,118.483Z" transform="translate(-124.874 -105.806)" fill="#ffbf9d"/>
          <g id="Grupo_88575" data-name="Grupo 88575">
            <g id="Grupo_88574" data-name="Grupo 88574" transform="translate(11.594)">
              <path id="Trazado_146806" data-name="Trazado 146806" d="M137.081,105.07s1.705,1.272,2.818,1.193,5.3-.1,5.654-.08,4.417,2.262,4.417,2.262l3.021,2.906-4.735,6.573s-.777-.883-1.316-.83a60.3,60.3,0,0,1-8.013-.822c-.981-.327-2.226-.521-2.553-1.131s-.406-1.025.495-1.767a1.475,1.475,0,0,1-.327-2.076s-1.36-.989-.883-1.908c0,0-.769-.318-.883-.8a5.23,5.23,0,0,1,.053-1.519l1.944-.61A.941.941,0,0,1,137.081,105.07Z" transform="translate(-134.744 -105.07)" fill="#ffbf9d"/>
              <path id="Trazado_146807" data-name="Trazado 146807" d="M136.431,106.72a.641.641,0,0,0,.256-.08,2.527,2.527,0,0,1,.724-.15,1.767,1.767,0,0,1,1.051.406,1.228,1.228,0,0,1,.406,1.334.972.972,0,0,1-.53.574,3.532,3.532,0,0,1-.636.177l-1.042.221a2.889,2.889,0,0,1-.981.115,3.534,3.534,0,0,1,.883-.327l1.034-.283c.389-.1.822-.194.936-.574a.963.963,0,0,0-.3-1.016,1.67,1.67,0,0,0-.883-.406,4.956,4.956,0,0,0-.7.044C136.528,106.764,136.431,106.746,136.431,106.72Z" transform="translate(-134.853 -105.236)" fill="#ff9a6c"/>
              <path id="Trazado_146808" data-name="Trazado 146808" d="M139,108.644a1.52,1.52,0,0,1,.451-.124,6.82,6.82,0,0,1,1.281-.141,3.269,3.269,0,0,1,1.873.477,1.626,1.626,0,0,1,.716.972,1.14,1.14,0,0,1-.486,1.21,3.083,3.083,0,0,1-1.237.247l-1.113.088-1.882.133a9.568,9.568,0,0,1-1.767,0,11.431,11.431,0,0,1,1.767-.256l1.882-.194,1.1-.106a2.933,2.933,0,0,0,1.1-.221.8.8,0,0,0,.345-.883,1.307,1.307,0,0,0-.574-.8,3.286,3.286,0,0,0-1.714-.5C139.676,108.574,139,108.706,139,108.644Z" transform="translate(-134.988 -105.455)" fill="#ff9a6c"/>
              <path id="Trazado_146809" data-name="Trazado 146809" d="M143.08,111.38s.124,0,.247.177a.989.989,0,0,1,.115.883,1.449,1.449,0,0,1-.883.883,4.771,4.771,0,0,1-1.475.2c-2.041.088-3.666.495-3.684.406a10.027,10.027,0,0,1,3.666-.716,5.468,5.468,0,0,0,1.4-.159,1.219,1.219,0,0,0,.8-.663.883.883,0,0,0,0-.707C143.151,111.46,143.063,111.4,143.08,111.38Z" transform="translate(-135.053 -105.806)" fill="#ff9a6c"/>
              <path id="Trazado_146810" data-name="Trazado 146810" d="M150.673,112.565a2.182,2.182,0,0,1-.883.336,6.325,6.325,0,0,1-2.226.1,6.184,6.184,0,0,1-2.111-.68c-.495-.274-.76-.512-.742-.548a12.614,12.614,0,0,0,2.9.883A12.465,12.465,0,0,0,150.673,112.565Z" transform="translate(-135.905 -105.851)" fill="#ff9a6c"/>
              <path id="Trazado_146811" data-name="Trazado 146811" d="M143.8,109.209c0-.08.459.071.981,0s.883-.292.954-.221-.3.459-.883.521S143.747,109.271,143.8,109.209Z" transform="translate(-135.799 -105.525)" fill="#ff9a6c"/>
              <path id="Trazado_146812" data-name="Trazado 146812" d="M143.27,116.261a3,3,0,0,1,2.588-2.421,13.16,13.16,0,0,0-1.484,1.016A11.865,11.865,0,0,0,143.27,116.261Z" transform="translate(-135.737 -106.092)" fill="#ff9a6c"/>
            </g>
            <path id="Trazado_146813" data-name="Trazado 146813" d="M126.656,135.91h25.8l4.779,37.722H121.62Z" transform="translate(-121.62 -108.665)" fill="#6558b8"/>
            <path id="Trazado_146814" data-name="Trazado 146814" d="M156.52,135.91H159.5l8.8,37.722h-7Z" transform="translate(-125.688 -108.665)" fill="#6558b8"/>
            <path id="Trazado_146815" data-name="Trazado 146815" d="M156.52,135.91H159.5l8.8,37.722h-7Z" transform="translate(-125.688 -108.665)" opacity="0.3"/>
          </g>
          <path id="Trazado_146816" data-name="Trazado 146816" d="M139.956,113.71h.212a.8.8,0,0,1,.451.353.972.972,0,0,1,.079.883,1.484,1.484,0,0,1-.7.76,2.88,2.88,0,0,1-1.307.256l.115-.08c-.345.654-.742.936-.777.883s.274-.389.539-1.007v-.071h.079a3.127,3.127,0,0,0,1.184-.265,1.281,1.281,0,0,0,.574-.592.742.742,0,0,0,0-.645C140.256,113.79,139.947,113.754,139.956,113.71Z" transform="translate(-123.533 -106.077)" fill="#ff9a6c"/>
          <path id="Trazado_146817" data-name="Trazado 146817" d="M134.74,135.257a4.108,4.108,0,0,1,.053-.769c.062-.495.159-1.2.3-2.067.283-1.767.751-4.126,1.307-6.758s1.069-5.009,1.4-6.732l.389-2.05a3.965,3.965,0,0,1,.177-.742,4.054,4.054,0,0,1-.053.76c-.062.495-.159,1.2-.3,2.067-.283,1.767-.751,4.134-1.307,6.758s-1.06,5.009-1.4,6.732l-.4,2.05a4.531,4.531,0,0,1-.177.751Z" transform="translate(-123.149 -106.36)" fill="#6558b8"/>
          <path id="Trazado_146818" data-name="Trazado 146818" d="M149.388,135.233a4.833,4.833,0,0,1-.283-.883c-.177-.618-.4-1.422-.671-2.394-.548-2.023-1.29-4.824-2.085-7.951s-1.5-5.91-2-7.951c-.23-.981-.424-1.767-.574-2.421a6.409,6.409,0,0,1-.168-.883,4.833,4.833,0,0,1,.283.883c.177.618.4,1.422.671,2.394.548,2.023,1.29,4.824,2.085,7.951s1.5,5.91,2,7.951c.23.981.424,1.767.574,2.421A5.061,5.061,0,0,1,149.388,135.233Z" transform="translate(-124.183 -105.965)" fill="#6558b8"/>
          <path id="Trazado_146819" data-name="Trazado 146819" d="M168.928,178.1a7.809,7.809,0,0,1-1.237-.883c-.742-.565-1.767-1.36-2.862-2.262l-.557-.459h.221c-.689,1.042-1.316,1.961-1.767,2.65a5.752,5.752,0,0,1-.786,1.016,5.76,5.76,0,0,1,.618-1.122c.415-.68,1.007-1.617,1.7-2.65l.088-.15.133.115.557.451c1.1.883,2.094,1.767,2.8,2.332A7.066,7.066,0,0,1,168.928,178.1Z" transform="translate(-126.32 -113.133)" fill="#091320"/>
          <path id="Trazado_146820" data-name="Trazado 146820" d="M158.289,135.91c.088,0,1.422,7.589,2.977,16.979s2.765,17.015,2.65,17.033-1.422-7.589-2.977-16.979S158.2,135.928,158.289,135.91Z" transform="translate(-125.894 -108.665)" fill="#091320"/>
          <path id="Trazado_146821" data-name="Trazado 146821" d="M154.294,147.3a5.558,5.558,0,0,1-.6.574,10.708,10.708,0,0,1-1.97,1.334,11.688,11.688,0,0,1-3.534,1.228,10.6,10.6,0,0,1-4.965-.292,6.184,6.184,0,0,1-2.491-1.519,4.673,4.673,0,0,1-1.36-2.853,3.7,3.7,0,0,1,1.281-3.1,3.013,3.013,0,0,1,1.679-.7,3.454,3.454,0,0,1,1.82.38,4.355,4.355,0,0,1,1.458,1.21,5.115,5.115,0,0,1,.83,1.767,8.569,8.569,0,0,1,0,3.931,13.251,13.251,0,0,1-4.046,7.067,12.2,12.2,0,0,1-3.534,2.27,8.834,8.834,0,0,1-4.02.689,6.873,6.873,0,0,1-3.71-1.387,5.248,5.248,0,0,1-1.961-3.216,4.877,4.877,0,0,1,.689-3.534,3.331,3.331,0,0,1,2.942-1.59,2.2,2.2,0,0,1,1.458.786,3.136,3.136,0,0,1,.654,1.44,5.15,5.15,0,0,1-.336,2.9,7.748,7.748,0,0,1-3.313,3.684,11.616,11.616,0,0,1-3.534,1.281,18.886,18.886,0,0,1-2.359.3h-.83a.814.814,0,0,1,.212,0l.61-.053a20.908,20.908,0,0,0,2.341-.353,11.617,11.617,0,0,0,3.481-1.316,7.606,7.606,0,0,0,3.189-3.613,4.982,4.982,0,0,0,.309-2.774,2.907,2.907,0,0,0-.618-1.325,1.908,1.908,0,0,0-1.29-.689,3.057,3.057,0,0,0-2.65,1.484,4.611,4.611,0,0,0-.636,3.313,4.9,4.9,0,0,0,1.864,3.021,6.458,6.458,0,0,0,3.534,1.352,10.036,10.036,0,0,0,7.315-2.88,13.03,13.03,0,0,0,3.967-6.935,8.49,8.49,0,0,0,0-3.8,4.744,4.744,0,0,0-.777-1.652,4.073,4.073,0,0,0-1.36-1.131,3.092,3.092,0,0,0-1.67-.353,2.6,2.6,0,0,0-1.511.636,3.437,3.437,0,0,0-1.2,2.871,4.488,4.488,0,0,0,1.272,2.7,5.892,5.892,0,0,0,2.394,1.475,10.266,10.266,0,0,0,4.868.327,11.811,11.811,0,0,0,5.513-2.438c.221-.159.371-.3.477-.389Z" transform="translate(-121.96 -109.371)" fill="#fff"/>
        </g>
        <g id="Grupo_88577" data-name="Grupo 88577" transform="translate(50.612)">
          <path id="Trazado_146822" data-name="Trazado 146822" d="M197.135,106.34h-4.656c-1.493.53-13.569,10.8-13.569,10.8l6.829,10.725,8.834-5.177Z" transform="translate(-178.91 -101.022)" fill="#a2a7c5"/>
          <path id="Trazado_146823" data-name="Trazado 146823" d="M193.383,105.638l10.274-3.9s1.5,3.145,6.078,2.474,9.965-3.9,9.965-3.9,7.871,4.5,10.2,6.37-1.882,41.159-1.882,41.159l-1.042,11.776s.822.6.822,2.65.071,3.375.071,3.375H187.181s-.989-4.726-.239-6.6a24.286,24.286,0,0,1,1.979-3.755l.689-18.154.221-16.2Z" transform="translate(-179.814 -100.32)" fill="#a2a7c5"/>
          <path id="Trazado_146824" data-name="Trazado 146824" d="M233.857,107.53s3.278.883,4.249,5.8.8,23.464.8,23.464l-18.34-3.967s2.482-7.81,2.482-8.34,5.053-13.1,5.23-13.366S233.857,107.53,233.857,107.53Z" transform="translate(-183.766 -101.16)" fill="#a2a7c5"/>
          <path id="Trazado_146825" data-name="Trazado 146825" d="M189.84,115c.088,0,.2,3.251.265,7.262s0,7.262-.053,7.262-.2-3.251-.256-7.262S189.752,115,189.84,115Z" transform="translate(-180.175 -102.031)" fill="#091320"/>
        </g>
        <path id="Trazado_146826" data-name="Trazado 146826" d="M225.449,117a2.068,2.068,0,0,1-.071.645c-.062.415-.168,1.007-.309,1.767-.292,1.458-.733,3.472-1.316,5.672s-1.175,4.17-1.643,5.583c-.239.707-.433,1.281-.583,1.67a2.931,2.931,0,0,1-.256.592,2.1,2.1,0,0,1,.141-.627c.132-.468.292-1.034.486-1.7.415-1.431.981-3.4,1.564-5.6s1.051-4.187,1.4-5.636c.159-.671.292-1.246.406-1.714a2.856,2.856,0,0,1,.186-.654Z" transform="translate(-133.236 -102.264)" fill="#091320"/>
        <path id="Trazado_146827" data-name="Trazado 146827" d="M223.938,116.53a21.627,21.627,0,0,1-.044,3.737,23.7,23.7,0,0,1-.345,3.728,21.741,21.741,0,0,1,0-3.746,23.5,23.5,0,0,1,.389-3.719Z" transform="translate(-133.493 -102.21)" fill="#091320"/>
        <path id="Trazado_146828" data-name="Trazado 146828" d="M217.821,123.456a51.642,51.642,0,0,1-7.871,0,48.784,48.784,0,0,1,7.871,0Z" transform="translate(-131.917 -102.996)" fill="#fff"/>
        <g id="Grupo_88578" data-name="Grupo 88578" transform="translate(44.362 31.865)">
          <path id="Trazado_146829" data-name="Trazado 146829" d="M194.829,151.673l20.319-2.438,3.2-12.845,11.352,2.465s-4.488,17.828-9.117,19.55S193,157.248,193,157.248Z" transform="translate(-174.303 -136.39)" fill="#ffbf9d"/>
          <path id="Trazado_146830" data-name="Trazado 146830" d="M191.54,153.373a24.1,24.1,0,0,0-3.384-1.148c-.936-.133-2.05.071-2.332.521l-5.468,3.18s-4.046-.389-4.417.521c0,0-2.58-.733-2.995-.212,0,0-1.29.415-1.087,1.016s4.885,2.226,4.885,2.226l6.414.663a15.646,15.646,0,0,1,3.454-1.431,18.215,18.215,0,0,1,2.906.23c-.08,0,3.746.433,3.746.433a6.025,6.025,0,0,0,1.1-3.136c.309-2.3,0-2.792,0-2.792Z" transform="translate(-171.835 -138.231)" fill="#ffbf9d"/>
          <path id="Trazado_146831" data-name="Trazado 146831" d="M190.642,156.283a.779.779,0,0,1-.4-.15c-.221-.15-.424-.548-.777-.786a2.084,2.084,0,0,0-.707-.212,1.67,1.67,0,0,1-.883-.389,1.564,1.564,0,0,1-.468-.963,1.352,1.352,0,0,1,.345-1.1,2.217,2.217,0,0,1,2.041-.565,3.534,3.534,0,0,1,1.528.786,6.183,6.183,0,0,1,.8.8c.177.2.265.327.247.336s-.442-.4-1.184-.972a3.6,3.6,0,0,0-1.458-.671,1.97,1.97,0,0,0-1.767.486,1.246,1.246,0,0,0,.106,1.652c.389.406,1.06.292,1.5.618a6.246,6.246,0,0,1,.733.883C190.5,156.23,190.651,156.257,190.642,156.283Z" transform="translate(-173.649 -138.217)" fill="#ff9a6c"/>
          <path id="Trazado_146832" data-name="Trazado 146832" d="M186.549,155.631a3.946,3.946,0,0,0-.742.23,11.582,11.582,0,0,1-1.767.83,4.991,4.991,0,0,1-1.952-.15,7.071,7.071,0,0,1-.777-.115,1.3,1.3,0,0,1,.8-.106,6.59,6.59,0,0,0,1.855.071c.68-.177,1.254-.6,1.767-.733A1.087,1.087,0,0,1,186.549,155.631Z" transform="translate(-172.94 -138.625)" fill="#ff9a6c"/>
          <path id="Trazado_146833" data-name="Trazado 146833" d="M186.075,158.37a1.607,1.607,0,0,1-.371.247,5.593,5.593,0,0,1-1.122.424,10.769,10.769,0,0,1-3.94.23c-.769-.1-1.493-.212-2.147-.309a6.82,6.82,0,0,1-1.767-.389,1.131,1.131,0,0,1-.53-.5.883.883,0,0,1-.071-.548c.062-.309.256-.38.256-.362a.652.652,0,0,0-.141.38.883.883,0,0,0,.574.83,7.791,7.791,0,0,0,1.7.309l2.138.283a12.156,12.156,0,0,0,3.861-.133C185.5,158.617,186.049,158.326,186.075,158.37Z" transform="translate(-172.334 -138.811)" fill="#ff9a6c"/>
          <path id="Trazado_146834" data-name="Trazado 146834" d="M221.43,156.19a22.084,22.084,0,0,0-1.316-2.535,21.96,21.96,0,0,0-1.864-2.164,6.59,6.59,0,0,1,3.18,4.7Z" transform="translate(-177.246 -138.15)" fill="#ff9a6c"/>
        </g>
      </g>
    </g>
    <g id="Grupo_88600" data-name="Grupo 88600" transform="translate(4.399 49.439)">
      <g id="Grupo_88582" data-name="Grupo 88582" transform="translate(31.273 151.118)">
        <path id="Trazado_146835" data-name="Trazado 146835" d="M50.487,235.361l-.777,39.631,9.594,1.034,6.6-40.355-5.186-6.52Z" transform="translate(-49.71 -229.15)" fill="#ffbf9d"/>
        <g id="Grupo_88581" data-name="Grupo 88581" transform="translate(0 44.569)">
          <path id="Trazado_146836" data-name="Trazado 146836" d="M60.489,279.953v.645s10.919,4.532,11.016,6.617l-21.785-.362V279.6a13.463,13.463,0,0,0,10.769.353Z" transform="translate(-49.711 -279.6)" fill="#6558b8"/>
          <path id="Trazado_146837" data-name="Trazado 146837" d="M49.71,287.567l.1-1.767,20.849,1.06s.963.433.883,1.113Z" transform="translate(-49.71 -280.323)" fill="#091320"/>
        </g>
      </g>
      <g id="Grupo_88588" data-name="Grupo 88588" transform="translate(16.97)">
        <g id="Grupo_88587" data-name="Grupo 88587">
          <path id="Trazado_146838" data-name="Trazado 146838" d="M44.625,98.533A4.771,4.771,0,0,0,41.63,94.31l-2.014,1.148a4.859,4.859,0,0,0-2.421,5.884,5.733,5.733,0,0,0-1.838,7.862,3.842,3.842,0,0,0-1.838,3.631c.018,1.44.486,2.836.618,4.267.1,1.1,0,2.226.2,3.313a3.366,3.366,0,0,0,1.82,2.65,2.942,2.942,0,0,0,3.163-.883A6.069,6.069,0,0,0,40.658,119c.539-3.313-.168-6.785.671-10.036a33.3,33.3,0,0,1,2.094-5.071A10.9,10.9,0,0,0,44.625,98.533Z" transform="translate(-33.52 -62.314)" fill="#091320"/>
          <g id="Grupo_88586" data-name="Grupo 88586" transform="translate(3.777)">
            <path id="Trazado_146839" data-name="Trazado 146839" d="M44.16,97.427a6.4,6.4,0,0,1-5.354-9.859,1.7,1.7,0,0,1,.733-.7c.671-.274,1.378.283,1.9.786l3.755,3.657" transform="translate(-37.795 -61.438)" fill="#091320"/>
            <path id="Trazado_146840" data-name="Trazado 146840" d="M44.305,90.747a12.086,12.086,0,0,1-5.857-7.509c-.822-3.012.124-9.108.936-12.121.989-3.666,2.509,1.051,3.755,1.431a2.456,2.456,0,0,1,1.493,1.679,7.271,7.271,0,0,1,.168,2.315q-.247,7.067-.495,14.206" transform="translate(-37.834 -59.449)" fill="#091320"/>
            <path id="Trazado_146841" data-name="Trazado 146841" d="M52.892,59.479c4.718-2.535,8.5-1.042,10.336.4a11.485,11.485,0,0,1,3.631,5.866c.671,2.244.972,4.576,1.52,6.847a27.589,27.589,0,0,1,.724,3.975c.274,1.944.186,5.415-.813,7.067a11.573,11.573,0,0,1-3.534,4.117,2.341,2.341,0,0,1-1.882.557,2.306,2.306,0,0,1-1.078-.981A91.046,91.046,0,0,1,49.88,63.472" transform="translate(-39.204 -58.094)" fill="#091320"/>
            <g id="Grupo_88585" data-name="Grupo 88585" transform="translate(2.282 0.785)">
              <path id="Trazado_146842" data-name="Trazado 146842" d="M47.053,65.386,55.225,62.1l2.138.239c4.815,0,8.163,5.3,8.207,9.179.053,4.329,0,9.621-.716,12.819-1.352,6.423-6.361,7-6.361,7s.062,1.767.106,3.9a6.794,6.794,0,0,1-6.935,6.961h0a6.8,6.8,0,0,1-6.679-6.776L44.88,67.595a2.288,2.288,0,0,1,2.173-2.209Z" transform="translate(-40.903 -59.345)" fill="#ffbf9d"/>
              <g id="Grupo_88583" data-name="Grupo 88583" transform="translate(9.03 10.508)">
                <path id="Trazado_146843" data-name="Trazado 146843" d="M65.715,77.506a.83.83,0,0,1-.883.8.8.8,0,0,1-.822-.8.83.83,0,0,1,.883-.8.8.8,0,0,1,.822.786Z" transform="translate(-52.163 -71.556)" fill="#091320"/>
                <path id="Trazado_146844" data-name="Trazado 146844" d="M65.935,75.134c-.106.106-.716-.389-1.608-.433s-1.573.371-1.661.256.071-.239.362-.433a2.315,2.315,0,0,1,1.343-.345,2.253,2.253,0,0,1,1.272.486C65.909,74.9,65.988,75.09,65.935,75.134Z" transform="translate(-52.004 -71.26)" fill="#091320"/>
                <path id="Trazado_146845" data-name="Trazado 146845" d="M60.185,82.2a5.972,5.972,0,0,1,1.466-.159c.23,0,.451,0,.495-.2a1.166,1.166,0,0,0-.124-.68L61.44,79.39a30.531,30.531,0,0,1-1.29-4.62,29.064,29.064,0,0,1,1.634,4.47l.557,1.767a1.343,1.343,0,0,1,.071.883.539.539,0,0,1-.389.309,1.246,1.246,0,0,1-.389,0,5.477,5.477,0,0,1-1.449,0Z" transform="translate(-51.713 -71.329)" fill="#091320"/>
                <path id="Trazado_146846" data-name="Trazado 146846" d="M59.16,94.827A16.52,16.52,0,0,1,50.6,92.08s2.12,4.6,8.6,4.346Z" transform="translate(-50.6 -73.347)" fill="#ff9a6c"/>
                <path id="Trazado_146847" data-name="Trazado 146847" d="M59.193,85.27a1.661,1.661,0,0,0-1.44-.76,1.281,1.281,0,0,0-1.051.5,1.131,1.131,0,0,0-.071,1.21,1.175,1.175,0,0,0,1.193.486A2.854,2.854,0,0,0,59,86.065a.883.883,0,0,0,.265-.274.716.716,0,0,0-.071-.521Z" transform="translate(-51.286 -72.465)" fill="#ff9a6c"/>
                <path id="Trazado_146848" data-name="Trazado 146848" d="M57.159,83.73c.141,0,.1.972.883,1.705s1.838.671,1.838.8-.239.177-.68.168a2.394,2.394,0,0,1-1.528-.618A2.094,2.094,0,0,1,57,84.366C57,83.968,57.088,83.721,57.159,83.73Z" transform="translate(-51.346 -72.374)" fill="#091320"/>
                <path id="Trazado_146849" data-name="Trazado 146849" d="M65.816,72.306c-.168.194-.769-.053-1.511-.1s-1.369.071-1.5-.15,0-.309.327-.486a2.173,2.173,0,0,1,1.254-.274,2.12,2.12,0,0,1,1.184.477C65.816,72,65.9,72.209,65.816,72.306Z" transform="translate(-52.017 -70.924)" fill="#091320"/>
                <path id="Trazado_146850" data-name="Trazado 146850" d="M54.76,77.461a.883.883,0,0,0,.8.883.8.8,0,0,0,.883-.742.83.83,0,0,0-.786-.883.8.8,0,0,0-.892.742Z" transform="translate(-51.085 -71.556)" fill="#091320"/>
                <path id="Trazado_146851" data-name="Trazado 146851" d="M52.868,75.037c.1.106.733-.353,1.634-.336s1.546.468,1.643.362-.053-.247-.336-.459a2.262,2.262,0,0,0-1.316-.424,2.156,2.156,0,0,0-1.3.4C52.912,74.789,52.815,74.984,52.868,75.037Z" transform="translate(-50.863 -71.26)" fill="#091320"/>
                <path id="Trazado_146852" data-name="Trazado 146852" d="M53.307,71.807c.159.212.777,0,1.52,0s1.36.15,1.511-.062,0-.309-.3-.5a2.226,2.226,0,0,0-2.447,0C53.325,71.507,53.236,71.71,53.307,71.807Z" transform="translate(-50.913 -70.875)" fill="#091320"/>
              </g>
              <path id="Trazado_146853" data-name="Trazado 146853" d="M54.142,61.258a7.951,7.951,0,0,0-7.006.8,9.17,9.17,0,0,0-3.3,5.654,20,20,0,0,0,.716,7.6c3.357-4.311,6.8-9.294,10.036-13.693Z" transform="translate(-40.765 -59.191)" fill="#091320"/>
              <path id="Trazado_146854" data-name="Trazado 146854" d="M57.137,59.086c11.343-1.6,10.318,15.566,10.318,15.566h0c-1.14-6.325-9.939-12.942-9.939-12.942l-1.767-.3Z" transform="translate(-42.17 -58.981)" fill="#091320"/>
              <g id="Grupo_88584" data-name="Grupo 88584" transform="translate(0 17.327)">
                <path id="Trazado_146855" data-name="Trazado 146855" d="M45.08,80.463c0-.486-.477-1.652-.954-1.767-1.254-.256-3.534-.274-3.737,2.959-.256,4.417,4.232,3.755,4.249,3.622S45,82.124,45.08,80.463Z" transform="translate(-40.378 -78.594)" fill="#ffbf9d"/>
                <path id="Trazado_146856" data-name="Trazado 146856" d="M44.182,83.742a2.04,2.04,0,0,1-.212.1.76.76,0,0,1-.574,0,1.926,1.926,0,0,1-.786-1.767,2.6,2.6,0,0,1,.3-1.1.883.883,0,0,1,.61-.565.4.4,0,0,1,.442.239.267.267,0,0,1,0,.221c0,.009.1-.062.071-.247a.512.512,0,0,0-.159-.292.592.592,0,0,0-.415-.133,1.078,1.078,0,0,0-.883.636,2.721,2.721,0,0,0-.336,1.219,2.005,2.005,0,0,0,1.016,1.97.813.813,0,0,0,.707-.08C44.173,83.848,44.2,83.751,44.182,83.742Z" transform="translate(-40.594 -78.781)" fill="#ff9a6c"/>
              </g>
            </g>
            <path id="Trazado_146857" data-name="Trazado 146857" d="M39.708,67.516a15.9,15.9,0,0,1,6.069-7.359,10.734,10.734,0,0,1,4.735-2.005,5.424,5.424,0,0,1,4.735,1.626l.318.327c-1.952,4.32-3.331,7.951-5.839,12.015-.883,1.475-1.325,6.52-1.546,8.242-.76,5.91-3.993,8.437-3.993,8.437C37.208,88.772,38.577,70.538,39.708,67.516Z" transform="translate(-37.911 -58.092)" fill="#091320"/>
          </g>
          <path id="Trazado_146858" data-name="Trazado 146858" d="M43.172,91.424a1.944,1.944,0,0,1-.883-.283,5.725,5.725,0,0,1-1.767-1.325,5.963,5.963,0,0,1-1.157-1.873,1.97,1.97,0,0,1-.194-.883,11.193,11.193,0,0,0,1.617,2.6A10.919,10.919,0,0,0,43.172,91.424Z" transform="translate(-34.178 -61.469)" fill="#375a64"/>
          <path id="Trazado_146859" data-name="Trazado 146859" d="M42.356,98.235a2.65,2.65,0,0,1-1.829-.671A2.712,2.712,0,0,1,39.37,96a16.907,16.907,0,0,0,1.343,1.316A16.4,16.4,0,0,0,42.356,98.235Z" transform="translate(-34.202 -62.511)" fill="#375a64"/>
          <path id="Trazado_146860" data-name="Trazado 146860" d="M39.206,104.383c-.071.053-.468-.4-.883-1s-.724-1.122-.654-1.175.477.4.883,1S39.277,104.33,39.206,104.383Z" transform="translate(-34.002 -63.234)" fill="#375a64"/>
          <path id="Trazado_146861" data-name="Trazado 146861" d="M36.685,112.054c-.071.062-.38-.194-.7-.557s-.53-.707-.468-.769.38.194.7.565S36.747,112,36.685,112.054Z" transform="translate(-33.751 -64.227)" fill="#375a64"/>
        </g>
        <path id="Trazado_146862" data-name="Trazado 146862" d="M38.36,77.673a5.785,5.785,0,0,1,.883-.486c.274-.15.61-.327.981-.565s.813-.468,1.272-.786a30.6,30.6,0,0,0,6.467-5.707,32.3,32.3,0,0,0,2.792-3.852,29.506,29.506,0,0,0,1.767-3.445c.239-.5.406-.972.574-1.378s.3-.769.4-1.06a4.417,4.417,0,0,1,.353-.883,5.927,5.927,0,0,1-.239.936,10.4,10.4,0,0,1-.345,1.078c-.159.424-.309.883-.539,1.413a28.932,28.932,0,0,1-1.767,3.534,31.22,31.22,0,0,1-2.8,3.914,32.288,32.288,0,0,1-3.41,3.384,26.6,26.6,0,0,1-3.18,2.3,11.639,11.639,0,0,1-1.3.76c-.415.212-.733.389-1.016.521A5.734,5.734,0,0,1,38.36,77.673Z" transform="translate(-34.084 -58.257)" fill="#375a64"/>
        <path id="Trazado_146863" data-name="Trazado 146863" d="M49.219,74.079a3.155,3.155,0,0,1-.318.424c-.221.256-.565.61-1.007,1.034a22.218,22.218,0,0,1-3.808,2.889,21.415,21.415,0,0,1-4.338,1.917c-.574.186-1.051.318-1.387.389a1.926,1.926,0,0,1-.521.08,18.642,18.642,0,0,1,1.838-.671,25.681,25.681,0,0,0,8.075-4.771A15.069,15.069,0,0,1,49.219,74.079Z" transform="translate(-34.023 -59.955)" fill="#375a64"/>
        <path id="Trazado_146864" data-name="Trazado 146864" d="M67.874,77.915a8.039,8.039,0,0,1,.186-.963,16.3,16.3,0,0,0,.292-2.65,15.389,15.389,0,0,0-8.419-14.329,16.175,16.175,0,0,0-2.456-1.016,6.784,6.784,0,0,1-.936-.318.813.813,0,0,1,.256,0,6.768,6.768,0,0,1,.716.168,13.561,13.561,0,0,1,2.518.954,15.177,15.177,0,0,1,8.543,14.532,14.515,14.515,0,0,1-.4,2.65c-.071.309-.159.539-.2.7A1,1,0,0,1,67.874,77.915Z" transform="translate(-36.203 -58.154)" fill="#375a64"/>
      </g>
      <g id="Grupo_88589" data-name="Grupo 88589" transform="translate(40.125 39.567)">
        <path id="Trazado_146865" data-name="Trazado 146865" d="M128.892,125.9a1.422,1.422,0,0,0-.194,1.378,2.2,2.2,0,0,0,.883.883,7.952,7.952,0,0,0,1.458-2.085" transform="translate(-67.758 -105.563)" fill="#ff9a6c"/>
        <path id="Trazado_146866" data-name="Trazado 146866" d="M125.929,125.05a1.422,1.422,0,0,0-.53,1.281,2.288,2.288,0,0,0,.627,1.1,7.951,7.951,0,0,0,1.935-1.661" transform="translate(-67.384 -105.464)" fill="#ff9a6c"/>
        <path id="Trazado_146867" data-name="Trazado 146867" d="M59.73,102.88s19.533,15.372,23.049,15.9,20-1.493,26.759-1.705l.954,5.672s-18.667,6.334-25.452,6.59-10.681-1.617-10.681-1.617L61.674,114.736Z" transform="translate(-59.73 -102.88)" fill="#ffbf9d"/>
        <path id="Trazado_146868" data-name="Trazado 146868" d="M115.62,118.9s8.719-1.246,10.071-.565a50.816,50.816,0,0,1,5.3,3.967s1.29,3.649.477,3.825-1.661-1.184-1.661-1.184l-1.1-2.032-4.868-1.184-8.083.707Z" transform="translate(-66.245 -104.658)" fill="#ffbf9d"/>
        <path id="Trazado_146869" data-name="Trazado 146869" d="M116.81,124.878a12.949,12.949,0,0,0,4.824,1.617c1.581-.044,3.4-1.281,4.762-1.1s4.2.406,4.541-.079a1.069,1.069,0,0,0,0-1.493c-.459-.442-2.747-.883-4.417-1.316a6.732,6.732,0,0,1-2.447-1.131l-9.6,1.06-.539,2.995Z" transform="translate(-66.048 -105.037)" fill="#ffbf9d"/>
        <path id="Trazado_146870" data-name="Trazado 146870" d="M121.89,121.267a1.617,1.617,0,0,1,.5,0,7.951,7.951,0,0,1,1.36.159,39.24,39.24,0,0,1,4.285,1.36,13.737,13.737,0,0,0,2.376.565,1.952,1.952,0,0,1,1.06.406,1.122,1.122,0,0,1,.353.954.989.989,0,0,1-.4.724,1.122,1.122,0,0,1-.574.221c-.345,0-.512-.106-.495-.115a1.988,1.988,0,0,0,.477,0,.883.883,0,0,0,.777-.883.945.945,0,0,0-.309-.742,1.767,1.767,0,0,0-.936-.318,12.808,12.808,0,0,1-2.429-.548c-1.67-.565-3.127-1.184-4.232-1.44S121.89,121.329,121.89,121.267Z" transform="translate(-66.976 -105.021)" fill="#ff9a6c"/>
        <path id="Trazado_146871" data-name="Trazado 146871" d="M128.679,123.066a4.037,4.037,0,0,1-2.429-1.917c.071-.062.548.442,1.21.963S128.724,122.978,128.679,123.066Z" transform="translate(-67.484 -105.009)" fill="#ff9a6c"/>
      </g>
      <g id="Grupo_88591" data-name="Grupo 88591" transform="translate(0 154.837)">
        <path id="Trazado_146872" data-name="Trazado 146872" d="M38.359,234.544l-17.669,7.88,2.129,9.453s22.262-6.635,29.56-8.11,19.082-3.348,22.413-10.407Z" transform="translate(-15.054 -233.36)" fill="#ffbf9d"/>
        <g id="Grupo_88590" data-name="Grupo 88590" transform="translate(0 8.357)">
          <path id="Trazado_146873" data-name="Trazado 146873" d="M23.754,253.156l-.618.159s-1.413,11.608-3.375,12.244L14.31,244.746l6.917-1.926a13.322,13.322,0,0,0,2.527,10.336Z" transform="translate(-14.31 -242.82)" fill="#6558b8"/>
          <path id="Trazado_146874" data-name="Trazado 146874" d="M14.31,244.952,16,244.59,20.582,264.7s-.159,1.034-.839,1.1Z" transform="translate(-14.31 -243.026)" fill="#091320"/>
        </g>
        <path id="Trazado_146875" data-name="Trazado 146875" d="M75.432,233.66a2.9,2.9,0,0,1-.194.5,5.655,5.655,0,0,1-.883,1.263,19.789,19.789,0,0,1-4.364,3.481,20.531,20.531,0,0,1-3.534,1.643,39.582,39.582,0,0,1-4.267,1.193c-3.012.76-6.325,1.626-9.8,2.544l-17.739,4.691-5.407,1.378-1.475.353a2.1,2.1,0,0,1-.521.1,4.189,4.189,0,0,1,.5-.159l1.466-.406,5.38-1.475c4.541-1.237,10.822-2.951,17.775-4.788,3.472-.883,6.785-1.767,9.806-2.518a37.889,37.889,0,0,0,4.258-1.166,20.566,20.566,0,0,0,7.863-4.956,6.625,6.625,0,0,0,1.131-1.678Z" transform="translate(-15.818 -233.395)" fill="#ff9a6c"/>
      </g>
      <g id="Grupo_88592" data-name="Grupo 88592" transform="translate(22.978 77.007)">
        <path id="Trazado_146876" data-name="Trazado 146876" d="M48.872,147.451l.406,3.49s-6.131,11.582-6.131,17.8S40.32,224.4,40.32,224.4s33.243,1.891,36.759-1.352l3.534-3.251,11.838-3.207L73.9,148.882V145.26Z" transform="translate(-40.32 -145.26)" fill="#091320"/>
        <path id="Trazado_146877" data-name="Trazado 146877" d="M75.71,166.73v.133l.062.406c.053.38.133.883.221,1.564.194,1.378.468,3.339.8,5.742.7,4.85,1.767,11.546,3.066,18.9s2.712,13.985,3.763,18.773c.53,2.368.963,4.293,1.263,5.663l.345,1.537.079.406v.009l-.115-.4-.4-1.528c-.336-1.325-.8-3.26-1.36-5.645-1.1-4.771-2.527-11.4-3.861-18.764s-2.332-14.055-2.968-18.914c-.318-2.429-.557-4.417-.707-5.769-.071-.654-.124-1.184-.168-1.564v-.415Q75.7,166.73,75.71,166.73Z" transform="translate(-44.445 -147.763)" fill="#375a64"/>
        <path id="Trazado_146878" data-name="Trazado 146878" d="M48.68,173.74a2.084,2.084,0,0,1,.141.389c.08.292.194.671.336,1.14l1.228,4.2c1.042,3.534,2.562,8.393,4.417,13.7s3.71,10.053,5.089,13.463l1.661,4.046c.177.451.327.822.442,1.1a1.466,1.466,0,0,1,.133.4,2.775,2.775,0,0,1-.186-.371c-.133-.274-.3-.627-.5-1.078-.433-.936-1.025-2.306-1.767-4-1.44-3.4-3.322-8.136-5.186-13.455s-3.339-10.195-4.338-13.746c-.495-1.767-.883-3.216-1.131-4.214-.115-.477-.212-.883-.283-1.157A2.341,2.341,0,0,1,48.68,173.74Z" transform="translate(-41.295 -148.58)" fill="#375a64"/>
        <path id="Trazado_146879" data-name="Trazado 146879" d="M76.245,151.228a7.326,7.326,0,0,1-1,.124c-.645.062-1.581.124-2.73.194-2.306.141-5.495.265-9.029.283s-6.714-.088-9.02-.212c-1.157-.053-2.094-.115-2.73-.168a6.482,6.482,0,0,1-1-.115,5.113,5.113,0,0,1,1,0l2.739.079c2.306.062,5.495.124,9.011.115s6.714-.106,9.02-.194l2.73-.1a7.365,7.365,0,0,1,1.007-.009Z" transform="translate(-41.535 -145.954)" fill="#375a64"/>
      </g>
      <g id="Grupo_88596" data-name="Grupo 88596" transform="translate(20.319 32.998)">
        <path id="Trazado_146880" data-name="Trazado 146880" d="M57.655,99.984c-.168-.38,11.794,9.152,13.251,13.79s1.767,18.04,1.767,18.04l.883,8.6L49.7,142.1l-.636-1.687L47.3,135.621l-2.456-7.235s-5.884-9.135-7.067-13.075c-1.458-4.885.954-9.894.954-9.894L44.1,99.33Z" transform="translate(-37.31 -95.897)" fill="#ea3584"/>
        <path id="Trazado_146881" data-name="Trazado 146881" d="M44.9,99.31s-1.325-2.456-.5-3.534c.645-.883,12.138.221,14.479.716,1.378.292,0,3.357,0,3.357Z" transform="translate(-38.105 -95.444)" fill="#ea3584"/>
        <g id="Grupo_88593" data-name="Grupo 88593" transform="translate(7.866 15.447)" opacity="0.3">
          <path id="Trazado_146882" data-name="Trazado 146882" d="M52.041,112.93c1,2.588-.415,10.6-.627,12.554a32.687,32.687,0,0,1-1.325,5.619,3.171,3.171,0,0,0,0,2.6c.786,1.219,2.8.883,3.781,1.935a9.408,9.408,0,0,1-5.875.68,1.59,1.59,0,0,1-.936-.451,1.687,1.687,0,0,1-.283-.751,22.36,22.36,0,0,1-.274-8.56c.539-2.818,3.233-9.594,5.495-11.361" transform="translate(-46.214 -112.93)"/>
        </g>
        <path id="Trazado_146883" data-name="Trazado 146883" d="M52.887,117a7.871,7.871,0,0,1-1.148,2.756,7.553,7.553,0,0,1-1.9,2.306c-.062-.062.8-1.069,1.634-2.465S52.8,116.92,52.887,117Z" transform="translate(-38.77 -97.957)" fill="#091320"/>
        <path id="Trazado_146884" data-name="Trazado 146884" d="M58.968,100.017a2.982,2.982,0,0,1-.548.15c-.362.071-.883.177-1.52.256a28.19,28.19,0,0,1-5.071.2,29.153,29.153,0,0,1-5.036-.707c-.636-.15-1.14-.292-1.484-.406a2.314,2.314,0,0,1-.53-.2,20.775,20.775,0,0,1,2.058.4,36.069,36.069,0,0,0,5,.61,37.167,37.167,0,0,0,5.044-.106C58.164,100.1,58.959,99.973,58.968,100.017Z" transform="translate(-38.181 -95.895)" fill="#091320"/>
        <path id="Trazado_146885" data-name="Trazado 146885" d="M70.095,124.735c-.053,0,.159-.654.318-1.714a13.323,13.323,0,0,0-.062-4.17,12.951,12.951,0,0,0-1.378-3.94c-.512-.945-.936-1.466-.883-1.5s.133.106.336.336a7.651,7.651,0,0,1,.742,1.06,11.644,11.644,0,0,1,1.493,8.251,8.163,8.163,0,0,1-.336,1.246A1.361,1.361,0,0,1,70.095,124.735Z" transform="translate(-40.898 -97.538)" fill="#091320"/>
        <g id="Grupo_88594" data-name="Grupo 88594" transform="translate(7.456 3.689)" opacity="0.3">
          <path id="Trazado_146886" data-name="Trazado 146886" d="M51.669,100.459a40.46,40.46,0,0,1-5.919-.839,15.69,15.69,0,0,0,9.135,1.829A4.8,4.8,0,0,0,58,100.106C56.245,100.839,53.551,100.627,51.669,100.459Z" transform="translate(-45.75 -99.62)"/>
        </g>
        <g id="Grupo_88595" data-name="Grupo 88595" transform="translate(26.803 21.402)" opacity="0.3">
          <path id="Trazado_146887" data-name="Trazado 146887" d="M67.694,128.2a10.513,10.513,0,0,0,2.792-8.534,11.794,11.794,0,0,1,.442,3.1,5.3,5.3,0,0,1-.883,3.428A4.24,4.24,0,0,1,67.65,128.2" transform="translate(-67.65 -119.67)"/>
        </g>
      </g>
      <g id="Grupo_88599" data-name="Grupo 88599" transform="translate(18.202 41.766)">
        <path id="Trazado_146888" data-name="Trazado 146888" d="M47.243,106.813a5.928,5.928,0,0,0-8.472.8c-.088.106-.168.221-.247.336-1.237,1.864-4.656,30.805-3.3,34.277s3.339,3.216,3.339,3.216a87.917,87.917,0,0,0,15.4-1.581c6.44-1.484,13.622-3.914,13.622-3.914L66.4,132.936s-15.769,2.085-20.107,1.59h0l1.661-14.135s3.763-4.594,2.65-8.834a9.718,9.718,0,0,0-3.357-4.744Z" transform="translate(-34.914 -105.372)" fill="#ffbf9d"/>
        <g id="Grupo_88597" data-name="Grupo 88597" transform="translate(34.026 18.5)">
          <path id="Trazado_146889" data-name="Trazado 146889" d="M76.18,131.093l3.534-2.376,2.553-2.147a2.915,2.915,0,0,1-.477,2.262c-.8,1.2-2.129,2.995-2.129,2.995Z" transform="translate(-73.751 -126.34)" fill="#ffbf9d"/>
          <path id="Trazado_146890" data-name="Trazado 146890" d="M81.142,129.632a5.975,5.975,0,0,0,.442-.786,3.4,3.4,0,0,0,.23-2.27l.212.062L79.5,128.8h0l-.186.133-2.253,1.52A19.669,19.669,0,0,1,75.2,131.6a13.987,13.987,0,0,1-1.767.936,11.041,11.041,0,0,1,1.679-1.122c.539-.309,1.148-.733,1.82-1.2l2.217-1.5.194-.133h0l2.562-2.129.168-.141v.2a3.428,3.428,0,0,1-.345,2.421,2.836,2.836,0,0,1-.406.557C81.213,129.57,81.151,129.641,81.142,129.632Z" transform="translate(-73.43 -126.31)" fill="#ff9a6c"/>
        </g>
        <path id="Trazado_146891" data-name="Trazado 146891" d="M74.73,136.679c.124-.239,9.426-10.6,11.723-13.172a.989.989,0,0,1,1.184-.221h0a.989.989,0,0,1,.292,1.546L76.011,138.083Z" transform="translate(-39.555 -107.445)" fill="#091320"/>
        <g id="Grupo_88598" data-name="Grupo 88598" transform="translate(29.901 22.893)">
          <path id="Trazado_146892" data-name="Trazado 146892" d="M83.99,133.082c.38-.512-.194-1.528-.716-1.767s-2.65.883-2.65.883l-.769.071s-4.081-.83-4.223-.769a13.738,13.738,0,0,0-2.951,1.767,5.3,5.3,0,0,0-1.06,1.246A4.461,4.461,0,0,1,68.76,136.2l1.767,7.067s3.8-.883,4.09-.883,3.472-.256,3.887-.327a10.531,10.531,0,0,0,3.587-1.643c1.36-1.016.724-1.873.724-1.873,1.413-.963.318-1.908.318-1.908l.389-.68a1.219,1.219,0,0,0-.592-1.67A9.967,9.967,0,0,0,83.99,133.082Z" transform="translate(-68.76 -131.282)" fill="#ffbf9d"/>
          <path id="Trazado_146893" data-name="Trazado 146893" d="M82.75,135.647c0-.08.424-.283.883-.592s.883-.618.945-.565-.256.477-.8.8S82.768,135.717,82.75,135.647Z" transform="translate(-70.391 -131.655)" fill="#ff9a6c"/>
          <path id="Trazado_146894" data-name="Trazado 146894" d="M84.1,137.908c-.053-.062.1-.265.327-.451s.451-.292.5-.23-.1.256-.327.451A.9.9,0,0,1,84.1,137.908Z" transform="translate(-70.547 -131.973)" fill="#ff9a6c"/>
          <path id="Trazado_146895" data-name="Trazado 146895" d="M83.62,139.683c0-.088.23-.168.512-.274s.512-.2.557-.133-.141.274-.459.4S83.629,139.754,83.62,139.683Z" transform="translate(-70.492 -132.211)" fill="#ff9a6c"/>
        </g>
        <path id="Trazado_146896" data-name="Trazado 146896" d="M81.59,132.269a7.951,7.951,0,0,1-2.156.3,13.533,13.533,0,0,1-2.164.115,5.557,5.557,0,0,1,2.138-.424A7.7,7.7,0,0,1,81.59,132.269Z" transform="translate(-39.851 -108.495)" fill="#ff9a6c"/>
        <path id="Trazado_146897" data-name="Trazado 146897" d="M47.551,138.23a11.237,11.237,0,0,1-1.581,2.032,10.839,10.839,0,0,1-1.82,1.829,10.6,10.6,0,0,1,1.59-2.041,10.681,10.681,0,0,1,1.811-1.82Z" transform="translate(-35.991 -109.2)" fill="#ff9a6c"/>
        <path id="Trazado_146898" data-name="Trazado 146898" d="M50.854,115.255s.044-.318.1-.883A7.359,7.359,0,0,0,50.836,112,8.7,8.7,0,0,0,46,106.156a5.627,5.627,0,0,0-4.179-.274,4.673,4.673,0,0,0-2.712,2.076,7.73,7.73,0,0,0-.883,2.226,6.5,6.5,0,0,1-.212.883.76.76,0,0,1,0-.23,2.037,2.037,0,0,1,.088-.654,7.421,7.421,0,0,1,.777-2.315,4.673,4.673,0,0,1,1.1-1.307,5.371,5.371,0,0,1,1.723-.883,5.919,5.919,0,0,1,4.417.256,8.834,8.834,0,0,1,4.938,6.087,7.235,7.235,0,0,1,0,2.438,4.691,4.691,0,0,1-.141.645A.8.8,0,0,1,50.854,115.255Z" transform="translate(-35.274 -105.369)" fill="#091320"/>
      </g>
    </g>
    <g id="Grupo_88608" data-name="Grupo 88608" transform="translate(55.913 72.91)">
      <g id="Grupo_88601" data-name="Grupo 88601">
        <path id="Trazado_146899" data-name="Trazado 146899" d="M98.964,84.8H74.617a1.767,1.767,0,0,0-1.767,1.767v23.6a1.811,1.811,0,0,0,1.767,1.767h8.967l3.534,4.965,3.039-4.965h8.834a1.811,1.811,0,0,0,1.767-1.767V86.6a1.767,1.767,0,0,0-1.793-1.8Z" transform="translate(-72.648 -84.676)" fill="#fafafa"/>
        <path id="Trazado_146900" data-name="Trazado 146900" d="M98.937,84.784a1.449,1.449,0,0,1,.716.115,1.846,1.846,0,0,1,.716.53,1.891,1.891,0,0,1,.424,1.14V110.05a1.944,1.944,0,0,1-.839,1.7,1.767,1.767,0,0,1-.945.336H90.094l.124-.062-3.039,5.009-.115.2-.133-.194L83.4,112.082l.124.062h-9.17a1.97,1.97,0,0,1-1.316-.751,2.111,2.111,0,0,1-.406-1.44V86.506a1.917,1.917,0,0,1,1.431-1.767,4.6,4.6,0,0,1,1.14-.071h7.218l12.068.053h4.161a1.821,1.821,0,0,1,.292,0H94.485l-12.068.053H75.226a4.32,4.32,0,0,0-1.078.062,1.7,1.7,0,0,0-1.193,1.679v23.464a1.767,1.767,0,0,0,.353,1.246,1.634,1.634,0,0,0,1.1.636h9.25v.062l3.534,4.965H86.94l3.048-4.965v-.071h9.055a1.59,1.59,0,0,0,.813-.292,1.7,1.7,0,0,0,.733-1.475V94.493c0-3.375,0-6.034.044-7.88a1.864,1.864,0,0,0-.38-1.1,1.908,1.908,0,0,0-.689-.53A2.279,2.279,0,0,0,98.937,84.784Z" transform="translate(-72.621 -84.66)" fill="#091320"/>
      </g>
      <g id="Grupo_88607" data-name="Grupo 88607" transform="translate(6.457 8.587)">
        <g id="Grupo_88606" data-name="Grupo 88606" transform="translate(0 0.539)">
          <g id="Grupo_88602" data-name="Grupo 88602">
            <path id="Trazado_146901" data-name="Trazado 146901" d="M91.7,103.209H83.345a6.838,6.838,0,0,0-.141-.989c-.4-2.88-.751-5.451-.989-7.129H82.2c.247,1.679.618,4.249,1.034,7.129a6.9,6.9,0,0,0,.133.981H91.5C91.649,103.2,91.7,103.2,91.7,103.209Z" transform="translate(-79.943 -95.002)" fill="#091320"/>
            <path id="Trazado_146902" data-name="Trazado 146902" d="M83.269,103.365a.1.1,0,0,1-.088-.088l-1.122-8.048H80.177c-.168,0-.239,0-.247-.115s.088-.115.247-.124h2.041a.106.106,0,0,1,.106.088l1.148,8.013h8.057c.194,0,.265,0,.265.115h0c0,.106-.071.106-.265.115H83.3Z" transform="translate(-79.929 -94.99)" fill="#091320"/>
          </g>
          <g id="Grupo_88603" data-name="Grupo 88603" transform="translate(2.306 1.334)">
            <path id="Trazado_146903" data-name="Trazado 146903" d="M83.51,101.657h8.534c.186-1.042.38-2.164.583-3.331l.3-1.767.062.062h.071v.062l-.309,1.767c-.2,1.157-.4,2.279-.583,3.322H83.51Z" transform="translate(-82.653 -96.507)" fill="#091320"/>
            <path id="Trazado_146904" data-name="Trazado 146904" d="M83.4,101.756a.106.106,0,0,1-.115-.106c0-.106.115-.106.15-.115h8.4l.83-4.806H82.7c-.053,0-.159,0-.159-.115s.106-.106.159-.106H92.92a.1.1,0,0,1,.08,0,.088.088,0,0,1,0,.088l-.883,5.177a.106.106,0,0,1-.106.088h-8.6Z" transform="translate(-82.54 -96.5)" fill="#091320"/>
          </g>
          <g id="Grupo_88604" data-name="Grupo 88604" transform="translate(3.623 9.556)">
            <path id="Trazado_146905" data-name="Trazado 146905" d="M85.917,106.728a.647.647,0,0,0-.044-.194.8.8,0,0,0-1.573.2.8.8,0,0,0,.512.733.822.822,0,0,0,1.06-.539c0-.124,0-.2.044-.2a.451.451,0,0,1,0,.212.929.929,0,1,1-.353-.945.742.742,0,0,1,.3.486C85.934,106.658,85.925,106.737,85.917,106.728Z" transform="translate(-84.044 -105.807)" fill="#091320"/>
            <path id="Trazado_146906" data-name="Trazado 146906" d="M84.887,107.745l-.194-.053a.956.956,0,0,1,0-1.82.956.956,0,0,1,1.272.7.636.636,0,0,1,0,.23.884.884,0,0,1,0,.23,1.016,1.016,0,0,1-.345.557A.972.972,0,0,1,84.887,107.745Zm.247-1.661a.786.786,0,0,0-.336,0,.678.678,0,1,0,.654,1.175.742.742,0,0,0,.318-.4v-.141h0v-.15a.769.769,0,0,0-.265-.371.751.751,0,0,0-.336-.141Z" transform="translate(-84.03 -105.807)" fill="#091320"/>
          </g>
          <g id="Grupo_88605" data-name="Grupo 88605" transform="translate(9.035 9.493)">
            <path id="Trazado_146907" data-name="Trazado 146907" d="M92.012,106.733v-.2a.883.883,0,0,0-.309-.433.789.789,0,1,0-.751,1.369.786.786,0,0,0,.751-.106.813.813,0,0,0,.309-.433v.009a.742.742,0,0,1-.3.486.882.882,0,1,1,0-1.387.8.8,0,0,1,.3.486A.4.4,0,0,1,92.012,106.733Z" transform="translate(-90.172 -105.748)" fill="#091320"/>
            <path id="Trazado_146908" data-name="Trazado 146908" d="M91.017,107.736h-.194a1.016,1.016,0,0,1-.663-.936.989.989,0,0,1,1.626-.83.937.937,0,0,1,.336.557.883.883,0,0,1,0,.23.831.831,0,0,1,0,.221.936.936,0,0,1-.336.557.972.972,0,0,1-.769.2Zm.247-1.652a.654.654,0,0,0-.336,0,.689.689,0,0,0-.442.636.7.7,0,0,0,.442.636.724.724,0,0,0,.654-.088.822.822,0,0,0,.265-.38c0-.062,0-.115,0-.15v-.186a.742.742,0,0,0-.265-.38.654.654,0,0,0-.318-.124Z" transform="translate(-90.157 -105.735)" fill="#091320"/>
          </g>
        </g>
        <path id="Trazado_146909" data-name="Trazado 146909" d="M96.971,97.18a2.8,2.8,0,1,1-2.8-2.8A2.8,2.8,0,0,1,96.971,97.18Z" transform="translate(-81.263 -94.38)" fill="#6558b8"/>
        <path id="Trazado_146910" data-name="Trazado 146910" d="M92.72,97.458l.424-.415.8.716,1.59-1.528.389.424-2.032,1.917Z" transform="translate(-81.42 -94.596)" fill="#fff"/>
      </g>
    </g>
  </g>
</svg>
