<svg xmlns="http://www.w3.org/2000/svg" xmlns:xlink="http://www.w3.org/1999/xlink" width="166" height="129.92" viewBox="0 0 166 129.92">
  <defs>
    <clipPath id="clip-path">
      <rect id="Rectángulo_42591" data-name="Rectángulo 42591" width="128.285" height="26.192" fill="none"/>
    </clipPath>
    <clipPath id="clip-path-2">
      <rect id="Rectángulo_42640" data-name="Rectángulo 42640" width="156.83" height="123.456" fill="none"/>
    </clipPath>
    <clipPath id="clip-path-3">
      <rect id="Rectángulo_42637" data-name="Rectángulo 42637" width="156.83" height="123.456" fill="#a2a7c5"/>
    </clipPath>
    <clipPath id="clip-path-4">
      <rect id="Rectángulo_42636" data-name="Rectángulo 42636" width="123.456" height="123.456" fill="#a2a7c5"/>
    </clipPath>
    <clipPath id="clip-path-5">
      <path id="Trazado_212269" data-name="Trazado 212269" d="M68.35,0a61.728,61.728,0,1,0,61.727,61.729A61.729,61.729,0,0,0,68.35,0Z" transform="translate(-6.62)" fill="#fff"/>
    </clipPath>
    <clipPath id="clip-path-6">
      <rect id="Rectángulo_42638" data-name="Rectángulo 42638" width="123.456" height="123.456" fill="#fff"/>
    </clipPath>
    <clipPath id="clip-path-8">
      <rect id="Rectángulo_42641" data-name="Rectángulo 42641" width="90.165" height="92.422" fill="none"/>
    </clipPath>
  </defs>
  <g id="Grupo_151684" data-name="Grupo 151684" transform="translate(-921 -153.272)">
    <g id="Grupo_151658" data-name="Grupo 151658" transform="translate(-2.29 56.008)">
      <g id="Grupo_151603" data-name="Grupo 151603" transform="translate(923.29 200.993)">
        <g id="Grupo_151680" data-name="Grupo 151680" transform="translate(0 0)">
          <g id="Grupo_151601" data-name="Grupo 151601">
            <g id="Grupo_151681" data-name="Grupo 151681">
              <g id="Grupo_151599" data-name="Grupo 151599" opacity="0.2">
                <g id="Grupo_151598" data-name="Grupo 151598">
                  <g id="Grupo_151597" data-name="Grupo 151597" clip-path="url(#clip-path)">
                    <path id="Trazado_212236" data-name="Trazado 212236" d="M128.285,75.177c0,7.233-28.718,13.1-64.143,13.1S0,82.41,0,75.177s28.718-13.1,64.143-13.1,64.143,5.863,64.143,13.1" transform="translate(0 -62.081)" fill="#383838"/>
                  </g>
                </g>
              </g>
            </g>
          </g>
        </g>
      </g>
    </g>
    <g id="Grupo_151679" data-name="Grupo 151679" transform="translate(930.17 153.272)">
      <g id="Grupo_151678" data-name="Grupo 151678" clip-path="url(#clip-path-2)">
        <g id="Grupo_151670" data-name="Grupo 151670" transform="translate(0 0)">
          <g id="Grupo_151669" data-name="Grupo 151669" clip-path="url(#clip-path-3)">
            <path id="Trazado_212263" data-name="Trazado 212263" d="M123.456,61.729A61.728,61.728,0,1,1,61.727,0a61.729,61.729,0,0,1,61.729,61.729" transform="translate(0 0)" fill="#a2a7c5"/>
            <g id="Grupo_151668" data-name="Grupo 151668" transform="translate(0 0)">
              <g id="Grupo_151667" data-name="Grupo 151667" transform="translate(0 0)">
                <g id="Grupo_151666" data-name="Grupo 151666" clip-path="url(#clip-path-4)">
                  <path id="Trazado_212264" data-name="Trazado 212264" d="M123.456,61.729A61.728,61.728,0,1,1,61.727,0a61.729,61.729,0,0,1,61.729,61.729" transform="translate(0 0)" fill="#a2a7c5"/>
                </g>
              </g>
            </g>
            <path id="Trazado_212265" data-name="Trazado 212265" d="M130.077,61.729A61.728,61.728,0,1,1,68.348,0a61.729,61.729,0,0,1,61.729,61.729" transform="translate(1.739 0)" fill="#a2a7c5"/>
          </g>
        </g>
        <g id="Grupo_151675" data-name="Grupo 151675" transform="translate(8.359)">
          <g id="Grupo_151674" data-name="Grupo 151674" clip-path="url(#clip-path-5)">
            <path id="Trazado_212266" data-name="Trazado 212266" d="M123.456,61.729A61.728,61.728,0,1,1,61.727,0a61.729,61.729,0,0,1,61.729,61.729" transform="translate(-8.359)" fill="#fff"/>
            <g id="Grupo_151673" data-name="Grupo 151673" transform="translate(-8.359 0)" opacity="0.3">
              <g id="Grupo_151672" data-name="Grupo 151672">
                <g id="Grupo_151671" data-name="Grupo 151671" clip-path="url(#clip-path-6)">
                  <path id="Trazado_212267" data-name="Trazado 212267" d="M123.456,61.729A61.728,61.728,0,1,1,61.727,0a61.729,61.729,0,0,1,61.729,61.729" transform="translate(0 0)" fill="#fff"/>
                </g>
              </g>
            </g>
            <path id="Trazado_212268" data-name="Trazado 212268" d="M130.077,61.729A61.728,61.728,0,1,1,68.348,0a61.729,61.729,0,0,1,61.729,61.729" transform="translate(-6.62)" fill="#fff"/>
          </g>
        </g>
        <g id="Grupo_151677" data-name="Grupo 151677" transform="translate(0 0)">
          <g id="Grupo_151676" data-name="Grupo 151676" clip-path="url(#clip-path-2)">
            <path id="Trazado_212270" data-name="Trazado 212270" d="M109.686,58.217A44.849,44.849,0,1,1,64.837,13.368a44.849,44.849,0,0,1,44.849,44.849" transform="translate(5.25 3.511)" fill="#ea3584"/>
            <path id="Trazado_212271" data-name="Trazado 212271" d="M90.621,54.934A29.067,29.067,0,1,1,61.554,25.867,29.066,29.066,0,0,1,90.621,54.934" transform="translate(8.534 6.795)" fill="#fff"/>
            <path id="Trazado_212272" data-name="Trazado 212272" d="M71.574,51.654a13.3,13.3,0,1,1-13.3-13.3,13.3,13.3,0,0,1,13.3,13.3" transform="translate(11.814 10.075)" fill="#ea3584"/>
            <path id="Trazado_212294" data-name="Trazado 212294" d="M57,44.367a6.013,6.013,0,1,1-6.013-6.013A6.013,6.013,0,0,1,57,44.367" transform="translate(19.1 17.362)" fill="#fff"/>
            <line id="Línea_141" data-name="Línea 141" y1="49.849" x2="78.383" transform="translate(70.088 11.879)" fill="none" stroke="#2e4e5f" stroke-linecap="round" stroke-linejoin="round" stroke-width="2"/>
            <path id="Trazado_212275" data-name="Trazado 212275" d="M63.6,53.535a4.341,4.341,0,0,1-2.446.5,7.774,7.774,0,0,1-7.768-7.912,4.325,4.325,0,0,1,.549-2.436c.111.028-.178.942-.085,2.423a7.809,7.809,0,0,0,7.325,7.46c1.479.121,2.4-.152,2.424-.039" transform="translate(14.023 11.476)"/>
            <path id="Trazado_212274" data-name="Trazado 212274" d="M129.632,16.072l-13.044-3.947-13.05,7.734L117.8,24.836Z" transform="translate(27.198 3.185)" fill="#9462e0"/>
            <path id="Trazado_212273" data-name="Trazado 212273" d="M103.529,23.74l1.091-13.584L116.588.834l-.577,15.092Z" transform="translate(27.195 0.219)" fill="#9462e0"/>
          </g>
        </g>
      </g>
    </g>
    <g id="Grupo_151683" data-name="Grupo 151683" transform="translate(996.835 190.771)">
      <g id="Grupo_151682" data-name="Grupo 151682" clip-path="url(#clip-path-8)">
        <path id="Trazado_212276" data-name="Trazado 212276" d="M6.91,131.552C-.705,124.6-.858,115.44.96,109.166c.936-3.231,2.752-5.435,6.546-7.118l14.126-5.825s-9.55,22.638,9.374,32.189l-14.331,5.1a9.671,9.671,0,0,1-9.764-1.963" transform="translate(0 -68.109)" fill="#5463a0"/>
        <path id="Trazado_212277" data-name="Trazado 212277" d="M94.178,45.4C90.4,30.7,91.622,17.087,96.626,11.016l-.042-.143L68.2,35.81S58.648,58.448,77.572,68l35.153,6.262c-7.257-3.017-14.8-14.29-18.548-28.863" transform="translate(-46.567 -7.696)" fill="#fffae7"/>
        <path id="Trazado_212278" data-name="Trazado 212278" d="M188.857,29.665c4.747,18.467,1.6,35.237-7.034,37.457S162.344,56.168,157.6,37.7,156,2.463,164.631.244,184.109,11.2,188.857,29.665" transform="translate(-109.986 0)" fill="#5463a0"/>
        <path id="Trazado_212279" data-name="Trazado 212279" d="M176.673,155.1c5.481,12.106,13.516,19.66,20.218,17.938,6.35-1.632,9.732-11.137,9.188-23.4-13.558,20.953-29.4,5.469-29.406,5.462" transform="translate(-125.054 -105.92)" fill="#485787"/>
        <path id="Trazado_212280" data-name="Trazado 212280" d="M198.639,40.169c4.178,16.255,1.953,30.875-4.972,32.655s-15.925-9.954-20.1-26.209-1.953-30.875,4.972-32.655,15.925,9.954,20.1,26.209" transform="translate(-121.361 -9.755)" fill="#9b9b9b"/>
        <path id="Trazado_212281" data-name="Trazado 212281" d="M72.617,242.783l-.545-2.246a1.431,1.431,0,0,0-1.2-1.081l-3.036-.41a1.431,1.431,0,0,1-1.175-.992L60.48,218.245l-4.6,1.64c-.163.058-.328.108-.493.157l6.442,20.344a1.757,1.757,0,0,0,1.433,1.21l2.052.285.5.07.328.046a1.244,1.244,0,0,1,1.021.877l.682,2.3a1.243,1.243,0,0,1-1.359,1.587l.9.122a2.666,2.666,0,0,0,1.853-.434l2.66-1.8a1.749,1.749,0,0,0,.72-1.861" transform="translate(-39.201 -154.479)" fill="#e0d7b5"/>
        <path id="Trazado_212282" data-name="Trazado 212282" d="M59.111,247.226a1.244,1.244,0,0,0-1.021-.877l-3.2-.445a1.243,1.243,0,0,1-1.014-.856l-6.54-20.653a9.674,9.674,0,0,1-3.323.386l8.263,24.79a1.244,1.244,0,0,0,1.013.839l5.151.7a1.244,1.244,0,0,0,1.359-1.586Z" transform="translate(-31.15 -158.832)" fill="#fffae7"/>
        <path id="Trazado_212283" data-name="Trazado 212283" d="M64.444,219.25l2.355,7.26a1.769,1.769,0,0,1-.136,1.405l-1.174,2.112L62.351,220Z" transform="translate(-44.134 -155.191)" fill="#5463a0"/>
        <path id="Trazado_212284" data-name="Trazado 212284" d="M73.672,214.185l2.634,7.721a1.777,1.777,0,0,1-.151,1.477l-.971,1.645-4.622,1.415,1.172-2.11a1.778,1.778,0,0,0,.137-1.411l-2.354-7.257Z" transform="translate(-49.205 -151.606)" fill="#455482"/>
        <path id="Trazado_212285" data-name="Trazado 212285" d="M172.634,93.39H181.1l3.67,13.208-7.1,6.077a70.483,70.483,0,0,1-5.035-19.285" transform="translate(-122.195 -66.104)" fill="#fffae7"/>
        <path id="Trazado_212286" data-name="Trazado 212286" d="M201.5,99.49c.955,3.716.557,7.031-.889,7.4s-3.394-2.339-4.349-6.056-.557-7.031.889-7.4,3.394,2.339,4.349,6.056" transform="translate(-138.553 -66.111)" fill="#e2e2e2"/>
        <path id="Trazado_212287" data-name="Trazado 212287" d="M103.51,168.335l-30.2,1.778a20.511,20.511,0,0,0,9.586,9.341l35.153,6.262c-5.2-2.162-10.547-8.564-14.539-17.381" transform="translate(-51.891 -119.152)" fill="#e0d7b5"/>
        <path id="Trazado_212288" data-name="Trazado 212288" d="M199,40.169c-4.178-16.255-13.179-27.989-20.1-26.209-3.913,1.006-6.325,6.113-6.929,13.3a4.88,4.88,0,0,1,2.692-1.962c5.031-1.293,11.571,7.233,14.608,19.044s1.419,22.434-3.613,23.728a4.194,4.194,0,0,1-1.3.116c3.238,3.62,6.653,5.415,9.674,4.639,6.924-1.78,9.15-16.4,4.972-32.655" transform="translate(-121.725 -9.755)" fill="#b5b5b5"/>
        <path id="Trazado_212289" data-name="Trazado 212289" d="M27.8,174.42h0L9.016,181.565a21.437,21.437,0,0,0,4.276,5.336,9.671,9.671,0,0,0,9.764,1.963l14.331-5.1A20.512,20.512,0,0,1,27.8,174.42" transform="translate(-6.382 -123.459)" fill="#485787"/>
        <path id="Trazado_212290" data-name="Trazado 212290" d="M253.726,9.754l2.771-5.9,3.035,4.3Z" transform="translate(-179.594 -2.725)" fill="#fff"/>
        <path id="Trazado_212291" data-name="Trazado 212291" d="M280,65.283l4.79-4.61.973,4.675Z" transform="translate(-198.188 -42.946)" fill="#fff"/>
        <path id="Trazado_212292" data-name="Trazado 212292" d="M288.624,130.954l5.836-2.058v5.579Z" transform="translate(-204.295 -91.236)" fill="#fff"/>
        <path id="Trazado_212293" data-name="Trazado 212293" d="M283.228,198.079l4.495,5.374,2.034-5.374Z" transform="translate(-200.476 -140.205)" fill="#fff"/>
      </g>
    </g>
  </g>
</svg>
