<svg xmlns="http://www.w3.org/2000/svg" xmlns:xlink="http://www.w3.org/1999/xlink" width="67.469" height="68.336" viewBox="0 0 67.469 68.336"><defs><linearGradient id="a" x1="0.819" y1="0.136" x2="0.142" y2="0.804" gradientUnits="objectBoundingBox"><stop offset="0" stop-color="#ffedaf"/><stop offset="0.271" stop-color="#fe7e81"/><stop offset="0.864" stop-color="#ff1787"/><stop offset="1" stop-color="#c13099"/></linearGradient><clipPath id="b"><rect width="67.469" height="67.47" fill="url(#a)"/></clipPath><radialGradient id="d" cx="0.747" cy="0.171" r="0.876" gradientTransform="matrix(-0.433, 0.902, -0.902, -0.433, 1.225, -0.428)" gradientUnits="objectBoundingBox"><stop offset="0" stop-color="#fff"/><stop offset="1" stop-color="#d2d5e1"/></radialGradient></defs><g transform="translate(-285.592 -4892)"><g transform="translate(13.031 4261.578)"><g transform="translate(272.561 630.422)"><ellipse cx="26.714" cy="2.011" rx="26.714" ry="2.011" transform="translate(0.252 64.315)" fill="#636363" opacity="0.2"/><g clip-path="url(#b)"><path d="M729.763,95a33.735,33.735,0,1,0,33.889-33.58A33.735,33.735,0,0,0,729.763,95" transform="translate(-729.762 -61.418)" fill="url(#a)"/></g><path d="M83.115,137.6a28.508,28.508,0,1,1,28.638-28.377A28.54,28.54,0,0,1,83.115,137.6" transform="translate(-49.482 -75.666)" fill="url(#d)"/></g></g><g transform="translate(297.732 4904.651)"><g transform="translate(-0.733 9.468)"><path d="M21.162,34.344l-.132-.11a1.894,1.894,0,0,0-2.662.233L19,33.71a1.894,1.894,0,0,0-.233-2.662l-.132-.11a1.894,1.894,0,0,0-2.662.233c.047-.056.095-.1.142-.161l.491-.6a1.877,1.877,0,0,0-.236-2.654l-.133-.114a1.877,1.877,0,0,0-2.654.236l-.643.756a1.894,1.894,0,0,0-.226-2.664l-.133-.114a1.888,1.888,0,0,0-2.664.236L7.609,28.852a1.283,1.283,0,0,0-.1.142,1.888,1.888,0,0,0,.331,2.525l.132.114a1.894,1.894,0,0,0,2.665-.236,1.894,1.894,0,0,0,.235,2.663l.133.1a1.886,1.886,0,0,0,2.655-.226l.005-.006a1.888,1.888,0,0,0,.233,2.661l.132.111a1.894,1.894,0,0,0,2.662-.234,1.894,1.894,0,0,0,.233,2.662l.132.111a1.894,1.894,0,0,0,2.662-.233L21.4,37a1.894,1.894,0,0,0-.234-2.66Z" transform="translate(-0.043 -11.034)"/><path d="M32.454,15.3a3.586,3.586,0,0,1-.354-.9,6.944,6.944,0,0,0-2.322-.4H26.662a6.991,6.991,0,0,0-3.722,1.071l-4.22,2.65A1.789,1.789,0,0,0,20.344,20.9L28.5,17.649l8.477,7.242c.18-.138.42-.339.682-.571Z" transform="translate(-1.095 -9.913)"/><rect width="5.855" height="15.034" rx="2" transform="matrix(0.866, -0.5, 0.5, 0.866, 32.018, 2.928)"/><rect width="15.034" height="5.855" rx="2" transform="matrix(0.5, -0.866, 0.866, 0.5, 0, 13.021)"/><path d="M33.192,30.058l.465.433a2,2,0,1,0,2.615-3.037l-8.4-7.236-.669-.571-7.141,2.842A3.594,3.594,0,0,1,16.8,16.113l3.739-2.345-4.174-.52a7.909,7.909,0,0,0-2.509.1,3.572,3.572,0,0,1-.473,1.881L8.117,24.351l.518-.618a3.7,3.7,0,0,1,5.2-.461l.148.126a3.651,3.651,0,0,1,.721.822,3.679,3.679,0,0,1,2.8.843l.144.124a3.647,3.647,0,0,1,1.291,2.5c0,.032.005.064.007.1a3.7,3.7,0,0,1,.948.577l.13.11a3.68,3.68,0,0,1,1.311,2.608,3.656,3.656,0,0,1,.95.578l.134.113a3.666,3.666,0,0,1,.57,5.029l.408.372a1.976,1.976,0,1,0,2.663-2.919l.631.577a1.975,1.975,0,1,0,2.665-2.916l1.172,1.069a1.976,1.976,0,1,0,2.665-2.918Z" transform="translate(-0.136 -9.833)"/></g></g></g></svg>