<svg xmlns="http://www.w3.org/2000/svg" xmlns:xlink="http://www.w3.org/1999/xlink" width="265.651" height="233.912" viewBox="0 0 265.651 233.912">
  <defs>
    <clipPath id="clip-path">
      <path id="Trazado_146715" data-name="Trazado 146715" d="M89.928,55.153a34.374,34.374,0,0,1-68.748,0C21.18,36.168,36.569,14.1,55.554,14.1S89.928,36.168,89.928,55.153Z" transform="translate(-21.18 -14.1)" fill="none"/>
    </clipPath>
  </defs>
  <g id="cf5_ciclo_copia_2" data-name="cf5_ciclo copia 2" transform="translate(-0.521 -7.299)">
    <g id="Grupo_88507" data-name="Grupo 88507" transform="translate(0.521 149.776)">
      <g id="Grupo_88503" data-name="Grupo 88503" transform="translate(175.272 53.06)">
        <path id="Trazado_146582" data-name="Trazado 146582" d="M284.2,244.951c-19.771,1.679-33.093,38.738-82.512,16.458,0,0,5.424-16.176,29.736-26.255S284.2,244.951,284.2,244.951Z" transform="translate(-201.69 -232.302)" fill="#c8ddf5"/>
        <path id="Trazado_146583" data-name="Trazado 146583" d="M209.33,260.131a138.855,138.855,0,0,1,15.972-7.006c1.36-.521,2.739-.989,4.126-1.449s2.765-.883,4.161-1.334,2.8-.8,4.205-1.184c.707-.194,1.413-.389,2.12-.565l2.129-.512,2.129-.495,2.147-.415,2.156-.424c.716-.141,1.44-.247,2.156-.353,1.449-.212,2.889-.459,4.346-.6s2.9-.353,4.355-.406a73.491,73.491,0,0,1,17.457.636,118.7,118.7,0,0,0-17.3.883l-1.078.124-1.069.168-2.138.309c-1.422.186-2.836.468-4.258.724-.707.141-1.413.239-2.12.389l-2.12.433-2.111.442-2.1.5-2.1.486c-.707.168-1.4.353-2.1.53l-2.094.539c-.7.177-1.387.4-2.085.583-1.387.38-2.783.751-4.161,1.184s-2.774.813-4.143,1.254C220.285,256.315,214.816,258.214,209.33,260.131Z" transform="translate(-202.581 -233.798)" fill="#abbdd2"/>
      </g>
      <g id="Grupo_88504" data-name="Grupo 88504" transform="translate(166.22 2.504)">
        <path id="Trazado_146584" data-name="Trazado 146584" d="M285.428,175.221c-24.126,17.245-12.96,75.03-93.458,84.12,0,0-5.371-24.922,18.163-56.433S285.428,175.221,285.428,175.221Z" transform="translate(-191.443 -175.075)" fill="#d5e9ff"/>
        <path id="Trazado_146585" data-name="Trazado 146585" d="M198.1,253.526a135.291,135.291,0,0,1,12.721-21.715,153.074,153.074,0,0,1,16.246-19.294,134.283,134.283,0,0,1,19.347-16.229,87.168,87.168,0,0,1,22.439-11.379A139.582,139.582,0,0,0,248.031,198.5a200.767,200.767,0,0,0-18.49,16.529A247.232,247.232,0,0,0,213.03,233.49C207.774,239.93,202.871,246.644,198.1,253.526Z" transform="translate(-192.219 -176.221)" fill="#c8ddf5"/>
      </g>
      <g id="Grupo_88505" data-name="Grupo 88505" transform="translate(0 50.511)">
        <path id="Trazado_146586" data-name="Trazado 146586" d="M3.29,239.464c19.6,3.066,30.284,40.973,81.152,22.236,0,0-4.276-16.52-27.819-28.27S3.29,239.464,3.29,239.464Z" transform="translate(-3.29 -229.416)" fill="#c8ddf5"/>
        <path id="Trazado_146587" data-name="Trazado 146587" d="M79,259.772c-5.3-2.306-10.663-4.585-16.043-6.688-1.343-.539-2.7-1.025-4.055-1.546s-2.7-.989-4.064-1.466c-.689-.239-1.36-.5-2.041-.724l-2.05-.689c-.689-.23-1.369-.468-2.058-.68l-2.067-.627-2.058-.654-2.076-.583-2.085-.592c-.689-.194-1.4-.345-2.094-.53-1.387-.353-2.783-.742-4.2-1.025l-2.1-.459-1.06-.239-1.06-.2a117.5,117.5,0,0,0-17.192-2.1,73.12,73.12,0,0,1,17.457.583c1.449.159,2.88.468,4.32.724s2.862.583,4.285.883c.716.159,1.431.318,2.138.5l2.111.565,2.111.574,2.094.645,2.085.654c.7.23,1.378.477,2.076.716,1.369.477,2.756.936,4.108,1.484s2.721,1.051,4.064,1.617,2.65,1.122,4.011,1.767A138.131,138.131,0,0,1,79,259.772Z" transform="translate(-4.387 -230.731)" fill="#abbdd2"/>
      </g>
      <g id="Grupo_88506" data-name="Grupo 88506" transform="translate(12.995)">
        <path id="Trazado_146588" data-name="Trazado 146588" d="M18,172.24c21.715,17.96,7.271,72.017,83,86.028,0,0,6.767-23.278-13.446-54.773S18,172.24,18,172.24Z" transform="translate(-18 -172.24)" fill="#d5e9ff"/>
        <path id="Trazado_146589" data-name="Trazado 146589" d="M98.52,252.532c-4.1-6.829-8.313-13.508-12.836-19.965a231.289,231.289,0,0,0-14.471-18.6,194.7,194.7,0,0,0-16.405-16.856A135.165,135.165,0,0,0,36,182.75a81.7,81.7,0,0,1,20.557,12.244,125.968,125.968,0,0,1,17.289,16.679,143.9,143.9,0,0,1,14.135,19.435A127.491,127.491,0,0,1,98.52,252.532Z" transform="translate(-20.098 -173.465)" fill="#c8ddf5"/>
      </g>
    </g>
    <g id="Grupo_88515" data-name="Grupo 88515" transform="translate(121.351 111.789)">
      <g id="Grupo_88508" data-name="Grupo 88508" transform="translate(0 60.206)">
        <path id="Trazado_146590" data-name="Trazado 146590" d="M160.838,229.19c-2.721,3.233-5.186,8.587-6.714,9.435s-4.108,1.148-6.546,8.993,9.868,6.767,9.868,6.767a18.128,18.128,0,0,0,7.385-10.345l5.3-4.673Z" transform="translate(-140.903 -201.097)" fill="#ffa497"/>
        <path id="Trazado_146591" data-name="Trazado 146591" d="M151.837,254.707a19.789,19.789,0,0,0,7.359-4.868c3.392-3.534,3.825-9.947,3.825-9.947l1.626,3.03,3.251-3.472,1.564-.15,1.148,1.272-5.3,4.673a18.128,18.128,0,0,1-7.385,10.318,19.717,19.717,0,0,1-6.264-.557C151.775,254.822,151.837,254.707,151.837,254.707Z" transform="translate(-141.416 -202.276)" fill="#f45763"/>
        <path id="Trazado_146592" data-name="Trazado 146592" d="M180.565,197.39c-3.772,2.756-6.016,4.753-7.889,8.5s-13.622,17.218-14.373,18.419,6.608,13.94,12.483,17.068c0,0,8.887-10.248,14.011-14.135s3.366-17.616,1-22.245a36.125,36.125,0,0,0-5.23-7.606Z" transform="translate(-142.184 -197.39)" fill="#ea3584"/>
        <path id="Trazado_146593" data-name="Trazado 146593" d="M181.47,224.448V216.8s.989-.4,1.767,2.182a6.953,6.953,0,0,1,.15,3.057l5.716-4.3c.239,4.815-.53,9.718-3.269,11.785-5.124,3.869-14.011,14.135-14.011,14.135a18.552,18.552,0,0,1-4.673-3.975C170.763,236.056,177.619,229.1,181.47,224.448Z" transform="translate(-143.222 -199.65)" fill="#dd2877"/>
        <path id="Trazado_146594" data-name="Trazado 146594" d="M141.774,254.29c-.981.309-1.705.777-1.705,2.005a9.947,9.947,0,0,0,.68,3.949c.468.769,2.88,1.228,2.88,1.228s-.159-5.089-.671-6.025a2.359,2.359,0,0,0-1.184-1.157Z" transform="translate(-140.064 -204.023)" fill="#ffa497"/>
        <path id="Trazado_146595" data-name="Trazado 146595" d="M140.8,260.883a3.259,3.259,0,0,1-.327-.883,1.652,1.652,0,0,0,1.334.583l1.838.574v.954S141.265,261.679,140.8,260.883Z" transform="translate(-140.111 -204.689)" fill="#f45763"/>
        <path id="Trazado_146596" data-name="Trazado 146596" d="M144.3,252.18a2.518,2.518,0,0,0-2.376,2.253c0,1.237-.424,4.673,0,5.23a10.2,10.2,0,0,0,3.233,2.253c.716.124,1.944-.088,1.767-.468S144.3,252.18,144.3,252.18Z" transform="translate(-140.259 -203.777)" fill="#ffa497"/>
        <path id="Trazado_146597" data-name="Trazado 146597" d="M141.75,259.594c.883,1.016,3.207.883,3.207.883a9.865,9.865,0,0,1,1.14,1.431c.071.212.486.486.548.7a3.2,3.2,0,0,1-1.484.124,10.063,10.063,0,0,1-3.207-2.217l-.2-.963Z" transform="translate(-140.261 -204.636)" fill="#f45763"/>
        <path id="Trazado_146598" data-name="Trazado 146598" d="M149.095,249.88c-3.649.212-4.329.548-4.461,2.032a27.8,27.8,0,0,0,.424,6.926,8.772,8.772,0,0,0,1.316,2.65,2.332,2.332,0,0,0,1.493.6s2-2.933,2.076-5.4A37.7,37.7,0,0,0,149.095,249.88Z" transform="translate(-140.591 -203.509)" fill="#ffa497"/>
        <path id="Trazado_146599" data-name="Trazado 146599" d="M147.044,260.257a22.086,22.086,0,0,0,.654-5.468c0-1.263,1.193,5.362.663,7.173-.256.459-.442.733-.442.733a2.332,2.332,0,0,1-1.493-.6,8.772,8.772,0,0,1-1.316-2.65,1.366,1.366,0,0,0-.079-.256A2.173,2.173,0,0,0,147.044,260.257Z" transform="translate(-140.643 -204.063)" fill="#f45763"/>
        <path id="Trazado_146600" data-name="Trazado 146600" d="M157.48,257.2c-.23,2.032-2.889,2.765-3.18,3.781s-.088,1.952-.6,2.209-2.65-.936-2.544-2.3a2.65,2.65,0,0,1-1.767,1.361c-1.237.212-1.528-.689-1.316-2.041a17.182,17.182,0,0,0,.124-3.693c0-1.617-.424-3.1.3-4.885s1.7-3.357,3.649-3.057,3.145,2.756,4.214,3.6S157.719,254.945,157.48,257.2Z" transform="translate(-140.99 -203.352)" fill="#ffa497"/>
        <path id="Trazado_146601" data-name="Trazado 146601" d="M151.57,261.408c.115-2.58.256-4.691.256-5.106s-.141-3.163.839-3.322c.141,0,2.288,1.325,2.332,2.244s0,2.562-.671,3.03a30.035,30.035,0,0,0-2.756,3.154Z" transform="translate(-141.405 -203.87)" fill="#f45763"/>
      </g>
      <g id="Grupo_88509" data-name="Grupo 88509" transform="translate(36.141 33.959)">
        <path id="Trazado_146602" data-name="Trazado 146602" d="M243.547,201.4c-3.869-4.912-5.2-5.415-9.205-7.748s-19.153-8.242-22.28-8.993-15.716,5.124-19.851,7-9.391,3.719-10.292,5.548c-2.995,6.113,2.942,14.771,2.977,32.934,0,9.506,2.182,30.92,2.182,30.92s47.6.088,48.271-.883,2.332-35.152,3.163-42.148S243.547,201.4,243.547,201.4Z" transform="translate(-180.986 -169.652)" fill="#ea3584"/>
        <path id="Trazado_146603" data-name="Trazado 146603" d="M182.084,208.769a13.1,13.1,0,0,1-.945-3.463,12.872,12.872,0,0,1-.071-3.6,13.251,13.251,0,0,1,.945,3.472,12.8,12.8,0,0,1,.071,3.587Z" transform="translate(-180.974 -171.647)" fill="#dd2877"/>
        <path id="Trazado_146604" data-name="Trazado 146604" d="M201.424,201.108c-1.838-.689-6.184.5-6.988.777s.468-3.127.936-3.534a2.474,2.474,0,0,1,2.65-.963,5.592,5.592,0,0,1,2.853,2.65A8.54,8.54,0,0,0,201.424,201.108Z" transform="translate(-182.513 -171.134)" fill="#c41e67"/>
        <path id="Trazado_146605" data-name="Trazado 146605" d="M217.981,204.07a34.367,34.367,0,0,1-5.4-2.226c-.91-.459-5.071-.645-7.854.141,0,0,5.362-3.631,8.481-3.6s4.311,1.157,4.567,2.156a20.957,20.957,0,0,1,.2,3.525Z" transform="translate(-183.744 -171.26)" fill="#c41e67"/>
        <path id="Trazado_146606" data-name="Trazado 146606" d="M195.52,256.452c.512-.5,31.6.5,32.227-2.747s1.051-9.135,1.051-9.135c-3.737,2-9.17,1.166-9.17,1.166,3.622-1.184,8.834-7.129,9.117-8.878.769-5.389-2.111-20.248-2.111-20.248l2.111-4.24,2.5-1.369a34.312,34.312,0,0,1,8.684,6.617,33.372,33.372,0,0,0-.618,3.463c-.786,6.6-2.315,37.325-3.039,41.654-9.629.353-27.086,1-38.765,1.4h-9.629s-.071-2.818-.239-6.847C190.856,257.071,195.211,256.762,195.52,256.452Z" transform="translate(-181.751 -172.73)" fill="#dd2877"/>
        <path id="Trazado_146607" data-name="Trazado 146607" d="M202.536,200.368c3.357-.406,8.746-3.313,10.866-2.315s2.65,3.534,3.065,4,2.306-1.767,2.306-7.12.168-10.875-3.79-11.617-14.2,3.118-16.255,4.682a9.718,9.718,0,0,0-3.534,4.664c-.565,1.52-2.067,7.642-1.378,7.7s2.65-3.931,4.064-4.064S201.626,200.474,202.536,200.368Z" transform="translate(-182.451 -169.492)" fill="#dd2877"/>
        <path id="Trazado_146608" data-name="Trazado 146608" d="M201.317,196.115c-.883-2.032-1.767-3.816-1.767-5.221s.345-2.368,1.9-2.809,2.217.406,2.315,2.527S201.317,196.115,201.317,196.115Z" transform="translate(-183.14 -170.045)" fill="#c41e67"/>
        <path id="Trazado_146609" data-name="Trazado 146609" d="M215.41,191.825c3.269-2.959,3.64-6.272,3.331-6.961s-1.661-1.184-1.661-1.184-.53,2.156-.212,2.65S215.41,191.825,215.41,191.825Z" transform="translate(-184.989 -169.545)" fill="#c41e67"/>
        <path id="Trazado_146610" data-name="Trazado 146610" d="M209.53,200.213a11.184,11.184,0,0,1,5.115-1.343,2.518,2.518,0,0,1,1.431.477,12.369,12.369,0,0,1,.954.989,9.655,9.655,0,0,1,1.413,2.3c.071.168.239.371.177.309s-.177,0-.124,0a.681.681,0,0,0,.141-.141,7.22,7.22,0,0,0,.618-1.042,8.718,8.718,0,0,0,.786-2.359,37.987,37.987,0,0,0,.583-5.15,19.807,19.807,0,0,1,.1,5.3,8.49,8.49,0,0,1-.716,2.65,6.556,6.556,0,0,1-.7,1.21,1.352,1.352,0,0,1-.318.318.884.884,0,0,1-.3.141.724.724,0,0,1-.433-.053,1.042,1.042,0,0,1-.415-.38c-.071-.115-.133-.221-.186-.327a9.833,9.833,0,0,0-1.272-2.164c-.247-.309-.565-.68-.8-.928a1.961,1.961,0,0,0-1-.38,8.93,8.93,0,0,0-2.509.115,23.294,23.294,0,0,0-2.544.459Z" transform="translate(-184.303 -170.777)" fill="#c41e67"/>
        <path id="Trazado_146611" data-name="Trazado 146611" d="M199.938,199.489c-.389-.292-.777-.583-1.175-.83a3.171,3.171,0,0,0-.592-.309,1.1,1.1,0,0,0-.256-.053h-.124a6.917,6.917,0,0,0-1.882,1.944,11.153,11.153,0,0,1-.883,1.2,3.242,3.242,0,0,1-.583.565l-.2.132a1.06,1.06,0,0,1-.309.088.61.61,0,0,1-.627-.433,2.041,2.041,0,0,1,0-.883c.044-.256.106-.495.168-.733a9.223,9.223,0,0,1,.521-1.378l-.1,1.449a6.131,6.131,0,0,0,0,.7,1.378,1.378,0,0,0,.088.565.141.141,0,0,0-.1-.044h0l.088-.08a2.447,2.447,0,0,0,.406-.477c.265-.345.486-.76.777-1.184a5.848,5.848,0,0,1,2.253-2.023,1.008,1.008,0,0,1,.265-.106,1.051,1.051,0,0,1,.292,0,1.476,1.476,0,0,1,.433.168,3.286,3.286,0,0,1,.6.486,6.016,6.016,0,0,1,.936,1.237Z" transform="translate(-182.406 -171.167)" fill="#c41e67"/>
        <path id="Trazado_146612" data-name="Trazado 146612" d="M201,181.541a39.007,39.007,0,0,0,.194,3.949c.336,3.225,0,7.474.265,8.26s1.97,3.993,1.97,3.993a15.068,15.068,0,0,0,4.249-2.871c1.254-1.5,2.871-1.572,5.062-3.79s3.666-5.716,3.18-8.64c-.062-.38-.442-4.117-.53-7.951s-4.152-6.811-8.022-6.811-6.184,5.751-6.317,9.621C201,178.847,201,180.331,201,181.541Z" transform="translate(-183.309 -167.68)" fill="#ffa497"/>
        <path id="Trazado_146613" data-name="Trazado 146613" d="M215.421,174.576c.088,3.878.468,7.615.53,7.951a7.792,7.792,0,0,1-.079,2.818c-.883.159-11.882.424-14.744-.883-.062-.936-.088-1.873-.1-2.818,0-1.2,0-2.694.053-4.285a14.541,14.541,0,0,1,1.29-5.354l9.073-3.216A6.935,6.935,0,0,1,215.421,174.576Z" transform="translate(-183.312 -167.809)" fill="#f45763"/>
      </g>
      <g id="Grupo_88511" data-name="Grupo 88511" transform="translate(34.98)">
        <path id="Trazado_146614" data-name="Trazado 146614" d="M192.276,157.089a7.659,7.659,0,0,0-8.057,7.871c0,3.03.972,7.88,8.057,7.88,3.534,0,5.937-3.534,5.937-7.88S195.819,157.089,192.276,157.089Z" transform="translate(-180.191 -132.485)" fill="#091320"/>
        <path id="Trazado_146615" data-name="Trazado 146615" d="M192.247,159.269a5.786,5.786,0,0,0-6.087,5.945c0,2.288.733,5.954,6.087,5.954,2.65,0,4.479-2.65,4.479-5.954S194.914,159.269,192.247,159.269Z" transform="translate(-180.417 -132.74)" fill="#38295c"/>
        <path id="Trazado_146616" data-name="Trazado 146616" d="M184.965,157.711c.345,2.05,1.36,2.836,1.82,5.61s-.76,6.785,1.042,10.292,4.726,8.11,6.414,8.3,15.2-2.085,19.762-11.158c1.307-2.6,4.1-12.8,1.705-19.029s-6.281-11.944-15.283-12.121S183.1,146.827,184.965,157.711Z" transform="translate(-180.248 -130.448)" fill="#ffa497"/>
        <path id="Trazado_146617" data-name="Trazado 146617" d="M193.362,172.607a1.564,1.564,0,0,0,1.246-.486,1.281,1.281,0,0,0,.23-.981,2.88,2.88,0,0,1-2.429.53C192.3,172.315,192.8,172.6,193.362,172.607Z" transform="translate(-181.144 -134.124)" fill="#f45763"/>
        <path id="Trazado_146618" data-name="Trazado 146618" d="M207.788,156.5a5.963,5.963,0,0,0-1.767-3.366,26.133,26.133,0,0,0-6.1-1.687,35.656,35.656,0,0,1-5.389-1.042,7.421,7.421,0,0,0,2.27,3.048s-6.361-.318-8.366-2.2c0,0,.389,1.546.777,2.588,0,0-3.118-.318-4.09-1.555a21.018,21.018,0,0,0-.777,4.214s-3.737-5.124-2.792-9.188,2.253-5.619,2.253-5.619a20.91,20.91,0,0,1-4.152,0s3.463-3.03,6.051-5.018,10.38-2.076,10.38-2.076a12.076,12.076,0,0,1,.088-5.362s3.331,4.885,6.855,6.378a29.207,29.207,0,0,0,6.794,2.306,17.227,17.227,0,0,1,8.781,5.345c1.493,2.005,3.11,4.09,4.081,4.417a8.543,8.543,0,0,1-3.534-1.3,13.172,13.172,0,0,1-.627,10.115c-2.571,5.689-9.02,4.011-10.274,2.747A2.438,2.438,0,0,1,207.788,156.5Z" transform="translate(-179.66 -129.24)" fill="#d16452"/>
        <path id="Trazado_146619" data-name="Trazado 146619" d="M211.692,160.225a2.438,2.438,0,0,1-.5-2.747,6,6,0,0,0-1.254-2.809,37.987,37.987,0,0,0-1.1-17.068,19.25,19.25,0,0,0,2.951.936,31.512,31.512,0,0,1,3.9,8.472c1.131,3.772,1.679,7.836.627,11.626a12.581,12.581,0,0,1-1.166,2.809,6.122,6.122,0,0,1-3.454-1.219Z" transform="translate(-183.06 -130.215)" fill="#994234"/>
        <path id="Trazado_146620" data-name="Trazado 146620" d="M213.134,155.231s.451-14.232-7.014-18.773a9.718,9.718,0,0,1,9.082,5.124,23.481,23.481,0,0,1,3,13.5C218.126,157.855,213.134,155.231,213.134,155.231Z" transform="translate(-182.744 -130.08)" fill="#091320"/>
        <path id="Trazado_146621" data-name="Trazado 146621" d="M215.857,157.089a7.65,7.65,0,0,1,8.048,7.871c0,3.03-.963,7.88-8.048,7.88-3.534,0-5.937-3.534-5.937-7.88S212.314,157.089,215.857,157.089Z" transform="translate(-183.187 -132.485)" fill="#091320"/>
        <path id="Trazado_146622" data-name="Trazado 146622" d="M213.06,165.078c0-3.861,2.553-6.988,5.7-6.988s5.513,3.127,5.513,6.988-2.368,7-5.513,7S213.06,168.947,213.06,165.078Z" transform="translate(-183.553 -132.603)" fill="#38295c"/>
        <ellipse id="Elipse_4891" data-name="Elipse 4891" cx="3.878" cy="4.762" rx="3.878" ry="4.762" transform="translate(32.077 27.713)" fill="#091320"/>
        <g id="Grupo_88510" data-name="Grupo 88510" transform="translate(10.665 40.355)">
          <path id="Trazado_146623" data-name="Trazado 146623" d="M198.877,174.92c-1.581.883-6.749,1.166-7.067,1.113s.371,3.878,1.634,4.028,3.8-.194,4.859-1.21S198.877,174.92,198.877,174.92Z" transform="translate(-191.733 -174.92)" fill="#f45763"/>
          <path id="Trazado_146624" data-name="Trazado 146624" d="M198.6,176.1l-.247-.883a28.12,28.12,0,0,1-6.184.883,7.446,7.446,0,0,0,.451,1.581s0,.053,0,0A7.721,7.721,0,0,0,198.6,176.1Z" transform="translate(-191.784 -174.955)" fill="#fff"/>
        </g>
        <path id="Trazado_146625" data-name="Trazado 146625" d="M199,164.119c0-.716.353-1.3.8-1.3s.786.583.786,1.3-.353,1.3-.786,1.3S199,164.834,199,164.119Z" transform="translate(-181.915 -133.155)" fill="#471052"/>
        <path id="Trazado_146626" data-name="Trazado 146626" d="M188.81,164.829c0-.716.3-1.3.68-1.3s.68.583.68,1.3-.309,1.3-.68,1.3S188.81,165.527,188.81,164.829Z" transform="translate(-180.727 -133.237)" fill="#471052"/>
        <path id="Trazado_146627" data-name="Trazado 146627" d="M203.072,158.44a8.33,8.33,0,0,0-1.723-.68,8.038,8.038,0,0,0-1.846-.274,4.417,4.417,0,0,0-1.891.186,3.533,3.533,0,0,0-1.572,1.1l.053.08c.645-.071,1.184-.23,1.767-.309s1.087-.283,1.67-.336a10.16,10.16,0,0,1,3.534.318Z" transform="translate(-181.569 -132.529)" fill="#471052"/>
        <path id="Trazado_146628" data-name="Trazado 146628" d="M186.23,160.306a3.648,3.648,0,0,1,.883-.212,7.51,7.51,0,0,1,.883-.053,4.073,4.073,0,0,0,.883,0,1.653,1.653,0,0,0,.442-.124,1.564,1.564,0,0,0,.477-.23V159.6a1.661,1.661,0,0,0-.928-.451,2.12,2.12,0,0,0-.963.15,4.787,4.787,0,0,0-.883.345,3.172,3.172,0,0,0-.8.565Z" transform="translate(-180.426 -132.726)" fill="#471052"/>
      </g>
      <g id="Grupo_88514" data-name="Grupo 88514" transform="translate(24.65 63.79)">
        <path id="Trazado_146629" data-name="Trazado 146629" d="M193.232,264.868c0,.194-.274.486-.963.486H170.652c-2.5,0-3.083-.989-2.332-2.235s3.914-4,11.741-5.91,11.944,2.562,13.251,4.576a3.172,3.172,0,0,1-.08,3.083Z" transform="translate(-167.973 -207.893)" fill="#091320"/>
        <path id="Trazado_146630" data-name="Trazado 146630" d="M168.085,263.752c.433,1.44,16.962.689,16.962.689s-1.679-2.262-3.534-2.332-2.756.583-5.248,1.007-.636-1.007-.636-1.007a8.358,8.358,0,0,1-2.474-.945s4.1-1.21,5.813-1.493a40.108,40.108,0,0,1,6.652,0c.4.071,2.412-1.1,4.85-.512a10.726,10.726,0,0,1,2.747,2.889,3.172,3.172,0,0,1,0,3.083c0,.194-.274.486-.963.486H170.646C168.358,265.616,167.66,264.821,168.085,263.752Z" transform="translate(-167.967 -208.155)" fill="#38295c"/>
        <path id="Trazado_146631" data-name="Trazado 146631" d="M239.326,249.149s-15.407,2.385-23.755,3.878c-7.951,1.413-14.744,2.032-16.679,1.652A101.707,101.707,0,0,1,188.211,251c-2.129-.883-6.378-1.369-8.56-.689s-3.975,1.44-4.85,1.44-.716,1.413.451,1.705a8.941,8.941,0,0,0,2.209.256s-3.949,2.164-4.664,2.368.133,1.5,1.1,1.422c0,0-.839.495-.548,1s2.368.495,2.368.495-2.535,1.254-.415,1.767,4.665-1.873,5.707-2.076a7.208,7.208,0,0,1,4.62.786c1.166.875,6.184,4.912,13,2.5,0,0,46.354,1.882,50.983,1.882s7.412-4.09,5.928-11.962a59.765,59.765,0,0,0-4.355-13.737l-15.99,1.122Z" transform="translate(-168.499 -205.726)" fill="#ffa497"/>
        <g id="Grupo_88512" data-name="Grupo 88512" transform="translate(6.01 46.559)">
          <path id="Trazado_146632" data-name="Trazado 146632" d="M182.24,254.318a7,7,0,0,1,.945-.168Z" transform="translate(-175.641 -254.15)" fill="#f45763"/>
          <path id="Trazado_146633" data-name="Trazado 146633" d="M177.721,255.594a8.941,8.941,0,0,1-2.209-.256,1.4,1.4,0,0,1-.742-.451,6.184,6.184,0,0,0,3.772,0c.548-.133,1.908-.38,2.827-.548a21.953,21.953,0,0,0-3.649,1.254Z" transform="translate(-174.77 -254.172)" fill="#f45763"/>
        </g>
        <g id="Grupo_88513" data-name="Grupo 88513" transform="translate(4.305 49.757)">
          <path id="Trazado_146634" data-name="Trazado 146634" d="M178.34,257.867l.239-.1Z" transform="translate(-173.481 -257.77)" fill="#f45763"/>
          <path id="Trazado_146635" data-name="Trazado 146635" d="M172.84,259.3s.477.424,1.44,0c.8-.345,2.747-1.148,3.419-1.422-.883.389-3.163,1.687-3.772,1.917A1.352,1.352,0,0,1,172.84,259.3Z" transform="translate(-172.84 -257.783)" fill="#f45763"/>
        </g>
        <path id="Trazado_146636" data-name="Trazado 146636" d="M175.352,260.955a33.01,33.01,0,0,0,3.092-1.528,6.343,6.343,0,0,1,2.058-.477,4.656,4.656,0,0,0-1.246.477c-.883.451-3.392,1.988-3.392,1.988a7.644,7.644,0,0,1-2.014-.256,5.76,5.76,0,0,0,1.5-.2Z" transform="translate(-168.653 -208.15)" fill="#f45763"/>
        <path id="Trazado_146637" data-name="Trazado 146637" d="M189.581,262.043a13.968,13.968,0,0,0,7.5,1.44,3.534,3.534,0,0,0,2.809-2.376l.645,2.085s32.148.883,38.685.618,16.547-.433,17.863-4.32c-.362,4.505-2.8,6.829-6.281,6.829-4.629,0-50.983-1.882-50.983-1.882-6.829,2.412-11.829-1.626-13-2.5a6.882,6.882,0,0,0-3.984-.883h0C184.616,260.453,188.282,261.23,189.581,262.043Z" transform="translate(-169.701 -208.213)" fill="#f45763"/>
        <path id="Trazado_146638" data-name="Trazado 146638" d="M247.967,249.981s6.025-.813,7.226-.945l-.883-3.746-7.65,1.511Z" transform="translate(-177.141 -206.558)" fill="#f45763"/>
        <path id="Trazado_146639" data-name="Trazado 146639" d="M262.265,234.426a1.546,1.546,0,0,1-.371,1.678c-2.792,2.739-6.467,6.458-10.248,7.067-4.126.627-11,.883-11.37,0s-1.767-11.988-4.249-17.616-4.117-8.56-4.744-11.776,4.991-10.866,7.491-11.485,8.242-1,10.6,1.122,4.126,10.248,6.873,16.37C258.484,224.717,261.276,231.855,262.265,234.426Z" transform="translate(-175.343 -201.489)" fill="#ea3584"/>
        <path id="Trazado_146640" data-name="Trazado 146640" d="M246.925,202.13a36.08,36.08,0,0,0-4.585,0,20.9,20.9,0,0,0-2.235.292c-.371.062-.733.15-1.1.23a5.76,5.76,0,0,0-.972.4,7.121,7.121,0,0,0-1.767,1.3,15.9,15.9,0,0,0-1.493,1.678,38.117,38.117,0,0,0-2.518,3.825,17.13,17.13,0,0,1,1.961-4.223,9.568,9.568,0,0,1,3.366-3.357,5.821,5.821,0,0,1,1.166-.459c.389-.079.777-.168,1.166-.221a15.1,15.1,0,0,1,2.359-.141A16.785,16.785,0,0,1,246.925,202.13Z" transform="translate(-175.462 -201.447)" fill="#dd2877"/>
        <path id="Trazado_146641" data-name="Trazado 146641" d="M261.781,237.306c0-2-4.24-20.319-7.951-30.5h0c1.581,3.49,3.066,9.055,5.08,13.552,2.217,4.938,5.009,12.076,6,14.647a1.546,1.546,0,0,1-.371,1.678c-1.069,1.051-2.27,2.244-3.534,3.348a3.746,3.746,0,0,0,.777-2.73Z" transform="translate(-177.976 -202.072)" fill="#dd2877"/>
      </g>
    </g>
    <g id="Grupo_88521" data-name="Grupo 88521" transform="translate(28.831 177.984)">
      <g id="Grupo_88517" data-name="Grupo 88517" transform="translate(0 9.627)">
        <path id="Trazado_146642" data-name="Trazado 146642" d="M35.357,217.658a2.907,2.907,0,0,0,.345,1.767,12.721,12.721,0,0,1,1.573,6.52,14.482,14.482,0,0,0,.053,4.417c.7,2.474,3.313,4.011,4.152,6.44.751,2.156.053,4.868,1.608,6.537a1.44,1.44,0,0,0,1.5.521,1.767,1.767,0,0,0,.645-.539c1.767-2.014,3.684-4.417,3.136-7.067-.521-2.474-3.066-4.143-3.534-6.626-.389-2.023.645-4.364-.512-6.069-.327-.468-.786-.83-1.131-1.281-1.378-1.767-.883-4.594-2.456-6.184a3.666,3.666,0,0,0-1.882-.963,2.906,2.906,0,0,0-3.5,2.527Z" transform="translate(-35.335 -215.067)" fill="#d25e5a"/>
        <g id="Grupo_88516" data-name="Grupo 88516" transform="translate(3.158 3.333)">
          <path id="Trazado_146643" data-name="Trazado 146643" d="M45.915,249.5c.106-1.316.15-2.65.2-3.958a31.321,31.321,0,0,0-.247-3.958c-.115-1.307-.256-2.65-.495-3.949a16.493,16.493,0,0,0-1.1-3.852c-.954-2.421-1.767-4.947-2.509-7.456l-1.131-3.772c-.468-1.237-.883-2.474-1.36-3.719.194,1.307.486,2.6.751,3.9l1.14,3.781c.786,2.518,1.546,5.036,2.527,7.509a16.051,16.051,0,0,1,1.06,3.728c.23,1.281.38,2.58.486,3.887s.186,2.65.239,3.931Z" transform="translate(-38.953 -218.84)" fill="#ffa7a4"/>
          <path id="Trazado_146644" data-name="Trazado 146644" d="M38.91,223.15a3.233,3.233,0,0,0,.8.8c.159.1.336.168.5.256a1.678,1.678,0,0,1,.459.309l.062.062.053-.088c.124-.186.283-.371.4-.565s.239-.389.345-.592a4.417,4.417,0,0,0,.424-1.316h0a4.647,4.647,0,0,0-.786,1.131c-.106.212-.186.424-.274.636s-.133.442-.2.663H40.8a1.908,1.908,0,0,1-.442-.345,3.464,3.464,0,0,0-.4-.406,2.818,2.818,0,0,0-.989-.53Z" transform="translate(-38.91 -219.21)" fill="#ffa7a4"/>
          <path id="Trazado_146645" data-name="Trazado 146645" d="M39.27,228.236c.23.186.459.389.707.557a6.83,6.83,0,0,0,.76.477c.274.124.557.23.822.38a4.735,4.735,0,0,1,.733.512l.088.071.08-.106a13.41,13.41,0,0,0,.989-1.493,9.373,9.373,0,0,0,.7-1.643h0a9.718,9.718,0,0,0-1.051,1.44,13.253,13.253,0,0,0-.777,1.59h.159a6.185,6.185,0,0,1-.786-.433c-.247-.168-.468-.38-.707-.565a6.9,6.9,0,0,0-.777-.459,3.879,3.879,0,0,0-.883-.318Z" transform="translate(-38.952 -219.79)" fill="#ffa7a4"/>
          <path id="Trazado_146646" data-name="Trazado 146646" d="M41.087,235.094a3.71,3.71,0,0,0,.8.61,3.268,3.268,0,0,0,.883.362,2.377,2.377,0,0,1,.883.424c.265.2.521.424.786.6l.194.133.15-.23a5.839,5.839,0,0,0,.574-1.025,5.46,5.46,0,0,0,.371-1.148h0a5.424,5.424,0,0,0-.769.928,5.874,5.874,0,0,0-.565,1.034l.345-.088a5.3,5.3,0,0,0-.936-.371,3.04,3.04,0,0,1-.883-.486,2.73,2.73,0,0,0-.883-.512,3.268,3.268,0,0,0-.981-.247Z" transform="translate(-39.161 -220.703)" fill="#ffa7a4"/>
        </g>
      </g>
      <g id="Grupo_88519" data-name="Grupo 88519" transform="translate(8.349)">
        <path id="Trazado_146647" data-name="Trazado 146647" d="M48.65,248.05c1.034-.168,4.894-1.4,4.629-2.412-1.157-4.329-2.315-9.241,1.7-11.361,1.926-1.016,4.346-1.537,5.451-3.428s.3-4.417-.716-6.414-2.244-4.152-1.767-6.361,2.65-4.011,2.986-6.343c.477-3.172-2.65-5.733-5.574-6.979a5.159,5.159,0,0,0-3.18-.521,3.86,3.86,0,0,0-1.944,1.246c-2.076,2.332-2,5.848-1.52,8.931s1.2,6.352.044,9.249c-.83,2.067-2.6,4-2.129,6.184.194.883.733,1.626.945,2.491.557,2.332-1.387,4.417-2.27,6.661a8.163,8.163,0,0,0,1.811,8.56,1.767,1.767,0,0,0,1.573.512Z" transform="translate(-44.787 -204.17)" fill="#6558b8"/>
        <g id="Grupo_88518" data-name="Grupo 88518" transform="translate(3.495 5.018)">
          <path id="Trazado_146648" data-name="Trazado 146648" d="M48.749,248.765c.239-1.714.477-3.428.786-5.124.071-.424.159-.839.23-1.263s.1-.883.168-1.281c.133-.883.274-1.7.433-2.535a33.262,33.262,0,0,1,1.3-4.938,9.868,9.868,0,0,1,1.078-2.235,3.057,3.057,0,0,1,.777-.83,4.029,4.029,0,0,0,1.042-.972,4.258,4.258,0,0,0,.76-2.65,13.6,13.6,0,0,0-.389-2.65c-.4-1.7-.883-3.339-1.175-5.018a11.6,11.6,0,0,1,.1-4.965c.141-.389.247-.786.371-1.184a8.181,8.181,0,0,1,.495-1.148,11.653,11.653,0,0,1,1.44-2.12,9.929,9.929,0,0,0-1.838,1.864,9.451,9.451,0,0,0-.724,1.131A4.417,4.417,0,0,0,53.1,214.1a12.209,12.209,0,0,0-.124,5.3c.292,1.767.8,3.4,1.184,5.062a12.792,12.792,0,0,1,.371,2.474,3.534,3.534,0,0,1-.6,2.209,3.286,3.286,0,0,1-.883.786,3.772,3.772,0,0,0-.989,1.034,10.858,10.858,0,0,0-1.175,2.412,34.162,34.162,0,0,0-1.325,5.062c-.168.883-.309,1.714-.442,2.571-.053.433-.133.883-.186,1.29s-.062.883-.1,1.3C48.785,245.32,48.723,247.033,48.749,248.765Z" transform="translate(-48.743 -209.85)" fill="#ffa7a4"/>
          <path id="Trazado_146649" data-name="Trazado 146649" d="M55.981,215.637a2.447,2.447,0,0,0-.777.459,2.783,2.783,0,0,0-.61.636,3.763,3.763,0,0,1-.512.716,6.968,6.968,0,0,1-.671.574h.3c-.106-.221-.23-.424-.345-.645a4.715,4.715,0,0,0-.38-.61c-.141-.194-.292-.389-.433-.583s-.318-.371-.451-.574H52.05a1.935,1.935,0,0,0,.159.751,4.32,4.32,0,0,0,.309.68,4.153,4.153,0,0,0,.406.618,5.777,5.777,0,0,0,.468.574l.186.2.115-.186a5.194,5.194,0,0,1,.5-.716,3.181,3.181,0,0,1,.68-.557,3.374,3.374,0,0,0,.618-.61,6.31,6.31,0,0,0,.521-.724Z" transform="translate(-49.128 -210.521)" fill="#ffa7a4"/>
          <path id="Trazado_146650" data-name="Trazado 146650" d="M52.26,222.987a4.294,4.294,0,0,0,.459.813,5.7,5.7,0,0,0,.592.707c.221.212.477.4.716.592a4.1,4.1,0,0,1,.627.671l.062.079.088-.071a7.268,7.268,0,0,0,.8-.742c.23-.265.477-.512.7-.8a8.246,8.246,0,0,0,.618-.883c.194-.327.371-.6.574-.883v-.044a3.534,3.534,0,0,0-.883.645,8.78,8.78,0,0,0-.733.786,10.327,10.327,0,0,0-.627.883c-.212.318-.371.618-.565.883h.141a3.763,3.763,0,0,1-.636-.663c-.177-.247-.336-.521-.53-.76a8.725,8.725,0,0,0-.627-.654,6.7,6.7,0,0,0-.716-.592Z" transform="translate(-49.153 -211.316)" fill="#ffa7a4"/>
          <path id="Trazado_146651" data-name="Trazado 146651" d="M59.118,228.664c-.327.38-.663.733-1.007,1.069s-.716.627-1.078.954a3.622,3.622,0,0,1-1.263.733,4.417,4.417,0,0,1-1.449.159l.221.15a9.893,9.893,0,0,0-.345-1.166,6.706,6.706,0,0,0-.5-1.122,5.592,5.592,0,0,0-.707-1.007,2.792,2.792,0,0,0-1.007-.724h0a3.914,3.914,0,0,1,.724.883,11.319,11.319,0,0,1,.539,1.025l.486,1.069c.159.353.3.724.433,1.087l.071.177h.15a8.436,8.436,0,0,0,1.466-.424,12.809,12.809,0,0,0,1.413-.574,4.073,4.073,0,0,0,1.926-2.315Z" transform="translate(-49.12 -211.932)" fill="#ffa7a4"/>
          <path id="Trazado_146652" data-name="Trazado 146652" d="M49.483,233.169a2.942,2.942,0,0,0-.2,1.2,4.028,4.028,0,0,0,.23,1.21,4.329,4.329,0,0,0,.618,1.051l.716.963.053.062.088-.053a9.769,9.769,0,0,1,1.254-.716c.424-.221.883-.415,1.3-.6s.883-.38,1.325-.548.883-.336,1.369-.5v-.053a6.811,6.811,0,0,0-2.915.592,8.525,8.525,0,0,0-1.3.724,9.091,9.091,0,0,0-1.166.936h.141a3.357,3.357,0,0,1-.671-.945,8.772,8.772,0,0,1-.371-1.087,8.551,8.551,0,0,1-.415-2.244Z" transform="translate(-48.805 -212.567)" fill="#ffa7a4"/>
        </g>
      </g>
      <g id="Grupo_88520" data-name="Grupo 88520" transform="translate(1.349 36.583)">
        <path id="Trazado_146653" data-name="Trazado 146653" d="M40.723,264.052H51.757a2.217,2.217,0,0,0,2.014-2.085l1.767-13.561A2.35,2.35,0,0,0,53.5,245.58H38.983a2.35,2.35,0,0,0-2.05,2.827L38.7,261.968a2.209,2.209,0,0,0,2.023,2.085Z" transform="translate(-36.864 -245.58)" fill="#091320"/>
        <path id="Trazado_146654" data-name="Trazado 146654" d="M38.98,245.58H46.4a2.359,2.359,0,0,0-2.05,2.827l1.767,13.561a2.209,2.209,0,0,0,2.05,2.085H40.721a2.209,2.209,0,0,1-2.041-2.085l-1.767-13.561a2.35,2.35,0,0,1,2.067-2.827Z" transform="translate(-36.862 -245.58)" fill="#38295c"/>
      </g>
    </g>
    <g id="Grupo_88528" data-name="Grupo 88528" transform="translate(47.759 150.907)">
      <g id="Grupo_88522" data-name="Grupo 88522" transform="translate(38.075 78.392)">
        <path id="Trazado_146655" data-name="Trazado 146655" d="M146.876,262.27H100.743a.883.883,0,0,0-.883.883v2.041a.83.83,0,0,0,.883.839h46.133Z" transform="translate(-99.86 -262.257)" fill="#070e18"/>
        <path id="Trazado_146656" data-name="Trazado 146656" d="M164.858,264.839v.83a.327.327,0,0,1-.327.327H152.914a.654.654,0,0,1-.654-.654v-2.429a.663.663,0,0,1,.733-.654l11.582,2.253a.327.327,0,0,1,.283.327Z" transform="translate(-105.968 -262.256)" fill="#091320"/>
      </g>
      <g id="Grupo_88527" data-name="Grupo 88527">
        <g id="Grupo_88525" data-name="Grupo 88525">
          <path id="Trazado_146657" data-name="Trazado 146657" d="M61.233,173.52h86.223a4.143,4.143,0,0,1,3.887,2.73l18.861,52.37c.786,2.7-1.193,4.726-4.364,5.062-.486.053-2.8-.981-6.44-2.694H82.32a4.134,4.134,0,0,1-3.9-2.739l-17.033-47.3-4.523-2.368S55.8,173.52,61.233,173.52Z" transform="translate(-56.763 -173.52)" fill="#3a424d"/>
          <path id="Trazado_146658" data-name="Trazado 146658" d="M144.75,176.57H58.527a1.767,1.767,0,0,0-1.661,2.368l18.852,52.37a4.134,4.134,0,0,0,3.9,2.73h86.223a1.767,1.767,0,0,0,1.661-2.359l-18.852-52.37a4.134,4.134,0,0,0-3.9-2.739Z" transform="translate(-56.761 -173.876)" fill="#091320"/>
          <path id="Trazado_146659" data-name="Trazado 146659" d="M131.911,239.757l-3.825-14.2-14.506,14.2Z" transform="translate(-63.384 -179.586)" fill="#070e18"/>
          <path id="Trazado_146660" data-name="Trazado 146660" d="M110.555,196.956a3.534,3.534,0,0,0,3.71,3.286,2.792,2.792,0,0,0,2.862-3.286,3.949,3.949,0,0,0-3.71-3.286,2.809,2.809,0,0,0-2.862,3.286Z" transform="translate(-63.027 -175.869)" fill="#091320"/>
          <g id="Grupo_88523" data-name="Grupo 88523" transform="translate(78.139 48.377)">
            <path id="Trazado_146661" data-name="Trazado 146661" d="M156.284,231.354l-1.1-3.074h1.4l1.1,3.074Z" transform="translate(-146.372 -228.28)" fill="#070e18"/>
            <path id="Trazado_146662" data-name="Trazado 146662" d="M152.964,231.354l-1.1-3.074h1.387l1.113,3.074Z" transform="translate(-145.985 -228.28)" fill="#070e18"/>
            <path id="Trazado_146663" data-name="Trazado 146663" d="M149.643,231.354l-1.113-3.074h1.4l1.113,3.074Z" transform="translate(-145.597 -228.28)" fill="#070e18"/>
            <path id="Trazado_146664" data-name="Trazado 146664" d="M146.323,231.354l-1.113-3.074h1.4l1.1,3.074Z" transform="translate(-145.21 -228.28)" fill="#070e18"/>
          </g>
          <g id="Grupo_88524" data-name="Grupo 88524" transform="translate(27.651 48.377)">
            <path id="Trazado_146665" data-name="Trazado 146665" d="M99.134,231.354l-1.1-3.074h1.387l1.113,3.074Z" transform="translate(-89.222 -228.28)" fill="#070e18"/>
            <path id="Trazado_146666" data-name="Trazado 146666" d="M95.813,231.354,94.7,228.28h1.4l1.113,3.074Z" transform="translate(-88.834 -228.28)" fill="#070e18"/>
            <path id="Trazado_146667" data-name="Trazado 146667" d="M92.493,231.354,91.38,228.28h1.4l1.1,3.074Z" transform="translate(-88.447 -228.28)" fill="#070e18"/>
            <path id="Trazado_146668" data-name="Trazado 146668" d="M89.164,231.354l-1.1-3.074h1.4l1.1,3.074Z" transform="translate(-88.06 -228.28)" fill="#070e18"/>
          </g>
        </g>
        <g id="Grupo_88526" data-name="Grupo 88526" transform="translate(36.56 41.115)">
          <path id="Trazado_146669" data-name="Trazado 146669" d="M101.3,256.045c.883-2.447,11.167-35.735,11.167-35.735h13.251l.883,4.638s-8.887,28.65-9.718,31.1l-.186.565h0c-.777,2.394,1.281,2.376,3.587,2.376h23.358v2.12H104.7C100.027,261.107,100.451,258.492,101.3,256.045Z" transform="translate(-98.451 -220.089)" fill="#38295c"/>
          <path id="Trazado_146670" data-name="Trazado 146670" d="M125.4,220.31s-10.31,33.3-11.167,35.735-1.272,5.062,3.41,5.062H102.09c-4.682,0-4.258-2.65-3.41-5.062s11.175-35.735,11.175-35.735Z" transform="translate(-98.145 -220.089)" fill="#091320"/>
          <path id="Trazado_146671" data-name="Trazado 146671" d="M123.044,220.281c-1.025-.053-2.05-.071-3.074-.106s-2.05-.044-3.083-.062-2.05-.053-3.074-.053h-3.251l-.053.168c-.424,1.343-.883,2.65-1.254,4.028l-1.228,4.046c-.786,2.7-1.581,5.407-2.306,8.128.954-2.65,1.829-5.3,2.712-8L109.7,224.4c.433-1.334.883-2.65,1.254-4.028l-.221.159h3.074c1.025,0,2.05,0,3.074-.044s2.058,0,3.083-.062S122.019,220.325,123.044,220.281Z" transform="translate(-99.028 -220.06)" fill="#8375d4"/>
        </g>
      </g>
    </g>
    <g id="Grupo_88529" data-name="Grupo 88529" transform="translate(14.02 233.039)">
      <path id="Trazado_146672" data-name="Trazado 146672" d="M22.66,274.662H251.027a4.081,4.081,0,0,0,4.081-4.081h0a4.081,4.081,0,0,0-4.081-4.09H22.66a4.09,4.09,0,0,0-4.09,4.09h0a4.081,4.081,0,0,0,4.09,4.081Z" transform="translate(-18.57 -266.49)" fill="#a04f58"/>
      <path id="Trazado_146673" data-name="Trazado 146673" d="M22.66,275.2H251.027a4.081,4.081,0,0,0,4.081-4.081H18.57a4.081,4.081,0,0,0,4.09,4.081Z" transform="translate(-18.57 -267.03)" fill="#713349"/>
    </g>
    <g id="Grupo_88538" data-name="Grupo 88538" transform="translate(9.418 9.814)">
      <ellipse id="Elipse_4892" data-name="Elipse 4892" cx="34.374" cy="34.374" rx="34.374" ry="34.374" transform="translate(0 66.94) rotate(-76.83)" fill="#4371d6"/>
      <g id="Grupo_88537" data-name="Grupo 88537" transform="translate(6.908 0.257)" clip-path="url(#clip-path)">
        <g id="Grupo_88536" data-name="Grupo 88536" transform="translate(-9.566 3.202)">
          <g id="Grupo_88530" data-name="Grupo 88530" transform="translate(49.318 15.695)">
            <path id="Trazado_146674" data-name="Trazado 146674" d="M111.944,91.5c.654,3.278-2.385,6.184-3.331,6.741s-7.332,3.1-11.167,3.189-8.887-8.013-6.82-8.931S106.8,90.59,108.348,90.59a11.06,11.06,0,0,1,3.6.91Z" transform="translate(-68.971 -41.914)" fill="#ffc5c7"/>
            <path id="Trazado_146675" data-name="Trazado 146675" d="M100.214,88.079c-1.679,9.841-5.654,17.492-6.891,17.669s-13.145-3.958-16.432-5.46S77.9,75.693,79.94,76.1s6.529,4.841,10.23,6.97S100.214,88.079,100.214,88.079Z" transform="translate(-67.286 -40.224)" fill="#fff"/>
            <path id="Trazado_146676" data-name="Trazado 146676" d="M81,94.29c1.148,1.97,10.6,6.961,15.822,8.781-1.29,2.906-2.5,4.691-3.092,4.753-1.06.124-9.947-2.871-14.541-4.673A70.491,70.491,0,0,1,81,94.29Z" transform="translate(-67.694 -42.345)" fill="#d5edff"/>
            <path id="Trazado_146677" data-name="Trazado 146677" d="M109.728,85.589c.088,3.9-3.428,4.47-7.633,3.463S91.017,78.575,87.96,74.3s-8.772-11.917-9.947-12.6-3.887-1.042-6.184-4.894.707-11.944,1.82-12.827,10.469,2.235,11.564,3.852-.8,10.283-.459,11.343,8.331,10.018,11.794,12.191S109.657,82.771,109.728,85.589Z" transform="translate(-66.738 -36.463)" fill="#ffc5c7"/>
            <path id="Trazado_146678" data-name="Trazado 146678" d="M79.28,50.892c-1.1-.548-1.369-3.03-.68-2.588s1.908.424,3.534.406a13.994,13.994,0,0,0,2.315-.168,14.3,14.3,0,0,1,.159,1.961S80.385,51.439,79.28,50.892Z" transform="translate(-67.581 -36.979)" fill="#ff8a8b"/>
            <path id="Trazado_146679" data-name="Trazado 146679" d="M71.128,51.592l1.184-2.182,6.449,6.184a41.156,41.156,0,0,1,3.922-2.924l.574,1.007a20.725,20.725,0,0,0-1.979,6.414s-.989,1.1-1.537,1.184c0,0,6.9,10.928,11.334,16.308s7.43,9.965,9.515,11.485c-4.2-2.421-9.921-10.31-12.642-14.135-3.057-4.285-8.764-11.917-9.939-12.6s-3.887-1.042-6.184-4.894C70.881,55.93,70.819,53.739,71.128,51.592Z" transform="translate(-66.735 -37.114)" fill="#ff8a8b"/>
            <path id="Trazado_146680" data-name="Trazado 146680" d="M84.089,50.6c-.08.636-6.493,6.184-7.156,6.829-.053.053-.557.124-.689,0-1.714-1.493-9.152-15.018-9.285-15.5s4.815-5.106,6.325-6.352a1.352,1.352,0,0,1,1.193.141C76,37.964,84.2,49.775,84.089,50.6Z" transform="translate(-66.268 -35.491)" fill="#050233"/>
            <path id="Trazado_146681" data-name="Trazado 146681" d="M83.309,50.6c-.08.636-6.493,6.184-7.156,6.829s-9.833-15.018-9.974-15.5,5.38-5.027,6.882-6.272a.433.433,0,0,1,.636.062C75.217,37.97,83.415,49.781,83.309,50.6Z" transform="translate(-66.177 -35.497)" fill="#211e87"/>
            <path id="Trazado_146682" data-name="Trazado 146682" d="M82.235,49.691c-.071.6-6.069,5.8-6.7,6.4s-9.2-14.011-9.329-14.506,5.027-4.744,6.44-5.875a.406.406,0,0,1,.592.062C74.664,37.88,82.332,48.923,82.235,49.691Z" transform="translate(-66.181 -35.505)" fill="#00b0f9"/>
            <path id="Trazado_146683" data-name="Trazado 146683" d="M79.687,42.3a7.067,7.067,0,0,1-2.323-3.313c-.115-.68-.044-1.3.486-1.431s2.182,2.005,3,2.65,1.811,1.961,1.4,2.845-2.226.548-2.421.415S79.687,42.3,79.687,42.3Z" transform="translate(-67.476 -35.732)" fill="#ffc5c7"/>
            <path id="Trazado_146684" data-name="Trazado 146684" d="M77.547,37.76c-.318.777,1.767,3.9,3.534,4.8l-.671.76-.724-.159a5.432,5.432,0,0,1,0-.83,7.067,7.067,0,0,1-2.323-3.313,1.511,1.511,0,0,1,.186-1.254Z" transform="translate(-67.474 -35.756)" fill="#ff8a8b"/>
            <path id="Trazado_146685" data-name="Trazado 146685" d="M81.974,46.054c-1.705-.883-3.048-.8-3.975-1.184s-1.1-1.767-.468-2.05,4.479.38,5.477.822,1.466,2.491,1.466,2.491Z" transform="translate(-67.456 -36.338)" fill="#ffc5c7"/>
            <path id="Trazado_146686" data-name="Trazado 146686" d="M81.231,45.152a2.244,2.244,0,0,0,1.3,0c0,.38.327.565.733,1.1H81.982c-1.705-.883-3.048-.8-3.975-1.184a1.387,1.387,0,0,1-.786-.963C77.635,44.9,80.268,44.967,81.231,45.152Z" transform="translate(-67.464 -36.496)" fill="#ff8a8b"/>
            <path id="Trazado_146687" data-name="Trazado 146687" d="M86.063,48.1c-.945,1.263-5.362.716-6.246.61S78.35,48,78.439,47.43c.186-1.157,6.1-.954,6.582-.769S86.063,48.1,86.063,48.1Z" transform="translate(-67.605 -36.777)" fill="#ffc5c7"/>
            <path id="Trazado_146688" data-name="Trazado 146688" d="M78.44,47.83a6.611,6.611,0,0,0,3.675,1.087,17.448,17.448,0,0,0,2.376,0,18.941,18.941,0,0,1-4.673-.053A1.484,1.484,0,0,1,78.44,47.83Z" transform="translate(-67.606 -36.93)" fill="#ff8a8b"/>
          </g>
          <g id="Grupo_88531" data-name="Grupo 88531" transform="translate(17.362 32.788)">
            <path id="Trazado_146689" data-name="Trazado 146689" d="M59.5,67.884c9.488,4.832,11.043,4.647,15.115,6.838s2.862,25.231,2.65,28.782-1.237,17.669-.7,21.5,2.65,18.04,3.587,20.222,2.712,5.884,0,8.066-8.587,3.693-21.246,2.871-26.3-8.613-26.9-9.718,6.051-21.2,6.325-25.01a51.38,51.38,0,0,1,1.387-8.454c.4-1.767-3.622-10.115-4.267-15.442s-6.431-20.027-5.3-22.722S41.335,69.121,48.2,65.7a9.25,9.25,0,0,1,11.3,2.182Z" transform="translate(-30.005 -55.984)" fill="#fff"/>
            <path id="Trazado_146690" data-name="Trazado 146690" d="M70.9,75.08a26.441,26.441,0,0,1-8.94,13.057A40.055,40.055,0,0,1,47.39,81.405a60.957,60.957,0,0,0,15.319,8.366A22.492,22.492,0,0,0,70.9,75.08Z" transform="translate(-32.031 -57.199)" fill="#d5edff"/>
            <path id="Trazado_146691" data-name="Trazado 146691" d="M68.325,71.414c-1.82-.777-4.161-1.846-7.465-3.534A9.25,9.25,0,0,0,49.491,65.7c-2.385,1.184-5.15,2.323-7.8,3.41A34.339,34.339,0,0,0,60.056,84.127a24.179,24.179,0,0,0,8.269-12.713Z" transform="translate(-31.367 -55.981)" fill="#ffc5c7"/>
            <path id="Trazado_146692" data-name="Trazado 146692" d="M32.165,149.917c-.61-1.1,6.051-21.2,6.325-25.01a51.38,51.38,0,0,1,1.475-8.472c.4-1.767-3.622-10.115-4.267-15.442a28.613,28.613,0,0,0-.742-3.534l4.276-3.189c2.509,7,4.073,19.294,6.449,22.307s8.3,4.232,8.3,4.232-5.848,1.369-8.4.822c0,0-2.721,10.8-2.756,16.123s.468,13.393.53,14.488c0,.406-.071,1.829-.194,3.454C37.006,153.283,32.5,150.571,32.165,149.917Z" transform="translate(-30.252 -59.436)" fill="#d5edff"/>
            <path id="Trazado_146693" data-name="Trazado 146693" d="M51.507,54.85c-.1,5.7-.477,9.621-1.767,10.707,0,0,2.173,9.462,10.849,8.658,2.933-.274,2.65-5.195,1.184-7.474l.883-6.988Z" transform="translate(-32.305 -54.841)" fill="#ffc5c7"/>
            <path id="Trazado_146694" data-name="Trazado 146694" d="M50.52,64.558h0c.742-1.767,1-5.159,1.078-9.718l11.167,4.912L62.2,64.231h0C60.22,65.123,50.52,64.558,50.52,64.558Z" transform="translate(-32.396 -54.84)" fill="#ff8a8b"/>
          </g>
          <g id="Grupo_88532" data-name="Grupo 88532" transform="translate(0 51.525)">
            <path id="Trazado_146695" data-name="Trazado 146695" d="M16.436,107.05c-1.917,2.65-4.5,9.205-3.534,12.209s10.928,16.4,15.487,21.405,5.583,5.831,6.378,7.474,4.673,8.4,5.689,9.426a5.159,5.159,0,0,0,2.853,1.166,4.85,4.85,0,0,0,4,1.228,15.019,15.019,0,0,0,4.1,1.979s.6,1.166,1.21,1.263,1.378-1.122.256-3.587-2.951-3.481-3.251-5.053a31.75,31.75,0,0,0-1.714-4.779s3.189,3.278,5.159,3.481,2.226-.954,1.148-1.917a25.151,25.151,0,0,1-3.781-4.232,7.509,7.509,0,0,0-5.415-3.419c-2.509-.336-4.267-.61-4.912-1.1s-3.922-5.124-6.184-10.133-4.179-11.414-9.9-17.033l2.509-4.417Z" transform="translate(-10.624 -79.662)" fill="#ffc5c7"/>
            <path id="Trazado_146696" data-name="Trazado 146696" d="M55.8,167.9a10.531,10.531,0,0,0-2.359-3.622l-.389-.38c-.115-.124-.318-.274-.362-.345-.194-.247-.362-.574-.557-.883-.353-.61-.707-1.237-1.1-1.838a13.79,13.79,0,0,0,.733,2.05,5.5,5.5,0,0,0,.5.989c.168.221.274.265.4.415l.371.371c.486.5.954,1.042,1.422,1.564S55.368,167.314,55.8,167.9Z" transform="translate(-15.093 -85.932)" fill="#ff8a8b"/>
            <path id="Trazado_146697" data-name="Trazado 146697" d="M51.444,165.859c-.38-.733-.822-1.369-1.228-2.041s-.786-1.325-1.166-2.058a4.249,4.249,0,0,0,.7,2.368,5.3,5.3,0,0,0,1.7,1.732Z" transform="translate(-14.862 -86.04)" fill="#ff8a8b"/>
            <path id="Trazado_146698" data-name="Trazado 146698" d="M48.563,165.991a4.417,4.417,0,0,1-1.891-1.042,5.159,5.159,0,0,1-2.853-1.166,27.244,27.244,0,0,1-2.279-3.392s1.166,1.272,1.988,2.3a2.774,2.774,0,0,0,2.827.963l-.221-1.325S47.247,165.346,48.563,165.991Z" transform="translate(-13.987 -85.88)" fill="#ff8a8b"/>
            <path id="Trazado_146699" data-name="Trazado 146699" d="M12.868,117.09c.053,1.246.071,2.235,1.917,5.513,2.085,3.675,14.594,19.2,17.324,22.086s2.65,3.048,4.258,7.58c-.724-1.281-1.334-2.394-1.6-2.942-.8-1.643-1.829-2.465-6.378-7.474s-14.541-18.419-15.478-21.423A7.465,7.465,0,0,1,12.868,117.09Z" transform="translate(-10.625 -80.833)" fill="#ff8a8b"/>
            <path id="Trazado_146700" data-name="Trazado 146700" d="M23.865,112.974l-1.025,1.767a5.742,5.742,0,0,1,2.368,1.4L27.2,112.78Z" transform="translate(-11.807 -80.33)" fill="#ff8a8b"/>
            <path id="Trazado_146701" data-name="Trazado 146701" d="M34.388,99.452c2.65-5.133,3.657-13.472,1.3-17.863s-6.811-5.972-7.9-5.442-4.046,7.377-6.829,10.53S10.606,98.71,10.359,99.452s5.477,6.776,16.22,11.193C27.869,111.175,34.388,99.452,34.388,99.452Z" transform="translate(-10.351 -76.049)" fill="#fff"/>
            <path id="Trazado_146702" data-name="Trazado 146702" d="M27.894,105.567,26.18,109.1s8.446-8.463,11.944-14.771a25.231,25.231,0,0,1-2.262,7.271s-6.52,11.723-7.792,11.193A54.176,54.176,0,0,1,23,110.4Z" transform="translate(-11.826 -78.18)" fill="#d5edff"/>
          </g>
          <g id="Grupo_88535" data-name="Grupo 88535" transform="translate(25.296)">
            <path id="Trazado_146703" data-name="Trazado 146703" d="M62.065,51.035a39,39,0,0,1-.707-7.165c-.106-1.767-.194-3.437-1.829-4.514a5.99,5.99,0,0,0-4.09-.76c-3.772.477-4.585,4.152-4.293,7.624a25.522,25.522,0,0,0,2.3,7.668,5.848,5.848,0,0,1-4.108-1.935,8.3,8.3,0,0,0,2.173,4c-4.02-.071-7.748-2.7-9.877-6.184a21.052,21.052,0,0,1-2.571-12A23.853,23.853,0,0,1,43.919,24.1a17.571,17.571,0,0,1,25.116-2.023,18.119,18.119,0,0,1,5.168,8.56,28.535,28.535,0,0,1,.23,13.251,45.611,45.611,0,0,0-.733,5.177c-.053.565-.733,7.067-.345,7.067-2.535.15-5.451-.362-7.173-2.3.777,1.325,1.44,2.65,2.209,3.949C65.227,57.272,62.851,54.286,62.065,51.035Z" transform="translate(-38.985 -17.725)" fill="#38295c"/>
            <path id="Trazado_146704" data-name="Trazado 146704" d="M49.667,43.354c-1.131-.663-2.5-1.034-3.534,0-1.546,1.573.654,8.887,3.993,7.067,0,0,4.841,6.767,8.393,8.684s6.078.954,7.4-.415,5.866-6.97,6.679-12.907a58.068,58.068,0,0,0,0-7.182c.2-2.73,1.237-4.974-.883-7.12A12.509,12.509,0,0,0,63.449,28a13.384,13.384,0,0,0-10.3,4.505C50.321,35.677,49.835,39.3,49.667,43.354Z" transform="translate(-39.759 -18.922)" fill="#ffc5c7"/>
            <path id="Trazado_146705" data-name="Trazado 146705" d="M46.81,47.519c.283-1.334,1.431-1.6,2.279-.663s1.016,3.984.8,4.417-1.723.415-2.005-.5.583-1.511,1.431-1.237a3.171,3.171,0,0,0-.459-2.217c-.68-.883-1.4-.539-1.573-.309A6.8,6.8,0,0,1,46.81,47.519Z" transform="translate(-39.897 -21.056)" fill="#ff8a8b"/>
            <g id="Grupo_88534" data-name="Grupo 88534" transform="translate(16.154 17.875)">
              <path id="Trazado_146706" data-name="Trazado 146706" d="M57.27,40.733c.327-.3.671-.583,1.025-.883a6.98,6.98,0,0,1,1.166-.689,3.728,3.728,0,0,1,1.281-.433,2.739,2.739,0,0,1,1.307.177v.062l-.627.2-.61.159c-.389.115-.8.15-1.193.283a8.834,8.834,0,0,0-1.166.495c-.389.186-.76.415-1.14.636Z" transform="translate(-57.27 -38.047)" fill="#471052"/>
              <path id="Trazado_146707" data-name="Trazado 146707" d="M73.735,39.091a4.417,4.417,0,0,0-1.157-.424,6.29,6.29,0,0,0-1.219-.141c-.415,0-.83.08-1.237.071a12.482,12.482,0,0,1-1.272,0v-.062A3.189,3.189,0,0,1,70.1,38a3.755,3.755,0,0,1,1.334.053,5.478,5.478,0,0,1,1.254.336,4.311,4.311,0,0,1,1.078.663Z" transform="translate(-58.62 -37.959)" fill="#471052"/>
              <path id="Trazado_146708" data-name="Trazado 146708" d="M61.706,43.569c0-.583-.309-1.025-.654-.989s-.61.53-.592,1.1.3,1.034.645,1.034S61.714,44.143,61.706,43.569Z" transform="translate(-57.642 -38.497)" fill="#471052"/>
              <path id="Trazado_146709" data-name="Trazado 146709" d="M72.06,42.738c0-.574-.256-1.025-.539-1S71,42.261,71,42.853s.256,1.025.539,1S72.069,43.312,72.06,42.738Z" transform="translate(-58.871 -38.4)" fill="#471052"/>
              <path id="Trazado_146710" data-name="Trazado 146710" d="M65.1,50.05a2.571,2.571,0,0,0,2.818,0,1.29,1.29,0,0,1-.733,1.042A1.767,1.767,0,0,1,65.9,51C65.48,50.81,65.356,50.412,65.1,50.05Z" transform="translate(-58.183 -39.368)" fill="#ff8a8b"/>
              <g id="Grupo_88533" data-name="Grupo 88533" transform="translate(3.755 13.544)">
                <path id="Trazado_146711" data-name="Trazado 146711" d="M61.52,53.82a77.742,77.742,0,0,0,7.951-.53c-.583,1.935-2.129,3.834-4.293,3.843A4,4,0,0,1,61.52,53.82Z" transform="translate(-61.52 -53.29)" fill="#e21926"/>
                <path id="Trazado_146712" data-name="Trazado 146712" d="M63.5,56.866a3.437,3.437,0,0,1,1.838,0,2.933,2.933,0,0,1,2.474-.239,3.808,3.808,0,0,1-2.376.883,3.278,3.278,0,0,1-1.935-.645Z" transform="translate(-61.751 -53.659)" fill="#ff8384"/>
                <path id="Trazado_146713" data-name="Trazado 146713" d="M68.31,54.914a9.338,9.338,0,0,1-5.857-.23A5.094,5.094,0,0,0,62.4,53.8c1.882,0,4.93-.274,6.564-.451a5.716,5.716,0,0,1-.654,1.564Z" transform="translate(-61.623 -53.297)" fill="#fff"/>
              </g>
            </g>
            <path id="Trazado_146714" data-name="Trazado 146714" d="M51.755,36.343a26.653,26.653,0,0,0,9.064-2.005,10.2,10.2,0,0,0,.645-3.763,10.831,10.831,0,0,1,1.325,4.647l5.433-.318a11.061,11.061,0,0,0,.486-4.417,18.711,18.711,0,0,1,1.14,4.735c1.1-.389,2.482.177,3.622.389,1.413-3.154,1.316-8.834-1.67-11.255s-8-2.951-11.529-2.438c-7.589,1.1-13.543,7.385-13.075,15.23a18.3,18.3,0,0,0,5.725,11.811,18.137,18.137,0,0,1-1.166-12.615Z" transform="translate(-39.939 -18.193)" fill="#38295c"/>
          </g>
        </g>
      </g>
    </g>
    <g id="Grupo_88540" data-name="Grupo 88540" transform="translate(76.098 81.598)">
      <path id="Trazado_594485" data-name="Trazado 594485" d="M19.992,0A19.992,19.992,0,1,1,0,19.992,19.992,19.992,0,0,1,19.992,0Z" transform="matrix(0.252, -0.968, 0.968, 0.252, 0, 38.698)" fill="#a2a7c5"/>
      <g id="Grupo_88539" data-name="Grupo 88539" transform="translate(12.872 16.55)">
        <rect id="Rectngulo_34307" data-name="Rectngulo 34307" width="23.004" height="15.654" rx="3.43" transform="translate(23.004 15.654) rotate(180)" fill="#d5e9ff"/>
        <path id="Trazado_146716" data-name="Trazado 146716" d="M105.058,130.348h19.718a1.643,1.643,0,0,0,1.643-1.643l-11.485-7.235-11.485,7.235a1.643,1.643,0,0,0,1.608,1.643Z" transform="translate(-103.415 -114.694)" fill="#c8ddf5"/>
        <path id="Trazado_146717" data-name="Trazado 146717" d="M105.058,113.8h19.718a1.643,1.643,0,0,1,1.643,1.643l-11.485,7.226-11.485-7.226a1.643,1.643,0,0,1,1.608-1.643Z" transform="translate(-103.415 -113.8)" fill="#4371d6"/>
      </g>
    </g>
    <g id="Grupo_88544" data-name="Grupo 88544" transform="translate(218.198 110.772)">
      <ellipse id="Elipse_4894" data-name="Elipse 4894" cx="19.992" cy="19.992" rx="19.992" ry="19.992" transform="translate(0 9.022) rotate(-13.04)" fill="#a2a7c5"/>
      <g id="Grupo_88543" data-name="Grupo 88543" transform="translate(11.114 12.183)">
        <g id="Grupo_88541" data-name="Grupo 88541">
          <path id="Trazado_146718" data-name="Trazado 146718" d="M280.751,149.751h-2.005a7.218,7.218,0,0,0-.883-2.2l1.422-1.422a.5.5,0,0,0,0-.7L277.7,143.85a.5.5,0,0,0-.7,0l-1.422,1.422a7.173,7.173,0,0,0-2.209-.883v-2.005a.5.5,0,0,0-.495-.5h-2.235a.5.5,0,0,0-.495.5v2.005a7.067,7.067,0,0,0-2.2.883l-1.422-1.422a.5.5,0,0,0-.707,0l-1.581,1.581a.5.5,0,0,0,0,.7l1.422,1.422a7.2,7.2,0,0,0-.883,2.2h-2.014a.5.5,0,0,0-.495.5v2.235a.5.5,0,0,0,.495.495h1.917a7.015,7.015,0,0,0,.883,2.2l-1.422,1.422a.5.5,0,0,0,0,.707l1.581,1.581a.5.5,0,0,0,.707,0l1.422-1.422a7.014,7.014,0,0,0,2.2.883v2.014a.5.5,0,0,0,.495.495h2.235a.5.5,0,0,0,.495-.495v-2.014a7.155,7.155,0,0,0,2.209-.883l1.422,1.422a.5.5,0,0,0,.7,0l1.581-1.581a.5.5,0,0,0,0-.707l-1.422-1.422a7.067,7.067,0,0,0,.883-2.2h2.005a.5.5,0,0,0,.495-.495v-2.235a.5.5,0,0,0-.4-.5Zm-9,4.7a3.083,3.083,0,1,1,3.083-3.083A3.083,3.083,0,0,1,271.749,154.451Z" transform="translate(-262.27 -141.88)" fill="#d5e9ff"/>
          <path id="Trazado_146719" data-name="Trazado 146719" d="M272.433,147.76a4.293,4.293,0,1,0,4.293,4.293A4.293,4.293,0,0,0,272.433,147.76Zm0,6.917a2.65,2.65,0,1,1,2.65-2.65A2.65,2.65,0,0,1,272.433,154.677Z" transform="translate(-262.954 -142.565)" fill="#4371d6"/>
        </g>
        <g id="Grupo_88542" data-name="Grupo 88542" transform="translate(17.554 12.642)">
          <path id="Trazado_146720" data-name="Trazado 146720" d="M291.655,160.227H290.63a3.719,3.719,0,0,0-.468-1.122l.724-.733a.247.247,0,0,0,0-.353l-.8-.813a.265.265,0,0,0-.362,0l-.724.733a3.445,3.445,0,0,0-1.131-.468v-1.025a.247.247,0,0,0-.247-.256h-1.184a.256.256,0,0,0-.247.256v1.025a3.445,3.445,0,0,0-1.131.468l-.724-.733a.265.265,0,0,0-.362,0l-.8.813a.247.247,0,0,0,0,.353l.724.733a3.72,3.72,0,0,0-.468,1.122H282.4a.256.256,0,0,0-.256.256v1.14a.256.256,0,0,0,.256.256h1.025a3.816,3.816,0,0,0,.468,1.122l-.724.724a.265.265,0,0,0,0,.362l.8.8a.247.247,0,0,0,.362,0l.724-.724a3.869,3.869,0,0,0,1.131.468v1.025a.256.256,0,0,0,.247.256h1.148a.247.247,0,0,0,.247-.256v-1.025a3.869,3.869,0,0,0,1.131-.468l.724.724a.247.247,0,0,0,.362,0l.8-.8a.265.265,0,0,0,0-.362l-.724-.724a3.816,3.816,0,0,0,.468-1.122h1.025a.256.256,0,0,0,.256-.256v-1.14a.256.256,0,0,0-.221-.256Zm-4.612,2.4a1.581,1.581,0,1,1,1.573-1.581,1.581,1.581,0,0,1-1.573,1.581Z" transform="translate(-282.14 -156.19)" fill="#d5e9ff"/>
          <path id="Trazado_146721" data-name="Trazado 146721" d="M287.4,159.21a2.2,2.2,0,1,0,2.191,2.191,2.2,2.2,0,0,0-2.191-2.191Zm0,3.534a1.343,1.343,0,1,1,1.343-1.343A1.343,1.343,0,0,1,287.4,162.744Z" transform="translate(-282.496 -156.542)" fill="#4371d6"/>
        </g>
      </g>
    </g>
    <g id="Grupo_88550" data-name="Grupo 88550" transform="translate(126.005 52.107)">
      <path id="Trazado_594484" data-name="Trazado 594484" d="M19.992,0A19.992,19.992,0,1,1,0,19.992,19.992,19.992,0,0,1,19.992,0Z" transform="translate(0 14.92) rotate(-21.91)" fill="#ea3584"/>
      <g id="Grupo_88549" data-name="Grupo 88549" transform="translate(14.504 15.713)">
        <rect id="Rectngulo_34308" data-name="Rectngulo 34308" width="23.004" height="19.665" rx="3.3" transform="translate(23.004 20.576) rotate(180)" fill="#fff"/>
        <path id="Trazado_146722" data-name="Trazado 146722" d="M161.75,84.607h22.969V82.071a1.581,1.581,0,0,0-1.546-1.581H163.331a1.581,1.581,0,0,0-1.581,1.581Z" transform="translate(-161.75 -79.588)" fill="#4371d6"/>
        <g id="Grupo_88547" data-name="Grupo 88547" transform="translate(3.702)">
          <g id="Grupo_88545" data-name="Grupo 88545" transform="translate(13.304)">
            <path id="Trazado_146723" data-name="Trazado 146723" d="M181.5,81.254h0a.459.459,0,0,0,.459-.468v-.848a.459.459,0,0,0-.459-.468h0a.468.468,0,0,0-.5.468v.883a.468.468,0,0,0,.5.433Z" transform="translate(-181 -79.468)" fill="#fff"/>
            <path id="Trazado_146724" data-name="Trazado 146724" d="M183.018,81.255h0a.459.459,0,0,0,.459-.468v-.848a.459.459,0,0,0-.459-.468h0a.468.468,0,0,0-.468.468v.883a.468.468,0,0,0,.468.433Z" transform="translate(-181.181 -79.469)" fill="#fff"/>
          </g>
          <g id="Grupo_88546" data-name="Grupo 88546" transform="translate(0 0.001)">
            <path id="Trazado_146725" data-name="Trazado 146725" d="M166.4,81.255h0a.468.468,0,0,0,.477-.433v-.883a.468.468,0,0,0-.468-.468h0a.468.468,0,0,0-.468.468v.883a.468.468,0,0,0,.459.433Z" transform="translate(-165.94 -79.47)" fill="#fff"/>
            <path id="Trazado_146726" data-name="Trazado 146726" d="M167.938,81.255h0a.468.468,0,0,0,.468-.468v-.848a.468.468,0,0,0-.468-.468h0a.468.468,0,0,0-.468.468v.883a.468.468,0,0,0,.468.433Z" transform="translate(-166.118 -79.47)" fill="#fff"/>
          </g>
        </g>
        <g id="Grupo_88548" data-name="Grupo 88548" transform="translate(3.092 7.466)">
          <rect id="Rectngulo_34309" data-name="Rectngulo 34309" width="1.997" height="1.997" rx="0.79" transform="translate(9.479)" fill="#d5e9ff"/>
          <rect id="Rectngulo_34310" data-name="Rectngulo 34310" width="1.997" height="1.997" rx="0.79" transform="translate(4.735)" fill="#d5e9ff"/>
          <rect id="Rectngulo_34311" data-name="Rectngulo 34311" width="1.997" height="1.997" rx="0.79" fill="#d5e9ff"/>
          <rect id="Rectngulo_34312" data-name="Rectngulo 34312" width="1.997" height="1.997" rx="0.79" transform="translate(14.223 4.09)" fill="#d5e9ff"/>
          <rect id="Rectngulo_34313" data-name="Rectngulo 34313" width="1.997" height="1.997" rx="0.79" transform="translate(9.479 4.09)" fill="#d5e9ff"/>
          <rect id="Rectngulo_34314" data-name="Rectngulo 34314" width="1.997" height="1.997" rx="0.79" transform="translate(4.735 4.09)" fill="#d5e9ff"/>
          <rect id="Rectngulo_34315" data-name="Rectngulo 34315" width="1.997" height="1.997" rx="0.79" transform="translate(0 4.09)" fill="#d5e9ff"/>
          <rect id="Rectngulo_34316" data-name="Rectngulo 34316" width="1.997" height="1.997" rx="0.79" transform="translate(14.223 8.172)" fill="#d5e9ff"/>
          <rect id="Rectngulo_34317" data-name="Rectngulo 34317" width="1.997" height="1.997" rx="0.79" transform="translate(9.479 8.172)" fill="#d5e9ff"/>
          <rect id="Rectngulo_34318" data-name="Rectngulo 34318" width="1.997" height="1.997" rx="0.79" transform="translate(4.735 8.172)" fill="#d5e9ff"/>
        </g>
      </g>
    </g>
    <g id="Grupo_88552" data-name="Grupo 88552" transform="translate(180.962 60.124)">
      <circle id="Elipse_4896" data-name="Elipse 4896" cx="19.992" cy="19.992" r="19.992" transform="translate(0 28.273) rotate(-45)" fill="#6826cc"/>
      <g id="Grupo_88551" data-name="Grupo 88551" transform="translate(8.908 8.908)">
        <circle id="Elipse_4897" data-name="Elipse 4897" cx="13.693" cy="13.693" r="13.693" transform="translate(0 19.365) rotate(-45)" fill="#fff"/>
        <path id="Trazado_146727" data-name="Trazado 146727" d="M237.733,87.26a13.693,13.693,0,1,0,13.693,13.693A13.693,13.693,0,0,0,237.733,87.26Zm1.148,25.354V110.75a.627.627,0,0,0-.627-.636h-1a.627.627,0,0,0-.627.636v1.9a11.714,11.714,0,0,1-10.513-10.513h1.864a.636.636,0,0,0,.636-.636v-1.034a.627.627,0,0,0-.636-.627h-1.864a11.732,11.732,0,0,1,10.513-10.522v1.873a.627.627,0,0,0,.627.627H238.3a.627.627,0,0,0,.627-.627V89.283A11.75,11.75,0,0,1,249.447,99.8h-1.873a.627.627,0,0,0-.627.627v1.034a.627.627,0,0,0,.627.636h1.873a11.732,11.732,0,0,1-10.566,10.548Z" transform="translate(-218.371 -81.589)" fill="#4371d6"/>
        <text id="_24_7" data-name="24/7" transform="translate(12.506 21.906)" fill="#d5c8da" font-size="9" font-family="BebasKai, Bebas Kai"><tspan x="0" y="0" letter-spacing="0.01em">2</tspan><tspan y="0">4</tspan><tspan y="0" letter-spacing="0.03em">/</tspan><tspan y="0">7</tspan></text>
      </g>
    </g>
    <path id="Trazado_146728" data-name="Trazado 146728" d="M101.851,12.24l2.509,5.071,5.6.822-4.055,3.949.954,5.574-5.009-2.633-5.009,2.633.963-5.574L93.75,18.132l5.6-.822Z" transform="translate(-13.314 -3.812)" fill="#ef8633" stroke="#f2a466" stroke-miterlimit="10" stroke-width="1"/>
    <path id="Trazado_146729" data-name="Trazado 146729" d="M125.391,12.24l2.509,5.071,5.6.822-4.055,3.949.954,5.574-5.009-2.633-5.009,2.633.963-5.574-4.055-3.949,5.6-.822Z" transform="translate(-16.058 -3.812)" fill="#ef8633" stroke="#f2a466" stroke-miterlimit="10" stroke-width="1"/>
    <path id="Trazado_146730" data-name="Trazado 146730" d="M148.93,12.24l2.509,5.071,5.6.822-4.055,3.949.954,5.574-5.009-2.633-5.009,2.633.954-5.574-4.055-3.949,5.6-.822Z" transform="translate(-18.801 -3.812)" fill="#ef8633" stroke="#f2a466" stroke-miterlimit="10" stroke-width="1"/>
    <path id="Trazado_146731" data-name="Trazado 146731" d="M172.47,12.24l2.5,5.071,5.6.822-4.046,3.949.954,5.574-5.009-2.633-5.009,2.633.954-5.574-4.055-3.949,5.6-.822Z" transform="translate(-21.545 -3.812)" fill="#ef8633" stroke="#f2a466" stroke-miterlimit="10" stroke-width="1"/>
    <path id="Trazado_146732" data-name="Trazado 146732" d="M196.01,12.24l2.5,5.071,5.6.822-4.055,3.949.963,5.574-5.009-2.633L191,27.656l.954-5.574L187.9,18.132l5.6-.822Z" transform="translate(-24.289 -3.812)" fill="#ef8633" stroke="#f2a466" stroke-miterlimit="10" stroke-width="1"/>
  </g>
</svg>
