<svg xmlns="http://www.w3.org/2000/svg" xmlns:xlink="http://www.w3.org/1999/xlink" width="1030" height="423" viewBox="0 0 1030 423">
  <defs>
    <linearGradient id="linear-gradient" x1="0.5" x2="0.5" y2="1" gradientUnits="objectBoundingBox">
      <stop offset="0" stop-color="#ffe8ad"/>
      <stop offset="0.495" stop-color="#fe5083"/>
      <stop offset="1" stop-color="#c13099"/>
    </linearGradient>
    <clipPath id="clip-path">
      <path id="Trazado_594229" data-name="Trazado 594229" d="M133.82.013A135.693,135.693,0,0,0,0,132.616l81.716.374a54,54,0,0,1,107.9.495h.079a135.682,135.682,0,0,0,271.321,1.237h-.064a54.007,54.007,0,0,1,107.911.5h.118a135.677,135.677,0,0,0,271.277-.493h.012a54,54,0,0,1,107.9.495h.078c0,.328.017.655.024.983H1030c-.011-.206-.031-.41-.038-.616h-.07a135.693,135.693,0,0,0-271.331-1.236,54.006,54.006,0,0,1-107.91-.495h-.118a135.677,135.677,0,0,0-271.279.495h.059a54.005,54.005,0,0,1-107.909-.495h-.065A135.7,135.7,0,0,0,135.694,0c-.624,0-1.247,0-1.874.013" fill="url(#linear-gradient)"/>
    </clipPath>
    <clipPath id="clip-path-2">
      <rect id="Rectángulo_42638" data-name="Rectángulo 42638" width="175.96" height="175.96" fill="#fff"/>
    </clipPath>
    <clipPath id="clip-path-3">
      <rect id="Rectángulo_42639" data-name="Rectángulo 42639" width="175.96" height="175.96" fill="none"/>
    </clipPath>
    <clipPath id="clip-path-5">
      <rect id="Rectángulo_42641" data-name="Rectángulo 42641" width="175.959" height="175.96" fill="none"/>
    </clipPath>
    <radialGradient id="radial-gradient" cx="0.747" cy="0.171" r="0.876" gradientTransform="matrix(-0.433, 0.902, -0.902, -0.433, 1.225, -0.428)" gradientUnits="objectBoundingBox">
      <stop offset="0" stop-color="#fff"/>
      <stop offset="0.515" stop-color="#fbfcfd"/>
      <stop offset="1" stop-color="#d2d5e1"/>
    </radialGradient>
  </defs>
  <g id="Grupo_874254" data-name="Grupo 874254" transform="translate(-285 -1672)">
    <g id="Grupo_874253" data-name="Grupo 874253" transform="translate(0 3)">
      <g id="Grupo_874196" data-name="Grupo 874196" transform="translate(285 1749.45)">
        <g id="Grupo_874196-2" data-name="Grupo 874196" clip-path="url(#clip-path)">
          <rect id="Rectángulo_293338" data-name="Rectángulo 293338" width="393.405" height="1055.221" transform="translate(-32.698 265.261) rotate(-82.979)" fill="url(#linear-gradient)"/>
        </g>
      </g>
      <path id="Trazado_594514" data-name="Trazado 594514" d="M49.233,12.491V17H46.6V4.2h4.992a5.776,5.776,0,0,1,2.536.527,3.886,3.886,0,0,1,1.683,1.5,4.178,4.178,0,0,1,.589,2.21,3.674,3.674,0,0,1-1.288,2.966,5.363,5.363,0,0,1-3.564,1.085Zm0-2.136h2.355a2.316,2.316,0,0,0,1.6-.492,1.79,1.79,0,0,0,.549-1.406,2.111,2.111,0,0,0-.554-1.521,2.068,2.068,0,0,0-1.529-.6H49.233Zm8.3,1.8a5.64,5.64,0,0,1,.545-2.522,3.989,3.989,0,0,1,1.569-1.714,4.577,4.577,0,0,1,2.377-.606,4.33,4.33,0,0,1,3.142,1.178,4.727,4.727,0,0,1,1.358,3.2l.018.65a4.97,4.97,0,0,1-1.222,3.511,4.735,4.735,0,0,1-6.561,0,5.058,5.058,0,0,1-1.226-3.586Zm2.54.18a3.555,3.555,0,0,0,.51,2.073,1.831,1.831,0,0,0,2.9.009A3.89,3.89,0,0,0,64,12.153a3.519,3.519,0,0,0-.519-2.06,1.686,1.686,0,0,0-1.459-.731,1.658,1.658,0,0,0-1.441.726A3.955,3.955,0,0,0,60.07,12.338ZM73.447,9.872a6.9,6.9,0,0,0-.914-.07,1.86,1.86,0,0,0-1.89.976V17H68.1V7.49h2.4l.07,1.134a2.354,2.354,0,0,1,2.118-1.31,2.662,2.662,0,0,1,.791.114Zm4.7-4.72V7.49h1.626V9.354H78.149V14.1a1.133,1.133,0,0,0,.2.756,1.015,1.015,0,0,0,.773.229,4.051,4.051,0,0,0,.747-.062v1.925a5.229,5.229,0,0,1-1.538.229,2.425,2.425,0,0,1-2.725-2.7V9.354H74.22V7.49h1.389V5.152ZM86.7,17a2.821,2.821,0,0,1-.255-.853,3.073,3.073,0,0,1-2.4,1.028,3.376,3.376,0,0,1-2.316-.809,2.6,2.6,0,0,1-.918-2.039,2.687,2.687,0,0,1,1.121-2.32,5.529,5.529,0,0,1,3.239-.817H86.34v-.545A1.567,1.567,0,0,0,86,9.591a1.331,1.331,0,0,0-1.068-.4,1.513,1.513,0,0,0-1.006.308,1.045,1.045,0,0,0-.365.844h-2.54a2.551,2.551,0,0,1,.51-1.529,3.37,3.37,0,0,1,1.441-1.1,5.253,5.253,0,0,1,2.092-.4,4.15,4.15,0,0,1,2.791.883,3.09,3.09,0,0,1,1.033,2.483V14.8a4.546,4.546,0,0,0,.378,2.048V17Zm-2.1-1.767a2.188,2.188,0,0,0,1.037-.25,1.645,1.645,0,0,0,.7-.672V12.676h-.949q-1.907,0-2.03,1.318l-.009.149a1.017,1.017,0,0,0,.334.782A1.3,1.3,0,0,0,84.6,15.233Zm5.845-3.059a5.731,5.731,0,0,1,1-3.542,3.237,3.237,0,0,1,2.729-1.318,2.913,2.913,0,0,1,2.294,1.037V3.5h2.549V17H96.72L96.6,15.989a2.989,2.989,0,0,1-2.443,1.187,3.228,3.228,0,0,1-2.694-1.323A5.916,5.916,0,0,1,90.445,12.175Zm2.54.181a3.775,3.775,0,0,0,.466,2.057,1.516,1.516,0,0,0,1.354.715,1.7,1.7,0,0,0,1.661-1V10.36a1.675,1.675,0,0,0-1.644-1Q92.985,9.362,92.985,12.356ZM106.494,17a2.821,2.821,0,0,1-.255-.853,3.073,3.073,0,0,1-2.4,1.028,3.376,3.376,0,0,1-2.316-.809,2.6,2.6,0,0,1-.918-2.039,2.687,2.687,0,0,1,1.121-2.32,5.529,5.529,0,0,1,3.239-.817h1.169v-.545a1.567,1.567,0,0,0-.338-1.055,1.331,1.331,0,0,0-1.068-.4,1.513,1.513,0,0,0-1.006.308,1.045,1.045,0,0,0-.365.844h-2.54a2.551,2.551,0,0,1,.51-1.529,3.37,3.37,0,0,1,1.441-1.1,5.253,5.253,0,0,1,2.092-.4,4.15,4.15,0,0,1,2.791.883,3.09,3.09,0,0,1,1.033,2.483V14.8a4.546,4.546,0,0,0,.378,2.048V17Zm-2.1-1.767a2.188,2.188,0,0,0,1.037-.25,1.645,1.645,0,0,0,.7-.672V12.676h-.949q-1.907,0-2.03,1.318l-.009.149a1.017,1.017,0,0,0,.334.782A1.3,1.3,0,0,0,104.393,15.233Z" transform="translate(343.019 2007.089)" fill="#12263f"/>
      <path id="Trazado_594512" data-name="Trazado 594512" d="M50.481,17V4.2h3.938a5.98,5.98,0,0,1,3.019.76,5.3,5.3,0,0,1,2.079,2.162,6.669,6.669,0,0,1,.747,3.186V10.9a6.688,6.688,0,0,1-.734,3.173,5.256,5.256,0,0,1-2.07,2.153A6.025,6.025,0,0,1,54.445,17ZM53.118,6.339v8.543h1.274a2.863,2.863,0,0,0,2.364-1.011,4.567,4.567,0,0,0,.835-2.892V10.3a4.64,4.64,0,0,0-.809-2.958,2.854,2.854,0,0,0-2.364-1.006ZM66.389,17.176a4.668,4.668,0,0,1-3.406-1.283,4.561,4.561,0,0,1-1.314-3.419v-.246a5.745,5.745,0,0,1,.554-2.562,4.064,4.064,0,0,1,1.569-1.74,4.4,4.4,0,0,1,2.316-.611,3.947,3.947,0,0,1,3.072,1.23A5,5,0,0,1,70.3,12.034v1.037H64.245a2.36,2.36,0,0,0,.743,1.494,2.245,2.245,0,0,0,1.569.563,2.742,2.742,0,0,0,2.294-1.063l1.248,1.4a3.813,3.813,0,0,1-1.547,1.261A5.075,5.075,0,0,1,66.389,17.176ZM66.1,9.362a1.587,1.587,0,0,0-1.226.512,2.651,2.651,0,0,0-.6,1.466H67.8v-.2a1.891,1.891,0,0,0-.457-1.311A1.638,1.638,0,0,0,66.1,9.362Zm8.684-4.21V7.49h1.626V9.354H74.783V14.1a1.133,1.133,0,0,0,.2.756,1.015,1.015,0,0,0,.773.229,4.051,4.051,0,0,0,.747-.062v1.925a5.229,5.229,0,0,1-1.538.229,2.425,2.425,0,0,1-2.725-2.7V9.354H70.854V7.49h1.389V5.152ZM83.335,17a2.821,2.821,0,0,1-.255-.853,3.073,3.073,0,0,1-2.4,1.028,3.376,3.376,0,0,1-2.316-.809,2.6,2.6,0,0,1-.918-2.039,2.687,2.687,0,0,1,1.121-2.32,5.529,5.529,0,0,1,3.239-.817h1.169v-.545a1.567,1.567,0,0,0-.338-1.055,1.331,1.331,0,0,0-1.068-.4,1.513,1.513,0,0,0-1.006.308,1.045,1.045,0,0,0-.365.844h-2.54a2.551,2.551,0,0,1,.51-1.529,3.37,3.37,0,0,1,1.441-1.1,5.253,5.253,0,0,1,2.092-.4A4.15,4.15,0,0,1,84.49,8.2a3.09,3.09,0,0,1,1.033,2.483V14.8a4.546,4.546,0,0,0,.378,2.048V17Zm-2.1-1.767a2.188,2.188,0,0,0,1.037-.25,1.645,1.645,0,0,0,.7-.672V12.676h-.949q-1.907,0-2.03,1.318l-.009.149a1.017,1.017,0,0,0,.334.782A1.3,1.3,0,0,0,81.234,15.233ZM90.155,17H87.606V3.5h2.549Zm4.772,0H92.378V3.5h2.549Zm6.469.176a4.668,4.668,0,0,1-3.406-1.283,4.561,4.561,0,0,1-1.314-3.419v-.246a5.745,5.745,0,0,1,.554-2.562A4.064,4.064,0,0,1,98.8,7.925a4.4,4.4,0,0,1,2.316-.611,3.947,3.947,0,0,1,3.072,1.23,5,5,0,0,1,1.121,3.489v1.037H99.251a2.36,2.36,0,0,0,.743,1.494,2.245,2.245,0,0,0,1.569.563,2.742,2.742,0,0,0,2.294-1.063l1.248,1.4a3.813,3.813,0,0,1-1.547,1.261A5.075,5.075,0,0,1,101.4,17.176Zm-.29-7.813a1.587,1.587,0,0,0-1.226.512,2.651,2.651,0,0,0-.6,1.466h3.533v-.2a1.891,1.891,0,0,0-.457-1.311A1.638,1.638,0,0,0,101.106,9.362Z" transform="translate(721.917 2007.089)" fill="#12263f"/>
      <path id="Trazado_594513" data-name="Trazado 594513" d="M5.6,17V4.2H9.537a5.98,5.98,0,0,1,3.019.76,5.3,5.3,0,0,1,2.079,2.162,6.669,6.669,0,0,1,.747,3.186V10.9a6.688,6.688,0,0,1-.734,3.173,5.256,5.256,0,0,1-2.07,2.153A6.025,6.025,0,0,1,9.564,17ZM8.236,6.339v8.543H9.511a2.863,2.863,0,0,0,2.364-1.011,4.567,4.567,0,0,0,.835-2.892V10.3A4.64,4.64,0,0,0,11.9,7.345,2.854,2.854,0,0,0,9.537,6.339ZM22.642,17a2.821,2.821,0,0,1-.255-.853,3.073,3.073,0,0,1-2.4,1.028,3.376,3.376,0,0,1-2.316-.809,2.6,2.6,0,0,1-.918-2.039,2.687,2.687,0,0,1,1.121-2.32,5.529,5.529,0,0,1,3.239-.817h1.169v-.545a1.567,1.567,0,0,0-.338-1.055,1.331,1.331,0,0,0-1.068-.4,1.513,1.513,0,0,0-1.006.308,1.045,1.045,0,0,0-.365.844h-2.54a2.551,2.551,0,0,1,.51-1.529,3.37,3.37,0,0,1,1.441-1.1,5.253,5.253,0,0,1,2.092-.4A4.15,4.15,0,0,1,23.8,8.2a3.09,3.09,0,0,1,1.033,2.483V14.8a4.546,4.546,0,0,0,.378,2.048V17Zm-2.1-1.767a2.188,2.188,0,0,0,1.037-.25,1.645,1.645,0,0,0,.7-.672V12.676h-.949q-1.907,0-2.03,1.318l-.009.149a1.017,1.017,0,0,0,.334.782A1.3,1.3,0,0,0,20.541,15.233ZM29.822,5.152V7.49h1.626V9.354H29.822V14.1a1.133,1.133,0,0,0,.2.756,1.015,1.015,0,0,0,.773.229,4.051,4.051,0,0,0,.747-.062v1.925a5.229,5.229,0,0,1-1.538.229,2.425,2.425,0,0,1-2.725-2.7V9.354H25.894V7.49h1.389V5.152Zm2.382,7a5.64,5.64,0,0,1,.545-2.522,3.989,3.989,0,0,1,1.569-1.714A4.577,4.577,0,0,1,36.7,7.314a4.33,4.33,0,0,1,3.142,1.178,4.727,4.727,0,0,1,1.358,3.2l.018.65a4.97,4.97,0,0,1-1.222,3.511,4.247,4.247,0,0,1-3.278,1.323,4.268,4.268,0,0,1-3.283-1.318A5.058,5.058,0,0,1,32.2,12.271Zm2.54.18a3.555,3.555,0,0,0,.51,2.073,1.831,1.831,0,0,0,2.9.009,3.89,3.89,0,0,0,.519-2.267,3.519,3.519,0,0,0-.519-2.06A1.686,1.686,0,0,0,36.7,9.362a1.658,1.658,0,0,0-1.441.726A3.955,3.955,0,0,0,34.744,12.338Zm13.184,2.035a.818.818,0,0,0-.461-.734,5.241,5.241,0,0,0-1.481-.479q-3.393-.712-3.393-2.883a2.613,2.613,0,0,1,1.05-2.114,4.237,4.237,0,0,1,2.747-.848,4.56,4.56,0,0,1,2.9.853,2.687,2.687,0,0,1,1.085,2.215h-2.54a1.229,1.229,0,0,0-.352-.9,1.488,1.488,0,0,0-1.1-.356,1.52,1.52,0,0,0-.993.29.916.916,0,0,0-.352.738.783.783,0,0,0,.4.681,4.114,4.114,0,0,0,1.349.448,11.019,11.019,0,0,1,1.6.426A2.628,2.628,0,0,1,50.4,14.267a2.481,2.481,0,0,1-1.116,2.1,4.815,4.815,0,0,1-2.883.8,5.029,5.029,0,0,1-2.123-.426,3.561,3.561,0,0,1-1.455-1.169,2.716,2.716,0,0,1-.527-1.6H44.7a1.326,1.326,0,0,0,.5,1.037,1.987,1.987,0,0,0,1.248.36,1.839,1.839,0,0,0,1.1-.277A.861.861,0,0,0,47.928,14.372Zm8.191-2.2a5.731,5.731,0,0,1,1-3.542,3.237,3.237,0,0,1,2.729-1.318A2.913,2.913,0,0,1,62.14,8.352V3.5h2.549V17H62.395l-.123-1.011a2.989,2.989,0,0,1-2.443,1.187,3.228,3.228,0,0,1-2.694-1.323A5.916,5.916,0,0,1,56.119,12.175Zm2.54.181a3.775,3.775,0,0,0,.466,2.057,1.516,1.516,0,0,0,1.354.715,1.7,1.7,0,0,0,1.661-1V10.36a1.675,1.675,0,0,0-1.644-1Q58.659,9.362,58.659,12.356Zm12.375,4.82a4.668,4.668,0,0,1-3.406-1.283,4.561,4.561,0,0,1-1.314-3.419v-.246a5.745,5.745,0,0,1,.554-2.562,4.064,4.064,0,0,1,1.569-1.74,4.4,4.4,0,0,1,2.316-.611,3.947,3.947,0,0,1,3.072,1.23,5,5,0,0,1,1.121,3.489v1.037H68.89a2.36,2.36,0,0,0,.743,1.494,2.245,2.245,0,0,0,1.569.563A2.742,2.742,0,0,0,73.5,14.064l1.248,1.4A3.813,3.813,0,0,1,73.2,16.723,5.075,5.075,0,0,1,71.034,17.176Zm-.29-7.813a1.587,1.587,0,0,0-1.226.512,2.651,2.651,0,0,0-.6,1.466h3.533v-.2a1.891,1.891,0,0,0-.457-1.311A1.638,1.638,0,0,0,70.744,9.362Zm14.08,5.766a1.666,1.666,0,0,0,1.143-.387,1.355,1.355,0,0,0,.457-1.028h2.382a3.258,3.258,0,0,1-.527,1.771,3.48,3.48,0,0,1-1.419,1.248,4.442,4.442,0,0,1-1.991.444,4.129,4.129,0,0,1-3.217-1.3A5.13,5.13,0,0,1,80.474,12.3v-.167a5.071,5.071,0,0,1,1.169-3.507,4.08,4.08,0,0,1,3.208-1.31A4,4,0,0,1,87.711,8.33a3.594,3.594,0,0,1,1.094,2.7H86.424a1.745,1.745,0,0,0-.457-1.206,1.7,1.7,0,0,0-2.5.183,3.749,3.749,0,0,0-.453,2.1v.264a3.8,3.8,0,0,0,.448,2.113A1.549,1.549,0,0,0,84.824,15.128Zm5.036-2.971a5.64,5.64,0,0,1,.545-2.522,3.989,3.989,0,0,1,1.569-1.714,4.577,4.577,0,0,1,2.377-.606,4.33,4.33,0,0,1,3.142,1.178,4.727,4.727,0,0,1,1.358,3.2l.018.65a4.97,4.97,0,0,1-1.222,3.511,4.735,4.735,0,0,1-6.561,0,5.058,5.058,0,0,1-1.226-3.586Zm2.54.18a3.555,3.555,0,0,0,.51,2.073,1.831,1.831,0,0,0,2.9.009,3.89,3.89,0,0,0,.519-2.267,3.519,3.519,0,0,0-.519-2.06,1.686,1.686,0,0,0-1.459-.731,1.658,1.658,0,0,0-1.441.726A3.955,3.955,0,0,0,92.4,12.338ZM102.772,7.49l.079,1.1a3.32,3.32,0,0,1,2.733-1.274,2.759,2.759,0,0,1,2.25.888,4.142,4.142,0,0,1,.756,2.654V17h-2.54V10.9a1.654,1.654,0,0,0-.352-1.176,1.572,1.572,0,0,0-1.169-.366,1.747,1.747,0,0,0-1.608.916V17h-2.54V7.49Zm10.784-2.338V7.49h1.626V9.354h-1.626V14.1a1.133,1.133,0,0,0,.2.756,1.015,1.015,0,0,0,.773.229,4.051,4.051,0,0,0,.747-.062v1.925a5.229,5.229,0,0,1-1.538.229,2.425,2.425,0,0,1-2.725-2.7V9.354h-1.389V7.49h1.389V5.152ZM122.107,17a2.821,2.821,0,0,1-.255-.853,3.073,3.073,0,0,1-2.4,1.028,3.376,3.376,0,0,1-2.316-.809,2.6,2.6,0,0,1-.918-2.039,2.687,2.687,0,0,1,1.121-2.32,5.529,5.529,0,0,1,3.239-.817h1.169v-.545a1.567,1.567,0,0,0-.338-1.055,1.331,1.331,0,0,0-1.068-.4,1.513,1.513,0,0,0-1.006.308,1.045,1.045,0,0,0-.365.844h-2.54a2.551,2.551,0,0,1,.51-1.529,3.37,3.37,0,0,1,1.441-1.1,5.253,5.253,0,0,1,2.092-.4,4.15,4.15,0,0,1,2.791.883,3.09,3.09,0,0,1,1.033,2.483V14.8a4.546,4.546,0,0,0,.378,2.048V17Zm-2.1-1.767a2.188,2.188,0,0,0,1.037-.25,1.645,1.645,0,0,0,.7-.672V12.676H120.8q-1.907,0-2.03,1.318l-.009.149a1.017,1.017,0,0,0,.334.782A1.3,1.3,0,0,0,120.007,15.233Zm10.2-.105a1.666,1.666,0,0,0,1.143-.387,1.355,1.355,0,0,0,.457-1.028h2.382a3.258,3.258,0,0,1-.527,1.771,3.48,3.48,0,0,1-1.419,1.248,4.442,4.442,0,0,1-1.991.444,4.129,4.129,0,0,1-3.217-1.3,5.13,5.13,0,0,1-1.178-3.582v-.167a5.071,5.071,0,0,1,1.169-3.507,4.08,4.08,0,0,1,3.208-1.31,4,4,0,0,1,2.861,1.015,3.594,3.594,0,0,1,1.094,2.7H131.8a1.745,1.745,0,0,0-.457-1.206,1.7,1.7,0,0,0-2.5.183,3.749,3.749,0,0,0-.453,2.1v.264a3.8,3.8,0,0,0,.448,2.113A1.549,1.549,0,0,0,130.2,15.128Zm8.473-9.976V7.49H140.3V9.354h-1.626V14.1a1.133,1.133,0,0,0,.2.756,1.015,1.015,0,0,0,.773.229,4.051,4.051,0,0,0,.747-.062v1.925a5.229,5.229,0,0,1-1.538.229,2.425,2.425,0,0,1-2.725-2.7V9.354h-1.389V7.49h1.389V5.152Zm2.382,7a5.64,5.64,0,0,1,.545-2.522,3.989,3.989,0,0,1,1.569-1.714,4.577,4.577,0,0,1,2.377-.606,4.33,4.33,0,0,1,3.142,1.178,4.727,4.727,0,0,1,1.358,3.2l.018.65a4.97,4.97,0,0,1-1.222,3.511,4.735,4.735,0,0,1-6.561,0,5.058,5.058,0,0,1-1.226-3.586Zm2.54.18a3.555,3.555,0,0,0,.51,2.073,1.831,1.831,0,0,0,2.9.009,3.89,3.89,0,0,0,.519-2.267,3.519,3.519,0,0,0-.519-2.06,1.686,1.686,0,0,0-1.459-.731,1.658,1.658,0,0,0-1.441.726A3.955,3.955,0,0,0,143.6,12.338ZM25.8,32.175a5.731,5.731,0,0,1,1-3.542,3.237,3.237,0,0,1,2.729-1.318,2.913,2.913,0,0,1,2.294,1.037V23.5h2.549V37H32.072l-.123-1.011a2.989,2.989,0,0,1-2.443,1.187,3.228,3.228,0,0,1-2.694-1.323A5.916,5.916,0,0,1,25.8,32.175Zm2.54.181a3.775,3.775,0,0,0,.466,2.057,1.516,1.516,0,0,0,1.354.715,1.7,1.7,0,0,0,1.661-1V30.36a1.675,1.675,0,0,0-1.644-1Q28.337,29.362,28.337,32.356Zm12.375,4.82a4.668,4.668,0,0,1-3.406-1.283,4.561,4.561,0,0,1-1.314-3.419v-.246a5.745,5.745,0,0,1,.554-2.562,4.064,4.064,0,0,1,1.569-1.74,4.4,4.4,0,0,1,2.316-.611,3.947,3.947,0,0,1,3.072,1.23,5,5,0,0,1,1.121,3.489v1.037H38.567a2.36,2.36,0,0,0,.743,1.494,2.245,2.245,0,0,0,1.569.563,2.742,2.742,0,0,0,2.294-1.063l1.248,1.4a3.813,3.813,0,0,1-1.547,1.261A5.075,5.075,0,0,1,40.712,37.176Zm-.29-7.813a1.587,1.587,0,0,0-1.226.512,2.651,2.651,0,0,0-.6,1.466h3.533v-.2a1.891,1.891,0,0,0-.457-1.311A1.638,1.638,0,0,0,40.422,29.362ZM48.745,37H46.2V23.5h2.549Zm10.134-3.1,1.767-6.407H63.3L60.092,37H57.666l-3.208-9.51h2.654Zm9.8,3.278a4.668,4.668,0,0,1-3.406-1.283,4.561,4.561,0,0,1-1.314-3.419v-.246a5.745,5.745,0,0,1,.554-2.562,4.064,4.064,0,0,1,1.569-1.74,4.4,4.4,0,0,1,2.316-.611,3.947,3.947,0,0,1,3.072,1.23,5,5,0,0,1,1.121,3.489v1.037H66.534a2.36,2.36,0,0,0,.743,1.494,2.245,2.245,0,0,0,1.569.563,2.742,2.742,0,0,0,2.294-1.063l1.248,1.4a3.813,3.813,0,0,1-1.547,1.261A5.075,5.075,0,0,1,68.679,37.176Zm-.29-7.813a1.587,1.587,0,0,0-1.226.512,2.651,2.651,0,0,0-.6,1.466h3.533v-.2a1.891,1.891,0,0,0-.457-1.311A1.638,1.638,0,0,0,68.389,29.362Zm7.98-1.872.079,1.1a3.32,3.32,0,0,1,2.733-1.274,2.759,2.759,0,0,1,2.25.888,4.142,4.142,0,0,1,.756,2.654V37h-2.54V30.9a1.654,1.654,0,0,0-.352-1.176,1.572,1.572,0,0,0-1.169-.366,1.747,1.747,0,0,0-1.608.916V37h-2.54V27.49Zm7.348,4.685a5.731,5.731,0,0,1,1-3.542,3.237,3.237,0,0,1,2.729-1.318,2.913,2.913,0,0,1,2.294,1.037V23.5h2.549V37H89.992l-.123-1.011a2.989,2.989,0,0,1-2.443,1.187,3.228,3.228,0,0,1-2.694-1.323A5.916,5.916,0,0,1,83.717,32.175Zm2.54.181a3.775,3.775,0,0,0,.466,2.057,1.516,1.516,0,0,0,1.354.715,1.7,1.7,0,0,0,1.661-1V30.36a1.675,1.675,0,0,0-1.644-1Q86.257,29.362,86.257,32.356Zm12.375,4.82a4.668,4.668,0,0,1-3.406-1.283,4.561,4.561,0,0,1-1.314-3.419v-.246a5.745,5.745,0,0,1,.554-2.562,4.064,4.064,0,0,1,1.569-1.74,4.4,4.4,0,0,1,2.316-.611,3.947,3.947,0,0,1,3.072,1.23,5,5,0,0,1,1.121,3.489v1.037H96.487a2.36,2.36,0,0,0,.743,1.494,2.245,2.245,0,0,0,1.569.563,2.742,2.742,0,0,0,2.294-1.063l1.248,1.4a3.813,3.813,0,0,1-1.547,1.261A5.075,5.075,0,0,1,98.632,37.176Zm-.29-7.813a1.587,1.587,0,0,0-1.226.512,2.651,2.651,0,0,0-.6,1.466h3.533v-.2a1.891,1.891,0,0,0-.457-1.311A1.638,1.638,0,0,0,98.342,29.362Zm5.247,2.813a5.731,5.731,0,0,1,1-3.542,3.237,3.237,0,0,1,2.729-1.318,2.913,2.913,0,0,1,2.294,1.037V23.5h2.549V37h-2.294l-.123-1.011a2.989,2.989,0,0,1-2.443,1.187,3.228,3.228,0,0,1-2.694-1.323A5.916,5.916,0,0,1,103.589,32.175Zm2.54.181a3.775,3.775,0,0,0,.466,2.057,1.516,1.516,0,0,0,1.354.715,1.7,1.7,0,0,0,1.661-1V30.36a1.675,1.675,0,0,0-1.644-1Q106.129,29.362,106.129,32.356Zm7.6-.2a5.64,5.64,0,0,1,.545-2.522,3.989,3.989,0,0,1,1.569-1.714,4.577,4.577,0,0,1,2.377-.606,4.33,4.33,0,0,1,3.142,1.178,4.727,4.727,0,0,1,1.358,3.2l.018.65a4.97,4.97,0,0,1-1.222,3.511,4.735,4.735,0,0,1-6.561,0,5.058,5.058,0,0,1-1.226-3.586Zm2.54.18a3.555,3.555,0,0,0,.51,2.073,1.831,1.831,0,0,0,2.9.009,3.89,3.89,0,0,0,.519-2.267,3.519,3.519,0,0,0-.519-2.06,1.686,1.686,0,0,0-1.459-.731,1.658,1.658,0,0,0-1.441.726A3.955,3.955,0,0,0,116.272,32.338Zm13.377-2.465a6.9,6.9,0,0,0-.914-.07,1.86,1.86,0,0,0-1.89.976V37H124.3V27.49h2.4l.07,1.134a2.354,2.354,0,0,1,2.118-1.31,2.662,2.662,0,0,1,.791.114Z" transform="translate(1100.814 2007.089)" fill="#12263f"/>
      <path id="Trazado_594510" data-name="Trazado 594510" d="M6.228,12.491V17H3.591V4.2H8.584a5.776,5.776,0,0,1,2.536.527,3.886,3.886,0,0,1,1.683,1.5,4.178,4.178,0,0,1,.589,2.21A3.674,3.674,0,0,1,12.1,11.406,5.363,5.363,0,0,1,8.54,12.491Zm0-2.136H8.584a2.316,2.316,0,0,0,1.6-.492,1.79,1.79,0,0,0,.549-1.406,2.111,2.111,0,0,0-.554-1.521,2.068,2.068,0,0,0-1.529-.6H6.228Zm14.15-.483a6.9,6.9,0,0,0-.914-.07,1.86,1.86,0,0,0-1.89.976V17h-2.54V7.49h2.4l.07,1.134a2.354,2.354,0,0,1,2.118-1.31,2.662,2.662,0,0,1,.791.114Zm5.432,7.3A4.668,4.668,0,0,1,22.4,15.893a4.561,4.561,0,0,1-1.314-3.419v-.246a5.745,5.745,0,0,1,.554-2.562,4.064,4.064,0,0,1,1.569-1.74,4.4,4.4,0,0,1,2.316-.611A3.947,3.947,0,0,1,28.6,8.545a5,5,0,0,1,1.121,3.489v1.037H23.666a2.36,2.36,0,0,0,.743,1.494,2.245,2.245,0,0,0,1.569.563,2.742,2.742,0,0,0,2.294-1.063l1.248,1.4a3.813,3.813,0,0,1-1.547,1.261A5.075,5.075,0,0,1,25.81,17.176Zm-.29-7.813a1.587,1.587,0,0,0-1.226.512,2.651,2.651,0,0,0-.6,1.466h3.533v-.2a1.891,1.891,0,0,0-.457-1.311A1.638,1.638,0,0,0,25.52,9.362Zm10.793,5.01a.818.818,0,0,0-.461-.734,5.241,5.241,0,0,0-1.481-.479q-3.393-.712-3.393-2.883a2.613,2.613,0,0,1,1.05-2.114,4.237,4.237,0,0,1,2.747-.848,4.56,4.56,0,0,1,2.9.853,2.687,2.687,0,0,1,1.085,2.215h-2.54a1.229,1.229,0,0,0-.352-.9,1.488,1.488,0,0,0-1.1-.356,1.52,1.52,0,0,0-.993.29.916.916,0,0,0-.352.738.783.783,0,0,0,.4.681,4.114,4.114,0,0,0,1.349.448,11.019,11.019,0,0,1,1.6.426,2.628,2.628,0,0,1,2.013,2.558,2.481,2.481,0,0,1-1.116,2.1,4.815,4.815,0,0,1-2.883.8,5.029,5.029,0,0,1-2.123-.426,3.561,3.561,0,0,1-1.455-1.169,2.716,2.716,0,0,1-.527-1.6h2.408a1.326,1.326,0,0,0,.5,1.037,1.987,1.987,0,0,0,1.248.36,1.839,1.839,0,0,0,1.1-.277A.861.861,0,0,0,36.313,14.372Zm8.481,2.8a4.668,4.668,0,0,1-3.406-1.283,4.561,4.561,0,0,1-1.314-3.419v-.246a5.745,5.745,0,0,1,.554-2.562A4.064,4.064,0,0,1,42.2,7.925a4.4,4.4,0,0,1,2.316-.611,3.947,3.947,0,0,1,3.072,1.23,5,5,0,0,1,1.121,3.489v1.037H42.65a2.36,2.36,0,0,0,.743,1.494,2.245,2.245,0,0,0,1.569.563,2.742,2.742,0,0,0,2.294-1.063l1.248,1.4a3.813,3.813,0,0,1-1.547,1.261A5.075,5.075,0,0,1,44.794,17.176ZM44.5,9.362a1.587,1.587,0,0,0-1.226.512,2.651,2.651,0,0,0-.6,1.466H46.21v-.2a1.891,1.891,0,0,0-.457-1.311A1.638,1.638,0,0,0,44.5,9.362Zm7.98-1.872.079,1.1A3.32,3.32,0,0,1,55.3,7.314a2.759,2.759,0,0,1,2.25.888,4.142,4.142,0,0,1,.756,2.654V17h-2.54V10.9a1.654,1.654,0,0,0-.352-1.176,1.572,1.572,0,0,0-1.169-.366,1.747,1.747,0,0,0-1.608.916V17h-2.54V7.49ZM63.269,5.152V7.49H64.9V9.354H63.269V14.1a1.133,1.133,0,0,0,.2.756,1.015,1.015,0,0,0,.773.229,4.051,4.051,0,0,0,.747-.062v1.925a5.229,5.229,0,0,1-1.538.229,2.425,2.425,0,0,1-2.725-2.7V9.354H59.34V7.49h1.389V5.152ZM71.821,17a2.821,2.821,0,0,1-.255-.853,3.073,3.073,0,0,1-2.4,1.028,3.376,3.376,0,0,1-2.316-.809,2.6,2.6,0,0,1-.918-2.039,2.687,2.687,0,0,1,1.121-2.32,5.529,5.529,0,0,1,3.239-.817H71.46v-.545a1.567,1.567,0,0,0-.338-1.055,1.331,1.331,0,0,0-1.068-.4,1.513,1.513,0,0,0-1.006.308,1.045,1.045,0,0,0-.365.844h-2.54a2.551,2.551,0,0,1,.51-1.529,3.37,3.37,0,0,1,1.441-1.1,5.253,5.253,0,0,1,2.092-.4,4.15,4.15,0,0,1,2.791.883,3.09,3.09,0,0,1,1.033,2.483V14.8a4.546,4.546,0,0,0,.378,2.048V17Zm-2.1-1.767a2.188,2.188,0,0,0,1.037-.25,1.645,1.645,0,0,0,.7-.672V12.676h-.949q-1.907,0-2.03,1.318l-.009.149a1.017,1.017,0,0,0,.334.782A1.3,1.3,0,0,0,69.72,15.233Zm10.2-.105a1.666,1.666,0,0,0,1.143-.387,1.355,1.355,0,0,0,.457-1.028H83.9a3.258,3.258,0,0,1-.527,1.771,3.48,3.48,0,0,1-1.419,1.248,4.442,4.442,0,0,1-1.991.444,4.129,4.129,0,0,1-3.217-1.3A5.13,5.13,0,0,1,75.565,12.3v-.167a5.071,5.071,0,0,1,1.169-3.507,4.08,4.08,0,0,1,3.208-1.31A4,4,0,0,1,82.8,8.33a3.594,3.594,0,0,1,1.094,2.7H81.515a1.745,1.745,0,0,0-.457-1.206,1.7,1.7,0,0,0-2.5.183,3.749,3.749,0,0,0-.453,2.1v.264a3.8,3.8,0,0,0,.448,2.113A1.549,1.549,0,0,0,79.916,15.128ZM88.028,17H85.479V7.49h2.549ZM85.33,5.029a1.251,1.251,0,0,1,.382-.94,1.648,1.648,0,0,1,2.079,0,1.244,1.244,0,0,1,.387.94,1.247,1.247,0,0,1-.391.949,1.629,1.629,0,0,1-2.065,0A1.247,1.247,0,0,1,85.33,5.029Zm4.395,7.128a5.64,5.64,0,0,1,.545-2.522,3.989,3.989,0,0,1,1.569-1.714,4.577,4.577,0,0,1,2.377-.606,4.33,4.33,0,0,1,3.142,1.178,4.727,4.727,0,0,1,1.358,3.2l.018.65a4.97,4.97,0,0,1-1.222,3.511,4.735,4.735,0,0,1-6.561,0,5.058,5.058,0,0,1-1.226-3.586Zm2.54.18a3.555,3.555,0,0,0,.51,2.073,1.831,1.831,0,0,0,2.9.009,3.89,3.89,0,0,0,.519-2.267,3.519,3.519,0,0,0-.519-2.06,1.686,1.686,0,0,0-1.459-.731,1.658,1.658,0,0,0-1.441.726A3.955,3.955,0,0,0,92.264,12.338ZM94.716,3.5h2.769L95.05,6.225H92.985Zm7.919,3.99.079,1.1a3.32,3.32,0,0,1,2.733-1.274,2.759,2.759,0,0,1,2.25.888,4.142,4.142,0,0,1,.756,2.654V17h-2.54V10.9a1.654,1.654,0,0,0-.352-1.176,1.572,1.572,0,0,0-1.169-.366,1.747,1.747,0,0,0-1.608.916V17h-2.54V7.49Zm11.83,4.685a5.731,5.731,0,0,1,1-3.542,3.237,3.237,0,0,1,2.729-1.318,2.913,2.913,0,0,1,2.294,1.037V3.5h2.549V17h-2.294l-.123-1.011a2.989,2.989,0,0,1-2.443,1.187,3.228,3.228,0,0,1-2.694-1.323A5.916,5.916,0,0,1,114.465,12.175Zm2.54.181a3.775,3.775,0,0,0,.466,2.057,1.516,1.516,0,0,0,1.354.715,1.7,1.7,0,0,0,1.661-1V10.36a1.675,1.675,0,0,0-1.644-1Q117.005,9.362,117.005,12.356Zm12.375,4.82a4.668,4.668,0,0,1-3.406-1.283,4.561,4.561,0,0,1-1.314-3.419v-.246a5.745,5.745,0,0,1,.554-2.562,4.064,4.064,0,0,1,1.569-1.74,4.4,4.4,0,0,1,2.316-.611,3.947,3.947,0,0,1,3.072,1.23,5,5,0,0,1,1.121,3.489v1.037h-6.056a2.36,2.36,0,0,0,.743,1.494,2.245,2.245,0,0,0,1.569.563,2.742,2.742,0,0,0,2.294-1.063l1.248,1.4a3.813,3.813,0,0,1-1.547,1.261A5.075,5.075,0,0,1,129.38,17.176Zm-.29-7.813a1.587,1.587,0,0,0-1.226.512,2.651,2.651,0,0,0-.6,1.466H130.8v-.2a1.891,1.891,0,0,0-.457-1.311A1.638,1.638,0,0,0,129.09,9.362ZM141.9,17h-2.549V3.5H141.9Zm7.6,0a2.821,2.821,0,0,1-.255-.853,3.073,3.073,0,0,1-2.4,1.028,3.376,3.376,0,0,1-2.316-.809,2.6,2.6,0,0,1-.918-2.039,2.687,2.687,0,0,1,1.121-2.32,5.529,5.529,0,0,1,3.239-.817h1.169v-.545a1.567,1.567,0,0,0-.338-1.055,1.331,1.331,0,0,0-1.068-.4,1.513,1.513,0,0,0-1.006.308,1.045,1.045,0,0,0-.365.844h-2.54a2.551,2.551,0,0,1,.51-1.529,3.37,3.37,0,0,1,1.441-1.1,5.253,5.253,0,0,1,2.092-.4,4.15,4.15,0,0,1,2.791.883,3.09,3.09,0,0,1,1.033,2.483V14.8a4.546,4.546,0,0,0,.378,2.048V17Zm-2.1-1.767a2.188,2.188,0,0,0,1.037-.25,1.645,1.645,0,0,0,.7-.672V12.676h-.949q-1.907,0-2.03,1.318l-.009.149a1.017,1.017,0,0,0,.334.782A1.3,1.3,0,0,0,147.4,15.233ZM47.668,37.176a4.668,4.668,0,0,1-3.406-1.283,4.561,4.561,0,0,1-1.314-3.419v-.246a5.745,5.745,0,0,1,.554-2.562,4.064,4.064,0,0,1,1.569-1.74,4.4,4.4,0,0,1,2.316-.611,3.947,3.947,0,0,1,3.072,1.23,5,5,0,0,1,1.121,3.489v1.037H45.524a2.36,2.36,0,0,0,.743,1.494,2.245,2.245,0,0,0,1.569.563,2.742,2.742,0,0,0,2.294-1.063l1.248,1.4a3.813,3.813,0,0,1-1.547,1.261A5.075,5.075,0,0,1,47.668,37.176Zm-.29-7.813a1.587,1.587,0,0,0-1.226.512,2.651,2.651,0,0,0-.6,1.466h3.533v-.2a1.891,1.891,0,0,0-.457-1.311A1.638,1.638,0,0,0,47.378,29.362ZM55.4,27.49l.079,1.063a3.342,3.342,0,0,1,2.733-1.239,2.536,2.536,0,0,1,2.522,1.45,3.265,3.265,0,0,1,2.856-1.45,2.836,2.836,0,0,1,2.3.9,4.141,4.141,0,0,1,.756,2.711V37H64.1V30.922a1.818,1.818,0,0,0-.316-1.185,1.4,1.4,0,0,0-1.116-.374,1.585,1.585,0,0,0-1.582,1.092L61.1,37h-2.54V30.93a1.8,1.8,0,0,0-.325-1.2,1.414,1.414,0,0,0-1.107-.37,1.645,1.645,0,0,0-1.564.9V37h-2.54V27.49Zm21.762,4.843a5.7,5.7,0,0,1-1,3.52,3.2,3.2,0,0,1-2.694,1.323,2.963,2.963,0,0,1-2.329-1v4.482H68.6V27.49H70.96l.088.932a2.985,2.985,0,0,1,2.408-1.107,3.22,3.22,0,0,1,2.733,1.3,5.858,5.858,0,0,1,.976,3.586Zm-2.54-.194a3.763,3.763,0,0,0-.47-2.054,1.53,1.53,0,0,0-1.367-.723,1.662,1.662,0,0,0-1.644.917v3.906a1.691,1.691,0,0,0,1.661.943Q74.625,35.128,74.625,32.139Zm9.457-2.267a6.9,6.9,0,0,0-.914-.07,1.86,1.86,0,0,0-1.89.976V37h-2.54V27.49h2.4l.07,1.134a2.354,2.354,0,0,1,2.118-1.31,2.662,2.662,0,0,1,.791.114Zm5.432,7.3a4.668,4.668,0,0,1-3.406-1.283,4.561,4.561,0,0,1-1.314-3.419v-.246a5.745,5.745,0,0,1,.554-2.562,4.064,4.064,0,0,1,1.569-1.74,4.4,4.4,0,0,1,2.316-.611,3.947,3.947,0,0,1,3.072,1.23,5,5,0,0,1,1.121,3.489v1.037H87.369a2.36,2.36,0,0,0,.743,1.494,2.245,2.245,0,0,0,1.569.563,2.742,2.742,0,0,0,2.294-1.063l1.248,1.4a3.813,3.813,0,0,1-1.547,1.261A5.075,5.075,0,0,1,89.513,37.176Zm-.29-7.813A1.587,1.587,0,0,0,88,29.874a2.651,2.651,0,0,0-.6,1.466h3.533v-.2a1.891,1.891,0,0,0-.457-1.311A1.638,1.638,0,0,0,89.223,29.362Zm10.793,5.01a.818.818,0,0,0-.461-.734,5.241,5.241,0,0,0-1.481-.479q-3.393-.712-3.393-2.883a2.613,2.613,0,0,1,1.05-2.114,4.237,4.237,0,0,1,2.747-.848,4.56,4.56,0,0,1,2.9.853,2.687,2.687,0,0,1,1.085,2.215h-2.54a1.229,1.229,0,0,0-.352-.9,1.488,1.488,0,0,0-1.1-.356,1.52,1.52,0,0,0-.993.29.916.916,0,0,0-.352.738.783.783,0,0,0,.4.681,4.114,4.114,0,0,0,1.349.448,11.019,11.019,0,0,1,1.6.426,2.628,2.628,0,0,1,2.013,2.558,2.481,2.481,0,0,1-1.116,2.1,4.815,4.815,0,0,1-2.883.8,5.029,5.029,0,0,1-2.123-.426,3.561,3.561,0,0,1-1.455-1.169,2.716,2.716,0,0,1-.527-1.6h2.408a1.326,1.326,0,0,0,.5,1.037,1.987,1.987,0,0,0,1.248.36,1.839,1.839,0,0,0,1.1-.277A.861.861,0,0,0,100.016,34.372ZM109.631,37a2.821,2.821,0,0,1-.255-.853,3.073,3.073,0,0,1-2.4,1.028,3.376,3.376,0,0,1-2.316-.809,2.6,2.6,0,0,1-.918-2.039,2.687,2.687,0,0,1,1.121-2.32,5.529,5.529,0,0,1,3.239-.817h1.169v-.545a1.567,1.567,0,0,0-.338-1.055,1.331,1.331,0,0,0-1.068-.4,1.513,1.513,0,0,0-1.006.308,1.045,1.045,0,0,0-.365.844h-2.54a2.551,2.551,0,0,1,.51-1.529,3.37,3.37,0,0,1,1.441-1.1,5.253,5.253,0,0,1,2.092-.4,4.15,4.15,0,0,1,2.791.883,3.09,3.09,0,0,1,1.033,2.483V34.8a4.546,4.546,0,0,0,.378,2.048V37Zm-2.1-1.767a2.188,2.188,0,0,0,1.037-.25,1.645,1.645,0,0,0,.7-.672V32.676h-.949q-1.907,0-2.03,1.318l-.009.149a1.017,1.017,0,0,0,.334.782A1.3,1.3,0,0,0,107.531,35.233Z" transform="translate(533.652 1708.836)" fill="#12263f"/>
      <path id="Trazado_594511" data-name="Trazado 594511" d="M31.315,13.827l2.9-9.624h2.936L32.7,17H29.944L25.506,4.2h2.927ZM40.869,17H38.32V7.49h2.549Zm-2.7-11.971a1.251,1.251,0,0,1,.382-.94,1.648,1.648,0,0,1,2.079,0,1.244,1.244,0,0,1,.387.94,1.247,1.247,0,0,1-.391.949,1.629,1.629,0,0,1-2.065,0A1.247,1.247,0,0,1,38.171,5.029Zm4.421,7.146A5.573,5.573,0,0,1,43.633,8.65a3.375,3.375,0,0,1,2.808-1.336,2.96,2.96,0,0,1,2.435,1.072l.105-.9h2.3v9.193a4.064,4.064,0,0,1-.567,2.171,3.641,3.641,0,0,1-1.6,1.406,5.608,5.608,0,0,1-2.408.483,5.215,5.215,0,0,1-2.039-.417,3.619,3.619,0,0,1-1.5-1.077L44.3,17.7a2.975,2.975,0,0,0,2.3,1.063,2.178,2.178,0,0,0,1.573-.541,2.027,2.027,0,0,0,.563-1.534v-.51a2.938,2.938,0,0,1-2.312.993,3.366,3.366,0,0,1-2.773-1.34,5.572,5.572,0,0,1-1.059-3.555Zm2.54.181a3.489,3.489,0,0,0,.519,2.035,1.648,1.648,0,0,0,1.424.737,1.762,1.762,0,0,0,1.661-.874V10.236a1.758,1.758,0,0,0-1.644-.874,1.659,1.659,0,0,0-1.437.751A3.933,3.933,0,0,0,45.132,12.356Zm12.48,4.82a4.668,4.668,0,0,1-3.406-1.283,4.561,4.561,0,0,1-1.314-3.419v-.246a5.745,5.745,0,0,1,.554-2.562,4.064,4.064,0,0,1,1.569-1.74,4.4,4.4,0,0,1,2.316-.611A3.947,3.947,0,0,1,60.4,8.545a5,5,0,0,1,1.121,3.489v1.037H55.468a2.36,2.36,0,0,0,.743,1.494,2.245,2.245,0,0,0,1.569.563,2.742,2.742,0,0,0,2.294-1.063l1.248,1.4a3.813,3.813,0,0,1-1.547,1.261A5.075,5.075,0,0,1,57.612,17.176Zm-.29-7.813a1.587,1.587,0,0,0-1.226.512,2.651,2.651,0,0,0-.6,1.466h3.533v-.2a1.891,1.891,0,0,0-.457-1.311A1.638,1.638,0,0,0,57.322,9.362ZM65.3,7.49l.079,1.1a3.32,3.32,0,0,1,2.733-1.274,2.759,2.759,0,0,1,2.25.888,4.142,4.142,0,0,1,.756,2.654V17h-2.54V10.9a1.654,1.654,0,0,0-.352-1.176,1.572,1.572,0,0,0-1.169-.366,1.747,1.747,0,0,0-1.608.916V17h-2.54V7.49ZM77,15.128a1.666,1.666,0,0,0,1.143-.387,1.355,1.355,0,0,0,.457-1.028h2.382a3.258,3.258,0,0,1-.527,1.771,3.48,3.48,0,0,1-1.419,1.248,4.442,4.442,0,0,1-1.991.444,4.129,4.129,0,0,1-3.217-1.3A5.13,5.13,0,0,1,72.65,12.3v-.167a5.071,5.071,0,0,1,1.169-3.507,4.08,4.08,0,0,1,3.208-1.31A4,4,0,0,1,79.888,8.33a3.594,3.594,0,0,1,1.094,2.7H78.6a1.745,1.745,0,0,0-.457-1.206,1.7,1.7,0,0,0-2.5.183,3.749,3.749,0,0,0-.453,2.1v.264a3.8,3.8,0,0,0,.448,2.113A1.549,1.549,0,0,0,77,15.128ZM85.113,17H82.564V7.49h2.549Zm-2.7-11.971a1.251,1.251,0,0,1,.382-.94,1.648,1.648,0,0,1,2.079,0,1.244,1.244,0,0,1,.387.94,1.247,1.247,0,0,1-.391.949,1.629,1.629,0,0,1-2.065,0A1.247,1.247,0,0,1,82.415,5.029ZM92.716,17a2.821,2.821,0,0,1-.255-.853,3.073,3.073,0,0,1-2.4,1.028,3.376,3.376,0,0,1-2.316-.809,2.6,2.6,0,0,1-.918-2.039,2.687,2.687,0,0,1,1.121-2.32,5.529,5.529,0,0,1,3.239-.817h1.169v-.545a1.567,1.567,0,0,0-.338-1.055,1.331,1.331,0,0,0-1.068-.4,1.513,1.513,0,0,0-1.006.308,1.045,1.045,0,0,0-.365.844h-2.54a2.551,2.551,0,0,1,.51-1.529,3.37,3.37,0,0,1,1.441-1.1,5.253,5.253,0,0,1,2.092-.4,4.15,4.15,0,0,1,2.791.883A3.09,3.09,0,0,1,94.9,10.681V14.8a4.546,4.546,0,0,0,.378,2.048V17Zm-2.1-1.767a2.188,2.188,0,0,0,1.037-.25,1.645,1.645,0,0,0,.7-.672V12.676h-.949q-1.907,0-2.03,1.318l-.009.149a1.017,1.017,0,0,0,.334.782A1.3,1.3,0,0,0,90.615,15.233Zm10.327-3.059a5.731,5.731,0,0,1,1-3.542,3.237,3.237,0,0,1,2.729-1.318,2.913,2.913,0,0,1,2.294,1.037V3.5h2.549V17h-2.294l-.123-1.011a2.989,2.989,0,0,1-2.443,1.187,3.228,3.228,0,0,1-2.694-1.323A5.916,5.916,0,0,1,100.942,12.175Zm2.54.181a3.775,3.775,0,0,0,.466,2.057,1.516,1.516,0,0,0,1.354.715,1.7,1.7,0,0,0,1.661-1V10.36a1.675,1.675,0,0,0-1.644-1Q103.482,9.362,103.482,12.356Zm12.375,4.82a4.668,4.668,0,0,1-3.406-1.283,4.561,4.561,0,0,1-1.314-3.419v-.246a5.745,5.745,0,0,1,.554-2.562,4.064,4.064,0,0,1,1.569-1.74,4.4,4.4,0,0,1,2.316-.611,3.947,3.947,0,0,1,3.072,1.23,5,5,0,0,1,1.121,3.489v1.037h-6.056a2.36,2.36,0,0,0,.743,1.494,2.245,2.245,0,0,0,1.569.563,2.742,2.742,0,0,0,2.294-1.063l1.248,1.4a3.813,3.813,0,0,1-1.547,1.261A5.075,5.075,0,0,1,115.857,17.176Zm-.29-7.813a1.587,1.587,0,0,0-1.226.512,2.651,2.651,0,0,0-.6,1.466h3.533v-.2a1.891,1.891,0,0,0-.457-1.311A1.638,1.638,0,0,0,115.567,9.362ZM128.373,17h-2.549V3.5h2.549Zm7.6,0a2.821,2.821,0,0,1-.255-.853,3.073,3.073,0,0,1-2.4,1.028,3.376,3.376,0,0,1-2.316-.809,2.6,2.6,0,0,1-.918-2.039,2.687,2.687,0,0,1,1.121-2.32,5.529,5.529,0,0,1,3.239-.817h1.169v-.545a1.567,1.567,0,0,0-.338-1.055,1.331,1.331,0,0,0-1.068-.4A1.513,1.513,0,0,0,133.2,9.5a1.045,1.045,0,0,0-.365.844H130.3a2.551,2.551,0,0,1,.51-1.529,3.37,3.37,0,0,1,1.441-1.1,5.253,5.253,0,0,1,2.092-.4,4.15,4.15,0,0,1,2.791.883,3.09,3.09,0,0,1,1.033,2.483V14.8a4.546,4.546,0,0,0,.378,2.048V17Zm-2.1-1.767a2.188,2.188,0,0,0,1.037-.25,1.645,1.645,0,0,0,.7-.672V12.676h-.949q-1.907,0-2.03,1.318l-.009.149a1.017,1.017,0,0,0,.334.782A1.3,1.3,0,0,0,133.875,15.233Zm-82.789,17.1a5.7,5.7,0,0,1-1,3.52,3.2,3.2,0,0,1-2.694,1.323,2.963,2.963,0,0,1-2.329-1v4.482h-2.54V27.49h2.355l.088.932a2.985,2.985,0,0,1,2.408-1.107,3.22,3.22,0,0,1,2.733,1.3,5.858,5.858,0,0,1,.976,3.586Zm-2.54-.194a3.763,3.763,0,0,0-.47-2.054,1.53,1.53,0,0,0-1.367-.723,1.662,1.662,0,0,0-1.644.917v3.906a1.691,1.691,0,0,0,1.661.943Q48.546,35.128,48.546,32.139ZM58,29.872a6.9,6.9,0,0,0-.914-.07,1.86,1.86,0,0,0-1.89.976V37H52.66V27.49h2.4l.07,1.134a2.354,2.354,0,0,1,2.118-1.31,2.662,2.662,0,0,1,.791.114Zm.51,2.285a5.64,5.64,0,0,1,.545-2.522,3.989,3.989,0,0,1,1.569-1.714A4.577,4.577,0,0,1,63,27.314a4.33,4.33,0,0,1,3.142,1.178,4.727,4.727,0,0,1,1.358,3.2l.018.65A4.97,4.97,0,0,1,66.3,35.853a4.735,4.735,0,0,1-6.561,0,5.058,5.058,0,0,1-1.226-3.586Zm2.54.18a3.555,3.555,0,0,0,.51,2.073,1.831,1.831,0,0,0,2.9.009,3.89,3.89,0,0,0,.519-2.267,3.519,3.519,0,0,0-.519-2.06A1.686,1.686,0,0,0,63,29.362a1.658,1.658,0,0,0-1.441.726A3.955,3.955,0,0,0,61.053,32.338Zm16.594,0a5.7,5.7,0,0,1-1,3.52,3.2,3.2,0,0,1-2.694,1.323,2.963,2.963,0,0,1-2.329-1v4.482h-2.54V27.49h2.355l.088.932a2.985,2.985,0,0,1,2.408-1.107,3.22,3.22,0,0,1,2.733,1.3,5.858,5.858,0,0,1,.976,3.586Zm-2.54-.194a3.763,3.763,0,0,0-.47-2.054,1.53,1.53,0,0,0-1.367-.723,1.662,1.662,0,0,0-1.644.917v3.906a1.691,1.691,0,0,0,1.661.943Q75.107,35.128,75.107,32.139Zm9.809,3.894a3.185,3.185,0,0,1-2.6,1.143A3,3,0,0,1,79.98,36.3a3.752,3.752,0,0,1-.822-2.575V27.49H81.7v6.151q0,1.487,1.354,1.487a1.834,1.834,0,0,0,1.775-.9V27.49h2.549V37H84.986Zm8.754,1.143a4.668,4.668,0,0,1-3.406-1.283,4.561,4.561,0,0,1-1.314-3.419v-.246a5.745,5.745,0,0,1,.554-2.562,4.064,4.064,0,0,1,1.569-1.74,4.4,4.4,0,0,1,2.316-.611,3.947,3.947,0,0,1,3.072,1.23,5,5,0,0,1,1.121,3.489v1.037H91.525a2.36,2.36,0,0,0,.743,1.494,2.245,2.245,0,0,0,1.569.563,2.742,2.742,0,0,0,2.294-1.063l1.248,1.4a3.813,3.813,0,0,1-1.547,1.261A5.075,5.075,0,0,1,93.669,37.176Zm-.29-7.813a1.587,1.587,0,0,0-1.226.512,2.651,2.651,0,0,0-.6,1.466h3.533v-.2a1.891,1.891,0,0,0-.457-1.311A1.638,1.638,0,0,0,93.379,29.362Zm10.793,5.01a.818.818,0,0,0-.461-.734,5.241,5.241,0,0,0-1.481-.479q-3.393-.712-3.393-2.883a2.613,2.613,0,0,1,1.05-2.114,4.237,4.237,0,0,1,2.747-.848,4.56,4.56,0,0,1,2.9.853,2.687,2.687,0,0,1,1.085,2.215h-2.54a1.229,1.229,0,0,0-.352-.9,1.488,1.488,0,0,0-1.1-.356,1.52,1.52,0,0,0-.993.29.916.916,0,0,0-.352.738.783.783,0,0,0,.4.681,4.114,4.114,0,0,0,1.349.448,11.019,11.019,0,0,1,1.6.426,2.628,2.628,0,0,1,2.013,2.558,2.481,2.481,0,0,1-1.116,2.1,4.815,4.815,0,0,1-2.883.8,5.029,5.029,0,0,1-2.123-.426,3.561,3.561,0,0,1-1.455-1.169,2.716,2.716,0,0,1-.527-1.6h2.408a1.326,1.326,0,0,0,.5,1.037,1.987,1.987,0,0,0,1.248.36,1.839,1.839,0,0,0,1.1-.277A.861.861,0,0,0,104.172,34.372Zm7.146-9.22V27.49h1.626v1.863h-1.626V34.1a1.133,1.133,0,0,0,.2.756,1.015,1.015,0,0,0,.773.229,4.051,4.051,0,0,0,.747-.062v1.925a5.229,5.229,0,0,1-1.538.229,2.425,2.425,0,0,1-2.725-2.7V29.354h-1.389V27.49h1.389V25.152ZM119.87,37a2.821,2.821,0,0,1-.255-.853,3.073,3.073,0,0,1-2.4,1.028,3.376,3.376,0,0,1-2.316-.809,2.6,2.6,0,0,1-.918-2.039,2.687,2.687,0,0,1,1.121-2.32,5.529,5.529,0,0,1,3.239-.817h1.169v-.545a1.567,1.567,0,0,0-.338-1.055,1.331,1.331,0,0,0-1.068-.4,1.513,1.513,0,0,0-1.006.308,1.045,1.045,0,0,0-.365.844h-2.54a2.551,2.551,0,0,1,.51-1.529,3.37,3.37,0,0,1,1.441-1.1,5.253,5.253,0,0,1,2.092-.4,4.15,4.15,0,0,1,2.791.883,3.09,3.09,0,0,1,1.033,2.483V34.8a4.546,4.546,0,0,0,.378,2.048V37Zm-2.1-1.767a2.188,2.188,0,0,0,1.037-.25,1.645,1.645,0,0,0,.7-.672V32.676h-.949q-1.907,0-2.03,1.318l-.009.149a1.017,1.017,0,0,0,.334.782A1.3,1.3,0,0,0,117.769,35.233Z" transform="translate(906.63 1712.259)" fill="#12263f"/>
      <g id="Grupo_151707" data-name="Grupo 151707" transform="translate(332.682 1795.207)" opacity="0.64">
        <g id="Grupo_151706" data-name="Grupo 151706">
          <g id="Grupo_151705" data-name="Grupo 151705" clip-path="url(#clip-path-2)">
            <path id="Trazado_212286" data-name="Trazado 212286" d="M210.9,149.163a87.98,87.98,0,1,0-88.382,87.576A87.98,87.98,0,0,0,210.9,149.163" transform="translate(-34.938 -60.78)" fill="#fff"/>
          </g>
        </g>
      </g>
      <g id="Grupo_151710" data-name="Grupo 151710" transform="translate(522.376 1796.078)" opacity="0.64">
        <g id="Grupo_151709" data-name="Grupo 151709">
          <g id="Grupo_151708" data-name="Grupo 151708" clip-path="url(#clip-path-3)">
            <path id="Trazado_212288" data-name="Trazado 212288" d="M173.935,148.995a87.98,87.98,0,1,0,88.382-87.576,87.98,87.98,0,0,0-88.382,87.576" transform="translate(-173.934 -61.418)" fill="#fff"/>
          </g>
        </g>
      </g>
      <g id="Grupo_151713" data-name="Grupo 151713" transform="translate(711.931 1796.947)" opacity="0.64">
        <g id="Grupo_151712" data-name="Grupo 151712">
          <g id="Grupo_151711" data-name="Grupo 151711" clip-path="url(#clip-path-3)">
            <path id="Trazado_212290" data-name="Trazado 212290" d="M488.788,150.438a87.98,87.98,0,1,0-88.382,87.576,87.979,87.979,0,0,0,88.382-87.576" transform="translate(-312.829 -62.055)" fill="#fff"/>
          </g>
        </g>
      </g>
      <g id="Grupo_151716" data-name="Grupo 151716" transform="translate(901.626 1797.818)" opacity="0.64">
        <g id="Grupo_151715" data-name="Grupo 151715">
          <g id="Grupo_151714" data-name="Grupo 151714" clip-path="url(#clip-path-5)">
            <path id="Trazado_212292" data-name="Trazado 212292" d="M451.827,150.27a87.98,87.98,0,1,0,88.382-87.576,87.979,87.979,0,0,0-88.382,87.576" transform="translate(-451.826 -62.693)" fill="#fff"/>
          </g>
        </g>
      </g>
      <g id="Grupo_151719" data-name="Grupo 151719" transform="translate(1091.243 1795.207)" opacity="0.64">
        <g id="Grupo_151718" data-name="Grupo 151718">
          <g id="Grupo_151717" data-name="Grupo 151717" clip-path="url(#clip-path-3)">
            <path id="Trazado_212309" data-name="Trazado 212309" d="M766.724,149.163a87.98,87.98,0,1,0-88.382,87.576,87.98,87.98,0,0,0,88.382-87.576" transform="translate(-590.765 -60.78)" fill="#fff"/>
          </g>
        </g>
      </g>
      <rect id="Rectángulo_42644" data-name="Rectángulo 42644" width="1030" height="341.698" transform="translate(285 1712.259)" fill="none"/>
      <rect id="Rectángulo_42645" data-name="Rectángulo 42645" width="1030" height="341.698" transform="translate(285 1712.259)" fill="none"/>
      <path id="Trazado_212313" data-name="Trazado 212313" d="M-7977.984-8228.466v54.334" transform="translate(8398.559 10172.613)" fill="none" stroke="#a2a7c5" stroke-width="2" stroke-dasharray="4"/>
      <path id="Trazado_212320" data-name="Trazado 212320" d="M-7977.984-8228.466v54.334" transform="translate(8777.457 10172.613)" fill="none" stroke="#a2a7c5" stroke-width="2" stroke-dasharray="4"/>
      <path id="Trazado_212322" data-name="Trazado 212322" d="M-7977.984-8228.466v54.334" transform="translate(9157.539 10172.613)" fill="none" stroke="#a2a7c5" stroke-width="2" stroke-dasharray="4"/>
      <path id="Trazado_212317" data-name="Trazado 212317" d="M0,0V54.334" transform="translate(610.022 1822.371) rotate(180)" fill="none" stroke="#a2a7c5" stroke-width="2" stroke-dasharray="4"/>
      <path id="Trazado_212323" data-name="Trazado 212323" d="M0,0V54.334" transform="translate(990.105 1822.371) rotate(180)" fill="none" stroke="#a2a7c5" stroke-width="2" stroke-dasharray="4"/>
      <path id="Trazado_212314" data-name="Trazado 212314" d="M0,0V46.133" transform="translate(444.209 1998.48) rotate(90)" fill="none" stroke="#ea3584" stroke-width="2"/>
      <path id="Trazado_212319" data-name="Trazado 212319" d="M0,0V46.133" transform="translate(823.107 1998.48) rotate(90)" fill="none" stroke="#ea3584" stroke-width="2"/>
      <path id="Trazado_212321" data-name="Trazado 212321" d="M0,0V46.133" transform="translate(1202.007 1998.48) rotate(90)" fill="none" stroke="#ea3584" stroke-width="2"/>
      <path id="Trazado_212318" data-name="Trazado 212318" d="M0,0V46.133" transform="translate(587.525 1768.042) rotate(-90)" fill="none" stroke="#ea3584" stroke-width="2"/>
      <path id="Trazado_212324" data-name="Trazado 212324" d="M0,0V46.133" transform="translate(966.423 1768.042) rotate(-90)" fill="none" stroke="#ea3584" stroke-width="2"/>
      <path id="Trazado_594247" data-name="Trazado 594247" d="M115.416,202.5a60.958,60.958,0,1,1,61.236-60.678A61.027,61.027,0,0,1,115.416,202.5" transform="translate(495.263 1741.42)" fill="url(#radial-gradient)"/>
      <path id="Trazado_594248" data-name="Trazado 594248" d="M115.416,202.5a60.958,60.958,0,1,1,61.236-60.678A61.027,61.027,0,0,1,115.416,202.5" transform="translate(684.263 1741.42)" fill="url(#radial-gradient)"/>
      <path id="Trazado_594249" data-name="Trazado 594249" d="M115.416,202.5a60.958,60.958,0,1,1,61.236-60.678A61.027,61.027,0,0,1,115.416,202.5" transform="translate(874.263 1741.42)" fill="url(#radial-gradient)"/>
      <path id="Trazado_594250" data-name="Trazado 594250" d="M115.416,202.5a60.958,60.958,0,1,1,61.236-60.678A61.027,61.027,0,0,1,115.416,202.5" transform="translate(1064.263 1744.26)" fill="url(#radial-gradient)"/>
      <path id="Trazado_594251" data-name="Trazado 594251" d="M115.416,202.5a60.958,60.958,0,1,1,61.236-60.678A61.027,61.027,0,0,1,115.416,202.5" transform="translate(305.263 1741.42)" fill="url(#radial-gradient)"/>
      <g id="identidad" transform="translate(386 1849)">
        <path id="Trazado_594252" data-name="Trazado 594252" d="M69.745,46.941V9.571A1.368,1.368,0,0,0,68.378,8.2H22.015V1.368A1.368,1.368,0,0,0,20.647,0H1.367A1.368,1.368,0,0,0,0,1.368V46.941a1.368,1.368,0,0,0,1.368,1.368H37.68A14.666,14.666,0,0,0,34.971,56.8v8.993a1.368,1.368,0,0,0,1.368,1.368H68.3a1.368,1.368,0,0,0,1.368-1.368V56.8a14.671,14.671,0,0,0-2.709-8.492h1.422a1.368,1.368,0,0,0,1.368-1.368ZM2.735,2.736H19.28V8.2H2.735Zm64.193,61.69H60.49V61.59a1.368,1.368,0,1,0-2.735,0v2.836H46.883V55.982a1.368,1.368,0,0,0-2.736,0v8.444H37.706V56.8a11.959,11.959,0,0,1,8.01-11.28l1.538-.537,1.306,3.306c.007.02.016.039.024.058a3.938,3.938,0,0,0,7.1.179c.01-.019.019-.037.028-.057l1.6-3.512,1.611.562a11.959,11.959,0,0,1,8.01,11.28ZM52.734,42.409h-1.1a5.978,5.978,0,0,1-5.971-5.971V32.054a9.376,9.376,0,0,0,2.881.518,6,6,0,0,0,2.448-.51,9.524,9.524,0,0,1,6.851-.7,2.51,2.51,0,0,0,.763.046l.105-.009v5.04a5.978,5.978,0,0,1-5.971,5.971ZM57.7,27.081a5.961,5.961,0,0,1,.752,1.592l-.067.006a12.2,12.2,0,0,0-8.494.874,4.451,4.451,0,0,1-3.438-.117,2.846,2.846,0,0,0-.693-.136,5.927,5.927,0,0,1,.869-2.166,6.3,6.3,0,0,1,5.231-2.712h.645a6.321,6.321,0,0,1,5.195,2.66ZM51.63,45.144h1.1A8.72,8.72,0,0,0,54.281,45l-1.046,2.3a1.2,1.2,0,0,1-2.144-.054l-.878-2.222A8.759,8.759,0,0,0,51.63,45.144Zm15.38.428H64.437a14.647,14.647,0,0,0-4.618-2.636l-.948-.33a8.678,8.678,0,0,0,2.57-6.169V30.393a8.736,8.736,0,0,0-.128-1.478,2.988,2.988,0,0,0-.057-.385,8.3,8.3,0,0,0-1.24-2.9,8.7,8.7,0,0,0-7.282-3.942h-1.1a8.706,8.706,0,0,0-7.342,4.035,8.289,8.289,0,0,0-1.364,4.55c0,.009,0,.016,0,.024,0,.032,0,.064,0,.1v6.044a8.679,8.679,0,0,0,2.642,6.238l-.749.262A14.623,14.623,0,0,0,40.2,45.572H2.735V10.939H67.009Zm0,0" transform="translate(0 0)"/>
        <path id="Trazado_594253" data-name="Trazado 594253" d="M38.047,101.684v6.12a1.368,1.368,0,0,0,1.368,1.368h28.3a1.368,1.368,0,0,0,1.368-1.368v-6.12a1.368,1.368,0,0,0-1.368-1.368h-28.3A1.368,1.368,0,0,0,38.047,101.684Zm2.736,1.368H66.35v3.384H40.783Zm0,0" transform="translate(-32.864 -86.651)"/>
        <path id="Trazado_594254" data-name="Trazado 594254" d="M41.254,183.516h13.9a1.368,1.368,0,0,0,0-2.735h-13.9a1.368,1.368,0,0,0,0,2.735Zm0,0" transform="translate(-34.454 -156.155)"/>
        <path id="Trazado_594255" data-name="Trazado 594255" d="M67.718,216.2h-28.3a1.368,1.368,0,0,0-1.368,1.368v6.12a1.368,1.368,0,0,0,1.368,1.368h28.3a1.368,1.368,0,0,0,1.368-1.368v-6.12a1.368,1.368,0,0,0-1.368-1.368Zm-1.368,6.12H40.783v-3.384H66.35Zm0,0" transform="translate(-32.864 -186.748)"/>
        <path id="Trazado_594256" data-name="Trazado 594256" d="M60.193,296.66H41.254a1.368,1.368,0,0,0,0,2.736H60.193a1.368,1.368,0,0,0,0-2.736Zm0,0" transform="translate(-34.454 -256.249)"/>
        <path id="Trazado_594257" data-name="Trazado 594257" d="M191.653,183.361a1.37,1.37,0,0,0,1.268-1.882l-.05-.122a1.368,1.368,0,0,0-2.535,1.026l.05.123A1.368,1.368,0,0,0,191.653,183.361Zm0,0" transform="translate(-164.321 -155.914)"/>
        <path id="Trazado_594258" data-name="Trazado 594258" d="M424.8,400.877a1.368,1.368,0,0,0-2.535,1.026l.049.122A1.368,1.368,0,0,0,424.849,401Zm0,0" transform="translate(-364.656 -345.531)"/>
      </g>
      <g id="edificio-de-oficinas" transform="translate(574 1831.812)">
        <g id="Grupo_874209" data-name="Grupo 874209" transform="translate(0 17.188)">
          <g id="Grupo_874208" data-name="Grupo 874208">
            <path id="Trazado_594259" data-name="Trazado 594259" d="M70.373,78.981h-.917v-17.9a1.084,1.084,0,0,0-2.168,0v17.9H44.3V49.52H66.4a.887.887,0,0,1,.886.886v5.573a1.084,1.084,0,1,0,2.168,0V50.406A3.057,3.057,0,0,0,66.4,47.352H44.3V27.658a3.068,3.068,0,0,0-2.8-3.042V22.442A3.068,3.068,0,0,0,38.686,19.4L10.618,17.2a3.055,3.055,0,0,0-3.292,3.044v1.736a3.054,3.054,0,0,0-2.8,3.042V78.981H3.613a3.613,3.613,0,0,0,0,7.225h66.76a3.612,3.612,0,1,0,0-7.225ZM9.494,20.242a.885.885,0,0,1,.955-.883l28.068,2.2a.89.89,0,0,1,.816.883v2L9.493,22.106V20.242ZM6.7,25.02a.885.885,0,0,1,.955-.883l33.661,2.638a.89.89,0,0,1,.817.883V78.981H39.1V63.464a1.791,1.791,0,0,0-1.789-1.789H27.243a1.791,1.791,0,0,0-1.789,1.789v7.03a1.084,1.084,0,1,0,2.168,0V63.843h9.311V78.981H27.622v-3.42a1.084,1.084,0,0,0-2.168,0v3.42H6.7ZM70.373,84.039H3.613a1.445,1.445,0,1,1,0-2.89h66.76a1.445,1.445,0,0,1,0,2.89Z" transform="translate(0 -17.188)"/>
            <path id="Trazado_594260" data-name="Trazado 594260" d="M64.833,120.817H69.22a1.872,1.872,0,0,0,1.87-1.87v-3.375a1.872,1.872,0,0,0-1.87-1.87H64.833a1.872,1.872,0,0,0-1.87,1.87v3.375A1.872,1.872,0,0,0,64.833,120.817Zm.3-4.948h3.792v2.781H65.131Z" transform="translate(-53.865 -99.756)"/>
            <path id="Trazado_594261" data-name="Trazado 594261" d="M140.527,120.817h4.387a1.872,1.872,0,0,0,1.87-1.87v-3.375a1.872,1.872,0,0,0-1.87-1.87h-4.387a1.872,1.872,0,0,0-1.87,1.87v3.375A1.872,1.872,0,0,0,140.527,120.817Zm.3-4.948h3.792v2.781h-3.792Z" transform="translate(-118.621 -99.756)"/>
            <path id="Trazado_594262" data-name="Trazado 594262" d="M216.22,120.817h4.387a1.872,1.872,0,0,0,1.87-1.87v-3.375a1.872,1.872,0,0,0-1.87-1.87H216.22a1.872,1.872,0,0,0-1.87,1.87v3.375a1.872,1.872,0,0,0,1.87,1.87Zm.3-4.948h3.792v2.781h-3.792Z" transform="translate(-183.376 -99.756)"/>
            <path id="Trazado_594263" data-name="Trazado 594263" d="M64.833,188.254H69.22a1.872,1.872,0,0,0,1.87-1.87v-3.375a1.872,1.872,0,0,0-1.87-1.87H64.833a1.872,1.872,0,0,0-1.87,1.87v3.375A1.872,1.872,0,0,0,64.833,188.254Zm.3-4.948h3.792v2.781H65.131Z" transform="translate(-53.865 -157.447)"/>
            <path id="Trazado_594264" data-name="Trazado 594264" d="M140.527,188.254h4.387a1.872,1.872,0,0,0,1.87-1.87v-3.375a1.872,1.872,0,0,0-1.87-1.87h-4.387a1.872,1.872,0,0,0-1.87,1.87v3.375A1.872,1.872,0,0,0,140.527,188.254Zm.3-4.948h3.792v2.781h-3.792Z" transform="translate(-118.621 -157.447)"/>
            <path id="Trazado_594265" data-name="Trazado 594265" d="M216.22,188.254h4.387a1.872,1.872,0,0,0,1.87-1.87v-3.375a1.872,1.872,0,0,0-1.87-1.87H216.22a1.872,1.872,0,0,0-1.87,1.87v3.375a1.872,1.872,0,0,0,1.87,1.87Zm.3-4.948h3.792v2.781h-3.792Z" transform="translate(-183.376 -157.447)"/>
            <path id="Trazado_594266" data-name="Trazado 594266" d="M64.833,255.69H69.22a1.872,1.872,0,0,0,1.87-1.87v-3.375a1.872,1.872,0,0,0-1.87-1.87H64.833a1.872,1.872,0,0,0-1.87,1.87v3.375A1.872,1.872,0,0,0,64.833,255.69Zm.3-4.948h3.792v2.781H65.131Z" transform="translate(-53.865 -215.139)"/>
            <path id="Trazado_594267" data-name="Trazado 594267" d="M74.753,325.052H65.044a2.083,2.083,0,0,0-2.081,2.081v2.954a2.083,2.083,0,0,0,2.081,2.081h9.709a2.083,2.083,0,0,0,2.081-2.081v-2.954A2.083,2.083,0,0,0,74.753,325.052ZM74.666,330H65.131V327.22h9.535Z" transform="translate(-53.865 -280.565)"/>
            <path id="Trazado_594268" data-name="Trazado 594268" d="M140.527,255.69h4.387a1.872,1.872,0,0,0,1.87-1.87v-3.375a1.872,1.872,0,0,0-1.87-1.87h-4.387a1.872,1.872,0,0,0-1.87,1.87v3.375A1.872,1.872,0,0,0,140.527,255.69Zm.3-4.948h3.792v2.781h-3.792Z" transform="translate(-118.621 -215.139)"/>
            <path id="Trazado_594269" data-name="Trazado 594269" d="M216.22,255.69h4.387a1.872,1.872,0,0,0,1.87-1.87v-3.375a1.872,1.872,0,0,0-1.87-1.87H216.22a1.872,1.872,0,0,0-1.87,1.87v3.375a1.872,1.872,0,0,0,1.87,1.87Zm.3-4.948h3.792v2.781h-3.792Z" transform="translate(-183.376 -215.139)"/>
            <path id="Trazado_594270" data-name="Trazado 594270" d="M330.764,279.494a2,2,0,0,0-1.994-1.994h-4.426a2,2,0,0,0-1.994,1.994V283A2,2,0,0,0,324.345,285h4.426A2,2,0,0,0,330.764,283ZM328.6,282.83h-4.078v-3.163H328.6Z" transform="translate(-275.77 -239.884)"/>
            <path id="Trazado_594271" data-name="Trazado 594271" d="M328.771,346.717h-4.426a2,2,0,0,0-1.994,1.994v3.51a2,2,0,0,0,1.994,1.994h4.426a2,2,0,0,0,1.994-1.994v-3.51A2,2,0,0,0,328.771,346.717Zm-.174,5.33h-4.078v-3.163H328.6Z" transform="translate(-275.77 -299.099)"/>
            <path id="Trazado_594272" data-name="Trazado 594272" d="M400.525,279.494a2,2,0,0,0-1.994-1.994h-4.426a2,2,0,0,0-1.994,1.994V283A2,2,0,0,0,394.106,285h4.426A2,2,0,0,0,400.525,283Zm-2.168,3.337H394.28v-3.163h4.078Z" transform="translate(-335.451 -239.884)"/>
            <path id="Trazado_594273" data-name="Trazado 594273" d="M398.531,346.717h-4.426a2,2,0,0,0-1.994,1.994v3.51a2,2,0,0,0,1.994,1.994h4.426a2,2,0,0,0,1.994-1.994v-3.51A2,2,0,0,0,398.531,346.717Zm-.174,5.33H394.28v-3.163h4.078Z" transform="translate(-335.451 -299.099)"/>
          </g>
        </g>
      </g>
      <g id="Line_stroke_cut_Ex" data-name="Line stroke cut Ex" transform="translate(749 1817)">
        <g id="Grupo_874210" data-name="Grupo 874210" transform="translate(16 32)">
          <path id="Trazado_594274" data-name="Trazado 594274" d="M102.083,40.278v-7.1A1.183,1.183,0,0,0,100.9,32H41.773a1.183,1.183,0,0,0-1.183,1.183V39.1H39.467a4.15,4.15,0,0,0-4.059,3.327l-1.653,8.266,2.319.464,1.653-8.266a1.779,1.779,0,0,1,1.74-1.426H40.5V64.816a2.664,2.664,0,0,0,2.661,2.661h2.158a1.183,1.183,0,0,0,.923-.443l8.761-10.951.494.353a7.679,7.679,0,0,1,2,10.411l-.013.021L50.227,78.683a1.183,1.183,0,0,0-.176.619v21.286h2.365V89.1a10.045,10.045,0,0,0,10.081.727l.531-.26a1.183,1.183,0,0,0,.543-1.582l-1-2.042a9.968,9.968,0,0,0,6.3-.846l.531-.26a1.183,1.183,0,0,0,.543-1.582l-1.5-3.065,20.713,5.831a2.66,2.66,0,0,0,3.282-1.84l4.7-16.707H100.9a1.183,1.183,0,0,0,1.183-1.183V42.643H99.718V65.111H60.791a10.014,10.014,0,0,0,.3-2.365H91.643a1.183,1.183,0,0,0,1.115-1.577,2.365,2.365,0,0,1,3.019-3.018,1.183,1.183,0,0,0,1.577-1.115V41.258a1.183,1.183,0,0,0-1.577-1.115,2.365,2.365,0,0,1-3.154-2.23A1.183,1.183,0,0,0,91.44,36.73H50.051a1.183,1.183,0,0,0-1.183,1.183A2.368,2.368,0,0,1,46.5,40.278a1.183,1.183,0,0,0-1.183,1.183V56.834A1.183,1.183,0,0,0,46.5,58.016,2.369,2.369,0,0,1,48.839,60l-4.086,5.107h-1.59a.3.3,0,0,1-.3-.3V40.278h.089V34.365H99.718v5.913ZM52.416,86V79.636l1.444-2.35,1.565,3.2a9.982,9.982,0,0,0,3.92,4.242l1.572,3.215A7.744,7.744,0,0,1,52.416,86Zm14.875-2.784a7.688,7.688,0,0,1-9.741-3.767l-1.317-2.692,9.16,2.578Zm22.874.328a.3.3,0,0,1-.365.2L55.775,74.168l1.616-2.63,26.691,8.141a1.183,1.183,0,0,0,1.5-.881A2.365,2.365,0,0,1,88.4,76.991a1.181,1.181,0,0,0,1.393-.851L92.1,67.476h2.589Zm-.514-16.065-1.89,7.1a4.764,4.764,0,0,0-4.049,2.52L58.67,69.456l.824-1.341q.2-.314.377-.638ZM47.686,55.8V42.493a4.748,4.748,0,0,0,3.4-3.4H90.408a4.739,4.739,0,0,0,4.581,3.548V55.651a4.736,4.736,0,0,0-4.73,4.73H60.818a10.021,10.021,0,0,0-3.944-5.871l-1.405-1a1.183,1.183,0,0,0-1.611.223l-3.332,4.165A4.747,4.747,0,0,0,47.686,55.8Z" transform="translate(-31.131 -32)"/>
          <path id="Trazado_594275" data-name="Trazado 594275" d="M18.39,185.3l2.081-10.4-2.319-.464-2.129,10.643a1.184,1.184,0,0,0,0,.48l3.521,16.433v19.978h2.365v-20.1a1.183,1.183,0,0,0-.026-.248Z" transform="translate(-16 -153.377)"/>
          <path id="Trazado_594276" data-name="Trazado 594276" d="M240.278,112.556A8.278,8.278,0,1,0,232,104.278a8.278,8.278,0,0,0,8.278,8.278Zm0-14.191a5.913,5.913,0,1,1-5.913,5.913A5.913,5.913,0,0,1,240.278,98.365Z" transform="translate(-200.071 -86.54)"/>
          <rect id="Rectángulo_293342" data-name="Rectángulo 293342" width="6.584" height="1.881" transform="translate(54.557 12.149)"/>
        </g>
      </g>
      <g id="cita" transform="translate(956 1849)">
        <g id="Grupo_874212" data-name="Grupo 874212">
          <g id="Grupo_874211" data-name="Grupo 874211">
            <path id="Trazado_594277" data-name="Trazado 594277" d="M62.085,5.913H55.679V4.031a4.031,4.031,0,0,0-8.063,0V5.913H25.04V4.031a4.031,4.031,0,1,0-8.063,0V5.963a1.341,1.341,0,0,0-.358-.05H11.264a6.727,6.727,0,0,0-6.719,6.719v22.89a1.344,1.344,0,1,0,2.688,0V19.754H55.679a1.344,1.344,0,1,0,0-2.688H7.233V12.632A4.036,4.036,0,0,1,11.264,8.6h5.354a1.346,1.346,0,0,0,.358-.05V10.28a4.031,4.031,0,1,0,8.063,0V8.6H47.616v1.68a4.031,4.031,0,0,0,8.063,0V8.6h6.406a4.036,4.036,0,0,1,4.031,4.031V63.7a2.42,2.42,0,0,1-4.839,0V60.22a1.344,1.344,0,0,0-1.344-1.344H44.3a1.344,1.344,0,1,0,0,2.688H58.589V63.7a5.076,5.076,0,0,0,.611,2.42H5.107A2.422,2.422,0,0,1,2.688,63.7V61.564H32.766a1.344,1.344,0,1,0,0-2.688H19.339a11.019,11.019,0,1,0-14.36,0H1.344A1.344,1.344,0,0,0,0,60.22V63.7A5.112,5.112,0,0,0,5.107,68.8H63.7A5.113,5.113,0,0,0,68.8,63.7V12.632A6.727,6.727,0,0,0,62.085,5.913ZM22.352,10.28a1.344,1.344,0,1,1-2.688,0V4.031a1.344,1.344,0,1,1,2.688,0Zm30.639,0a1.344,1.344,0,1,1-2.688,0V4.031a1.344,1.344,0,1,1,2.688,0ZM3.827,50.528a8.332,8.332,0,1,1,8.332,8.332A8.341,8.341,0,0,1,3.827,50.528Z"/>
          </g>
        </g>
        <g id="Grupo_874214" data-name="Grupo 874214" transform="translate(60.639 17.067)">
          <g id="Grupo_874213" data-name="Grupo 874213">
            <path id="Trazado_594278" data-name="Trazado 594278" d="M453.534,127.394a1.343,1.343,0,1,0,.394.95A1.353,1.353,0,0,0,453.534,127.394Z" transform="translate(-451.24 -127)"/>
          </g>
        </g>
        <g id="Grupo_874216" data-name="Grupo 874216" transform="translate(37.839 58.877)">
          <g id="Grupo_874215" data-name="Grupo 874215">
            <path id="Trazado_594279" data-name="Trazado 594279" d="M283.874,438.522a1.344,1.344,0,1,0,.394.95A1.352,1.352,0,0,0,283.874,438.522Z" transform="translate(-281.58 -438.13)"/>
          </g>
        </g>
        <g id="Grupo_874218" data-name="Grupo 874218" transform="translate(25.297 40.852)">
          <g id="Grupo_874217" data-name="Grupo 874217">
            <path id="Trazado_594280" data-name="Trazado 594280" d="M193.352,304a5.107,5.107,0,1,0,5.107,5.107A5.112,5.112,0,0,0,193.352,304Zm0,7.525a2.419,2.419,0,1,1,2.419-2.419A2.422,2.422,0,0,1,193.352,311.525Z" transform="translate(-188.245 -304)"/>
          </g>
        </g>
        <g id="Grupo_874220" data-name="Grupo 874220" transform="translate(37.839 40.852)">
          <g id="Grupo_874219" data-name="Grupo 874219">
            <path id="Trazado_594281" data-name="Trazado 594281" d="M286.685,304a5.107,5.107,0,1,0,5.107,5.107A5.112,5.112,0,0,0,286.685,304Zm0,7.525a2.419,2.419,0,1,1,2.419-2.419A2.422,2.422,0,0,1,286.685,311.525Z" transform="translate(-281.578 -304)"/>
          </g>
        </g>
        <g id="Grupo_874222" data-name="Grupo 874222" transform="translate(50.382 40.852)">
          <g id="Grupo_874221" data-name="Grupo 874221">
            <path id="Trazado_594282" data-name="Trazado 594282" d="M380.018,304a5.107,5.107,0,1,0,5.107,5.107A5.112,5.112,0,0,0,380.018,304Zm0,7.525a2.419,2.419,0,1,1,2.419-2.419A2.422,2.422,0,0,1,380.018,311.525Z" transform="translate(-374.912 -304)"/>
          </g>
        </g>
        <g id="Grupo_874224" data-name="Grupo 874224" transform="translate(12.754 26.876)">
          <g id="Grupo_874223" data-name="Grupo 874223">
            <path id="Trazado_594283" data-name="Trazado 594283" d="M100.019,200a5.107,5.107,0,1,0,5.107,5.107A5.112,5.112,0,0,0,100.019,200Zm0,7.525a2.419,2.419,0,1,1,2.419-2.419A2.422,2.422,0,0,1,100.019,207.525Z" transform="translate(-94.912 -200)"/>
          </g>
        </g>
        <g id="Grupo_874226" data-name="Grupo 874226" transform="translate(37.839 26.876)">
          <g id="Grupo_874225" data-name="Grupo 874225">
            <path id="Trazado_594284" data-name="Trazado 594284" d="M286.685,200a5.107,5.107,0,1,0,5.107,5.107A5.112,5.112,0,0,0,286.685,200Zm0,7.525a2.419,2.419,0,1,1,2.419-2.419A2.422,2.422,0,0,1,286.685,207.525Z" transform="translate(-281.578 -200)"/>
          </g>
        </g>
        <g id="Grupo_874228" data-name="Grupo 874228" transform="translate(50.382 26.876)">
          <g id="Grupo_874227" data-name="Grupo 874227">
            <path id="Trazado_594285" data-name="Trazado 594285" d="M380.018,200a5.107,5.107,0,1,0,5.107,5.107A5.112,5.112,0,0,0,380.018,200Zm0,7.525a2.419,2.419,0,1,1,2.419-2.419A2.422,2.422,0,0,1,380.018,207.525Z" transform="translate(-374.912 -200)"/>
          </g>
        </g>
        <g id="Grupo_874230" data-name="Grupo 874230" transform="translate(25.297 26.876)">
          <g id="Grupo_874229" data-name="Grupo 874229">
            <path id="Trazado_594286" data-name="Trazado 594286" d="M193.352,200a5.107,5.107,0,1,0,5.107,5.107A5.112,5.112,0,0,0,193.352,200Zm0,7.525a2.419,2.419,0,1,1,2.419-2.419A2.422,2.422,0,0,1,193.352,207.525Z" transform="translate(-188.245 -200)"/>
          </g>
        </g>
        <g id="Grupo_874232" data-name="Grupo 874232" transform="translate(6.88 46.859)">
          <g id="Grupo_874231" data-name="Grupo 874231">
            <path id="Trazado_594287" data-name="Trazado 594287" d="M61.261,349.094a1.344,1.344,0,0,0-1.9,0l-4.376,4.376-1.5-1.5a1.344,1.344,0,0,0-1.9,1.9l2.446,2.446a1.344,1.344,0,0,0,1.9,0l5.327-5.327A1.344,1.344,0,0,0,61.261,349.094Z" transform="translate(-51.194 -348.7)"/>
          </g>
        </g>
      </g>
      <g id="curriculum" transform="translate(1151.993 1849)">
        <g id="Grupo_874234" data-name="Grupo 874234" transform="translate(0.007)">
          <g id="Grupo_874233" data-name="Grupo 874233">
            <path id="Trazado_594288" data-name="Trazado 594288" d="M55.641,19.989a1.344,1.344,0,0,0,1.344-1.344V4.031A4.036,4.036,0,0,0,52.954,0H4.038A4.036,4.036,0,0,0,.007,4.031V64.772A4.036,4.036,0,0,0,4.038,68.8H52.954a4.036,4.036,0,0,0,4.031-4.031v-9.9a1.344,1.344,0,0,0-2.688,0v9.9a1.345,1.345,0,0,1-1.344,1.344H4.038a1.345,1.345,0,0,1-1.344-1.344V4.031A1.345,1.345,0,0,1,4.038,2.688H52.954A1.345,1.345,0,0,1,54.3,4.031V18.646A1.344,1.344,0,0,0,55.641,19.989Z" transform="translate(-0.007)"/>
          </g>
        </g>
        <g id="Grupo_874236" data-name="Grupo 874236" transform="translate(16.133 7.257)">
          <g id="Grupo_874235" data-name="Grupo 874235">
            <path id="Trazado_594289" data-name="Trazado 594289" d="M132.37,54a12.357,12.357,0,0,0-8.482,21.349,1.328,1.328,0,0,0,.144.134,12.34,12.34,0,0,0,16.675,0,1.342,1.342,0,0,0,.144-.134A12.357,12.357,0,0,0,132.37,54Zm0,22.039a9.624,9.624,0,0,1-5.844-1.971,6.719,6.719,0,0,1,11.689,0A9.624,9.624,0,0,1,132.37,76.039Zm-2.15-10.213v-.873a2.15,2.15,0,1,1,4.3,0v.873a2.15,2.15,0,0,1-4.3,0Zm9.936,6.273A9.323,9.323,0,0,0,136.2,68.78a4.812,4.812,0,0,0,1.011-2.955v-.873a4.838,4.838,0,1,0-9.676,0v.873a4.812,4.812,0,0,0,1.011,2.955,9.323,9.323,0,0,0-3.959,3.319,9.676,9.676,0,1,1,15.572,0Z" transform="translate(-120.007 -54)"/>
          </g>
        </g>
        <g id="Grupo_874238" data-name="Grupo 874238" transform="translate(27.152 58.859)">
          <g id="Grupo_874237" data-name="Grupo 874237">
            <path id="Trazado_594290" data-name="Trazado 594290" d="M210.607,438h-7.257a1.344,1.344,0,0,0,0,2.688h7.257a1.344,1.344,0,0,0,0-2.688Z" transform="translate(-202.007 -438)"/>
          </g>
        </g>
        <g id="Grupo_874240" data-name="Grupo 874240" transform="translate(15.327 51.334)">
          <g id="Grupo_874239" data-name="Grupo 874239">
            <path id="Trazado_594291" data-name="Trazado 594291" d="M134.433,382H115.351a1.344,1.344,0,1,0,0,2.688h19.082a1.344,1.344,0,1,0,0-2.688Z" transform="translate(-114.007 -382)"/>
          </g>
        </g>
        <g id="Grupo_874242" data-name="Grupo 874242" transform="translate(15.327 43.809)">
          <g id="Grupo_874241" data-name="Grupo 874241">
            <path id="Trazado_594292" data-name="Trazado 594292" d="M134.433,326H115.351a1.344,1.344,0,1,0,0,2.688h19.082a1.344,1.344,0,1,0,0-2.688Z" transform="translate(-114.007 -326)"/>
          </g>
        </g>
        <g id="Grupo_874244" data-name="Grupo 874244" transform="translate(9.586 36.283)">
          <g id="Grupo_874243" data-name="Grupo 874243">
            <path id="Trazado_594293" data-name="Trazado 594293" d="M73.582,270.394a1.343,1.343,0,1,0,.394.95A1.354,1.354,0,0,0,73.582,270.394Z" transform="translate(-71.287 -270)"/>
          </g>
        </g>
        <g id="Grupo_874246" data-name="Grupo 874246" transform="translate(9.586 43.809)">
          <g id="Grupo_874245" data-name="Grupo 874245">
            <path id="Trazado_594294" data-name="Trazado 594294" d="M73.582,326.394a1.343,1.343,0,1,0,.394.95A1.356,1.356,0,0,0,73.582,326.394Z" transform="translate(-71.287 -326)"/>
          </g>
        </g>
        <g id="Grupo_874248" data-name="Grupo 874248" transform="translate(9.586 51.334)">
          <g id="Grupo_874247" data-name="Grupo 874247">
            <path id="Trazado_594295" data-name="Trazado 594295" d="M73.582,382.394a1.343,1.343,0,1,0,.394.95A1.356,1.356,0,0,0,73.582,382.394Z" transform="translate(-71.287 -382)"/>
          </g>
        </g>
        <g id="Grupo_874250" data-name="Grupo 874250" transform="translate(15.327 36.283)">
          <g id="Grupo_874249" data-name="Grupo 874249">
            <path id="Trazado_594296" data-name="Trazado 594296" d="M134.433,270H115.351a1.344,1.344,0,1,0,0,2.688h19.082a1.344,1.344,0,1,0,0-2.688Z" transform="translate(-114.007 -270)"/>
          </g>
        </g>
        <g id="Grupo_874252" data-name="Grupo 874252" transform="translate(39.997 16.754)">
          <g id="Grupo_874251" data-name="Grupo 874251">
            <path id="Trazado_594297" data-name="Trazado 594297" d="M323.58,125.434a5.644,5.644,0,0,0-7.71,2.066L298.96,156.79a1.347,1.347,0,0,0-.172.523l-1.19,10.662a1.344,1.344,0,0,0,2.132,1.231l8.639-6.362a1.342,1.342,0,0,0,.367-.41l16.911-29.29A5.651,5.651,0,0,0,323.58,125.434Zm-22.971,39.787.622-5.568,3.889,2.246Zm6.47-5.294-5.121-2.956,13.571-23.5,5.121,2.956ZM323.319,131.8l-1.325,2.294-5.121-2.956,1.325-2.294a2.956,2.956,0,0,1,5.121,2.956Z" transform="translate(-297.589 -124.675)"/>
          </g>
        </g>
      </g>
    </g>
    <rect id="Rectángulo_293343" data-name="Rectángulo 293343" width="1030" height="423" transform="translate(285 1672)" fill="none"/>
  </g>
</svg>
