<svg xmlns="http://www.w3.org/2000/svg" xmlns:xlink="http://www.w3.org/1999/xlink" width="505" height="49" viewBox="0 0 505 49">
  <defs>
    <linearGradient id="linear-gradient" x1="0.795" y1="0.5" x2="1" y2="0.5" gradientUnits="objectBoundingBox">
      <stop offset="0" stop-color="#ecedf4"/>
      <stop offset="1" stop-color="#fff"/>
    </linearGradient>
  </defs>
  <g id="Grupo_874488" data-name="Grupo 874488" transform="translate(-180 -1695.137)">
    <rect id="Rectángulo_293258" data-name="Rectángulo 293258" width="505" height="49" transform="translate(180 1695.137)" fill="url(#linear-gradient)"/>
    <g id="Grupo_873959" data-name="Grupo 873959" transform="translate(0 -347.863)">
      <rect id="Rectángulo_292720" data-name="Rectángulo 292720" width="53" height="49" transform="translate(180 2043)" fill="#ffeeb0"/>
      <rect id="Rectángulo_292721" data-name="Rectángulo 292721" width="3" height="49" transform="translate(238 2043)" fill="#fffae7"/>
      <g id="Grupo_873020" data-name="Grupo 873020" transform="translate(193.667 2049.836)">
        <path id="Trazado_218669" data-name="Trazado 218669" d="M43.512,23.606l22.327.606-9.978-5.6L35.553,15.9Z" transform="translate(5.494 2.457)" fill="#ff8dc9"/>
        <path id="Trazado_218670" data-name="Trazado 218670" d="M17.562,0l9.9,10.509,28.361,5.616-9.979-5.6Z" transform="translate(2.714)" fill="#ff8dc9"/>
        <path id="Trazado_218671" data-name="Trazado 218671" d="M20.989,25.407l9.019,7.163,5.617-9.115-9.978-5.6Z" transform="translate(3.244 2.759)" fill="#b51067"/>
        <path id="Trazado_218672" data-name="Trazado 218672" d="M20.276,0,0,20.785l12.15,12.94L30.179,10.509Z" fill="#b51067"/>
        <path id="Trazado_218673" data-name="Trazado 218673" d="M10.524,32.319l26.72-7.513-5.618,9.115,38.081-8.659L47.38,24.657l9.534-9.938L28.553,9.1Z" transform="translate(1.626 1.407)" fill="#ea3584"/>
      </g>
    </g>
  </g>
</svg>
