<svg xmlns="http://www.w3.org/2000/svg" width="75.911" height="75.912" viewBox="0 0 75.911 75.912">
  <g id="Grupo_874486" data-name="Grupo 874486" transform="translate(-607 -1872)">
    <path id="Trazado_593298" data-name="Trazado 593298" d="M92.519,156.492a37.956,37.956,0,1,1,38.129-37.781,38,38,0,0,1-38.129,37.781" transform="translate(552.262 1791.42)" fill="#fff"/>
    <g id="administracion" transform="translate(618 1883)">
      <path id="Trazado_594130" data-name="Trazado 594130" d="M30.607,54.037H23.43a2.113,2.113,0,0,1-2.111-2.111V48.775a22.3,22.3,0,0,1-5.653-2.344l-2.23,2.23a2.114,2.114,0,0,1-2.985,0L5.376,43.586a2.113,2.113,0,0,1,0-2.985l2.23-2.23a22.3,22.3,0,0,1-2.344-5.653H2.111A2.113,2.113,0,0,1,0,30.607V23.43a2.113,2.113,0,0,1,2.111-2.111H5.255A22.3,22.3,0,0,1,7.6,15.656l-2.22-2.22a2.113,2.113,0,0,1,0-2.985l5.075-5.075a2.114,2.114,0,0,1,2.985,0l2.213,2.213a22.3,22.3,0,0,1,5.67-2.354V2.111A2.113,2.113,0,0,1,23.43,0h7.177a2.113,2.113,0,0,1,2.111,2.111V5.228A22.307,22.307,0,0,1,38.4,7.579l2.2-2.2a2.113,2.113,0,0,1,2.985,0l5.075,5.075a2.114,2.114,0,0,1,0,2.985l-2.2,2.2a22.307,22.307,0,0,1,2.351,5.68h3.117a2.113,2.113,0,0,1,2.111,2.111v7.177a2.113,2.113,0,0,1-2.111,2.111H48.8a22.311,22.311,0,0,1-2.354,5.67L48.66,40.6a2.113,2.113,0,0,1,0,2.985l-5.075,5.075a2.114,2.114,0,0,1-2.985,0l-2.22-2.22a22.309,22.309,0,0,1-5.663,2.342v3.144a2.113,2.113,0,0,1-2.111,2.111Zm-15.1-10a1.054,1.054,0,0,1,.568.166A20.208,20.208,0,0,0,22.6,46.913a1.055,1.055,0,0,1,.827,1.031v3.982h7.177V47.95a1.055,1.055,0,0,1,.829-1.031,20.224,20.224,0,0,0,6.537-2.7,1.055,1.055,0,0,1,1.313.144l2.808,2.808,5.075-5.075-2.8-2.8a1.055,1.055,0,0,1-.143-1.315,20.222,20.222,0,0,0,2.717-6.543,1.055,1.055,0,0,1,1.03-.827h3.955V23.43H47.977a1.055,1.055,0,0,1-1.031-.829,20.21,20.21,0,0,0-2.713-6.553,1.056,1.056,0,0,1,.143-1.314l2.791-2.791L42.093,6.869,39.3,9.66a1.056,1.056,0,0,1-1.314.143A20.219,20.219,0,0,0,31.435,7.09a1.055,1.055,0,0,1-.829-1.031V2.111H23.43V6.066A1.056,1.056,0,0,1,22.6,7.1,20.219,20.219,0,0,0,16.06,9.813a1.055,1.055,0,0,1-1.315-.143l-2.8-2.8L6.869,11.943l2.808,2.808a1.055,1.055,0,0,1,.144,1.313,20.224,20.224,0,0,0-2.7,6.537,1.055,1.055,0,0,1-1.031.829H2.111v7.177H6.092a1.056,1.056,0,0,1,1.031.827A20.214,20.214,0,0,0,9.83,37.961a1.055,1.055,0,0,1-.143,1.314L6.869,42.093l5.075,5.075,2.818-2.818a1.056,1.056,0,0,1,.747-.309Zm0,0"/>
      <path id="Trazado_594131" data-name="Trazado 594131" d="M125.469,140.828A15.406,15.406,0,1,1,133,111.979a1.055,1.055,0,1,1-1.032,1.841,13.3,13.3,0,1,0,5.4,5.663,1.055,1.055,0,1,1,1.888-.943,15.4,15.4,0,0,1-13.789,22.288Zm0,0" transform="translate(-98.451 -98.408)"/>
      <path id="Trazado_594132" data-name="Trazado 594132" d="M345.407,154.123a1.056,1.056,0,1,1,.746-.31A1.062,1.062,0,0,1,345.407,154.123Zm0,0" transform="translate(-308.009 -135.969)"/>
      <path id="Trazado_594133" data-name="Trazado 594133" d="M176.378,197.882a1.055,1.055,0,0,1-.746-.309l-6.674-6.675a1.055,1.055,0,0,1,0-1.492l3.785-3.786a1.056,1.056,0,0,1,1.493,0l2.142,2.143,5.122-5.121a1.055,1.055,0,0,1,1.492,0l3.786,3.786a1.056,1.056,0,0,1,0,1.492l-9.653,9.653A1.057,1.057,0,0,1,176.378,197.882Zm-5.182-7.73,5.182,5.182,8.161-8.16-2.293-2.293L177.125,190a1.056,1.056,0,0,1-1.493,0l-2.143-2.143Zm0,0" transform="translate(-150.849 -163.089)"/>
    </g>
  </g>
</svg>
