<svg xmlns="http://www.w3.org/2000/svg" width="84.999" height="80.685" viewBox="0 0 84.999 80.685">
  <g id="Grupo_874491" data-name="Grupo 874491" transform="translate(-1020 -2321.705)">
    <g id="Grupo_874261" data-name="Grupo 874261" transform="translate(2.206 6.067)">
      <path id="Trazado_594300" data-name="Trazado 594300" d="M119.42,117.937S118.032,80.212,117.68,70.2a11.283,11.283,0,0,0-2.883-7.607,12.94,12.94,0,0,1,.971,4.657c.351,10.012,1.739,47.738,1.739,47.738s2.051,14.35-14.1,12.61S49,120.052,49,120.052l-6.283-.934a12.033,12.033,0,0,1-5.556-3.2c2.02,4.978,7.469,6.152,7.469,6.152l6.283.934s38.248,5.805,54.4,7.545,14.1-12.61,14.1-12.61" transform="translate(983.289 2265.628)" fill="#ffeeb0"/>
      <path id="serpentina-profesional-joven-bella-mujer-transmision-vivo-corriente_236999-23" d="M37.2,29.342,42.17,14.36A10.355,10.355,0,0,1,53.365,8.583l44.2,6.129A10.908,10.908,0,0,1,107,25.693c.351,10.012,1.739,47.738,1.739,47.738s2.051,14.35-14.1,12.61-54.4-7.545-54.4-7.545l-6.283-.934S22.993,75.2,26.394,62.985,37.2,29.342,37.2,29.342" transform="translate(992.055 2307.184)" fill="#ea3584"/>
    </g>
    <path id="Trazado_594507" data-name="Trazado 594507" d="M-2.109-13.228q0,6.636-2.747,10.151T-12.9.439q-5.229,0-8-3.45T-23.73-12.9v-5.889q0-6.7,2.78-10.173t8.009-3.472q5.229,0,8,3.439t2.834,9.877ZM-8.459-19.7q0-3.981-1.088-5.8a3.676,3.676,0,0,0-3.395-1.814,3.61,3.61,0,0,0-3.307,1.727,10.964,10.964,0,0,0-1.132,5.4V-12.4a12.3,12.3,0,0,0,1.066,5.817A3.627,3.627,0,0,0-12.9-4.68,3.566,3.566,0,0,0-9.536-6.506a12,12,0,0,0,1.077-5.587ZM24.1,0H2.175V-4.351l10.349-11.03a25.531,25.531,0,0,0,3.153-4.065,6.531,6.531,0,0,0,1.022-3.3,4.887,4.887,0,0,0-1.077-3.351,3.886,3.886,0,0,0-3.076-1.219,4.192,4.192,0,0,0-3.395,1.483,5.875,5.875,0,0,0-1.241,3.9H1.538a10.488,10.488,0,0,1,1.4-5.339,9.834,9.834,0,0,1,3.944-3.79,11.988,11.988,0,0,1,5.779-1.373q4.944,0,7.679,2.373a8.4,8.4,0,0,1,2.736,6.7,10.757,10.757,0,0,1-1.23,4.834,26.863,26.863,0,0,1-4.219,5.735L10.349-5.12H24.1Z" transform="translate(1066 2377)" fill="#fff"/>
  </g>
</svg>
