<svg xmlns="http://www.w3.org/2000/svg" width="120" height="120" viewBox="0 0 120 120">
  <g id="cf5_caracteristica_copia_2" data-name="cf5_caracteristica copia 2" transform="translate(-10 -10)">
    <circle id="Elipse_4883" data-name="Elipse 4883" cx="60" cy="60" r="60" transform="translate(10 10)" fill="#fff"/>
    <g id="Grupo_88499" data-name="Grupo 88499" transform="translate(5.263 8.095)">
      <circle id="Elipse_4884" data-name="Elipse 4884" cx="1.094" cy="1.094" r="1.094" transform="translate(76.857 45.989)" fill="#0f0140"/>
      <circle id="Elipse_4885" data-name="Elipse 4885" cx="1.094" cy="1.094" r="1.094" transform="translate(81.225 45.989)" fill="#0f0140"/>
      <circle id="Elipse_4886" data-name="Elipse 4886" cx="1.094" cy="1.094" r="1.094" transform="translate(72.49 45.989)" fill="#0f0140"/>
      <path id="Trazado_146542" data-name="Trazado 146542" d="M106.877,69.242a10.584,10.584,0,0,1-5.69-5.512,25.212,25.212,0,1,0-43.64-21.3,1.095,1.095,0,1,0,2.154.39A23.024,23.024,0,1,1,99.118,62.755a1.085,1.085,0,0,0-.229,1.128,12.721,12.721,0,0,0,4.664,6.021,10.362,10.362,0,0,1-1.459.1A10.533,10.533,0,0,1,94.928,67.2a1.085,1.085,0,0,0-1.281-.153,22.77,22.77,0,0,1-7.132,2.544,1.095,1.095,0,0,0,.39,2.154,24.967,24.967,0,0,0,7.132-2.459,12.721,12.721,0,0,0,12.839,1.942,1.094,1.094,0,0,0,0-2.018Z" transform="translate(-4.392)" fill="#0f0140"/>
      <path id="Trazado_146543" data-name="Trazado 146543" d="M60.032,78.291a3.1,3.1,0,0,0-2.6-4.791H54.884a1.094,1.094,0,0,0-1.094,1.094v8.735a1.1,1.1,0,0,0,1.094,1.094h2.985a3.435,3.435,0,0,0,2.154-6.114Zm-4.045-2.6h1.442a.916.916,0,0,1,0,1.832H55.986Zm1.891,6.538H55.986V79.682h1.891a1.272,1.272,0,0,1,0,2.544Z" transform="translate(-3.824 -7.862)" fill="#0f0140"/>
      <path id="Trazado_146544" data-name="Trazado 146544" d="M46.358,74.335h0a1.281,1.281,0,0,0-2.383,0h0l-3.307,8.608a1.094,1.094,0,0,0,2.044.78l.543-1.442h3.791l.551,1.442a1.094,1.094,0,1,0,2.035-.78Zm-2.264,5.758,1.085-2.773,1.06,2.773Z" transform="translate(-1.819 -7.865)" fill="#0f0140"/>
      <path id="Trazado_146545" data-name="Trazado 146545" d="M74.057,81.26a1.094,1.094,0,0,0-1.543.136,2.249,2.249,0,0,1-.246.246,2.383,2.383,0,0,1-1.7.594,3.273,3.273,0,0,1,0-6.547,3.18,3.18,0,0,1,1.832.56,1.094,1.094,0,1,0,1.221-1.815,5.461,5.461,0,1,0-3.053,9.99,4.63,4.63,0,0,0,3.155-1.17,6.279,6.279,0,0,0,.466-.483,1.094,1.094,0,0,0-.136-1.535Z" transform="translate(-5.544 -7.862)" fill="#0f0140"/>
      <path id="Trazado_146546" data-name="Trazado 146546" d="M53.842,50.21A25.212,25.212,0,0,0,35,92.171a10.541,10.541,0,0,1-5.69,5.5,1.094,1.094,0,0,0,0,2.027A12.78,12.78,0,0,0,42.147,97.76,25.212,25.212,0,1,0,53.842,50.21Zm0,48.237a23.067,23.067,0,0,1-11.33-2.96,1.119,1.119,0,0,0-.534-.144,1.094,1.094,0,0,0-.746.3,10.533,10.533,0,0,1-7.166,2.807,10.362,10.362,0,0,1-1.459-.1,12.771,12.771,0,0,0,4.664-6.021,1.085,1.085,0,0,0-.229-1.128,23.024,23.024,0,1,1,16.774,7.251Z" transform="translate(0 -4.323)" fill="#0f0140"/>
    </g>
  </g>
</svg>
