<svg xmlns="http://www.w3.org/2000/svg" xmlns:xlink="http://www.w3.org/1999/xlink" width="505" height="273" viewBox="0 0 505 273">
  <defs>
    <clipPath id="clip-path">
      <rect id="Rectángulo_293214" data-name="Rectángulo 293214" width="176.552" height="204.086" fill="none"/>
    </clipPath>
    <clipPath id="clip-path-2">
      <rect id="Rectángulo_293215" data-name="Rectángulo 293215" width="176.552" height="204.109" fill="none"/>
    </clipPath>
  </defs>
  <g id="Grupo_874486" data-name="Grupo 874486" transform="translate(-810 -3052)">
    <rect id="Rectángulo_293204" data-name="Rectángulo 293204" width="505" height="273" rx="17" transform="translate(810 3052)" fill="#ebe3f9"/>
    <path id="Trazado_594491" data-name="Trazado 594491" d="M1.016,15V3.625h3.5A5.315,5.315,0,0,1,7.2,4.3,4.712,4.712,0,0,1,9.047,6.223a5.928,5.928,0,0,1,.664,2.832v.523a5.945,5.945,0,0,1-.652,2.82,4.672,4.672,0,0,1-1.84,1.914A5.355,5.355,0,0,1,4.539,15ZM3.359,5.523v7.594H4.492a2.545,2.545,0,0,0,2.1-.9,4.06,4.06,0,0,0,.742-2.57v-.6a4.124,4.124,0,0,0-.719-2.629,2.537,2.537,0,0,0-2.1-.895Zm11.8,9.633a4.15,4.15,0,0,1-3.027-1.141,4.054,4.054,0,0,1-1.168-3.039v-.219a5.106,5.106,0,0,1,.492-2.277,3.612,3.612,0,0,1,1.395-1.547,3.914,3.914,0,0,1,2.059-.543,3.508,3.508,0,0,1,2.73,1.094,4.444,4.444,0,0,1,1,3.1v.922H13.25a2.1,2.1,0,0,0,.66,1.328,2,2,0,0,0,1.395.5,2.437,2.437,0,0,0,2.039-.945l1.109,1.242a3.389,3.389,0,0,1-1.375,1.121A4.511,4.511,0,0,1,15.156,15.156ZM14.9,8.211a1.411,1.411,0,0,0-1.09.455,2.357,2.357,0,0,0-.535,1.3h3.141V9.788a1.681,1.681,0,0,0-.406-1.165A1.456,1.456,0,0,0,14.9,8.211Zm9.594,4.453a.727.727,0,0,0-.41-.652,4.659,4.659,0,0,0-1.316-.426q-3.016-.633-3.016-2.562a2.323,2.323,0,0,1,.934-1.879,3.766,3.766,0,0,1,2.441-.754,4.053,4.053,0,0,1,2.574.758,2.388,2.388,0,0,1,.965,1.969H24.406a1.092,1.092,0,0,0-.312-.8A1.322,1.322,0,0,0,23.117,8a1.351,1.351,0,0,0-.883.258.814.814,0,0,0-.312.656.7.7,0,0,0,.355.605,3.657,3.657,0,0,0,1.2.4A9.8,9.8,0,0,1,24.9,10.3a2.336,2.336,0,0,1,1.789,2.273,2.2,2.2,0,0,1-.992,1.871,4.28,4.28,0,0,1-2.562.715,4.47,4.47,0,0,1-1.887-.379,3.166,3.166,0,0,1-1.293-1.039,2.414,2.414,0,0,1-.469-1.426h2.141a1.179,1.179,0,0,0,.445.922,1.766,1.766,0,0,0,1.109.32,1.635,1.635,0,0,0,.98-.246A.766.766,0,0,0,24.492,12.664Zm7.164.672a1.481,1.481,0,0,0,1.016-.344,1.2,1.2,0,0,0,.406-.914H35.2a2.9,2.9,0,0,1-.469,1.574,3.093,3.093,0,0,1-1.262,1.109,3.949,3.949,0,0,1-1.77.395A3.67,3.67,0,0,1,28.836,14a4.56,4.56,0,0,1-1.047-3.184v-.148a4.508,4.508,0,0,1,1.039-3.117A3.627,3.627,0,0,1,31.68,6.391a3.555,3.555,0,0,1,2.543.9A3.2,3.2,0,0,1,35.2,9.7H33.078a1.551,1.551,0,0,0-.406-1.072,1.51,1.51,0,0,0-2.223.163,3.333,3.333,0,0,0-.4,1.866v.235a3.375,3.375,0,0,0,.4,1.878A1.377,1.377,0,0,0,31.656,13.336Zm9.891.8a2.831,2.831,0,0,1-2.312,1.016,2.67,2.67,0,0,1-2.074-.781,3.335,3.335,0,0,1-.73-2.289V6.547h2.258v5.467q0,1.322,1.2,1.322a1.63,1.63,0,0,0,1.578-.8V6.547h2.266V15H41.609Zm7.781,1.016A4.15,4.15,0,0,1,46.3,14.016a4.054,4.054,0,0,1-1.168-3.039v-.219a5.106,5.106,0,0,1,.492-2.277A3.612,3.612,0,0,1,47.02,6.934a3.914,3.914,0,0,1,2.059-.543,3.508,3.508,0,0,1,2.73,1.094,4.444,4.444,0,0,1,1,3.1v.922H47.422a2.1,2.1,0,0,0,.66,1.328,2,2,0,0,0,1.395.5,2.437,2.437,0,0,0,2.039-.945l1.109,1.242a3.389,3.389,0,0,1-1.375,1.121A4.511,4.511,0,0,1,49.328,15.156ZM49.07,8.211a1.411,1.411,0,0,0-1.09.455,2.357,2.357,0,0,0-.535,1.3h3.141V9.788a1.681,1.681,0,0,0-.406-1.165A1.456,1.456,0,0,0,49.07,8.211Zm7.094-1.664.07.977a2.951,2.951,0,0,1,2.43-1.133,2.453,2.453,0,0,1,2,.789,3.682,3.682,0,0,1,.672,2.359V15H59.078V9.581a1.47,1.47,0,0,0-.312-1.045,1.4,1.4,0,0,0-1.039-.325,1.553,1.553,0,0,0-1.43.814V15H54.039V6.547ZM65.75,4.469V6.547H67.2V8.2H65.75v4.219a1.007,1.007,0,0,0,.18.672.9.9,0,0,0,.688.2,3.6,3.6,0,0,0,.664-.055v1.711a4.648,4.648,0,0,1-1.367.2,2.156,2.156,0,0,1-2.422-2.4V8.2H62.258V6.547h1.234V4.469ZM67.867,10.7a5.013,5.013,0,0,1,.484-2.242A3.546,3.546,0,0,1,69.746,6.93a4.069,4.069,0,0,1,2.113-.539,3.849,3.849,0,0,1,2.793,1.047,4.2,4.2,0,0,1,1.207,2.844l.016.578a4.418,4.418,0,0,1-1.086,3.121,4.209,4.209,0,0,1-5.832,0,4.5,4.5,0,0,1-1.09-3.187Zm2.258.16a3.16,3.16,0,0,0,.453,1.843,1.628,1.628,0,0,0,2.578.008,3.457,3.457,0,0,0,.461-2.015,3.128,3.128,0,0,0-.461-1.831,1.5,1.5,0,0,0-1.3-.649,1.474,1.474,0,0,0-1.281.646A3.516,3.516,0,0,0,70.125,10.856Zm11.719,1.808a.727.727,0,0,0-.41-.652,4.659,4.659,0,0,0-1.316-.426Q77.1,10.953,77.1,9.023a2.323,2.323,0,0,1,.934-1.879,3.766,3.766,0,0,1,2.441-.754,4.053,4.053,0,0,1,2.574.758,2.388,2.388,0,0,1,.965,1.969H81.758a1.092,1.092,0,0,0-.312-.8A1.322,1.322,0,0,0,80.469,8a1.351,1.351,0,0,0-.883.258.814.814,0,0,0-.312.656.7.7,0,0,0,.355.605,3.657,3.657,0,0,0,1.2.4,9.8,9.8,0,0,1,1.422.379,2.336,2.336,0,0,1,1.789,2.273,2.2,2.2,0,0,1-.992,1.871,4.28,4.28,0,0,1-2.562.715,4.47,4.47,0,0,1-1.887-.379A3.166,3.166,0,0,1,77.3,13.738a2.414,2.414,0,0,1-.469-1.426h2.141a1.179,1.179,0,0,0,.445.922,1.766,1.766,0,0,0,1.109.32,1.635,1.635,0,0,0,.98-.246A.766.766,0,0,0,81.844,12.664Zm11.148.672a1.481,1.481,0,0,0,1.016-.344,1.2,1.2,0,0,0,.406-.914h2.117a2.9,2.9,0,0,1-.469,1.574A3.093,3.093,0,0,1,94.8,14.762a3.949,3.949,0,0,1-1.77.395A3.67,3.67,0,0,1,90.172,14a4.56,4.56,0,0,1-1.047-3.184v-.148a4.508,4.508,0,0,1,1.039-3.117,3.627,3.627,0,0,1,2.852-1.164,3.555,3.555,0,0,1,2.543.9,3.2,3.2,0,0,1,.973,2.4H94.414a1.551,1.551,0,0,0-.406-1.072,1.51,1.51,0,0,0-2.223.163,3.333,3.333,0,0,0-.4,1.866v.235a3.375,3.375,0,0,0,.4,1.878A1.377,1.377,0,0,0,92.992,13.336ZM97.469,10.7a5.013,5.013,0,0,1,.484-2.242A3.546,3.546,0,0,1,99.348,6.93a4.069,4.069,0,0,1,2.113-.539,3.849,3.849,0,0,1,2.793,1.047,4.2,4.2,0,0,1,1.207,2.844l.016.578a4.418,4.418,0,0,1-1.086,3.121,4.209,4.209,0,0,1-5.832,0,4.5,4.5,0,0,1-1.09-3.187Zm2.258.16a3.16,3.16,0,0,0,.453,1.843,1.628,1.628,0,0,0,2.578.008,3.457,3.457,0,0,0,.461-2.015,3.128,3.128,0,0,0-.461-1.831,1.5,1.5,0,0,0-1.3-.649,1.474,1.474,0,0,0-1.281.646A3.516,3.516,0,0,0,99.727,10.856Zm9.258-4.309.07.945a2.971,2.971,0,0,1,2.43-1.1,2.255,2.255,0,0,1,2.242,1.289,2.9,2.9,0,0,1,2.539-1.289,2.521,2.521,0,0,1,2.047.8,3.681,3.681,0,0,1,.672,2.41V15h-2.266V9.6a1.616,1.616,0,0,0-.281-1.053,1.245,1.245,0,0,0-.992-.333,1.409,1.409,0,0,0-1.406.971L114.047,15h-2.258V9.6A1.6,1.6,0,0,0,111.5,8.54a1.257,1.257,0,0,0-.984-.329,1.463,1.463,0,0,0-1.391.8V15h-2.258V6.547Zm15.625,8.609a4.15,4.15,0,0,1-3.027-1.141,4.054,4.054,0,0,1-1.168-3.039v-.219a5.106,5.106,0,0,1,.492-2.277A3.612,3.612,0,0,1,122.3,6.934a3.914,3.914,0,0,1,2.059-.543,3.508,3.508,0,0,1,2.73,1.094,4.444,4.444,0,0,1,1,3.1v.922H122.7a2.1,2.1,0,0,0,.66,1.328,2,2,0,0,0,1.395.5,2.437,2.437,0,0,0,2.039-.945l1.109,1.242a3.389,3.389,0,0,1-1.375,1.121A4.511,4.511,0,0,1,124.609,15.156Zm-.258-6.945a1.411,1.411,0,0,0-1.09.455,2.357,2.357,0,0,0-.535,1.3h3.141V9.788a1.681,1.681,0,0,0-.406-1.165A1.456,1.456,0,0,0,124.352,8.211Zm9.766.453A6.134,6.134,0,0,0,133.3,8.6a1.654,1.654,0,0,0-1.68.867V15h-2.258V6.547H131.5l.063,1.008a2.092,2.092,0,0,1,1.883-1.164,2.366,2.366,0,0,1,.7.1Zm4.453,4.672a1.481,1.481,0,0,0,1.016-.344,1.2,1.2,0,0,0,.406-.914h2.117a2.9,2.9,0,0,1-.469,1.574,3.093,3.093,0,0,1-1.262,1.109,3.949,3.949,0,0,1-1.77.395A3.67,3.67,0,0,1,135.75,14,4.56,4.56,0,0,1,134.7,10.82v-.148a4.508,4.508,0,0,1,1.039-3.117,3.627,3.627,0,0,1,2.852-1.164,3.555,3.555,0,0,1,2.543.9,3.2,3.2,0,0,1,.973,2.4h-2.117a1.551,1.551,0,0,0-.406-1.072,1.51,1.51,0,0,0-2.223.163,3.333,3.333,0,0,0-.4,1.866v.235a3.375,3.375,0,0,0,.4,1.878A1.377,1.377,0,0,0,138.57,13.336ZM145.781,15h-2.266V6.547h2.266Zm-2.4-10.641a1.112,1.112,0,0,1,.34-.836,1.465,1.465,0,0,1,1.848,0,1.105,1.105,0,0,1,.344.836,1.109,1.109,0,0,1-.348.844,1.448,1.448,0,0,1-1.836,0A1.109,1.109,0,0,1,143.383,4.359ZM152.539,15a2.507,2.507,0,0,1-.227-.758,2.732,2.732,0,0,1-2.133.914,3,3,0,0,1-2.059-.719,2.312,2.312,0,0,1-.816-1.812,2.389,2.389,0,0,1,1-2.062,4.915,4.915,0,0,1,2.879-.727h1.039V9.352a1.393,1.393,0,0,0-.3-.937,1.183,1.183,0,0,0-.949-.352,1.345,1.345,0,0,0-.895.273.929.929,0,0,0-.324.75h-2.258a2.268,2.268,0,0,1,.453-1.359,3,3,0,0,1,1.281-.98,4.669,4.669,0,0,1,1.859-.355,3.689,3.689,0,0,1,2.48.785,2.747,2.747,0,0,1,.918,2.207v3.664a4.041,4.041,0,0,0,.336,1.82V15Zm-1.867-1.57a1.945,1.945,0,0,0,.922-.223,1.462,1.462,0,0,0,.625-.6V11.156h-.844q-1.7,0-1.8,1.172l-.008.133a.9.9,0,0,0,.3.7A1.153,1.153,0,0,0,150.672,13.43ZM158.6,15h-2.266V3H158.6Zm5.75.156a4.15,4.15,0,0,1-3.027-1.141,4.054,4.054,0,0,1-1.168-3.039v-.219a5.106,5.106,0,0,1,.492-2.277,3.612,3.612,0,0,1,1.395-1.547,3.914,3.914,0,0,1,2.059-.543,3.508,3.508,0,0,1,2.73,1.094,4.444,4.444,0,0,1,1,3.1v.922h-5.383a2.1,2.1,0,0,0,.66,1.328,2,2,0,0,0,1.395.5,2.437,2.437,0,0,0,2.039-.945l1.109,1.242a3.389,3.389,0,0,1-1.375,1.121A4.511,4.511,0,0,1,164.352,15.156Zm-.258-6.945a1.411,1.411,0,0,0-1.09.455,2.357,2.357,0,0,0-.535,1.3h3.141V9.788a1.681,1.681,0,0,0-.406-1.165A1.456,1.456,0,0,0,164.094,8.211Zm9.594,4.453a.727.727,0,0,0-.41-.652,4.659,4.659,0,0,0-1.316-.426q-3.016-.633-3.016-2.562a2.323,2.323,0,0,1,.934-1.879,3.766,3.766,0,0,1,2.441-.754,4.053,4.053,0,0,1,2.574.758,2.388,2.388,0,0,1,.965,1.969H173.6a1.092,1.092,0,0,0-.312-.8A1.322,1.322,0,0,0,172.313,8a1.351,1.351,0,0,0-.883.258.814.814,0,0,0-.312.656.7.7,0,0,0,.355.605,3.657,3.657,0,0,0,1.2.4,9.8,9.8,0,0,1,1.422.379,2.336,2.336,0,0,1,1.789,2.273,2.205,2.205,0,0,1-.992,1.871,4.28,4.28,0,0,1-2.562.715,4.47,4.47,0,0,1-1.887-.379,3.166,3.166,0,0,1-1.293-1.039,2.414,2.414,0,0,1-.469-1.426h2.141a1.179,1.179,0,0,0,.445.922,1.766,1.766,0,0,0,1.109.32,1.635,1.635,0,0,0,.98-.246A.766.766,0,0,0,173.688,12.664Z" transform="translate(974.051 3282)" fill="#12263f"/>
    <g id="Grupo_873828" data-name="Grupo 873828">
      <g id="Grupo_873825" data-name="Grupo 873825">
        <rect id="Rectángulo_293220" data-name="Rectángulo 293220" width="295" height="214" transform="translate(915 3052)" fill="none"/>
        <g id="Grupo_873824" data-name="Grupo 873824" transform="translate(519.001)">
          <g id="Grupo_873820" data-name="Grupo 873820" transform="translate(-526.553)">
            <circle id="Elipse_4735" data-name="Elipse 4735" cx="88" cy="88" r="88" transform="translate(985 3090)" fill="#cabce3"/>
            <g id="Grupo_873818" data-name="Grupo 873818" transform="translate(978.552 3052)">
              <g id="Grupo_873809" data-name="Grupo 873809">
                <g id="Grupo_873808" data-name="Grupo 873808" clip-path="url(#clip-path)">
                  <path id="Trazado_593860" data-name="Trazado 593860" d="M170.936,84.749A88.294,88.294,0,0,0,5.492,146.484c.041.124.083.235.124.359a88.307,88.307,0,0,0,165.32,0c.041-.124.083-.235.124-.359a88.557,88.557,0,0,0-.124-61.735M88.283,42.691a4.6,4.6,0,1,1,4.581-4.609V38.1a4.593,4.593,0,0,1-4.581,4.6" fill="#ebcea8"/>
                  <path id="Trazado_593861" data-name="Trazado 593861" d="M171.062,146.491c-.041.124-.083.235-.124.359a88.307,88.307,0,0,1-165.32,0c-.041-.124-.083-.235-.124-.359Z" fill="#ea3584"/>
                </g>
              </g>
              <g id="Grupo_873813" data-name="Grupo 873813">
                <g id="Grupo_873812" data-name="Grupo 873812" clip-path="url(#clip-path)">
                  <circle id="Elipse_4734" data-name="Elipse 4734" cx="4.591" cy="4.591" r="4.591" transform="translate(83.686 33.505)" fill="none" stroke="#7a5e43" stroke-miterlimit="10" stroke-width="0.68"/>
                </g>
              </g>
              <g id="Grupo_873817" data-name="Grupo 873817">
                <g id="Grupo_873816" data-name="Grupo 873816" clip-path="url(#clip-path)">
                  <path id="Trazado_593870" data-name="Trazado 593870" d="M104.249,0c-.461,2.306-1.01,4.671-1.693,7.08A128.751,128.751,0,0,1,98.15,19.855l-.951,2.4c-.722,1.826-1.46,3.684-2.24,5.526l1.452.12c.72-1.718,1.4-3.443,2.071-5.14l.949-2.394a130.434,130.434,0,0,0,4.451-12.91c.719-2.538,1.3-5.031,1.774-7.457Z" fill="#7a5e43"/>
                  <path id="Trazado_593871" data-name="Trazado 593871" d="M91.18,34.906c-.092.1-.179.211-.277.3a2.943,2.943,0,0,1-2,.887c-2.2-.086-3.055-3.009-3.741-5.359-.144-.49-.277-.948-.413-1.343-1.566-4.563-2.874-9.179-4.138-13.643C79.024,10.139,77.787,4.978,76.816,0H75.41c.984,5.1,2.248,10.379,3.877,16.126,1.21,4.273,2.582,9.117,4.16,13.716.13.377.257.813.393,1.281.767,2.629,1.817,6.227,5.012,6.351h.13a4.215,4.215,0,0,0,2.877-1.266c.131-.124.244-.266.367-.4Z" fill="#7a5e43"/>
                </g>
              </g>
            </g>
            <path id="Trazado_593872" data-name="Trazado 593872" d="M-21088-7107.893l6.008,10.5-6.008,10.5" transform="translate(8164.216 -17852.791) rotate(-90)" fill="none" stroke="#ebcea8" stroke-linecap="round" stroke-linejoin="round" stroke-width="4"/>
          </g>
          <path id="Trazado_593878" data-name="Trazado 593878" d="M-7878.132-8506.5v21.966h13.716l.643-2.785a14.6,14.6,0,0,1,11.037-2.572c6.644,1.071,26.9,6.429,26.9,6.429l9.966-1.071,31.5-19.395-70.293-3.429Z" transform="translate(8369.03 11698.189)" fill="#ebcea8"/>
          <g id="oferta" transform="translate(486.597 3111.951)">
            <path id="Trazado_593877" data-name="Trazado 593877" d="M105.2,277.32a9.918,9.918,0,0,0-13.1-3.992L76.726,280.6a12.529,12.529,0,0,0-10.68-6.589l-14.2-.391a15.01,15.01,0,0,1-6.453-1.666L43.95,271.2a25.484,25.484,0,0,0-23.6.025l.09-3.273a1.963,1.963,0,0,0-1.909-2.017l-15.569-.428a1.963,1.963,0,0,0-2.016,1.909L0,301.582A1.964,1.964,0,0,0,1.91,303.6l15.569.428h.055a1.965,1.965,0,0,0,1.962-1.91l.044-1.635,4.045-2.166a6.94,6.94,0,0,1,5.179-.567l24.153,6.779c.042.012.084.022.128.032a25.863,25.863,0,0,0,5.309.547A26.2,26.2,0,0,0,69.3,302.721a1.925,1.925,0,0,0,.244-.132l35.02-22.653a1.962,1.962,0,0,0,.643-2.615ZM3.981,299.727l.832-30.241,11.644.32-.833,30.242Zm63.547-.515a22.254,22.254,0,0,1-13.614,1.519l-24.088-6.76a10.853,10.853,0,0,0-8.093.885l-2.067,1.106.554-20.107a21.581,21.581,0,0,1,21.925-1.17l1.445.749a18.954,18.954,0,0,0,8.152,2.105l14.2.391a8.61,8.61,0,0,1,8.184,6.861l-21.149-.582a1.964,1.964,0,0,0-.107,3.926l23.34.642h.056a1.965,1.965,0,0,0,1.962-1.91,12.529,12.529,0,0,0-.19-2.547l15.773-7.454.046-.022a6,6,0,0,1,6.784.949Zm0,0" transform="translate(0 -200.427)" fill="#5f3030"/>
          </g>
        </g>
      </g>
      <g id="etiqueta" transform="matrix(0.766, 0.643, -0.643, 0.766, 1064.671, 3085.233)">
        <g id="Grupo_873827" data-name="Grupo 873827" transform="matrix(0.899, 0.438, -0.438, 0.899, 24.895, -12.179)">
          <g id="Grupo_873826" data-name="Grupo 873826" transform="translate(0 0)">
            <path id="Trazado_593879" data-name="Trazado 593879" d="M84.587,5.762A5.73,5.73,0,0,0,78.826,0a5.774,5.774,0,0,0-4.083,1.7c-.463.463-1.3,1.462-1.764,2.016a1.37,1.37,0,1,0,2.109,1.751c.721-.868,1.317-1.552,1.594-1.829a3.051,3.051,0,0,1,2.156-.9h.013a2.989,2.989,0,0,1,3,3.009,3.051,3.051,0,0,1-.9,2.156A48.964,48.964,0,0,1,76.1,11.613a8.682,8.682,0,0,0-7.5-4.312H48.54a10.076,10.076,0,0,0-7.171,2.97L1.258,50.383a4.294,4.294,0,0,0,0,6.072L28.132,83.33a4.3,4.3,0,0,0,6.072,0L74.316,43.218a10.075,10.075,0,0,0,2.97-7.171V15.981a8.677,8.677,0,0,0-.174-1.73,52.447,52.447,0,0,0,5.771-4.407A5.773,5.773,0,0,0,84.587,5.762ZM74.545,36.047a7.352,7.352,0,0,1-2.167,5.233L32.266,81.392a1.555,1.555,0,0,1-2.2,0L3.2,54.518a1.553,1.553,0,0,1,0-2.2L43.307,12.21a7.352,7.352,0,0,1,5.233-2.167H68.607a5.944,5.944,0,0,1,5.224,3.116c-1.619,1.072-3.431,2.212-5.354,3.332-.06-.066-.121-.131-.185-.194a5.763,5.763,0,1,0,1.493,2.6c1.672-.974,3.278-1.969,4.761-2.931,0,0,0,.009,0,.013V36.047ZM63,20.982a1.37,1.37,0,0,0,1.84.608q1.2-.606,2.4-1.255a3.016,3.016,0,1,1-1.271-2.427q-1.163.632-2.356,1.234A1.37,1.37,0,0,0,63,20.982Z" fill="#5f3030" stroke="#5f3030" stroke-width="1"/>
          </g>
        </g>
        <text id="_50_" data-name="50%" transform="matrix(0.934, -0.358, 0.358, 0.934, 20.287, 63.324)" fill="#5f3030" font-size="27" font-family="Roboto-Bold, Roboto" font-weight="700"><tspan x="0" y="0">50%</tspan></text>
      </g>
    </g>
  </g>
</svg>
