<svg xmlns="http://www.w3.org/2000/svg" width="84.999" height="80.685" viewBox="0 0 84.999 80.685">
  <g id="Grupo_874494" data-name="Grupo 874494" transform="translate(-1020 -2321.705)">
    <g id="Grupo_874261" data-name="Grupo 874261" transform="translate(2.206 6.067)">
      <path id="Trazado_594300" data-name="Trazado 594300" d="M119.42,117.937S118.032,80.212,117.68,70.2a11.283,11.283,0,0,0-2.883-7.607,12.94,12.94,0,0,1,.971,4.657c.351,10.012,1.739,47.738,1.739,47.738s2.051,14.35-14.1,12.61S49,120.052,49,120.052l-6.283-.934a12.033,12.033,0,0,1-5.556-3.2c2.02,4.978,7.469,6.152,7.469,6.152l6.283.934s38.248,5.805,54.4,7.545,14.1-12.61,14.1-12.61" transform="translate(983.289 2265.628)" fill="#ffeeb0"/>
      <path id="serpentina-profesional-joven-bella-mujer-transmision-vivo-corriente_236999-23" d="M37.2,29.342,42.17,14.36A10.355,10.355,0,0,1,53.365,8.583l44.2,6.129A10.908,10.908,0,0,1,107,25.693c.351,10.012,1.739,47.738,1.739,47.738s2.051,14.35-14.1,12.61-54.4-7.545-54.4-7.545l-6.283-.934S22.993,75.2,26.394,62.985,37.2,29.342,37.2,29.342" transform="translate(992.055 2307.184)" fill="#ea3584"/>
    </g>
    <path id="Trazado_594511" data-name="Trazado 594511" d="M-2.109-13.228q0,6.636-2.747,10.151T-12.9.439q-5.229,0-8-3.45T-23.73-12.9v-5.889q0-6.7,2.78-10.173t8.009-3.472q5.229,0,8,3.439t2.834,9.877ZM-8.459-19.7q0-3.981-1.088-5.8a3.676,3.676,0,0,0-3.395-1.814,3.61,3.61,0,0,0-3.307,1.727,10.964,10.964,0,0,0-1.132,5.4V-12.4a12.3,12.3,0,0,0,1.066,5.817A3.627,3.627,0,0,0-12.9-4.68,3.566,3.566,0,0,0-9.536-6.506a12,12,0,0,0,1.077-5.587ZM3.12-15.732l1.846-16.26H22.9v5.3H10.173l-.791,6.877a10.068,10.068,0,0,1,4.812-1.208,9.221,9.221,0,0,1,7.163,2.834q2.593,2.834,2.593,7.932a11.6,11.6,0,0,1-1.307,5.548A9.228,9.228,0,0,1,18.9-.912,11.7,11.7,0,0,1,13.14.439,12.419,12.419,0,0,1,7.756-.736,9.549,9.549,0,0,1,3.834-4.043,9.013,9.013,0,0,1,2.307-8.9H8.591a4.694,4.694,0,0,0,1.4,3.109,4.423,4.423,0,0,0,3.131,1.11,3.9,3.9,0,0,0,3.318-1.549A7.176,7.176,0,0,0,17.6-10.613a5.934,5.934,0,0,0-1.34-4.175,4.919,4.919,0,0,0-3.8-1.45,5.5,5.5,0,0,0-3.669,1.187l-.615.571Z" transform="translate(1066 2377)" fill="#fff"/>
  </g>
</svg>
