<svg xmlns="http://www.w3.org/2000/svg" width="246.199" height="186.607" viewBox="0 0 246.199 186.607">
  <g id="cf5_ciclo" transform="translate(-4.503 -44.021)">
    <g id="Grupo_88621" data-name="Grupo 88621" transform="translate(64.941 44.021)">
      <g id="Grupo_88617" data-name="Grupo 88617">
        <g id="Grupo_88609" data-name="Grupo 88609">
          <ellipse id="Elipse_4898" data-name="Elipse 4898" cx="20.257" cy="20.257" rx="20.257" ry="20.257" fill="#ff8b2e"/>
          <ellipse id="Elipse_4899" data-name="Elipse 4899" cx="17.368" cy="17.368" rx="17.368" ry="17.368" transform="translate(2.889 2.889)" fill="#fdfefd"/>
        </g>
        <g id="Grupo_88616" data-name="Grupo 88616" transform="translate(3.763 3.763)">
          <g id="Grupo_88612" data-name="Grupo 88612">
            <g id="Grupo_88610" data-name="Grupo 88610" transform="translate(16.476)">
              <line id="Línea_155" data-name="Línea 155" x1="0.027" y2="2.306" fill="none" stroke="#212b3b" stroke-miterlimit="10" stroke-width="2"/>
              <line id="Línea_156" data-name="Línea 156" x1="0.018" y2="2.306" transform="translate(0.018 30.681)" fill="none" stroke="#212b3b" stroke-miterlimit="10" stroke-width="2"/>
            </g>
            <g id="Grupo_88611" data-name="Grupo 88611" transform="translate(0 16.476)">
              <line id="Línea_157" data-name="Línea 157" x2="2.306" y2="0.009" transform="translate(0 0.018)" fill="none" stroke="#212b3b" stroke-miterlimit="10" stroke-width="2"/>
              <line id="Línea_158" data-name="Línea 158" x2="2.306" y2="0.027" transform="translate(30.681)" fill="none" stroke="#212b3b" stroke-miterlimit="10" stroke-width="2"/>
            </g>
          </g>
          <g id="Grupo_88615" data-name="Grupo 88615" transform="translate(4.824 4.824)">
            <g id="Grupo_88613" data-name="Grupo 88613" transform="translate(0.018)">
              <line id="Línea_159" data-name="Línea 159" x2="1.608" y2="1.643" fill="none" stroke="#212b3b" stroke-miterlimit="10" stroke-width="1"/>
              <line id="Línea_160" data-name="Línea 160" x2="1.608" y2="1.634" transform="translate(21.706 21.697)" fill="none" stroke="#212b3b" stroke-miterlimit="10" stroke-width="1"/>
            </g>
            <g id="Grupo_88614" data-name="Grupo 88614" transform="translate(0 0.018)">
              <line id="Línea_161" data-name="Línea 161" y1="1.617" x2="1.652" transform="translate(0 21.697)" fill="none" stroke="#212b3b" stroke-miterlimit="10" stroke-width="1"/>
              <line id="Línea_162" data-name="Línea 162" y1="1.608" x2="1.634" transform="translate(21.697)" fill="none" stroke="#212b3b" stroke-miterlimit="10" stroke-width="1"/>
            </g>
          </g>
          <ellipse id="Elipse_4900" data-name="Elipse 4900" cx="1.387" cy="1.387" rx="1.387" ry="1.387" transform="translate(15.107 15.107)" fill="#212b3b"/>
        </g>
      </g>
      <g id="Grupo_88620" data-name="Grupo 88620" transform="translate(121.604 31.945)">
        <g id="Grupo_88618" data-name="Grupo 88618">
          <path id="Trazado_146912" data-name="Trazado 146912" d="M213.86,105.749V96.234A7.544,7.544,0,0,1,221.4,88.69h38.252a7.544,7.544,0,0,1,7.544,7.544v9.515a7.544,7.544,0,0,1-7.544,7.544H221.4a7.544,7.544,0,0,1-7.544-7.544Z" transform="translate(-213.86 -88.69)" fill="#fff"/>
          <path id="Trazado_146913" data-name="Trazado 146913" d="M239.933,112.13l-1.723,16.352,15.4-16.1Z" transform="translate(-216.699 -91.422)" fill="#fff"/>
        </g>
        <g id="Grupo_88619" data-name="Grupo 88619" transform="translate(8.605 10.698)">
          <ellipse id="Elipse_4901" data-name="Elipse 4901" cx="2.836" cy="2.677" rx="2.836" ry="2.677" fill="#0a4494"/>
          <ellipse id="Elipse_4902" data-name="Elipse 4902" cx="2.836" cy="2.677" rx="2.836" ry="2.677" transform="translate(15.434)" fill="#0a4494"/>
          <ellipse id="Elipse_4903" data-name="Elipse 4903" cx="2.836" cy="2.677" rx="2.836" ry="2.677" transform="translate(30.452)" fill="#0a4494"/>
        </g>
      </g>
    </g>
    <g id="Grupo_88674" data-name="Grupo 88674" transform="translate(4.503 95.478)">
      <g id="Grupo_88630" data-name="Grupo 88630" transform="translate(182.607 20.783)">
        <g id="Grupo_88624" data-name="Grupo 88624" transform="translate(3.746 29.139)">
          <path id="Trazado_146914" data-name="Trazado 146914" d="M218.74,243.361c2.394-12.774,5.716-25.513,11.211-37.6a96.914,96.914,0,0,1,23.667-32.74c3.94-3.481,9.329-6.847,14.462-5.389s7.12,7.12,6.679,12.006c-.769,8.516-6.5,16.131-12.5,22.969C249.554,217.009,234.871,229.924,218.74,243.361Z" transform="translate(-218.74 -167.285)" fill="#ffd6d0"/>
          <g id="Grupo_88623" data-name="Grupo 88623" transform="translate(0.972 2.478)">
            <path id="Trazado_146915" data-name="Trazado 146915" d="M269.109,173.11a418.248,418.248,0,0,0-49.269,69.225" transform="translate(-219.84 -170.442)" fill="none" stroke="#cc8f8d" stroke-linecap="round" stroke-miterlimit="10" stroke-width="1"/>
            <g id="Grupo_88622" data-name="Grupo 88622" transform="translate(6.44)">
              <path id="Trazado_146916" data-name="Trazado 146916" d="M266.5,170.09a36.671,36.671,0,0,1,2.323,9.382,24.17,24.17,0,0,1,10.4.636" transform="translate(-231.719 -170.09)" fill="none" stroke="#cc8f8d" stroke-linecap="round" stroke-miterlimit="10" stroke-width="1"/>
              <path id="Trazado_146917" data-name="Trazado 146917" d="M249.26,185.13a22.969,22.969,0,0,1,4.974,11.485,30.593,30.593,0,0,1,15.955.883" transform="translate(-229.71 -171.843)" fill="none" stroke="#cc8f8d" stroke-linecap="round" stroke-miterlimit="10" stroke-width="1"/>
              <path id="Trazado_146918" data-name="Trazado 146918" d="M235.59,207.22a21.317,21.317,0,0,1,3.534,10.363,55.754,55.754,0,0,1,15.018-.945" transform="translate(-228.116 -174.418)" fill="none" stroke="#cc8f8d" stroke-linecap="round" stroke-miterlimit="10" stroke-width="1"/>
              <path id="Trazado_146919" data-name="Trazado 146919" d="M227.13,227.88a14.621,14.621,0,0,1,2.35,5.636,42.658,42.658,0,0,1,8.136-2.35" transform="translate(-227.13 -176.827)" fill="none" stroke="#cc8f8d" stroke-linecap="round" stroke-miterlimit="10" stroke-width="1"/>
            </g>
          </g>
        </g>
        <g id="Grupo_88626" data-name="Grupo 88626" transform="translate(0 73.892)">
          <path id="Trazado_146920" data-name="Trazado 146920" d="M214.5,252.129c11.926-11.22,24.056-22.651,39.542-30.337,3.967-1.97,8.3-3.719,12.863-3.843s9.356,1.767,10.76,5.3-.83,7.35-4.214,9.824-7.721,3.825-11.944,5.106C246.127,242.818,230.746,247.482,214.5,252.129Z" transform="translate(-214.5 -217.944)" fill="#ffd6d0"/>
          <g id="Grupo_88625" data-name="Grupo 88625" transform="translate(2.209 2.126)">
            <path id="Trazado_146921" data-name="Trazado 146921" d="M274.661,225.12A160.784,160.784,0,0,0,217,251.561" transform="translate(-217 -220.906)" fill="none" stroke="#cc8f8d" stroke-linecap="round" stroke-miterlimit="10" stroke-width="1"/>
            <path id="Trazado_146922" data-name="Trazado 146922" d="M273.357,220.35a17.669,17.669,0,0,1-1.087,6.431,9.656,9.656,0,0,1,4.806,5.442" transform="translate(-223.443 -220.35)" fill="none" stroke="#cc8f8d" stroke-linecap="round" stroke-miterlimit="10" stroke-width="1"/>
            <path id="Trazado_146923" data-name="Trazado 146923" d="M259.177,224.45a28.516,28.516,0,0,1-1.767,7.412,14.877,14.877,0,0,1,5.115,5.848" transform="translate(-221.711 -220.828)" fill="none" stroke="#cc8f8d" stroke-linecap="round" stroke-miterlimit="10" stroke-width="1"/>
            <path id="Trazado_146924" data-name="Trazado 146924" d="M243,232.9a15.372,15.372,0,0,1,0,5.857,10.186,10.186,0,0,1,6.14,3.684" transform="translate(-220.031 -221.813)" fill="none" stroke="#cc8f8d" stroke-linecap="round" stroke-miterlimit="10" stroke-width="1"/>
            <path id="Trazado_146925" data-name="Trazado 146925" d="M230.236,243.17a6.484,6.484,0,0,1-.486,3.322,9.373,9.373,0,0,1,5.76,2.306" transform="translate(-218.486 -223.01)" fill="none" stroke="#cc8f8d" stroke-linecap="round" stroke-miterlimit="10" stroke-width="1"/>
          </g>
        </g>
        <g id="Grupo_88629" data-name="Grupo 88629">
          <path id="Trazado_146926" data-name="Trazado 146926" d="M216.47,242.379q15.849-40.638,29-82.883c2.014-6.431,3.9-14.055,1.042-19.833-2.977-6.025-10.124-6.776-15.071-3.233S223.4,146.606,221.2,153.214C211.346,182.88,214.8,216.344,216.47,242.379Z" transform="translate(-214.5 -134.301)" fill="#ffd6d0"/>
          <g id="Grupo_88628" data-name="Grupo 88628" transform="translate(1.864 4.204)">
            <path id="Trazado_146927" data-name="Trazado 146927" d="M239.981,139.06c-12.783,24.056-18.72,59.393-22.421,103.229" transform="translate(-216.721 -139.06)" fill="none" stroke="#cc8f8d" stroke-linecap="round" stroke-miterlimit="10" stroke-width="1"/>
            <g id="Grupo_88627" data-name="Grupo 88627" transform="translate(0 2.906)">
              <path id="Trazado_146928" data-name="Trazado 146928" d="M223.35,160.68a30.143,30.143,0,0,1,6.343,9.585,30.708,30.708,0,0,1,13.455-4.859" transform="translate(-217.396 -144.487)" fill="none" stroke="#cc8f8d" stroke-linecap="round" stroke-miterlimit="10" stroke-width="1"/>
              <path id="Trazado_146929" data-name="Trazado 146929" d="M216.78,185.88a41.8,41.8,0,0,1,7.606,8.6,31.927,31.927,0,0,1,11.891-7.191" transform="translate(-216.63 -147.424)" fill="none" stroke="#cc8f8d" stroke-linecap="round" stroke-miterlimit="10" stroke-width="1"/>
              <path id="Trazado_146930" data-name="Trazado 146930" d="M216.61,211.319A17.668,17.668,0,0,1,220.842,216a28.871,28.871,0,0,1,8.066-5.221" transform="translate(-216.61 -150.327)" fill="none" stroke="#cc8f8d" stroke-linecap="round" stroke-miterlimit="10" stroke-width="1"/>
              <path id="Trazado_146931" data-name="Trazado 146931" d="M231.36,142.35a15.522,15.522,0,0,1,4.735,9.718,13.914,13.914,0,0,1,11.485-1.926" transform="translate(-218.329 -142.35)" fill="none" stroke="#cc8f8d" stroke-linecap="round" stroke-miterlimit="10" stroke-width="1"/>
            </g>
          </g>
        </g>
      </g>
      <g id="Grupo_88673" data-name="Grupo 88673">
        <g id="Grupo_88635" data-name="Grupo 88635" transform="translate(0 17.552)">
          <g id="Grupo_88632" data-name="Grupo 88632" transform="translate(102.021)">
            <path id="Trazado_146932" data-name="Trazado 146932" d="M137.07,145.8a258.775,258.775,0,0,1,23.084,75.8" transform="translate(-124.888 -132.411)" fill="none" stroke="#ffd6d0" stroke-linecap="round" stroke-miterlimit="10" stroke-width="2"/>
            <g id="Grupo_88631" data-name="Grupo 88631">
              <path id="Trazado_146933" data-name="Trazado 146933" d="M135.871,145.023a15.23,15.23,0,0,1-11.025-9.718c-.486-1.44-.592-3.322.716-4.232s3.145-.221,4.417.663C134.413,134.81,137.1,140.014,135.871,145.023Z" transform="translate(-123.424 -130.644)" fill="#ffd6d0"/>
              <path id="Trazado_146934" data-name="Trazado 146934" d="M139.748,148.973a28.34,28.34,0,0,1,.168-14.382,5.671,5.671,0,0,1,.8-1.882,2.226,2.226,0,0,1,1.723-.989,2.173,2.173,0,0,1,1.714.989,4.682,4.682,0,0,1,.689,1.908,14.753,14.753,0,0,1-.945,7.624A21.114,21.114,0,0,1,139.748,148.973Z" transform="translate(-125.101 -130.77)" fill="#ffd6d0"/>
              <path id="Trazado_146935" data-name="Trazado 146935" d="M143.9,157.142a26.918,26.918,0,0,1,2.465-13.084,11.705,11.705,0,0,1,3.26-4.417,2.73,2.73,0,0,1,2.721-.618,2.173,2.173,0,0,1,1.1,1.891,5.769,5.769,0,0,1-.477,2.235,41.61,41.61,0,0,1-9.073,13.993Z" transform="translate(-125.678 -131.606)" fill="#ffd6d0"/>
              <path id="Trazado_146936" data-name="Trazado 146936" d="M147.156,165.432a14.25,14.25,0,0,1,7.306-13.366c1.025-.548,2.323-.945,3.3-.309a2.465,2.465,0,0,1,.928,2.447,6.184,6.184,0,0,1-1.148,2.491,22.881,22.881,0,0,1-10.38,8.737Z" transform="translate(-126.06 -133.068)" fill="#ffd6d0"/>
              <path id="Trazado_146937" data-name="Trazado 146937" d="M150.06,175a17.024,17.024,0,0,1,9.117-13.835,2.7,2.7,0,0,1,2.65-.247,2.412,2.412,0,0,1,.751,2.412,10.857,10.857,0,0,1-2.871,5.3C157.074,171.608,154.009,174.108,150.06,175Z" transform="translate(-126.402 -134.146)" fill="#ffd6d0"/>
              <path id="Trazado_146938" data-name="Trazado 146938" d="M153.18,183.1a18.614,18.614,0,0,1,10.8-12.368,3.534,3.534,0,0,1,2.73-.247,2.456,2.456,0,0,1,1.281,2.315,5.124,5.124,0,0,1-.936,2.606,16.785,16.785,0,0,1-6.308,5.6C158.242,182.335,155.539,183.289,153.18,183.1Z" transform="translate(-126.765 -135.27)" fill="#ffd6d0"/>
              <path id="Trazado_146939" data-name="Trazado 146939" d="M138.334,152.957a16.476,16.476,0,0,0-11.979-7.324,3.463,3.463,0,0,0-1.97.23,2.527,2.527,0,0,0-.777,3.331c.751,1.458,2.429,2.156,4,2.65A31.521,31.521,0,0,0,138.334,152.957Z" transform="translate(-123.28 -132.386)" fill="#ffd6d0"/>
              <path id="Trazado_146940" data-name="Trazado 146940" d="M142.869,161.732a12.553,12.553,0,0,0-12.059-5.981,5.424,5.424,0,0,0-3.163,1.254,2.7,2.7,0,0,0-.7,3.136c.627,1.131,2.094,1.422,3.384,1.555a61.442,61.442,0,0,0,12.536.035Z" transform="translate(-123.681 -133.563)" fill="#ffd6d0"/>
              <path id="Trazado_146941" data-name="Trazado 146941" d="M146.2,171.534a15.478,15.478,0,0,0-13.561-5.071,5.044,5.044,0,0,0-2.341.8,2.226,2.226,0,0,0-.945,2.173,2.27,2.27,0,0,0,1.449,1.484,6.874,6.874,0,0,0,2.12.345C137.219,171.472,141.513,171.684,146.2,171.534Z" transform="translate(-123.985 -134.805)" fill="#ffd6d0"/>
              <path id="Trazado_146942" data-name="Trazado 146942" d="M149.824,181.508a16.785,16.785,0,0,0-6.617-5.68,10.5,10.5,0,0,0-8.552-.177,2.65,2.65,0,0,0-1.7,1.767,2.085,2.085,0,0,0,1.148,2.041,6.184,6.184,0,0,0,2.4.6Z" transform="translate(-124.407 -135.795)" fill="#ffd6d0"/>
              <path id="Trazado_146943" data-name="Trazado 146943" d="M152.161,189.749A16.264,16.264,0,0,0,140.005,184a5.725,5.725,0,0,0-3.534.883,2.571,2.571,0,0,0-.883,3.216c.627,1.051,2.032,1.272,3.251,1.378A95.21,95.21,0,0,0,152.161,189.749Z" transform="translate(-124.686 -136.862)" fill="#ffd6d0"/>
              <path id="Trazado_146944" data-name="Trazado 146944" d="M153.866,196.757c-3.207-2.96-8.022-3.445-12.368-2.809a5.486,5.486,0,0,0-3.092,1.21,2.147,2.147,0,0,0-.186,3,3.18,3.18,0,0,0,2.376.433A88.229,88.229,0,0,0,153.866,196.757Z" transform="translate(-124.96 -137.995)" fill="#ffd6d0"/>
              <path id="Trazado_146945" data-name="Trazado 146945" d="M156.183,204.777A9.144,9.144,0,0,0,150,201.756a17.916,17.916,0,0,0-6.979.981,5.831,5.831,0,0,0-2.421,1.254,2.3,2.3,0,0,0-.627,2.491c.557,1.193,2.173,1.325,3.481,1.21C147.128,207.383,150.776,206.385,156.183,204.777Z" transform="translate(-125.21 -138.931)" fill="#ffd6d0"/>
              <path id="Trazado_146946" data-name="Trazado 146946" d="M158.05,213.366c-4.364-2.376-9.718-3.534-14.347-1.714-1.157.442-2.4,1.316-2.323,2.553a2.2,2.2,0,0,0,1.334,1.767,5.557,5.557,0,0,0,2.253.38C148.871,216.334,152.687,215.274,158.05,213.366Z" transform="translate(-125.389 -139.984)" fill="#ffd6d0"/>
              <path id="Trazado_146947" data-name="Trazado 146947" d="M159.105,221.149a16.582,16.582,0,0,0-11.75-1.051,5.831,5.831,0,0,0-2.906,1.617,2.58,2.58,0,0,0-.3,3.11c.7.936,2.032,1.042,3.2,1.016C150.7,225.743,154.026,225.1,159.105,221.149Z" transform="translate(-125.668 -141)" fill="#ffd6d0"/>
              <path id="Trazado_146948" data-name="Trazado 146948" d="M155.91,192.194a13.826,13.826,0,0,1,8.49-9.762,6.246,6.246,0,0,1,3.419-.442,3.012,3.012,0,0,1,2.394,2.262,3.083,3.083,0,0,1-.883,2.5,7.951,7.951,0,0,1-2.235,1.573,35.992,35.992,0,0,1-11.184,3.869Z" transform="translate(-127.084 -136.622)" fill="#ffd6d0"/>
              <path id="Trazado_146949" data-name="Trazado 146949" d="M157.73,201.512a16.644,16.644,0,0,1,11.4-11.1,2.43,2.43,0,0,1,2.005.1c.8.565.7,1.767.3,2.7a11.079,11.079,0,0,1-5.221,4.938,51.635,51.635,0,0,1-8.481,3.366Z" transform="translate(-127.296 -137.591)" fill="#ffd6d0"/>
              <path id="Trazado_146950" data-name="Trazado 146950" d="M159.32,208.948a11.352,11.352,0,0,1,4.558-5.168,16.909,16.909,0,0,1,6.573-2.244,5.742,5.742,0,0,1,2.544.08,2.076,2.076,0,0,1,.883,3.657,5.83,5.83,0,0,1-1.767,1.042C168.41,207.782,164.488,208.321,159.32,208.948Z" transform="translate(-127.481 -138.896)" fill="#ffd6d0"/>
              <path id="Trazado_146951" data-name="Trazado 146951" d="M161.15,217.225c2.9-4.5,7.633-8.154,12.978-8.366,1.352-.053,2.977.318,3.41,1.6a2.368,2.368,0,0,1-.7,2.332,5.583,5.583,0,0,1-2.235,1.219C170.064,215.512,164.79,215.361,161.15,217.225Z" transform="translate(-127.695 -139.762)" fill="#ffd6d0"/>
            </g>
          </g>
          <g id="Grupo_88634" data-name="Grupo 88634" transform="translate(0 77.343)">
            <path id="Trazado_146952" data-name="Trazado 146952" d="M19.32,232.788a199.328,199.328,0,0,1,94.854,16.255" transform="translate(-9.14 -219.83)" fill="none" stroke="#ffd6d0" stroke-linecap="round" stroke-miterlimit="10" stroke-width="2"/>
            <g id="Grupo_88633" data-name="Grupo 88633">
              <path id="Trazado_146953" data-name="Trazado 146953" d="M23.445,231.992a12.112,12.112,0,0,0-14.055.442,4.567,4.567,0,0,0-1.36,1.572,2.076,2.076,0,0,0,.053,2.005,2.968,2.968,0,0,0,2.765.883,22.969,22.969,0,0,0,12.6-4.9Z" transform="translate(-7.797 -219.564)" fill="#ffd6d0"/>
              <path id="Trazado_146954" data-name="Trazado 146954" d="M33.357,232.24a13.905,13.905,0,0,0-8.56,6.131,5.477,5.477,0,0,0-.883,2.138,2.209,2.209,0,0,0,2.968,2.518,5.212,5.212,0,0,0,2.041-1.281C32.094,238.777,33.7,234.051,33.357,232.24Z" transform="translate(-9.67 -219.83)" fill="#ffd6d0"/>
              <path id="Trazado_146955" data-name="Trazado 146955" d="M46.875,232.86a15.76,15.76,0,0,0-11.423,10.813c-.318,1.078-.389,2.482.557,3.092s2.332-.159,3.216-.989a26.167,26.167,0,0,0,7.65-12.916Z" transform="translate(-10.996 -219.903)" fill="#ffd6d0"/>
              <path id="Trazado_146956" data-name="Trazado 146956" d="M58.565,233.3c-4.912,1.917-8.719,5.972-11.644,10.363a6.626,6.626,0,0,0-1.193,2.624,2.191,2.191,0,0,0,3.41,2.368,6.555,6.555,0,0,0,1.767-1.767A55.161,55.161,0,0,0,58.565,233.3Z" transform="translate(-12.209 -219.954)" fill="#ffd6d0"/>
              <path id="Trazado_146957" data-name="Trazado 146957" d="M67.177,234.53a13.331,13.331,0,0,0-8.578,10.5,5.027,5.027,0,0,0,.08,2.209,2.315,2.315,0,0,0,1.44,1.581,2.447,2.447,0,0,0,2.474-.883,7.2,7.2,0,0,0,1.219-2.474,113.739,113.739,0,0,0,3.366-10.928Z" transform="translate(-13.709 -220.097)" fill="#ffd6d0"/>
              <path id="Trazado_146958" data-name="Trazado 146958" d="M74.9,235.38a32.448,32.448,0,0,0-4.2,6.3,10.84,10.84,0,0,0-.883,7.368c.212.716.627,1.493,1.352,1.608a2.005,2.005,0,0,0,1.67-.822,12.368,12.368,0,0,0,3.012-6.237,13.9,13.9,0,0,0-.954-8.216Z" transform="translate(-14.994 -220.196)" fill="#ffd6d0"/>
              <path id="Trazado_146959" data-name="Trazado 146959" d="M87.35,237.86a10.054,10.054,0,0,0-4.417,4.02,23.728,23.728,0,0,0-2.368,5.574,6.493,6.493,0,0,0-.415,2.385,2.129,2.129,0,0,0,3.808,1.413,5.981,5.981,0,0,0,1.361-2.544A68.394,68.394,0,0,0,87.35,237.86Z" transform="translate(-16.231 -220.485)" fill="#ffd6d0"/>
              <path id="Trazado_146960" data-name="Trazado 146960" d="M29.175,230.336a13.578,13.578,0,0,1-8.119-6.961,2.306,2.306,0,0,1-.327-1.343,1.935,1.935,0,0,1,1.687-1.467,4.417,4.417,0,0,1,3.958,1.6,10.672,10.672,0,0,1,2,3.958,13.3,13.3,0,0,1,.8,4.214Z" transform="translate(-9.304 -218.466)" fill="#ffd6d0"/>
              <path id="Trazado_146961" data-name="Trazado 146961" d="M41.031,231.091a17.059,17.059,0,0,1-6.643-7.067,5.751,5.751,0,0,1-.671-2.1,2.156,2.156,0,0,1,3.083-2.27,5.3,5.3,0,0,1,1.935,1.458C40.784,223.37,42.021,226.329,41.031,231.091Z" transform="translate(-10.815 -218.337)" fill="#ffd6d0"/>
              <path id="Trazado_146962" data-name="Trazado 146962" d="M53.705,231.168A12.527,12.527,0,0,1,47.7,219.86a1.767,1.767,0,0,1,.716-1.573,1.254,1.254,0,0,1,1.29.2,3.348,3.348,0,0,1,.883,1.078A23.941,23.941,0,0,1,53.705,231.168Z" transform="translate(-12.446 -218.193)" fill="#ffd6d0"/>
              <path id="Trazado_146963" data-name="Trazado 146963" d="M64.911,232.13a10.91,10.91,0,0,1-5.3-9c0-1.2.274-2.58,1.334-3.136a2.465,2.465,0,0,1,2.412.23,5.363,5.363,0,0,1,1.652,1.9C66.8,225.186,67.393,228.923,64.911,232.13Z" transform="translate(-13.837 -218.378)" fill="#ffd6d0"/>
              <path id="Trazado_146964" data-name="Trazado 146964" d="M74.14,233.883a6.582,6.582,0,0,1-3.048-4.249,16.945,16.945,0,0,1-.265-5.3,6.988,6.988,0,0,1,.689-3.065,2.518,2.518,0,0,1,2.65-1.352A3.353,3.353,0,0,1,76.19,222.4a12.085,12.085,0,0,1-2.05,11.485Z" transform="translate(-15.133 -218.39)" fill="#ffd6d0"/>
              <path id="Trazado_146965" data-name="Trazado 146965" d="M84.333,235.542a11.75,11.75,0,0,1-.371-12.368c.433-.733,1.113-1.493,1.961-1.4s1.29.883,1.608,1.572A10.1,10.1,0,0,1,84.333,235.542Z" transform="translate(-16.491 -218.609)" fill="#ffd6d0"/>
            </g>
          </g>
        </g>
        <g id="Grupo_88672" data-name="Grupo 88672" transform="translate(7.167)">
          <g id="Grupo_88652" data-name="Grupo 88652" transform="translate(85.684)">
            <path id="Trazado_146966" data-name="Trazado 146966" d="M166.71,185.578l-2.845-9.718s-7.651,3.3-10.08,8.384c-5.5,11.485-8.967,33.888-11.2,37.007s-29.683,6.855-29.683,6.855l2.809,14.135s33.57-2.421,38.076-6.4c6.087-5.371,13.428-28.747,13.428-28.747Z" transform="translate(-112.9 -118.363)" fill="#ea3584"/>
            <g id="Grupo_88651" data-name="Grupo 88651" transform="translate(33.657)">
              <path id="Trazado_146967" data-name="Trazado 146967" d="M193.589,120.252c.954-3.967,5.239-6.661,9.3-6.325a11.625,11.625,0,0,1,9.294,7.067,16.785,16.785,0,0,1,.141,11.979c-.883,2.65-2.306,5.415-1.3,7.951.742,1.917,2.65,3.1,4.541,3.94s3.914,1.475,5.442,2.853,2.376,3.808,1.237,5.521c-1.643,2.482-6.184,2.014-7.226,4.806-.53,1.422.212,2.995.124,4.514a5.477,5.477,0,0,1-3.26,4.364,13.481,13.481,0,0,1-5.583,1.042c-3.357.079-6.855-.2-9.762-1.873s-5.036-5.062-4.338-8.348c.565-2.65,2.906-5.177,2.085-7.8-.583-1.9-2.58-2.924-4-4.3-3.021-2.933-3.534-7.757-2.279-11.785S192.087,126.489,193.589,120.252Z" transform="translate(-155.238 -111.14)" fill="#6b2e40"/>
              <g id="Grupo_88641" data-name="Grupo 88641" transform="translate(6.302 38.105)">
                <g id="Grupo_88637" data-name="Grupo 88637">
                  <g id="Grupo_88636" data-name="Grupo 88636" transform="translate(14.858)">
                    <path id="Trazado_146968" data-name="Trazado 146968" d="M196.285,166.363c-4.788,7.394-13.251,15.707-16.282,15.31-2.5-.336-5.053-3.843-5.053-10.027a4.091,4.091,0,0,0,1.034-.592,5.716,5.716,0,0,0,1.767-2.4,3.957,3.957,0,0,0,.239-.777,5.76,5.76,0,0,0-1.148-4.894l-.159-.186A87.857,87.857,0,0,1,188.8,153.96a18.552,18.552,0,0,0,1.546,6.59c.212.451.433.883.68,1.3A10.654,10.654,0,0,0,196.285,166.363Z" transform="translate(-174.95 -153.916)" fill="#fac8bf"/>
                    <path id="Trazado_146969" data-name="Trazado 146969" d="M190.492,160.447c-2.968,4.126-8.11,10.645-14.382,10.548a5.663,5.663,0,0,0,1.767-2.4,4.2,4.2,0,0,0,.239-.777,5.76,5.76,0,0,0-1.148-4.894c-.062-.062-.106-.124-.168-.177a87.2,87.2,0,0,1,12.129-8.834A18.552,18.552,0,0,0,190.492,160.447Z" transform="translate(-175.085 -153.91)" fill="#eda19f"/>
                  </g>
                  <path id="Trazado_146970" data-name="Trazado 146970" d="M192.566,166.64s-6.838,14.541-15.018,14.939c-4.656.221-3.878-9.824-3.878-9.824s-7.774,3.649-10.018,6.431c-2.588,3.207-5.778,22.7-5.5,27.793.495,9.188,5.3,15.186,5.3,20.177s-3.622,16.979-3.622,16.979l49.41-.133a129.193,129.193,0,0,1-3.119-21.909c-.512-11.281,5.239-36.486,3.163-43.588C207.867,172.515,192.566,166.64,192.566,166.64Z" transform="translate(-158.131 -155.394)" fill="#ea3584"/>
                </g>
                <g id="Grupo_88640" data-name="Grupo 88640" transform="translate(6.543 10.663)">
                  <g id="Grupo_88638" data-name="Grupo 88638">
                    <path id="Trazado_146971" data-name="Trazado 146971" d="M179.93,181.52s10.716-4.126,14.753-15.54c0,0,5.857,1.687,6.237,2.65.627,1.617-2.129,13.251-5.6,14.956C192.36,185.089,179.93,181.52,179.93,181.52Z" transform="translate(-167.215 -165.98)" fill="#ff9fc9"/>
                    <path id="Trazado_146972" data-name="Trazado 146972" d="M178.252,182.105s-3.534-5.053-2.147-11.025a16.785,16.785,0,0,0-4.806,2.6c-2.465,2.235-6.749,11.043-5.557,11.917C166.573,186.187,178.252,182.105,178.252,182.105Z" transform="translate(-165.538 -166.575)" fill="#ff9fc9"/>
                  </g>
                  <g id="Grupo_88639" data-name="Grupo 88639" transform="translate(9.526 19.082)">
                    <ellipse id="Elipse_4904" data-name="Elipse 4904" cx="1.475" cy="1.475" rx="1.475" ry="1.475" transform="translate(1.051)" fill="#bf4753"/>
                    <ellipse id="Elipse_4905" data-name="Elipse 4905" cx="1.475" cy="1.475" rx="1.475" ry="1.475" transform="translate(0 9.09)" fill="#bf4753"/>
                  </g>
                </g>
              </g>
              <g id="Grupo_88650" data-name="Grupo 88650">
                <g id="Grupo_88648" data-name="Grupo 88648">
                  <ellipse id="Elipse_4906" data-name="Elipse 4906" cx="6.378" cy="9.126" rx="6.378" ry="9.126" transform="translate(0 24.516) rotate(-9.93)" fill="#0387d9"/>
                  <g id="Grupo_88642" data-name="Grupo 88642" transform="translate(5.612 4.14)">
                    <path id="Trazado_146973" data-name="Trazado 146973" d="M195.3,140.329c1.555-12.368-5.566-23.42-15.9-24.736s-21.511,7.491-21.511,19.93c0,16.785,6.688,27.475,16.706,25.522C184.216,159.146,193.757,152.661,195.3,140.329Z" transform="translate(-157.413 -115.463)" fill="#fac8bf"/>
                    <path id="Trazado_146974" data-name="Trazado 146974" d="M193.314,139.28a11.308,11.308,0,0,1-8-5.742,5.46,5.46,0,0,1-2.023,5.2,2.182,2.182,0,0,1-2.076.5,2.359,2.359,0,0,1-1.113-1.254,9.232,9.232,0,0,1-.7-5.937,11.741,11.741,0,0,1-8.375,6.741,3.039,3.039,0,0,1-2.853-.548,2.35,2.35,0,0,1-.327-2.359,6.75,6.75,0,0,1,1.387-2.067,16.918,16.918,0,0,1-11.891,2.889,22.669,22.669,0,0,1,9.815-13.976,17.918,17.918,0,0,1,16.785-1.122,14.72,14.72,0,0,1,8.322,14.214" transform="translate(-157.35 -115.995)" fill="#eda19f"/>
                  </g>
                  <g id="Grupo_88643" data-name="Grupo 88643" transform="translate(4.07 0.152)">
                    <path id="Trazado_146975" data-name="Trazado 146975" d="M193.633,145.51a41.158,41.158,0,0,0-1.9-6.847,24.082,24.082,0,0,1-7.191-9.276,2.735,2.735,0,0,0,0,.38c-.071,2.853-2.094,8.3-2.977,7.73-1.458-.883-1.228-10.8-1.846-16.211A16.246,16.246,0,0,1,178.094,131a11.485,11.485,0,0,1-7.712,5.9,1.343,1.343,0,0,1-1.237-.212c-.371-.406-.186-1.034,0-1.528,1.643-3.887,3.3-7.756,4.912-11.635-1.281,2.995-2.765,5.919-5.3,7.854-2.827,2.191-6.6,3.154-10.8,3.11a24.039,24.039,0,0,0,0,6.661,19.347,19.347,0,0,1-2.094-6.264,20.716,20.716,0,0,1,24.639-23.517,20.381,20.381,0,0,1,4.709.83,20.08,20.08,0,0,1,13.075,12.112A20.566,20.566,0,0,1,193.633,145.51Z" transform="translate(-155.606 -110.948)" fill="#904b57"/>
                    <path id="Trazado_146976" data-name="Trazado 146976" d="M185.2,112.235a30.31,30.31,0,0,0-18.481,4.417c-6.184,3.993-10.6,10.972-10.857,18.269A20.716,20.716,0,0,1,180.5,111.414,20.213,20.213,0,0,1,185.2,112.235Z" transform="translate(-155.605 -110.953)" fill="#bd7d81"/>
                  </g>
                  <g id="Grupo_88645" data-name="Grupo 88645" transform="translate(11.343)">
                    <path id="Trazado_146977" data-name="Trazado 146977" d="M192.109,137.477s1.157-13.251-6.5-19.374c-9.267-7.359-21.75-2.226-21.75-2.226s-.751-1.767,6.926-4.152c3.763-1.175,12.889-2.315,19.162,3.534,7.491,6.944,7.067,19.109,7.067,19.109Z" transform="translate(-163.837 -110.777)" fill="#0a4494"/>
                    <g id="Grupo_88644" data-name="Grupo 88644" transform="translate(24.766 22.774)">
                      <path id="Trazado_146978" data-name="Trazado 146978" d="M191.985,144.82c.654-5,4.02-8.684,7.509-8.225s5.8,4.885,5.142,9.886-4.02,8.675-7.518,8.216S191.322,149.811,191.985,144.82Z" transform="translate(-191.871 -136.556)" fill="#0387d9"/>
                      <path id="Trazado_146979" data-name="Trazado 146979" d="M197.1,145.583c.592-4.461,2.906-7.827,5.168-7.536s3.631,4.152,3.048,8.613-2.9,7.836-5.168,7.536S196.519,150.045,197.1,145.583Z" transform="translate(-192.465 -136.728)" fill="#75c0e0"/>
                    </g>
                  </g>
                  <g id="Grupo_88647" data-name="Grupo 88647" transform="translate(7.803 26.311)">
                    <path id="Trazado_146980" data-name="Trazado 146980" d="M182.666,142.75a6.37,6.37,0,0,0-6.926-1.431" transform="translate(-161.685 -140.594)" fill="none" stroke="#904b57" stroke-linecap="round" stroke-miterlimit="10" stroke-width="2"/>
                    <path id="Trazado_146981" data-name="Trazado 146981" d="M166.014,141.549a4.665,4.665,0,0,0-6.184.389" transform="translate(-159.83 -140.559)" fill="none" stroke="#904b57" stroke-linecap="round" stroke-miterlimit="10" stroke-width="2"/>
                    <path id="Trazado_146982" data-name="Trazado 146982" d="M168.838,148.12a16.786,16.786,0,0,0,.512,4.868" transform="translate(-160.878 -141.441)" fill="none" stroke="#b35267" stroke-linecap="round" stroke-miterlimit="10" stroke-width="2"/>
                    <ellipse id="Elipse_4907" data-name="Elipse 4907" cx="0.954" cy="1.458" rx="0.954" ry="1.458" transform="translate(15.61 5.213)" fill="#363857"/>
                    <ellipse id="Elipse_4908" data-name="Elipse 4908" cx="0.954" cy="1.458" rx="0.954" ry="1.458" transform="translate(2.129 5.213)" fill="#363857"/>
                    <g id="Grupo_88646" data-name="Grupo 88646" transform="translate(10.292 12.077)">
                      <path id="Trazado_146983" data-name="Trazado 146983" d="M176.869,159.946a3.64,3.64,0,0,1-3.869-.883,6.44,6.44,0,0,1-1.52-2.65l.239-.071,7.138-2.111a7.232,7.232,0,0,1,.336.963,4.215,4.215,0,0,1,.141.724,3.3,3.3,0,0,1-2.465,4.028Z" transform="translate(-171.48 -154.23)" fill="#b35267"/>
                      <path id="Trazado_146984" data-name="Trazado 146984" d="M179.225,155.212a41.971,41.971,0,0,1-6.458,1.767,1.59,1.59,0,0,1-1.007-.627l7.138-2.111a6.6,6.6,0,0,1,.327.972Z" transform="translate(-171.513 -154.231)" fill="#ffedef"/>
                      <path id="Trazado_146985" data-name="Trazado 146985" d="M177.069,160.166a3.64,3.64,0,0,1-3.869-.883,9.25,9.25,0,0,1,6.334-3.163,3.3,3.3,0,0,1-2.465,4.046Z" transform="translate(-171.68 -154.45)" fill="#e6919d"/>
                    </g>
                  </g>
                </g>
                <g id="Grupo_88649" data-name="Grupo 88649" transform="translate(7.657 41.277)">
                  <path id="Trazado_146986" data-name="Trazado 146986" d="M169.414,167.315a10.681,10.681,0,0,1-6.52-2.65,8.958,8.958,0,0,1-3.225-7.165" transform="translate(-159.665 -157.5)" fill="none" stroke="#363857" stroke-miterlimit="10" stroke-width="1"/>
                  <ellipse id="Elipse_4909" data-name="Elipse 4909" cx="2.959" cy="1.802" rx="2.959" ry="1.802" transform="translate(7.946 8.013)" fill="#363857"/>
                </g>
              </g>
            </g>
          </g>
          <g id="Grupo_88653" data-name="Grupo 88653" transform="translate(0 122.685)">
            <path id="Trazado_146987" data-name="Trazado 146987" d="M15.91,258.193v3.516l190.768.406,42.166-9.073V249.65Z" transform="translate(-15.91 -249.65)" fill="#091320"/>
            <path id="Trazado_146988" data-name="Trazado 146988" d="M84.782,249.712l164.062-.062-42.466,8.613L15.91,258.193Z" transform="translate(-15.91 -249.65)" fill="#fff"/>
          </g>
          <g id="Grupo_88666" data-name="Grupo 88666" transform="translate(62.335 55.509)">
            <g id="Grupo_88655" data-name="Grupo 88655" transform="translate(0 52.749)" opacity="0.95">
              <g id="Grupo_88654" data-name="Grupo 88654" transform="translate(0 6.031)">
                <path id="Trazado_146989" data-name="Trazado 146989" d="M110.9,249.523c-3.534.433-7.562.716-11.776.883s-8.348.221-12.651.221a15.018,15.018,0,0,1,6.5-8.649,12.908,12.908,0,0,1,3.145-1.352,11.539,11.539,0,0,1,14.78,8.9Z" transform="translate(-86.47 -240.147)" fill="#12252b"/>
                <path id="Trazado_146990" data-name="Trazado 146990" d="M99.121,250.44c-4.081.159-8.348.221-12.651.221a15.018,15.018,0,0,1,6.5-8.649,12.908,12.908,0,0,1,3.145-1.352,7.783,7.783,0,0,1,2.8,4.338,14.462,14.462,0,0,1,.2,5.442Z" transform="translate(-86.47 -240.206)" fill="#597375"/>
              </g>
              <path id="Trazado_146991" data-name="Trazado 146991" d="M113.109,245.5a11.617,11.617,0,0,1-6.52,1.06c-.883,1.2-5.548,5.1-6.732,4.064-.883-.8,2.421-4.055,3.092-5.3a6.564,6.564,0,0,0,.883-2.968c-1.131-1.36-3.392-2.65-4.85-2.3-2.27.574-5.053,3.887-7.889,6.29a3.764,3.764,0,0,1-1.263.813,1.184,1.184,0,0,1-1.334-.371c-.557-.751-.1-1.9.389-2.7a36.75,36.75,0,0,1,9.806-10.769,39.753,39.753,0,0,1,12.368,3.719A21.671,21.671,0,0,1,113.109,245.5Z" transform="translate(-86.677 -233.32)" fill="#fac8bf"/>
            </g>
            <g id="Grupo_88665" data-name="Grupo 88665" transform="translate(18.04)">
              <g id="Grupo_88656" data-name="Grupo 88656" transform="translate(0 65.409)">
                <path id="Trazado_146992" data-name="Trazado 146992" d="M106.89,249.956v2.633h75.657l16.723-3.278V247.65Z" transform="translate(-106.89 -247.65)" fill="#091320"/>
                <path id="Trazado_146993" data-name="Trazado 146993" d="M134.206,247.668l65.065-.018-16.838,2.323-75.542-.018Z" transform="translate(-106.89 -247.65)" fill="#324b4f"/>
              </g>
              <g id="Grupo_88664" data-name="Grupo 88664" transform="translate(65.806)">
                <g id="Grupo_88661" data-name="Grupo 88661" transform="translate(0 50.063)">
                  <path id="Trazado_146994" data-name="Trazado 146994" d="M206.461,231.2s-5.2,5.15-.1,13.569a6.5,6.5,0,0,0,4.9-6.184C211.523,235.237,206.461,231.2,206.461,231.2Z" transform="translate(-184.03 -230.386)" fill="#bf4753"/>
                  <g id="Grupo_88660" data-name="Grupo 88660">
                    <g id="Grupo_88657" data-name="Grupo 88657">
                      <path id="Trazado_146995" data-name="Trazado 146995" d="M206.885,239.582c-.177.309-2.35.61-3.922.76h-2.191a2.733,2.733,0,0,1-1.7,3.225,3.8,3.8,0,0,1-3.286-1.157,3.1,3.1,0,0,1-3.428.574,5.071,5.071,0,0,1-2.191-3.852,6.846,6.846,0,0,0-.3,2.58c.2.742,2.871,4.417.945,5.009-.883.283-3.808-2.862-4.143-4.24a11.025,11.025,0,0,1,.574-6.378c-1.67,2.014-2.27,3.012-2.447,3.861-.459,2.173-.1,6.043-1.626,5.91-1.829,0-2.173-5.513-1.422-7.88.53-1.705,3.94-7.067,5.769-7.536,1.7-.415,10.893,0,12.624.212.883.133,1.723.221,2.509.292,2.173.194,3.887.177,3.984.256C207.706,232.356,207.353,238.664,206.885,239.582Z" transform="translate(-181.379 -230.279)" fill="#fac8bf"/>
                      <path id="Trazado_146996" data-name="Trazado 146996" d="M209.692,239.673c-.177.309-2.35.61-3.922.76a10.734,10.734,0,0,0,.76-2.827,11.661,11.661,0,0,0-1.069-6.546c2.164.186,3.878.177,3.975.256C210.513,232.447,210.16,238.755,209.692,239.673Z" transform="translate(-184.186 -230.37)" fill="#eda19f"/>
                    </g>
                    <g id="Grupo_88659" data-name="Grupo 88659" transform="translate(12.077 5.505)">
                      <path id="Trazado_146997" data-name="Trazado 146997" d="M195.05,236.51a11.626,11.626,0,0,0,2.076,6.184" transform="translate(-195.05 -236.51)" fill="none" stroke="#b35267" stroke-linecap="round" stroke-miterlimit="10" stroke-width="1"/>
                      <g id="Grupo_88658" data-name="Grupo 88658" transform="translate(5.566 2.721)">
                        <path id="Trazado_146998" data-name="Trazado 146998" d="M202.947,241.487a3.278,3.278,0,0,1-1.157-.707" transform="translate(-201.401 -239.729)" fill="none" stroke="#b35267" stroke-linecap="round" stroke-miterlimit="10" stroke-width="1"/>
                        <path id="Trazado_146999" data-name="Trazado 146999" d="M201.7,239.59a3.7,3.7,0,0,1-.353,2.129" transform="translate(-201.35 -239.59)" fill="none" stroke="#b35267" stroke-linecap="round" stroke-miterlimit="10" stroke-width="1"/>
                      </g>
                    </g>
                  </g>
                </g>
                <g id="Grupo_88663" data-name="Grupo 88663" transform="translate(17.952)">
                  <path id="Trazado_147000" data-name="Trazado 147000" d="M219.724,182.259c-1.449-3.313-5.839-6.378-9.947-8.649l-.406.23A29.064,29.064,0,0,0,203.3,179.5c-.079.088-.15.186-.221.274,1.14,7.474,2.571,16.979,3.092,20.513,1.087,7.385,9.267,21.653,9.161,23.146s-9.161.716-9.161.716c3.613,5.027,2.783,10.371-.062,13.764,0,0,23.437,1.343,26.256-2.35S221.826,187.1,219.724,182.259Z" transform="translate(-201.861 -173.61)" fill="#ea3584"/>
                  <g id="Grupo_88662" data-name="Grupo 88662" transform="translate(0 5.539)">
                    <path id="Trazado_147001" data-name="Trazado 147001" d="M210.489,179.88a51.239,51.239,0,0,0,1.449,35.178" transform="translate(-202.441 -179.88)" fill="none" stroke="#eb6e6a" stroke-linecap="round" stroke-miterlimit="10" stroke-width="1"/>
                    <path id="Trazado_147002" data-name="Trazado 147002" d="M201.7,201.87a25.849,25.849,0,0,0,8.507,13.251" transform="translate(-201.7 -182.443)" fill="none" stroke="#eb6e6a" stroke-linecap="round" stroke-miterlimit="10" stroke-width="1"/>
                  </g>
                  <path id="Trazado_147003" data-name="Trazado 147003" d="M207.17,230.74a16.185,16.185,0,0,0,4.073.4" transform="translate(-202.338 -180.27)" fill="none" stroke="#eb6e6a" stroke-linecap="round" stroke-miterlimit="10" stroke-width="1"/>
                  <path id="Trazado_147004" data-name="Trazado 147004" d="M213.51,246.663c-2.518,0-4.134-.071-6.59-.2" transform="translate(-202.309 -182.102)" fill="none" stroke="#eb6e6a" stroke-linecap="round" stroke-miterlimit="10" stroke-width="1"/>
                </g>
              </g>
            </g>
          </g>
          <g id="Grupo_88671" data-name="Grupo 88671" transform="translate(15.08 45.42)">
            <g id="Grupo_88667" data-name="Grupo 88667">
              <path id="Trazado_147005" data-name="Trazado 147005" d="M36,231.133,32.98,162.19H127.5l3.021,68.943Z" transform="translate(-32.98 -162.19)" fill="#091320"/>
              <path id="Trazado_147006" data-name="Trazado 147006" d="M139.321,231.133,136.3,162.19h3.242l3.021,68.943Z" transform="translate(-45.024 -162.19)" fill="#324b4f"/>
            </g>
            <g id="Grupo_88670" data-name="Grupo 88670" transform="translate(22.13 45.585)">
              <g id="Grupo_88668" data-name="Grupo 88668" transform="translate(8.119)">
                <path id="Trazado_147007" data-name="Trazado 147007" d="M67.22,250.814l8.825-37.024h17.13l-8.817,37.024Z" transform="translate(-67.22 -213.79)" fill="#12252b"/>
                <path id="Trazado_147008" data-name="Trazado 147008" d="M85.37,250.814l8.817-37.024h1.1l-8.817,37.024Z" transform="translate(-69.336 -213.79)" fill="#324b4f"/>
              </g>
              <g id="Grupo_88669" data-name="Grupo 88669" transform="translate(0 33.155)">
                <rect id="Rectángulo_34328" data-name="Rectángulo 34328" width="34.931" height="3.869" fill="#12252b"/>
                <rect id="Rectángulo_34329" data-name="Rectángulo 34329" width="2.253" height="3.869" transform="translate(32.678)" fill="#324b4f"/>
              </g>
            </g>
          </g>
        </g>
      </g>
    </g>
  </g>
</svg>
