<svg xmlns="http://www.w3.org/2000/svg" width="84.999" height="80.685" viewBox="0 0 84.999 80.685">
  <g id="Grupo_874495" data-name="Grupo 874495" transform="translate(-1020 -2321.705)">
    <g id="Grupo_874261" data-name="Grupo 874261" transform="translate(2.206 6.067)">
      <path id="Trazado_594300" data-name="Trazado 594300" d="M119.42,117.937S118.032,80.212,117.68,70.2a11.283,11.283,0,0,0-2.883-7.607,12.94,12.94,0,0,1,.971,4.657c.351,10.012,1.739,47.738,1.739,47.738s2.051,14.35-14.1,12.61S49,120.052,49,120.052l-6.283-.934a12.033,12.033,0,0,1-5.556-3.2c2.02,4.978,7.469,6.152,7.469,6.152l6.283.934s38.248,5.805,54.4,7.545,14.1-12.61,14.1-12.61" transform="translate(983.289 2265.628)" fill="#ffeeb0"/>
      <path id="serpentina-profesional-joven-bella-mujer-transmision-vivo-corriente_236999-23" d="M37.2,29.342,42.17,14.36A10.355,10.355,0,0,1,53.365,8.583l44.2,6.129A10.908,10.908,0,0,1,107,25.693c.351,10.012,1.739,47.738,1.739,47.738s2.051,14.35-14.1,12.61-54.4-7.545-54.4-7.545l-6.283-.934S22.993,75.2,26.394,62.985,37.2,29.342,37.2,29.342" transform="translate(992.055 2307.184)" fill="#ea3584"/>
    </g>
    <path id="Trazado_594512" data-name="Trazado 594512" d="M-2.109-13.228q0,6.636-2.747,10.151T-12.9.439q-5.229,0-8-3.45T-23.73-12.9v-5.889q0-6.7,2.78-10.173t8.009-3.472q5.229,0,8,3.439t2.834,9.877ZM-8.459-19.7q0-3.981-1.088-5.8a3.676,3.676,0,0,0-3.395-1.814,3.61,3.61,0,0,0-3.307,1.727,10.964,10.964,0,0,0-1.132,5.4V-12.4a12.3,12.3,0,0,0,1.066,5.817A3.627,3.627,0,0,0-12.9-4.68,3.566,3.566,0,0,0-9.536-6.506a12,12,0,0,0,1.077-5.587ZM19.4-32.322v5.229h-.615a10.788,10.788,0,0,0-6.932,2.241A9.106,9.106,0,0,0,8.7-18.809,8.649,8.649,0,0,1,15.139-21.4a8.149,8.149,0,0,1,6.636,2.988,11.979,11.979,0,0,1,2.461,7.866A11.783,11.783,0,0,1,22.885-4.9,9.691,9.691,0,0,1,19.061-.967,11.107,11.107,0,0,1,13.469.439,10.374,10.374,0,0,1,5.306-3.076Q2.2-6.592,2.2-12.458v-2.285a20.537,20.537,0,0,1,1.967-9.2,14.42,14.42,0,0,1,5.647-6.174,16.548,16.548,0,0,1,8.536-2.208Zm-6.2,16.04a5.074,5.074,0,0,0-2.791.8,4.823,4.823,0,0,0-1.846,2.116v1.93A8.55,8.55,0,0,0,9.822-6.468,4.047,4.047,0,0,0,13.337-4.68a4,4,0,0,0,3.307-1.612,6.574,6.574,0,0,0,1.263-4.178,6.562,6.562,0,0,0-1.274-4.211A4.154,4.154,0,0,0,13.206-16.282Z" transform="translate(1066 2377)" fill="#fff"/>
  </g>
</svg>
